<?xml version="1.0" encoding="UTF-8" standalone="no"?>
<!-- Created with Inkscape (http://www.inkscape.org/) -->

<svg
   xmlns:dc="http://purl.org/dc/elements/1.1/"
   xmlns:cc="http://creativecommons.org/ns#"
   xmlns:rdf="http://www.w3.org/1999/02/22-rdf-syntax-ns#"
   xmlns:svg="http://www.w3.org/2000/svg"
   xmlns="http://www.w3.org/2000/svg"
   xmlns:sodipodi="http://sodipodi.sourceforge.net/DTD/sodipodi-0.dtd"
   xmlns:inkscape="http://www.inkscape.org/namespaces/inkscape"
   width="210mm"
   height="74.299957mm"
   viewBox="0 0 210 74.299957"
   version="1.1"
   id="svg8"
   inkscape:version="0.92.2 (5c3e80d, 2017-08-06)"
   sodipodi:docname="3030.svg">
  <defs
     id="defs2" />
  <sodipodi:namedview
     id="base"
     pagecolor="#ffffff"
     bordercolor="#666666"
     borderopacity="1.0"
     inkscape:pageopacity="0.0"
     inkscape:pageshadow="2"
     inkscape:zoom="0.49497475"
     inkscape:cx="373.76813"
     inkscape:cy="-91.916496"
     inkscape:document-units="mm"
     inkscape:current-layer="layer1"
     showgrid="false"
     fit-margin-left="10"
     fit-margin-top="0"
     fit-margin-right="0"
     fit-margin-bottom="0"
     inkscape:window-width="1920"
     inkscape:window-height="996"
     inkscape:window-x="-9"
     inkscape:window-y="-9"
     inkscape:window-maximized="1" />
  <metadata
     id="metadata5">
    <rdf:RDF>
      <cc:Work
         rdf:about="">
        <dc:format>image/svg+xml</dc:format>
        <dc:type
           rdf:resource="http://purl.org/dc/dcmitype/StillImage" />
        <dc:title></dc:title>
      </cc:Work>
    </rdf:RDF>
  </metadata>
  <g
     inkscape:label="Layer 1"
     inkscape:groupmode="layer"
     id="layer1"
     transform="translate(-54.960228,-174.99697)">
    <path
       sodipodi:type="star"
       style="fill:none;stroke:#000000;stroke-width:1;stroke-miterlimit:4;stroke-dasharray:none;stroke-opacity:1"
       id="path829"
       sodipodi:sides="5"
       sodipodi:cx="83.825333"
       sodipodi:cy="211.34465"
       sodipodi:r1="21.574463"
       sodipodi:r2="10.787231"
       sodipodi:arg1="0.7328151"
       sodipodi:arg2="1.3611336"
       inkscape:flatsided="false"
       inkscape:rounded="0"
       inkscape:randomized="0"
       d="m 99.861505,225.77721 -13.791026,-3.88156 -11.015872,9.16021 -0.570087,-14.31551 -12.115966,-7.64606 13.438692,-4.96592 3.527794,-13.88573 8.875655,11.2464 14.296265,-0.93579 -7.953238,11.91658 z"
       inkscape:transform-center-x="1.3875771"
       inkscape:transform-center-y="-0.6953989" />
    <path
       sodipodi:type="star"
       style="fill:none;stroke:#000000;stroke-width:1;stroke-miterlimit:4;stroke-dasharray:none;stroke-opacity:1"
       id="path831"
       sodipodi:sides="8"
       sodipodi:cx="135.14108"
       sodipodi:cy="197.98119"
       sodipodi:r1="13.287248"
       sodipodi:r2="18.981783"
       sodipodi:arg1="1.7405746"
       sodipodi:arg2="2.1332737"
       inkscape:flatsided="false"
       inkscape:rounded="0.25"
       inkscape:randomized="0"
       d="m 132.89602,211.07739 c -2.0737,-0.35549 -6.09781,4.08318 -7.87761,2.96118 -1.7798,-1.122 0.48971,-6.66677 -0.72524,-8.38447 -1.21496,-1.71769 -7.19904,-1.42456 -7.66418,-3.47644 -0.46514,-2.05188 5.0604,-4.36784 5.41589,-6.44154 0.35549,-2.07369 -4.08318,-6.0978 -2.96118,-7.87761 1.122,-1.7798 6.66677,0.48971 8.38447,-0.72524 1.71769,-1.21495 1.42455,-7.19904 3.47644,-7.66418 2.05188,-0.46514 4.36784,5.0604 6.44154,5.41589 2.07369,0.35549 6.0978,-4.08318 7.87761,-2.96118 1.7798,1.122 -0.48971,6.66678 0.72524,8.38447 1.21495,1.71769 7.19904,1.42456 7.66418,3.47644 0.46514,2.05188 -5.0604,4.36785 -5.41589,6.44154 -0.35549,2.07369 4.08318,6.09781 2.96118,7.87761 -1.122,1.7798 -6.66678,-0.48971 -8.38447,0.72524 -1.71769,1.21496 -1.42456,7.19904 -3.47644,7.66418 -2.05189,0.46514 -4.36785,-5.0604 -6.44154,-5.41589 z"
       inkscape:transform-center-x="0.99109091"
       inkscape:transform-center-y="0.843955" />
    <path
       sodipodi:type="star"
       style="fill:none;stroke:#000000;stroke-width:1;stroke-miterlimit:4;stroke-dasharray:none;stroke-opacity:1"
       id="path833"
       sodipodi:sides="8"
       sodipodi:cx="158.12627"
       sodipodi:cy="235.39891"
       sodipodi:r1="10.744102"
       sodipodi:r2="7.5208712"
       sodipodi:arg1="-0.099668652"
       sodipodi:arg2="0.29303043"
       inkscape:flatsided="false"
       inkscape:rounded="0.25"
       inkscape:randomized="0"
       d="m 168.81705,234.32983 c 0.11849,1.18497 -3.14651,2.10141 -3.49051,3.24152 -0.34399,1.14011 1.86931,3.70944 1.1152,4.63113 -0.75411,0.92169 -3.71083,-0.739 -4.76025,-0.17606 -1.04943,0.56295 -1.30118,3.94477 -2.48615,4.06327 -1.18496,0.1185 -2.1014,-3.14651 -3.24151,-3.4905 -1.14012,-0.34399 -3.70945,1.86931 -4.63113,1.1152 -0.92169,-0.75411 0.739,-3.71084 0.17605,-4.76026 -0.56294,-1.04942 -3.94477,-1.30117 -4.06326,-2.48614 -0.1185,-1.18497 3.14651,-2.1014 3.4905,-3.24152 0.34399,-1.14011 -1.86931,-3.70944 -1.1152,-4.63113 0.75411,-0.92169 3.71084,0.739 4.76026,0.17606 1.04942,-0.56295 1.30117,-3.94477 2.48614,-4.06327 1.18497,-0.1185 2.1014,3.14651 3.24152,3.4905 1.14011,0.34399 3.70944,-1.8693 4.63113,-1.1152 0.92169,0.75411 -0.73901,3.71084 -0.17606,4.76026 0.56294,1.04942 3.94477,1.30117 4.06327,2.48614 z"
       inkscape:transform-center-x="1.2997296e-006" />
    <path
       sodipodi:type="star"
       style="fill:none;stroke:#000000;stroke-width:1;stroke-miterlimit:4;stroke-dasharray:none;stroke-opacity:1"
       id="path835"
       sodipodi:sides="6"
       sodipodi:cx="201.42393"
       sodipodi:cy="199.58479"
       sodipodi:r1="25.327225"
       sodipodi:r2="5.0654449"
       sodipodi:arg1="0.80032243"
       sodipodi:arg2="1.3239212"
       inkscape:flatsided="false"
       inkscape:rounded="0.25"
       inkscape:randomized="0"
       d="m 219.06372,217.75912 c -3.78398,3.67269 -11.28854,-14.55111 -16.40192,-13.26246 -5.11337,1.28865 -3.08476,20.89248 -8.1574,19.4518 -5.07264,-1.44068 6.95736,-17.05172 3.28467,-20.83571 -3.67269,-3.78399 -19.63581,7.77476 -20.92446,2.66138 -1.28865,-5.11337 18.24591,-2.5006 19.68659,-7.57324 1.44068,-5.07264 -16.55104,-13.11773 -12.76705,-16.79042 3.78398,-3.6727 11.28854,14.55111 16.40192,13.26246 5.11337,-1.28865 3.08476,-20.89249 8.1574,-19.45181 5.07264,1.44069 -6.95736,17.05173 -3.28467,20.83572 3.67269,3.78398 19.63581,-7.77476 20.92446,-2.66139 1.28865,5.11338 -18.24591,2.50061 -19.68659,7.57325 -1.44068,5.07264 16.55104,13.11773 12.76705,16.79042 z"
       inkscape:transform-center-x="1.845212e-006" />
    <path
       sodipodi:type="star"
       style="fill:none;stroke:#000000;stroke-width:1;stroke-miterlimit:4;stroke-dasharray:none;stroke-opacity:1"
       id="path837"
       sodipodi:sides="6"
       sodipodi:cx="200.35486"
       sodipodi:cy="234.32983"
       sodipodi:r1="10.378871"
       sodipodi:r2="2.0757742"
       sodipodi:arg1="0.60228735"
       sodipodi:arg2="1.1258861"
       inkscape:flatsided="false"
       inkscape:rounded="0.25"
       inkscape:randomized="0"
       d="m 208.90748,240.20976 c -1.22423,1.7807 -5.70869,-4.93625 -7.65926,-4.00623 -1.95056,0.93002 0.44503,8.64292 -1.70922,8.47306 -2.15424,-0.16987 1.42057,-7.412 -0.36013,-8.63623 -1.7807,-1.22423 -7.26248,4.70687 -8.19249,2.7563 -0.93002,-1.95057 7.12926,-2.47575 7.29913,-4.63 0.16986,-2.15424 -7.70751,-3.93606 -6.48328,-5.71676 1.22423,-1.7807 5.7087,4.93625 7.65926,4.00624 1.95057,-0.93002 -0.44502,-8.64293 1.70922,-8.47306 2.15425,0.16986 -1.42057,7.412 0.36013,8.63623 1.7807,1.22423 7.26248,-4.70687 8.1925,-2.7563 0.93002,1.95056 -7.12927,2.47575 -7.29913,4.63 -0.16987,2.15424 7.7075,3.93605 6.48327,5.71675 z"
       inkscape:transform-center-x="1.8317433e-006" />
    <path
       sodipodi:type="star"
       style="fill:none;stroke:#000000;stroke-width:1;stroke-miterlimit:4;stroke-dasharray:none;stroke-opacity:1"
       id="path839"
       sodipodi:sides="6"
       sodipodi:cx="240.44528"
       sodipodi:cy="224.17359"
       sodipodi:r1="9.7544222"
       sodipodi:r2="19.508844"
       sodipodi:arg1="0.16514868"
       sodipodi:arg2="0.68874745"
       inkscape:flatsided="false"
       inkscape:rounded="0.25"
       inkscape:randomized="0"
       d="m 250.06698,225.7772 c -0.49684,2.98108 7.36078,8.46237 5.43996,10.79563 -1.92082,2.33327 -8.80947,-4.32506 -11.63958,-3.2648 -2.83011,1.06026 -3.64824,10.60581 -6.62931,10.10896 -2.98108,-0.49685 -0.65913,-9.79176 -2.99239,-11.71258 -2.33327,-1.92082 -11.00902,2.14344 -12.06927,-0.68667 -1.06026,-2.83011 8.15034,-5.4667 8.64719,-8.44777 0.49685,-2.98108 -7.36078,-8.46237 -5.43996,-10.79564 1.92082,-2.33326 8.80947,4.32506 11.63958,3.26481 2.83012,-1.06026 3.64824,-10.60581 6.62932,-10.10896 2.98107,0.49684 0.65912,9.79175 2.99239,11.71257 2.33326,1.92082 11.00901,-2.14343 12.06927,0.68668 1.06025,2.83011 -8.15035,5.46669 -8.6472,8.44777 z"
       inkscape:transform-center-x="2.3233508e-006" />
  </g>
</svg>
