0
SECTION
2
HEADER
9
$INSUNITS
70
4
9
$ACADVER
1
AC1014
9
$HANDSEED
5
FFFF
0
ENDSEC
0
SECTION
2
TABLES
0
TABLE
2
VPORT
5
8
100
AcDbSymbolTable
0
ENDTAB
0
TABLE
2
LTYPE
5
5
100
AcDbSymbolTable
0
LTYPE
5
14
100
AcDbSymbolTableRecord
100
AcDbLinetypeTableRecord
2
BYBLOCK
70
0
0
LTYPE
5
15
100
AcDbSymbolTableRecord
100
AcDbLinetypeTableRecord
2
BYLAYER
70
0
0
ENDTAB
0
TABLE
2
LAYER
5
2
100
AcDbSymbolTable
70
2
0
LAYER
5
50
100
AcDbSymbolTableRecord
100
AcDbLayerTableRecord
2
0
70
0
6
CONTINUOUS
0
ENDTAB
0
TABLE
2
STYLE
5
3
100
AcDbSymbolTable
70
1
0
STYLE
5
11
100
AcDbSymbolTableRecord
100
AcDbTextStyleTableRecord
2
STANDARD
70
0
0
ENDTAB
0
TABLE
2
VIEW
5
6
100
AcDbSymbolTable
70
0
0
ENDTAB
0
TABLE
2
UCS
5
7
100
AcDbSymbolTable
70
0
0
ENDTAB
0
TABLE
2
APPID
5
9
100
AcDbSymbolTable
70
2
0
APPID
5
12
100
AcDbSymbolTableRecord
100
AcDbRegAppTableRecord
2
ACAD
70
0
0
ENDTAB
0
TABLE
2
DIMSTYLE
5
A
100
AcDbSymbolTable
70
1
0
ENDTAB
0
TABLE
2
BLOCK_RECORD
5
1
100
AcDbSymbolTable
70
1
0
BLOCK_RECORD
5
1F
100
AcDbSymbolTableRecord
100
AcDbBlockTableRecord
2
*MODEL_SPACE
0
BLOCK_RECORD
5
1B
100
AcDbSymbolTableRecord
100
AcDbBlockTableRecord
2
*PAPER_SPACE
0
ENDTAB
0
ENDSEC
0
SECTION
2
BLOCKS
0
BLOCK
5
20
100
AcDbEntity
100
AcDbBlockBegin
2
*MODEL_SPACE
0
ENDBLK
5
21
100
AcDbEntity
100
AcDbBlockEnd
0
BLOCK
5
1C
100
AcDbEntity
100
AcDbBlockBegin
2
*PAPER_SPACE
0
ENDBLK
5
1D
100
AcDbEntity
100
AcDbBlockEnd
0
ENDSEC
0
SECTION
2
ENTITIES
0
LWPOLYLINE
5
100
100
AcDbEntity
8
0
100
AcDbPolyline
90
20
70
1
43
0.0
10
-1020.2500000000073
20
-6.7148101660892943
10
-1020.2500000000073
20
-10.714807056404823
10
-1026.2499998979051
20
-10.714806903038221
42
0.99999999999999989
10
-1026.2500001021097
20
-18.714806903058655
10
-1020.2500000000073
20
-18.714807056188299
10
-1020.2500000000073
20
-64.714810166098033
10
-979.75000000000716
20
-64.714810166098061
10
-979.75000000000728
20
-6.7148101660919943
10
-898.50000000000682
20
-6.7148101660973891
42
-0.41421356237308826
10
-883.50000000000773
20
-21.714810166098321
10
-883.50000000000955
20
-44.242220669984448
42
-0.11759742667278013
10
-885.11453450369117
20
-51.011955779045536
10
-900.27424190629608
20
-80.986502360671011
42
-0.28283892467667365
10
-913.65970740261514
20
-89.216767251608616
10
-1086.3402925974156
20
-89.216767251597005
42
-0.28283892467666982
10
-1099.7257580937337
20
-80.986502360657724
10
-1114.8854654963286
20
-51.01195577904268
42
-0.11759742667281885
10
-1116.5000000000093
20
-44.242220669981123
10
-1116.500000000008
20
-21.714810166082895
42
-0.41421356237308671
10
-1101.500000000007
20
-6.7148101660838941
0
CIRCLE
5
101
100
AcDbEntity
8
0
100
AcDbCircle
10
-959.70215119520628
20
-80.511475531624868
30
0
40
2.2499999999999427
210
-1.6359030595178709e-45
220
-2.4651903288156624e-32
230
1
0
CIRCLE
5
102
100
AcDbEntity
8
0
100
AcDbCircle
10
-949.80000000000268
20
-37.914810165985386
30
0
40
20.599999999999877
210
3.9443045261050757e-31
220
2.4651903288131122e-32
230
1
0
CIRCLE
5
103
100
AcDbEntity
8
0
100
AcDbCircle
10
-1102.5000000000077
20
-18.714810166083851
30
0
40
3.7499999999999996
210
-1.6359030595178706e-45
220
-2.4651903288156619e-32
230
1
0
CIRCLE
5
104
100
AcDbEntity
8
0
100
AcDbCircle
10
-973.36999999999864
20
-14.344810165981201
30
0
40
2.7500000000000564
210
0
220
0
230
1
0
CIRCLE
5
105
100
AcDbEntity
8
0
100
AcDbCircle
10
-973.37000000000683
20
-61.484810165980939
30
0
40
2.7500000000000564
210
0
220
0
230
1
0
CIRCLE
5
106
100
AcDbEntity
8
0
100
AcDbCircle
10
-926.23000000000707
20
-61.484810165989536
30
0
40
2.7500000000000564
210
0
220
0
230
1
0
CIRCLE
5
107
100
AcDbEntity
8
0
100
AcDbCircle
10
-1003.1992262187133
20
-80.472151536208258
30
0
40
2.2499999999999427
210
-1.6359030595178709e-45
220
-2.4651903288156624e-32
230
1
0
CIRCLE
5
108
100
AcDbEntity
8
0
100
AcDbCircle
10
-926.22999999999922
20
-14.344810165989799
30
0
40
2.7500000000000564
210
0
220
0
230
1
0
LWPOLYLINE
5
109
100
AcDbEntity
8
0
100
AcDbPolyline
90
8
70
1
43
0.0
10
-1032.5771318041473
20
-21.584138579688101
42
-0.41421356237307527
10
-1028.3771318041474
20
-25.784138579688403
10
-1028.3771318041504
20
-69.684138579688295
42
-0.41421356237307339
10
-1032.5771318041507
20
-73.884138579687942
10
-1069.4442042377918
20
-73.884138579685512
42
-0.41421356237306473
10
-1073.6442042377914
20
-69.684138579685225
10
-1073.6442042377889
20
-25.784138579685319
42
-0.4142135623731279
10
-1069.4442042377884
20
-21.58413857968565
0
CIRCLE
5
110
100
AcDbEntity
8
0
100
AcDbCircle
10
-980.81013530959854
20
-75.331654582692522
30
0
40
2.2499999999999427
210
-1.6359030595178709e-45
220
-2.4651903288156624e-32
230
1
0
CIRCLE
5
111
100
AcDbEntity
8
0
100
AcDbCircle
10
-1036.35469559118
20
-13.600766304643201
30
0
40
2.2499999999999427
210
-1.6359030595178709e-45
220
-2.4651903288156624e-32
230
1
0
CIRCLE
5
112
100
AcDbEntity
8
0
100
AcDbCircle
10
-897.50000000000784
20
-18.714810166097422
30
0
40
3.7499999999999996
210
-1.6359030595178706e-45
220
-2.4651903288156619e-32
230
1
0
CIRCLE
5
113
100
AcDbEntity
8
0
100
AcDbCircle
10
-1066.35469559118
20
-13.600766304639436
30
0
40
2.2499999999999427
210
-1.6359030595178709e-45
220
-2.4651903288156624e-32
230
1
0
LWPOLYLINE
5
114
100
AcDbEntity
8
0
100
AcDbPolyline
90
4
70
1
43
0.0
10
-1037.1856680209708
20
-58.234138579687311
10
-1037.1856680209712
20
-68.234138579687382
42
0.99999999999999989
10
-1033.8356680209708
20
-68.234138579687524
10
-1033.8356680209704
20
-58.234138579687752
42
0.99999999999999989
0
LWPOLYLINE
5
115
100
AcDbEntity
8
0
100
AcDbPolyline
90
4
70
1
43
0.0
10
-1064.8356680209688
20
-37.234138579685307
10
-1064.8356680209683
20
-27.234138579685165
42
0.99999999999999989
10
-1068.1856680209687
20
-27.234138579685165
10
-1068.1856680209692
20
-37.234138579685194
42
0.99999999999999989
0
LWPOLYLINE
5
116
100
AcDbEntity
8
0
100
AcDbPolyline
90
4
70
1
43
0.0
10
-1033.835668020969
20
-37.234138579688086
42
-0.99999999999999989
10
-1037.1856680209692
20
-37.234138579688072
10
-1037.1856680209687
20
-27.234138579687858
42
-0.99999999999999989
10
-1033.8356680209683
20
-27.234138579688015
0
LWPOLYLINE
5
117
100
AcDbEntity
8
0
100
AcDbPolyline
90
4
70
1
43
0.0
10
-1038.8106680209701
20
-52.734138579687695
10
-1038.8106680209698
20
-42.734138579687055
42
0.99999999999999989
10
-1063.2106680209693
20
-42.734138579685848
10
-1063.2106680209702
20
-52.734138579686373
42
0.99999999999999989
0
LWPOLYLINE
5
118
100
AcDbEntity
8
0
100
AcDbPolyline
90
4
70
1
43
0.0
10
-1068.1856680209705
20
-58.234138579686068
42
-0.99999999999999989
10
-1064.8356680209704
20
-58.234138579686423
10
-1064.8356680209711
20
-68.234138579686714
42
-0.99999999999999989
10
-1068.1856680209712
20
-68.234138579686061
0
LWPOLYLINE
5
119
100
AcDbEntity
8
0
100
AcDbPolyline
90
8
70
1
43
0.0
10
-1028.3771318041474
20
-25.784138579688339
10
-1028.3771318041504
20
-69.684138579688238
42
-0.4142135623730876
10
-1032.5771318041509
20
-73.884138579687928
10
-1069.4442042377918
20
-73.884138579685512
42
-0.41421356237307089
10
-1073.6442042377914
20
-69.684138579685268
10
-1073.6442042377889
20
-25.784138579685347
42
-0.41421356237312978
10
-1069.4442042377884
20
-21.584138579685654
10
-1032.5771318041473
20
-21.584138579688101
42
-0.41421356237307089
0
LWPOLYLINE
5
120
100
AcDbEntity
8
0
100
AcDbPolyline
90
8
70
1
43
0.0
10
-979.25000000000307
20
-13.464810165981165
10
-979.25000000000625
20
-62.364810165985389
42
0.41421356237307633
10
-974.25000000000693
20
-67.364810165985801
10
-925.35000000000264
20
-67.364810165989041
42
0.41421356237309348
10
-920.35000000000241
20
-62.364810165989368
10
-920.34999999999911
20
-13.464810165985114
42
0.41421356237309165
10
-925.34999999999866
20
-8.4648101659847157
10
-974.25000000000284
20
-8.4648101659814063
42
0.41421356237309764
0
CIRCLE
5
121
100
AcDbEntity
8
0
100
AcDbCircle
10
-926.22999999999922
20
-14.344810165989799
30
0
40
2.7500000000000564
210
0
220
0
230
1
0
CIRCLE
5
122
100
AcDbEntity
8
0
100
AcDbCircle
10
-926.23000000000707
20
-61.484810165989536
30
0
40
2.7500000000000564
210
0
220
0
230
1
0
CIRCLE
5
123
100
AcDbEntity
8
0
100
AcDbCircle
10
-973.37000000000683
20
-61.484810165980939
30
0
40
2.7500000000000564
210
0
220
0
230
1
0
CIRCLE
5
124
100
AcDbEntity
8
0
100
AcDbCircle
10
-973.36999999999864
20
-14.344810165981201
30
0
40
2.7500000000000564
210
0
220
0
230
1
0
CIRCLE
5
125
100
AcDbEntity
8
0
100
AcDbCircle
10
-949.80000000000268
20
-37.914810165985386
30
0
40
20.599999999999877
210
3.9443045261050757e-31
220
2.4651903288131122e-32
230
1
0
LINE
5
126
100
AcDbEntity
8
0
100
AcDbLine
10
-1010.7213510920316
20
-10.714807299966903
30
0
11
-1026.2499998979079
21
-10.714806903037477
31
0
0
ARC
5
127
100
AcDbEntity
8
0
100
AcDbCircle
10
-1026.25000000001
20
-14.714806903047696
30
0
40
4.0000000000102212
210
0
220
-0
230
1
100
AcDbArc
50
89.999998537494449
51
269.99999853749119
0
LINE
5
128
100
AcDbEntity
8
0
100
AcDbLine
10
-1026.250000102111
20
-18.714806903036369
30
0
11
-1010.7213512962194
21
-18.714807299408381
31
0
0
ARC
5
129
100
AcDbEntity
8
0
100
AcDbCircle
10
-1010.7213509084493
20
-3.5305958293388038
30
0
40
15.184211471668974
210
-3.9443045261050577e-31
220
1.0074726750403904e-38
230
1
100
AcDbArc
50
269.99999853652457
51
343.45871250715663
0
ARC
5
130
100
AcDbEntity
8
0
100
AcDbCircle
10
-1000.0000000000107
20
-16.714810166090643
30
0
40
4.0000000000000568
210
4.5546926795346205e-45
220
1.2325951644078309e-32
230
1
100
AcDbArc
50
180
51
360
0
LINE
5
131
100
AcDbEntity
8
0
100
AcDbLine
10
-996.00000000001057
20
-16.714810166092121
30
0
11
-996.00000000000693
21
-6.7148101660921045
31
0
0
ARC
5
132
100
AcDbEntity
8
0
100
AcDbCircle
10
-1000.0000000000069
20
-6.7148101660906274
30
0
40
4.0000000002337641
210
-3.7810687879989498e-31
220
1.1229679492634684e-31
230
1
100
AcDbArc
50
-16.541287492840347
51
163.45871250716019
0
ARC
5
133
100
AcDbEntity
8
0
100
AcDbCircle
10
-1010.7213509084493
20
-3.5305958293388038
30
0
40
7.1842114713746366
210
3.9443045229567079e-31
220
-1.2325961718797732e-32
230
1
100
AcDbArc
50
269.99999853652525
51
343.45871250715555
0
LWPOLYLINE
5
134
100
AcDbEntity
8
0
100
AcDbPolyline
90
8
70
1
43
0.0
10
-996.00000000000409
20
-6.7148101660927608
10
-979.75000000000716
20
-6.7148101660919934
10
-979.75000000000716
20
-64.714810166098033
10
-1020.2500000000073
20
-64.714810166098104
10
-1020.2500000000073
20
-18.714807056188356
10
-1010.7213512962885
20
-18.714807301008484
42
0.11555624885230298
10
-1003.9778470142256
20
-17.135206564123212
42
0.94869197377546255
10
-996.00000000000773
20
-16.714810166092775
0
CIRCLE
5
135
100
AcDbEntity
8
0
100
AcDbCircle
10
-1000.0000000000067
20
-26.714810166091354
30
0
40
2.6500000000000052
210
3.944304526105059e-31
220
-1.2325951644077631e-32
230
1
0
CIRCLE
5
136
100
AcDbEntity
8
0
100
AcDbCircle
10
-1000.0000000000132
20
-56.114810166023119
30
0
40
2.6500000000000052
210
-8.1795152975893513e-46
220
-1.2325951644078309e-32
230
1
0
LINE
5
137
100
AcDbEntity
8
0
100
AcDbLine
10
-979.75000000001
20
-64.714810166097394
30
0
11
-979.75000000001
21
15.285189833902608
31
0
0
LINE
5
138
100
AcDbEntity
8
0
100
AcDbLine
10
-979.75000000001
20
15.285189833902608
30
0
11
-1020.2500000000101
21
15.285189833902608
31
0
0
LINE
5
139
100
AcDbEntity
8
0
100
AcDbLine
10
-1020.2500000000101
20
15.285189833902608
30
0
11
-1020.2500000000101
21
-64.714810166097394
31
0
0
LINE
5
140
100
AcDbEntity
8
0
100
AcDbLine
10
-1020.2500000000101
20
-64.714810166097394
30
0
11
-979.75000000001
21
-64.714810166097394
31
0
0
ENDSEC
0
SECTION
2
OBJECTS
0
DICTIONARY
5
C
100
AcDbDictionary
3
ACAD_GROUP
350
D
3
ACAD_MLINESTYLE
350
17
0
DICTIONARY
5
D
100
AcDbDictionary
0
DICTIONARY
5
1A
330
C
100
AcDbDictionary
0
DICTIONARY
5
17
100
AcDbDictionary
0
ENDSEC
0
EOF
