0
SECTION
2
HEADER
9
$INSUNITS
70
4
9
$ACADVER
1
AC1014
9
$HANDSEED
5
FFFF
0
ENDSEC
0
SECTION
2
TABLES
0
TABLE
2
VPORT
5
8
100
AcDbSymbolTable
0
ENDTAB
0
TABLE
2
LTYPE
5
5
100
AcDbSymbolTable
0
LTYPE
5
14
100
AcDbSymbolTableRecord
100
AcDbLinetypeTableRecord
2
BYBLOCK
70
0
0
LTYPE
5
15
100
AcDbSymbolTableRecord
100
AcDbLinetypeTableRecord
2
BYLAYER
70
0
0
ENDTAB
0
TABLE
2
LAYER
5
2
100
AcDbSymbolTable
70
2
0
LAYER
5
50
100
AcDbSymbolTableRecord
100
AcDbLayerTableRecord
2
0
70
0
6
CONTINUOUS
0
ENDTAB
0
TABLE
2
STYLE
5
3
100
AcDbSymbolTable
70
1
0
STYLE
5
11
100
AcDbSymbolTableRecord
100
AcDbTextStyleTableRecord
2
STANDARD
70
0
0
ENDTAB
0
TABLE
2
VIEW
5
6
100
AcDbSymbolTable
70
0
0
ENDTAB
0
TABLE
2
UCS
5
7
100
AcDbSymbolTable
70
0
0
ENDTAB
0
TABLE
2
APPID
5
9
100
AcDbSymbolTable
70
2
0
APPID
5
12
100
AcDbSymbolTableRecord
100
AcDbRegAppTableRecord
2
ACAD
70
0
0
ENDTAB
0
TABLE
2
DIMSTYLE
5
A
100
AcDbSymbolTable
70
1
0
ENDTAB
0
TABLE
2
BLOCK_RECORD
5
1
100
AcDbSymbolTable
70
1
0
BLOCK_RECORD
5
1F
100
AcDbSymbolTableRecord
100
AcDbBlockTableRecord
2
*MODEL_SPACE
0
BLOCK_RECORD
5
1B
100
AcDbSymbolTableRecord
100
AcDbBlockTableRecord
2
*PAPER_SPACE
0
ENDTAB
0
ENDSEC
0
SECTION
2
BLOCKS
0
BLOCK
5
20
100
AcDbEntity
100
AcDbBlockBegin
2
*MODEL_SPACE
0
ENDBLK
5
21
100
AcDbEntity
100
AcDbBlockEnd
0
BLOCK
5
1C
100
AcDbEntity
100
AcDbBlockBegin
2
*PAPER_SPACE
0
ENDBLK
5
1D
100
AcDbEntity
100
AcDbBlockEnd
0
ENDSEC
0
SECTION
2
ENTITIES
0
CIRCLE
5
100
100
AcDbEntity
8
0
100
AcDbCircle
10
954.61666692432436
20
1552.6923227069597
30
-1.7763568394002505e-14
40
2.2499999999999973
210
-3.8874809948643221e-31
220
-4.3761622203286074e-47
230
1
0
CIRCLE
5
101
100
AcDbEntity
8
0
100
AcDbCircle
10
941.28333359099099
20
1569.1923227069597
30
0
40
2.2499999999999973
210
-3.8874809948643221e-31
220
-4.3761622203286074e-47
230
1
0
CIRCLE
5
102
100
AcDbEntity
8
0
100
AcDbCircle
10
941.28333359099099
20
1585.6923227069597
30
1.7763568394002505e-14
40
2.2499999999999973
210
-3.8874809948643221e-31
220
-4.3761622203286074e-47
230
1
0
CIRCLE
5
103
100
AcDbEntity
8
0
100
AcDbCircle
10
954.61666692432436
20
1585.6923227069597
30
0
40
2.2499999999999973
210
-3.8874809948643221e-31
220
-4.3761622203286074e-47
230
1
0
CIRCLE
5
104
100
AcDbEntity
8
0
100
AcDbCircle
10
954.61666692432436
20
1569.1923227069597
30
-1.7763568394002505e-14
40
2.2499999999999973
210
-3.8874809948643221e-31
220
-4.3761622203286074e-47
230
1
0
CIRCLE
5
105
100
AcDbEntity
8
0
100
AcDbCircle
10
941.28333359099099
20
1552.6923227069597
30
0
40
2.2499999999999973
210
-3.8874809948643221e-31
220
-4.3761622203286074e-47
230
1
0
CIRCLE
5
106
100
AcDbEntity
8
0
100
AcDbCircle
10
967.95000025765762
20
1552.6923227069597
30
0
40
2.2499999999999929
210
-3.8874809948643221e-31
220
-4.3761622203286059e-47
230
1
0
CIRCLE
5
107
100
AcDbEntity
8
0
100
AcDbCircle
10
927.95000025765773
20
1569.1923227069597
30
0
40
2.2499999999999973
210
-3.8874809948643221e-31
220
-4.3761622203286074e-47
230
1
0
CIRCLE
5
108
100
AcDbEntity
8
0
100
AcDbCircle
10
927.95000025765773
20
1585.6923227069597
30
1.7763568394002505e-14
40
2.2499999999999973
210
-3.8874809948643221e-31
220
-4.3761622203286074e-47
230
1
0
CIRCLE
5
109
100
AcDbEntity
8
0
100
AcDbCircle
10
967.95000025765762
20
1585.6923227069597
30
1.7763568394002505e-14
40
2.2499999999999929
210
-3.8874809948643221e-31
220
-4.3761622203286059e-47
230
1
0
CIRCLE
5
110
100
AcDbEntity
8
0
100
AcDbCircle
10
967.95000025765762
20
1569.1923227069597
30
0
40
2.2499999999999929
210
-3.8874809948643221e-31
220
-4.3761622203286059e-47
230
1
0
CIRCLE
5
111
100
AcDbEntity
8
0
100
AcDbCircle
10
927.95000025765773
20
1552.6923227069597
30
0
40
2.2499999999999973
210
-3.8874809948643221e-31
220
-4.3761622203286074e-47
230
1
0
LWPOLYLINE
5
112
100
AcDbEntity
8
0
100
AcDbPolyline
90
10
70
1
43
0.0
10
892.95000025765773
20
1592.6923227069597
10
977.45000030749577
20
1592.6923227069597
10
977.45000030749588
20
1535.6923227069601
10
940.77842738240395
20
1535.6923227069601
42
0.99999999999999989
10
937.95000025765773
20
1532.8638955822137
10
937.95000025765762
20
1525.1923227069599
10
907.95000025765773
20
1525.1923227069601
10
907.95000025765773
20
1533.1998209549772
42
1.0206619819649576
10
904.82258203913807
20
1535.6923227069601
10
892.95000025765785
20
1535.6923227069601
0
LWPOLYLINE
5
113
100
AcDbEntity
8
0
100
AcDbPolyline
90
10
70
1
43
0.0
10
904.82258203913807
20
1535.6923227069601
42
-1.0206619819650158
10
907.95000025765773
20
1533.199820954977
10
907.95000025765773
20
1525.1923227069599
10
937.95000025765762
20
1525.1923227069599
10
937.95000025765773
20
1532.8638955822137
42
-0.99999999999999989
10
940.77842738240383
20
1535.6923227069601
10
977.45000030749588
20
1535.6923227069601
10
977.45000030749577
20
1592.6923227069597
10
892.95000025765773
20
1592.6923227069597
10
892.95000025765785
20
1535.6923227069601
0
CIRCLE
5
114
100
AcDbEntity
8
0
100
AcDbCircle
10
954.61666692432436
20
1552.6923227069597
30
-1.7763568394002505e-14
40
2.2499999999999973
210
-3.8874809948643221e-31
220
-4.3761622203286074e-47
230
1
0
CIRCLE
5
115
100
AcDbEntity
8
0
100
AcDbCircle
10
941.28333359099099
20
1569.1923227069597
30
0
40
2.2499999999999973
210
-3.8874809948643221e-31
220
-4.3761622203286074e-47
230
1
0
CIRCLE
5
116
100
AcDbEntity
8
0
100
AcDbCircle
10
941.28333359099099
20
1585.6923227069597
30
1.7763568394002505e-14
40
2.2499999999999973
210
-3.8874809948643221e-31
220
-4.3761622203286074e-47
230
1
0
CIRCLE
5
117
100
AcDbEntity
8
0
100
AcDbCircle
10
954.61666692432436
20
1585.6923227069597
30
0
40
2.2499999999999973
210
-3.8874809948643221e-31
220
-4.3761622203286074e-47
230
1
0
CIRCLE
5
118
100
AcDbEntity
8
0
100
AcDbCircle
10
954.61666692432436
20
1569.1923227069597
30
-1.7763568394002505e-14
40
2.2499999999999973
210
-3.8874809948643221e-31
220
-4.3761622203286074e-47
230
1
0
CIRCLE
5
119
100
AcDbEntity
8
0
100
AcDbCircle
10
941.28333359099099
20
1552.6923227069597
30
0
40
2.2499999999999973
210
-3.8874809948643221e-31
220
-4.3761622203286074e-47
230
1
0
CIRCLE
5
120
100
AcDbEntity
8
0
100
AcDbCircle
10
967.95000025765762
20
1552.6923227069597
30
0
40
2.2499999999999929
210
-3.8874809948643221e-31
220
-4.3761622203286059e-47
230
1
0
CIRCLE
5
121
100
AcDbEntity
8
0
100
AcDbCircle
10
927.95000025765773
20
1569.1923227069597
30
0
40
2.2499999999999973
210
-3.8874809948643221e-31
220
-4.3761622203286074e-47
230
1
0
CIRCLE
5
122
100
AcDbEntity
8
0
100
AcDbCircle
10
927.95000025765773
20
1585.6923227069597
30
1.7763568394002505e-14
40
2.2499999999999973
210
-3.8874809948643221e-31
220
-4.3761622203286074e-47
230
1
0
CIRCLE
5
123
100
AcDbEntity
8
0
100
AcDbCircle
10
967.95000025765762
20
1585.6923227069597
30
1.7763568394002505e-14
40
2.2499999999999929
210
-3.8874809948643221e-31
220
-4.3761622203286059e-47
230
1
0
CIRCLE
5
124
100
AcDbEntity
8
0
100
AcDbCircle
10
967.95000025765762
20
1569.1923227069597
30
0
40
2.2499999999999929
210
-3.8874809948643221e-31
220
-4.3761622203286059e-47
230
1
0
CIRCLE
5
125
100
AcDbEntity
8
0
100
AcDbCircle
10
927.95000025765773
20
1552.6923227069597
30
0
40
2.2499999999999973
210
-3.8874809948643221e-31
220
-4.3761622203286074e-47
230
1
0
LWPOLYLINE
5
126
100
AcDbEntity
8
0
100
AcDbPolyline
90
6
70
1
43
0.0
10
977.03257600245161
20
1622.6923227069594
42
-0.10324371717569482
10
977.45000030749577
20
1620.6923227069592
10
977.45000030749577
20
1592.6923227069597
10
892.95000025765773
20
1592.6923227069597
10
892.95000025765773
20
1620.6923227069594
42
-0.10324371717555782
10
893.3674245627019
20
1622.6923227069594
0
LWPOLYLINE
5
127
100
AcDbEntity
8
0
100
AcDbPolyline
90
4
70
1
43
0.0
10
972.45000030749588
20
1625.6923227069594
42
-0.29821662669857091
10
977.03257600245183
20
1622.6923227069594
10
893.3674245627019
20
1622.6923227069594
42
-0.29821662669857868
10
897.95000025765785
20
1625.6923227069594
0
ENDSEC
0
SECTION
2
OBJECTS
0
DICTIONARY
5
C
100
AcDbDictionary
3
ACAD_GROUP
350
D
3
ACAD_MLINESTYLE
350
17
0
DICTIONARY
5
D
100
AcDbDictionary
0
DICTIONARY
5
1A
330
C
100
AcDbDictionary
0
DICTIONARY
5
17
100
AcDbDictionary
0
ENDSEC
0
EOF
