<?xml version="1.0" encoding="UTF-8" standalone="no"?>
<!-- Created with Inkscape (http://www.inkscape.org/) -->

<svg
   xmlns:dc="http://purl.org/dc/elements/1.1/"
   xmlns:cc="http://creativecommons.org/ns#"
   xmlns:rdf="http://www.w3.org/1999/02/22-rdf-syntax-ns#"
   xmlns:svg="http://www.w3.org/2000/svg"
   xmlns="http://www.w3.org/2000/svg"
   xmlns:sodipodi="http://sodipodi.sourceforge.net/DTD/sodipodi-0.dtd"
   xmlns:inkscape="http://www.inkscape.org/namespaces/inkscape"
   width="387mm"
   height="62.78484mm"
   viewBox="0 0 387 62.78484"
   version="1.1"
   id="svg8"
   sodipodi:docname="FABlab.svg"
   inkscape:version="0.92.2 (5c3e80d, 2017-08-06)">
  <defs
     id="defs2" />
  <sodipodi:namedview
     id="base"
     pagecolor="#ffffff"
     bordercolor="#666666"
     borderopacity="1.0"
     inkscape:pageopacity="0.0"
     inkscape:pageshadow="2"
     inkscape:zoom="0.35"
     inkscape:cx="-184.19372"
     inkscape:cy="176.116"
     inkscape:document-units="mm"
     inkscape:current-layer="layer1"
     showgrid="false"
     fit-margin-left="7"
     inkscape:window-width="1920"
     inkscape:window-height="996"
     inkscape:window-x="-9"
     inkscape:window-y="-9"
     inkscape:window-maximized="1"
     fit-margin-top="0"
     fit-margin-right="0"
     fit-margin-bottom="0" />
  <metadata
     id="metadata5">
    <rdf:RDF>
      <cc:Work
         rdf:about="">
        <dc:format>image/svg+xml</dc:format>
        <dc:type
           rdf:resource="http://purl.org/dc/dcmitype/StillImage" />
        <dc:title></dc:title>
      </cc:Work>
    </rdf:RDF>
  </metadata>
  <g
     inkscape:label="Layer 1"
     inkscape:groupmode="layer"
     id="layer1"
     transform="translate(-14.654487,-183.43051)">
    <g
       aria-label="FAB LAB"
       transform="scale(1,-1)"
       style="font-style:normal;font-variant:normal;font-weight:normal;font-stretch:normal;font-size:87.53121185px;line-height:1.25;font-family:'Script MT Bold';-inkscape-font-specification:'Script MT Bold, ';letter-spacing:0px;word-spacing:0px;fill:#000000;fill-opacity:1;stroke:none;stroke-width:0.4558917"
       id="text817">
      <path
         d="m 72.856827,-246.21535 q -1.025757,5.76988 -3.205489,8.37701 -2.179732,2.56439 -8.248791,2.56439 l -13.334833,-0.34192 q -5.898099,0 -9.573726,2.30795 -3.632888,2.26522 -3.632888,6.36824 0,3.84659 4.658644,6.02632 1.581374,0.72658 1.581374,1.32494 0,1.19671 -1.752333,2.99178 -1.709594,1.75234 -3.974806,2.60714 -5.76988,-1.58138 -5.76988,-7.43674 0,-4.10302 3.248228,-10.25756 3.248229,-6.19728 8.71893,-10.08661 5.4707,-3.93206 12.138117,-3.93206 0.555618,0 6.069059,0.47014 5.55618,0.42739 6.710156,0.42739 3.461928,0 4.188505,-1.41041 z m -1.837814,26.07131 -0.769317,7.47947 q -0.683838,0.94028 -2.82083,1.83781 -2.136993,0.8548 -7.522214,2.26522 -1.025756,11.19784 -7.479473,18.07895 -6.453718,6.83838 -16.241143,6.83838 -6.881116,0 -10.727703,-2.99179 -3.803846,-2.99179 -3.803846,-5.8981 0,-1.36768 2.949049,-4.01755 2.99179,-2.64987 4.402205,-2.64987 1.068496,0 1.324935,0.81206 0.256439,0.76932 0.256439,3.97481 0.04274,3.16275 1.624115,5.34248 1.624114,2.13699 4.487684,2.13699 8.633449,0 11.026881,-17.86526 -3.932066,0.8548 -8.932628,3.67563 l 1.837813,-5.76988 q 3.632887,-3.12001 7.735913,-4.57316 0.641098,-6.88112 2.307952,-10.9414 1.709594,-4.06029 5.55618,-7.94962 5.086042,-0.64109 6.923856,-0.72657 -1.453155,2.82083 -2.008773,5.4707 -0.555618,2.64987 -0.726578,9.70194 5.598921,-1.83781 10.599483,-4.23124 z"
         style="font-style:normal;font-variant:normal;font-weight:normal;font-stretch:normal;font-size:87.53121185px;font-family:'Script MT Bold';-inkscape-font-specification:'Script MT Bold, ';stroke-width:0.4558917"
         id="path826" />
      <path
         d="m 132.94906,-193.94451 q -9.83017,10.514 -18.03622,10.514 -4.53043,0 -7.1803,-3.20549 -2.64987,-3.20549 -2.94905,-9.14633 -5.171517,6.28276 -9.189063,9.31729 -3.974806,3.03453 -8.50523,3.03453 -5.81262,0 -9.360027,-5.00056 -3.504668,-5.04331 -3.504668,-13.42032 0,-10.00112 4.615904,-20.6006 4.615903,-10.64223 13.676752,-16.79677 9.060852,-6.15453 21.968282,-6.15453 9.65921,0 17.4806,2.60713 v 2.82083 q -6.36824,7.43673 -10.68496,20.8143 -4.27399,13.37758 -4.27399,20.38691 0,3.41919 1.36768,5.29974 1.41041,1.88056 3.88932,1.88056 4.44495,0 10.68497,-7.26578 z m -12.4373,-46.03082 q -3.93207,-2.137 -8.46249,-2.137 -7.13756,0 -12.864696,5.98358 -5.72714,5.94084 -9.060848,15.77101 -3.290968,9.83016 -3.290968,17.0532 0,4.8296 1.837813,7.86413 1.880553,2.99179 4.786863,2.99179 5.043302,0 11.582496,-9.18907 2.69261,-24.10527 15.47183,-38.33764 z"
         style="font-style:normal;font-variant:normal;font-weight:normal;font-stretch:normal;font-size:87.53121185px;font-family:'Script MT Bold';-inkscape-font-specification:'Script MT Bold, ';stroke-width:0.4558917"
         id="path828" />
      <path
         d="m 178.16782,-217.83609 q 4.57316,0 6.66742,-3.59015 2.09425,-3.63289 2.09425,-7.90687 0,-5.8981 -3.93207,-9.40277 -3.88932,-3.5474 -10.514,-3.5474 -8.88989,0 -15.9847,5.17152 -7.09482,5.12878 -7.09482,11.3688 0,3.71836 4.01755,5.42796 1.02575,0.4274 1.02575,0.81206 v 1.32493 q 0,0.94028 -3.41919,2.35069 -3.37644,1.41042 -4.44494,1.41042 -1.66685,0 -3.37645,-2.69261 -1.70959,-2.73535 -1.70959,-5.64166 0,-5.08605 4.14576,-10.64223 4.18851,-5.55618 11.75346,-8.93262 7.6077,-3.37645 17.43786,-3.37645 10.514,0 17.01046,4.4022 6.5392,4.40221 6.5392,11.28332 0,10.25757 -14.53155,14.01867 11.41154,3.54741 11.41154,13.97593 0,7.6077 -5.72714,13.0784 -5.6844,5.42796 -13.63401,5.42796 -3.50467,0 -5.85536,-1.41042 -2.35069,-1.41041 -2.35069,-3.41918 0,-1.32494 1.49589,-3.59015 1.4959,-2.26521 2.77809,-2.26521 1.75233,0 2.09425,4.10302 0.25644,3.24823 2.00878,3.24823 2.86357,0 5.0433,-6.36824 2.22247,-6.36824 2.22247,-12.82195 0,-7.82139 -5.59892,-8.67619 z m 1.41041,-16.54032 q -2.47891,2.22247 -3.7611,5.08604 -1.23946,2.82083 -2.22247,11.11236 -0.94028,8.29153 -2.39344,13.93319 -1.45315,5.59892 -5.08604,10.47126 -3.59015,4.82961 -9.14633,7.6077 -5.51344,2.73535 -11.88167,2.73535 -5.6844,0 -8.71893,-2.39343 -2.99179,-2.39344 -2.99179,-6.79564 0,-1.58137 0.25644,-2.64987 2.00877,-1.83781 4.78686,-3.20549 2.77809,-1.41041 3.71837,-1.41041 1.53863,0 1.53863,2.35069 0,0.38466 -0.34192,2.69261 -0.34192,2.26521 -0.34192,2.73535 0,5.257 4.53043,5.257 4.57316,0 7.94961,-5.94084 3.37645,-5.98358 4.8296,-17.82252 1.4959,-11.83893 4.10303,-16.32662 2.64987,-4.53042 6.66741,-6.92385 4.01755,-2.43618 6.24002,-2.43618 1.11124,0 2.26521,1.9233 z"
         style="font-style:normal;font-variant:normal;font-weight:normal;font-stretch:normal;font-size:87.53121185px;font-family:'Script MT Bold';-inkscape-font-specification:'Script MT Bold, ';stroke-width:0.4558917"
         id="path830" />
      <path
         d="m 276.98234,-193.94451 q -10.12934,10.3003 -20.72882,10.3003 -3.07727,0 -5.94084,-0.81206 -2.82083,-0.76932 -6.92386,-2.64987 -4.06028,-1.88055 -7.18029,-2.73535 -5.76988,6.3255 -10.42853,6.3255 -1.62411,0 -2.69261,-1.0685 -1.06849,-1.06849 -1.06849,-2.60713 0,-3.24823 3.16275,-5.6844 3.20548,-2.47891 9.0181,-3.41919 2.43618,-3.3337 3.12001,-6.49645 0.68384,-3.20549 1.0685,-10.51401 0.72658,-15.04442 8.03509,-23.54965 7.35126,-8.54797 15.94197,-8.54797 5.89809,0 9.6592,3.7611 3.80385,3.71837 3.80385,9.53099 0,6.71016 -3.97481,11.75346 -3.9748,5.0433 -9.14633,5.0433 -2.69261,0 -4.23124,-1.45315 -1.53864,-1.4959 -1.53864,-4.06029 0,-1.32494 0.51288,-3.07727 1.15398,1.32494 2.90631,1.32494 2.90631,0 5.08604,-3.46193 2.17974,-3.46193 2.17974,-8.24879 0,-3.67563 -1.66686,-5.76988 -1.66685,-2.137 -4.57316,-2.137 -3.50467,0 -5.4707,2.52166 -1.9233,2.52165 -2.69261,6.02631 -0.76932,3.50467 -1.66686,11.32606 -0.85479,7.8214 -2.90631,13.89046 -2.00877,6.02631 -7.56495,11.83893 3.63289,-0.25643 6.28276,0.4274 2.69261,0.68384 7.65043,2.60713 5.00056,1.88056 8.59071,1.88056 7.00934,0 13.37757,-7.1803 z"
         style="font-style:normal;font-variant:normal;font-weight:normal;font-stretch:normal;font-size:87.53121185px;font-family:'Script MT Bold';-inkscape-font-specification:'Script MT Bold, ';stroke-width:0.4558917"
         id="path832" />
      <path
         d="m 336.21977,-193.94451 q -9.83017,10.514 -18.03622,10.514 -4.53042,0 -7.18029,-3.20549 -2.64987,-3.20549 -2.94905,-9.14633 -5.17152,6.28276 -9.18907,9.31729 -3.97481,3.03453 -8.50523,3.03453 -5.81262,0 -9.36003,-5.00056 -3.50466,-5.04331 -3.50466,-13.42032 0,-10.00112 4.6159,-20.6006 4.6159,-10.64223 13.67675,-16.79677 9.06085,-6.15453 21.96828,-6.15453 9.65921,0 17.4806,2.60713 v 2.82083 q -6.36824,7.43673 -10.68496,20.8143 -4.27398,13.37758 -4.27398,20.38691 0,3.41919 1.36767,5.29974 1.41042,1.88056 3.88933,1.88056 4.44494,0 10.68496,-7.26578 z m -12.4373,-46.03082 q -3.93206,-2.137 -8.46249,-2.137 -7.13755,0 -12.86469,5.98358 -5.72714,5.94084 -9.06085,15.77101 -3.29097,9.83016 -3.29097,17.0532 0,4.8296 1.83781,7.86413 1.88056,2.99179 4.78687,2.99179 5.0433,0 11.5825,-9.18907 2.69261,-24.10527 15.47182,-38.33764 z"
         style="font-style:normal;font-variant:normal;font-weight:normal;font-stretch:normal;font-size:87.53121185px;font-family:'Script MT Bold';-inkscape-font-specification:'Script MT Bold, ';stroke-width:0.4558917"
         id="path834" />
      <path
         d="m 381.43853,-217.83609 q 4.57316,0 6.66741,-3.59015 2.09425,-3.63289 2.09425,-7.90687 0,-5.8981 -3.93206,-9.40277 -3.88933,-3.5474 -10.514,-3.5474 -8.88989,0 -15.98471,5.17152 -7.09481,5.12878 -7.09481,11.3688 0,3.71836 4.01754,5.42796 1.02576,0.4274 1.02576,0.81206 v 1.32493 q 0,0.94028 -3.41919,2.35069 -3.37645,1.41042 -4.44494,1.41042 -1.66686,0 -3.37645,-2.69261 -1.7096,-2.73535 -1.7096,-5.64166 0,-5.08605 4.14577,-10.64223 4.1885,-5.55618 11.75346,-8.93262 7.60769,-3.37645 17.43786,-3.37645 10.514,0 17.01046,4.4022 6.53919,4.40221 6.53919,11.28332 0,10.25757 -14.53154,14.01867 11.41153,3.54741 11.41153,13.97593 0,7.6077 -5.72713,13.0784 -5.6844,5.42796 -13.63402,5.42796 -3.50466,0 -5.85536,-1.41042 -2.35069,-1.41041 -2.35069,-3.41918 0,-1.32494 1.4959,-3.59015 1.49589,-2.26521 2.77809,-2.26521 1.75233,0 2.09425,4.10302 0.25644,3.24823 2.00877,3.24823 2.86357,0 5.0433,-6.36824 2.22248,-6.36824 2.22248,-12.82195 0,-7.82139 -5.59892,-8.67619 z m 1.41041,-16.54032 q -2.47891,2.22247 -3.76111,5.08604 -1.23945,2.82083 -2.22247,11.11236 -0.94028,8.29153 -2.39343,13.93319 -1.45316,5.59892 -5.08604,10.47126 -3.59015,4.82961 -9.14633,7.6077 -5.51344,2.73535 -11.88168,2.73535 -5.6844,0 -8.71893,-2.39343 -2.99179,-2.39344 -2.99179,-6.79564 0,-1.58137 0.25644,-2.64987 2.00877,-1.83781 4.78687,-3.20549 2.77809,-1.41041 3.71836,-1.41041 1.53864,0 1.53864,2.35069 0,0.38466 -0.34192,2.69261 -0.34192,2.26521 -0.34192,2.73535 0,5.257 4.53042,5.257 4.57317,0 7.94962,-5.94084 3.37644,-5.98358 4.8296,-17.82252 1.49589,-11.83893 4.10302,-16.32662 2.64987,-4.53042 6.66742,-6.92385 4.01755,-2.43618 6.24002,-2.43618 1.11123,0 2.26521,1.9233 z"
         style="font-style:normal;font-variant:normal;font-weight:normal;font-stretch:normal;font-size:87.53121185px;font-family:'Script MT Bold';-inkscape-font-specification:'Script MT Bold, ';stroke-width:0.4558917"
         id="path836" />
    </g>
  </g>
</svg>
