0
SECTION
2
HEADER
9
$INSUNITS
70
4
9
$ACADVER
1
AC1014
9
$HANDSEED
5
FFFF
0
ENDSEC
0
SECTION
2
TABLES
0
TABLE
2
VPORT
5
8
100
AcDbSymbolTable
0
ENDTAB
0
TABLE
2
LTYPE
5
5
100
AcDbSymbolTable
0
LTYPE
5
14
100
AcDbSymbolTableRecord
100
AcDbLinetypeTableRecord
2
BYBLOCK
70
0
0
LTYPE
5
15
100
AcDbSymbolTableRecord
100
AcDbLinetypeTableRecord
2
BYLAYER
70
0
0
ENDTAB
0
TABLE
2
LAYER
5
2
100
AcDbSymbolTable
70
2
0
LAYER
5
50
100
AcDbSymbolTableRecord
100
AcDbLayerTableRecord
2
0
70
0
6
CONTINUOUS
0
ENDTAB
0
TABLE
2
STYLE
5
3
100
AcDbSymbolTable
70
1
0
STYLE
5
11
100
AcDbSymbolTableRecord
100
AcDbTextStyleTableRecord
2
STANDARD
70
0
0
ENDTAB
0
TABLE
2
VIEW
5
6
100
AcDbSymbolTable
70
0
0
ENDTAB
0
TABLE
2
UCS
5
7
100
AcDbSymbolTable
70
0
0
ENDTAB
0
TABLE
2
APPID
5
9
100
AcDbSymbolTable
70
2
0
APPID
5
12
100
AcDbSymbolTableRecord
100
AcDbRegAppTableRecord
2
ACAD
70
0
0
ENDTAB
0
TABLE
2
DIMSTYLE
5
A
100
AcDbSymbolTable
70
1
0
ENDTAB
0
TABLE
2
BLOCK_RECORD
5
1
100
AcDbSymbolTable
70
1
0
BLOCK_RECORD
5
1F
100
AcDbSymbolTableRecord
100
AcDbBlockTableRecord
2
*MODEL_SPACE
0
BLOCK_RECORD
5
1B
100
AcDbSymbolTableRecord
100
AcDbBlockTableRecord
2
*PAPER_SPACE
0
ENDTAB
0
ENDSEC
0
SECTION
2
BLOCKS
0
BLOCK
5
20
100
AcDbEntity
100
AcDbBlockBegin
2
*MODEL_SPACE
0
ENDBLK
5
21
100
AcDbEntity
100
AcDbBlockEnd
0
BLOCK
5
1C
100
AcDbEntity
100
AcDbBlockBegin
2
*PAPER_SPACE
0
ENDBLK
5
1D
100
AcDbEntity
100
AcDbBlockEnd
0
ENDSEC
0
SECTION
2
ENTITIES
0
ARC
5
100
100
AcDbEntity
8
0
100
AcDbCircle
10
-9.5244622098432821
20
77.000000687949893
30
0
40
115.0000000000051
210
0
220
0
230
1
100
AcDbArc
50
257.12499904563236
51
264.64850010260147
0
LINE
5
101
100
AcDbEntity
8
0
100
AcDbLine
10
-20.250000455474311
20
-37.49874528484527
30
0
11
-20.250000455474332
21
-33.000000237959249
31
0
0
LINE
5
102
100
AcDbEntity
8
0
100
AcDbLine
10
-20.250000455474332
20
-33.000000237959249
30
0
11
-25.499999421916009
21
-33.000000513872216
31
0
0
ARC
5
103
100
AcDbEntity
8
0
100
AcDbCircle
10
-25.499999579558612
20
-29.999999964201805
30
0
40
3.0000005496704123
210
0
220
0
230
1
100
AcDbArc
50
90.000003864525013
51
270.00000301075141
0
LINE
5
104
100
AcDbEntity
8
0
100
AcDbLine
10
-25.499999781904705
20
-26.999999414531398
30
0
11
-20.250000455474332
21
-26.999999138634685
31
0
0
LINE
5
105
100
AcDbEntity
8
0
100
AcDbLine
10
-20.250000455474332
20
-26.999999138634685
30
0
11
-20.250000455474332
21
1.0000003737671515
31
0
0
LINE
5
106
100
AcDbEntity
8
0
100
AcDbLine
10
-20.250000455474332
20
1.0000003737671515
30
0
11
-25.49999990854813
21
1.0000005854366512
31
0
0
ARC
5
107
100
AcDbEntity
8
0
100
AcDbCircle
10
-25.499999787597076
20
4.0000011350871212
30
0
40
3.0000005496504727
210
0
220
-0
230
1
100
AcDbArc
50
89.999997690005458
51
269.99999769000544
0
LINE
5
108
100
AcDbEntity
8
0
100
AcDbLine
10
-25.499999666646023
20
7.0000016847375912
30
0
11
-20.250000455474332
21
7.0000014730917171
31
0
0
LINE
5
109
100
AcDbEntity
8
0
100
AcDbLine
10
-20.250000455474332
20
7.0000014730917171
30
0
11
-20.250000455474332
21
12.000000570793574
31
0
0
LINE
5
110
100
AcDbEntity
8
0
100
AcDbLine
10
-20.250000455474332
20
12.000000570793574
30
0
11
-22.49999957955071
21
12.00000058979275
31
0
0
LINE
5
111
100
AcDbEntity
8
0
100
AcDbLine
10
-22.49999957955071
20
12.00000058979275
30
0
11
-100.0000007070222
21
11.999999961819675
31
0
0
ARC
5
112
100
AcDbEntity
8
0
100
AcDbCircle
10
-100.00000063066182
20
1.9999999618196633
30
0
40
10.000000000000014
210
0
220
0
230
1
100
AcDbArc
50
90.000000437512753
51
180
0
LINE
5
113
100
AcDbEntity
8
0
100
AcDbLine
10
-110.00000063066183
20
1.9999999618219777
30
0
11
-110.00000063066463
21
-10.027815416143389
31
0
0
ARC
5
114
100
AcDbEntity
8
0
100
AcDbCircle
10
-100.0000006306646
20
-10.027815416145675
30
0
40
10.000000000000018
210
0
220
0
230
1
100
AcDbArc
50
180
51
257.12499904563197
0
LINE
5
115
100
AcDbEntity
8
0
100
AcDbLine
10
-102.22824854270675
20
-19.776400505402485
30
0
11
-35.149313198328365
21
-35.108727838508329
31
0
0
CIRCLE
5
116
100
AcDbEntity
8
0
100
AcDbCircle
10
-95.000000630656857
20
-1.4210854832489689e-13
30
0
40
3.75
210
-0
220
0
230
1
0
CIRCLE
5
117
100
AcDbEntity
8
0
100
AcDbCircle
10
-1.0510943944089044e-07
20
-2.9999992745766835
30
0
40
2.6750000000000007
210
-0
220
0
230
1
0
CIRCLE
5
118
100
AcDbEntity
8
0
100
AcDbCircle
10
-2.1022216168181927e-07
20
-25.999999260570434
30
0
40
2.6750000000000007
210
-0
220
0
230
1
0
LWPOLYLINE
5
119
100
AcDbEntity
8
0
100
AcDbPolyline
90
11
70
1
43
0.0
10
20.249999544525611
20
-37.4987452202054
42
-0.023354565786892233
10
9.5244623297117954
20
-37.999999209085715
10
3.0000004204559794
20
-37.999999244353859
42
0.12581228576745723
10
2.6318575686585
20
-36.560093724995951
42
0.27418808006150736
10
-13.500801683151039
20
-26.999999440746532
10
-20.250000455474332
20
-26.999999138634692
10
-20.250000455474332
20
1.0000003737671537
10
-13.5008018544702
20
1.0000007584917459
42
0.27418808071425838
10
2.6318573017853852
20
10.56009527930971
42
0.12581228198770902
10
3.0000001145183974
20
12.000000764009533
10
20.249999544525675
20
12.000000880053046
0
CIRCLE
5
120
100
AcDbEntity
8
0
100
AcDbCircle
10
95.000000630656857
20
1.4210854832489692e-13
30
0
40
3.75
210
-0
220
0
230
1
0
LWPOLYLINE
5
121
100
AcDbEntity
8
0
100
AcDbPolyline
90
8
70
1
43
0.0
10
35.14931409989547
20
-35.108727414776638
42
-0.032839267384090945
10
20.249999544525707
20
-37.498745220205393
10
20.249999544525675
20
12.000000880053046
10
22.500000420434407
20
12.000000897234136
10
100.00000069444289
20
12.000001489026975
42
-0.414213585133687
10
110.00000077080323
20
2.0000007882921134
10
109.99999992797223
20
-10.027815176299477
42
-0.34982765185704612
10
102.22824796204348
20
-19.77639953692907
0
LWPOLYLINE
5
122
100
AcDbEntity
8
0
100
AcDbPolyline
90
6
70
1
43
0.0
10
-9.5244615882084656
20
-37.999999312055188
42
-0.023354569385040626
10
-20.250000455474293
20
-37.498745284845299
10
-20.250000455474332
20
-33.000000237959249
10
-13.499999377188459
20
-32.999999333571878
42
6.68251093456633e-05
10
-13.499197475966209
20
-32.999999226343519
42
-0.23737627674793077
10
-3.5542138363988895
20
-37.999999279782834
0
LINE
5
123
100
AcDbEntity
8
0
100
AcDbLine
10
-3.5542138363988931
20
-37.999999279782834
30
0
11
3.0000004204559803
21
-37.999999244353859
31
0
0
ARC
5
124
100
AcDbEntity
8
0
100
AcDbCircle
10
4.2044015768905041e-07
20
-37.999999260570419
30
0
40
3.0000000000158229
210
0
220
-0
230
1
100
AcDbArc
50
0
51
28.683345494420561
0
ARC
5
125
100
AcDbEntity
8
0
100
AcDbCircle
10
-13.495886476666241
20
-45.383683539780137
30
0
40
18.383684756098702
210
0
220
-0
230
1
100
AcDbArc
50
28.683345494207575
51
90.015319050219048
0
LINE
5
126
100
AcDbEntity
8
0
100
AcDbLine
10
-13.500801683144406
20
-26.999999440780378
30
0
11
-25.499999781904705
21
-26.999999414531398
31
0
0
ARC
5
127
100
AcDbEntity
8
0
100
AcDbCircle
10
-25.499999579558612
20
-29.999999964201805
30
0
40
3.0000005496704123
210
0
220
0
230
1
100
AcDbArc
50
90.000003864525013
51
270.00000265710673
0
LINE
5
128
100
AcDbEntity
8
0
100
AcDbLine
10
-25.499999440432802
20
-33.000000513872216
30
0
11
-13.499999377188461
21
-32.999999333571878
31
0
0
ARC
5
129
100
AcDbEntity
8
0
100
AcDbCircle
10
-13.499999579509849
20
-29.999999637752339
30
0
40
2.9999996958195507
210
0
220
0
230
1
100
AcDbArc
50
270.00000386405429
51
270.01531905095555
0
ARC
5
130
100
AcDbEntity
8
0
100
AcDbCircle
10
-13.495886476666241
20
-45.383683539780137
30
0
40
12.383684756064014
210
0
220
-0
230
1
100
AcDbArc
50
36.601287283162407
51
90.015319050184146
0
LINE
5
131
100
AcDbEntity
8
0
100
AcDbLine
10
3.0000001145183974
20
12.000000764009531
30
0
11
-3.5542141423357707
21
12.00000071923094
31
0
0
ARC
5
132
100
AcDbEntity
8
0
100
AcDbCircle
10
-13.495886872963407
20
19.383684857566458
30
0
40
12.383684756065648
210
0
220
0
230
1
100
AcDbArc
50
269.98468165098615
51
323.39871341800358
0
ARC
5
133
100
AcDbEntity
8
0
100
AcDbCircle
10
-13.499999787596062
20
4.0000006427508144
30
0
40
3.000000008555435
210
0
220
-0
230
1
100
AcDbArc
50
89.984681650848671
51
89.999997689942134
0
LINE
5
134
100
AcDbEntity
8
0
100
AcDbLine
10
-13.499999666641692
20
7.0000012009498818
30
0
11
-25.499999666646023
21
7.0000016847375912
31
0
0
ARC
5
135
100
AcDbEntity
8
0
100
AcDbCircle
10
-25.499999787597076
20
4.0000011350871212
30
0
40
3.0000005496504727
210
0
220
-0
230
1
100
AcDbArc
50
89.999997690005458
51
269.99999769000544
0
LINE
5
136
100
AcDbEntity
8
0
100
AcDbLine
10
-25.49999990854813
20
1.0000005854366512
30
0
11
-13.500801854470204
21
1.0000007584917414
31
0
0
ARC
5
137
100
AcDbEntity
8
0
100
AcDbCircle
10
-13.495886872963407
20
19.383684857566458
30
0
40
18.383684756098702
210
0
220
0
230
1
100
AcDbArc
50
269.9846816509413
51
331.31665520695276
0
ARC
5
138
100
AcDbEntity
8
0
100
AcDbCircle
10
1.145012096248621e-07
20
12.000000743513437
30
0
40
3.0000000000158646
210
0
220
0
230
1
100
AcDbArc
50
-28.683344793260048
51
0
0
LINE
5
139
100
AcDbEntity
8
0
100
AcDbLine
10
-20.250000455474332
20
7.0000014730917171
30
0
11
-13.499999666643037
21
7.0000012009498818
31
0
0
ARC
5
140
100
AcDbEntity
8
0
100
AcDbCircle
10
-13.499999787596062
20
4.0000006427508144
30
0
40
3.0000005581990696
210
0
220
-0
230
1
100
AcDbArc
50
89.984681650848671
51
89.999997689967799
0
ARC
5
141
100
AcDbEntity
8
0
100
AcDbCircle
10
-13.495886872963407
20
19.383684857566458
30
0
40
12.383684206422014
210
0
220
0
230
1
100
AcDbArc
50
269.98468165098615
51
323.39871341800352
0
LINE
5
142
100
AcDbEntity
8
0
100
AcDbLine
10
-3.5542141423357752
20
12.000000719230934
30
0
11
-20.250000455474332
21
12.000000570793574
31
0
0
LINE
5
143
100
AcDbEntity
8
0
100
AcDbLine
10
-20.250000455474332
20
12.000000570793574
30
0
11
-20.250000455474332
21
7.0000014730917171
31
0
0
LINE
5
144
100
AcDbEntity
8
0
100
AcDbLine
10
20.249999544525675
20
-40.499999211660509
30
0
11
20.249999544525675
21
14.500000788339484
31
0
0
LINE
5
145
100
AcDbEntity
8
0
100
AcDbLine
10
-20.250000455474332
20
-40.499999211660509
30
0
11
20.249999544525675
21
-40.499999211660509
31
0
0
LINE
5
146
100
AcDbEntity
8
0
100
AcDbLine
10
-20.250000455474332
20
14.500000788339484
30
0
11
-20.250000455474332
21
-40.499999211660509
31
0
0
LINE
5
147
100
AcDbEntity
8
0
100
AcDbLine
10
20.249999544525675
20
14.500000788339484
30
0
11
-20.250000455474332
21
14.500000788339484
31
0
0
ARC
5
148
100
AcDbEntity
8
0
100
AcDbCircle
10
-13.4958868729634
20
19.38368485756645
30
0
40
12.383684756065636
210
0
220
0
230
1
100
AcDbArc
50
269.98468165098615
51
331.31665520730235
0
ARC
5
149
100
AcDbEntity
8
0
100
AcDbCircle
10
1.1450120351863546e-07
20
12.000000743513437
30
0
40
3.0000000000171929
210
0
220
0
230
1
100
AcDbArc
50
-28.683343940503462
51
151.31665485207824
0
ARC
5
150
100
AcDbEntity
8
0
100
AcDbCircle
10
4.2044011522301972e-07
20
-37.999999260570434
30
0
40
3.0000000000158664
210
0
220
0
230
1
100
AcDbArc
50
-151.31665450557961
51
28.683345494420404
0
ARC
5
151
100
AcDbEntity
8
0
100
AcDbCircle
10
-13.495886476666241
20
-45.383683539780137
30
0
40
12.383684756064014
210
0
220
-0
230
1
100
AcDbArc
50
28.683345493858074
51
90.015319050174199
0
ENDSEC
0
SECTION
2
OBJECTS
0
DICTIONARY
5
C
100
AcDbDictionary
3
ACAD_GROUP
350
D
3
ACAD_MLINESTYLE
350
17
0
DICTIONARY
5
D
100
AcDbDictionary
0
DICTIONARY
5
1A
330
C
100
AcDbDictionary
0
DICTIONARY
5
17
100
AcDbDictionary
0
ENDSEC
0
EOF
