<?xml version="1.0" encoding="UTF-8" standalone="no"?>
<!-- Created with Inkscape (http://www.inkscape.org/) -->

<svg
   xmlns:dc="http://purl.org/dc/elements/1.1/"
   xmlns:cc="http://creativecommons.org/ns#"
   xmlns:rdf="http://www.w3.org/1999/02/22-rdf-syntax-ns#"
   xmlns:svg="http://www.w3.org/2000/svg"
   xmlns="http://www.w3.org/2000/svg"
   xmlns:sodipodi="http://sodipodi.sourceforge.net/DTD/sodipodi-0.dtd"
   xmlns:inkscape="http://www.inkscape.org/namespaces/inkscape"
   width="246.99998mm"
   height="120.16518mm"
   viewBox="0 0 246.99998 120.16518"
   version="1.1"
   id="svg8"
   inkscape:version="0.92.2 (5c3e80d, 2017-08-06)"
   sodipodi:docname="Hi.svg">
  <defs
     id="defs2" />
  <sodipodi:namedview
     id="base"
     pagecolor="#ffffff"
     bordercolor="#666666"
     borderopacity="1.0"
     inkscape:pageopacity="0.0"
     inkscape:pageshadow="2"
     inkscape:zoom="0.35"
     inkscape:cx="-128.80668"
     inkscape:cy="368.05799"
     inkscape:document-units="mm"
     inkscape:current-layer="layer1"
     showgrid="false"
     fit-margin-left="7"
     fit-margin-top="0"
     fit-margin-right="0"
     fit-margin-bottom="0"
     inkscape:window-width="1920"
     inkscape:window-height="996"
     inkscape:window-x="-9"
     inkscape:window-y="-9"
     inkscape:window-maximized="1" />
  <metadata
     id="metadata5">
    <rdf:RDF>
      <cc:Work
         rdf:about="">
        <dc:format>image/svg+xml</dc:format>
        <dc:type
           rdf:resource="http://purl.org/dc/dcmitype/StillImage" />
        <dc:title></dc:title>
      </cc:Work>
    </rdf:RDF>
  </metadata>
  <g
     inkscape:label="Layer 1"
     inkscape:groupmode="layer"
     id="layer1"
     transform="translate(-14.803316,-126.05017)">
    <g
       aria-label="Hi!"
       style="font-style:normal;font-variant:normal;font-weight:normal;font-stretch:normal;font-size:169.13970947px;line-height:1.25;font-family:'Script MT Bold';-inkscape-font-specification:'Script MT Bold, ';letter-spacing:0px;word-spacing:0px;fill:#000000;fill-opacity:1;stroke:none;stroke-width:0.88093591"
       id="text817"
       transform="matrix(1,0,0,-1,0,372.26551)">
      <path
         d="m 169.47021,225.89876 q -10.0757,10.48864 -18.33448,15.44391 -8.17619,4.87267 -16.8479,4.87267 -9.74535,0 -16.43496,-8.58912 -6.60702,-8.58913 -6.60702,-25.10668 0,-6.85478 1.73434,-17.92154 -12.38816,0.99105 -15.196145,1.15623 -5.203028,27.25396 -18.33448,38.89883 -13.048865,11.56228 -29.566414,11.56228 -12.222987,0 -20.151411,-5.61596 -7.928424,-5.69856 -7.928424,-10.98417 0,-3.88163 5.86373,-8.83689 5.946318,-5.03786 8.176187,-5.03786 3.220923,0 3.220923,6.93738 0,17.09566 11.479697,17.09566 8.42395,0 13.957329,-9.415 5.615967,-9.41501 8.919477,-31.21817 -9.91053,1.40399 -19.655884,9.66276 -0.660702,-0.90846 -1.156229,-7.10254 8.671714,-9.58018 22.959395,-13.37922 2.890571,-13.37921 7.267721,-21.80316 4.377151,-8.42395 22.216108,-26.01514 -8.589129,3.38609 -14.03992,3.38609 -3.551274,0 -8.919477,-1.89952 -5.285616,-1.89951 -8.506538,-1.89951 -7.019959,0 -11.479698,5.12044 -4.459738,5.03785 -4.459738,10.32347 0,5.28561 5.615967,9.66276 2.56022,1.56917 2.56022,2.97316 0,2.47763 -3.30351,6.19408 -3.30351,3.63386 -6.194081,3.63386 -3.220922,0 -5.946318,-4.54232 -2.725396,-4.62492 -2.725396,-10.1583 0,-12.22298 11.975224,-24.52856 11.975224,-12.30557 23.785272,-12.30557 2.56022,0 9.91053,2.14728 7.350313,2.06469 9.993113,2.06469 5.28562,0 10.32347,-4.62491 6.27667,3.30351 6.27667,4.12939 0,1.15623 -5.03785,6.19408 -4.95527,4.95526 -8.17619,14.20509 -3.22092,9.24983 -6.772194,34.52168 9.497594,-0.41294 16.600134,-1.48658 3.79904,-12.8011 8.17619,-21.5554 4.37715,-8.7543 9.99312,-17.59119 5.69855,-8.91948 8.67171,-10.90159 3.05575,-1.9821 12.8011,-4.54232 9.82795,-2.56022 9.91053,-2.56022 0.99106,0 0.99106,0.49552 0,1.23882 -3.71645,6.44185 -3.71645,5.12044 -10.73641,18.58224 -6.93737,13.37922 -11.72746,28.57536 8.91948,-1.48658 18.25189,-7.92842 1.07364,0.49553 1.32141,1.48658 0.24776,0.90846 0.24776,4.7075 -7.10255,8.58913 -22.87681,12.22299 -3.38609,16.10461 -3.38609,22.79422 0,8.0936 3.55127,12.88369 3.55127,4.7075 9.49759,4.7075 4.79009,0 9.58018,-3.05575 4.87268,-3.13833 12.38816,-11.97522 z"
         style="font-style:normal;font-variant:normal;font-weight:normal;font-stretch:normal;font-size:169.13970947px;font-family:'Script MT Bold';-inkscape-font-specification:'Script MT Bold, ';stroke-width:0.88093591"
         id="path819"
         inkscape:connector-curvature="0" />
      <path
         d="m 208.36904,141.82443 q 0,19.82106 -14.61803,19.82106 -7.10255,0 -12.1404,-4.29456 4.79009,-7.26773 7.4329,-16.35238 6.52443,4.0468 10.48864,4.0468 4.45974,0 8.83689,-3.22092 z m 1.65176,84.07433 q -19.32554,20.31658 -28.90572,20.31658 -5.28561,0 -8.91947,-5.3682 -3.63386,-5.45079 -3.63386,-13.62698 0,-17.59119 11.89263,-48.72677 l 20.97729,-4.37715 h 0.99105 l -8.25877,25.84996 q -5.12044,16.02203 -5.12044,22.87681 0,2.7254 1.15623,4.45974 1.23881,1.65175 3.05574,1.65175 3.22093,0 6.44185,-2.31245 3.30351,-2.39505 10.32347,-10.24088 z"
         style="font-style:normal;font-variant:normal;font-weight:normal;font-stretch:normal;font-size:169.13970947px;font-family:'Script MT Bold';-inkscape-font-specification:'Script MT Bold, ';stroke-width:0.88093591"
         id="path821"
         inkscape:connector-curvature="0" />
      <path
         d="m 233.88865,212.35437 q -4.87268,-7.76325 -4.87268,-16.60014 0,-7.26772 4.45974,-18.74742 4.54232,-11.4797 5.86373,-16.93049 1.3214,-5.45079 1.3214,-11.81005 0,-5.12044 -0.74329,-8.7543 -0.74329,-3.63386 -0.74329,-4.12939 0,-1.48657 8.42395,-5.03785 8.50654,-3.55127 9.82795,-3.55127 1.56916,0 2.97315,4.87268 1.404,4.87267 1.404,10.98417 0,8.34136 -2.97316,16.93049 -2.97316,8.50653 -10.1583,19.4907 -7.10254,10.98417 -9.49759,16.26979 -2.39504,5.28562 -2.39504,9.91053 0,0.33035 0.33035,2.56022 0.33035,2.22987 0.33035,2.64281 0,0.74329 -3.55127,1.89952 z m 8.01101,14.20509 q 0.49553,0 0.49553,0.82588 0,0.82587 -2.56022,7.18513 -2.56023,6.27667 -5.36821,8.91948 -2.80798,2.56022 -7.84583,2.56022 -4.79009,0 -9.66277,-2.31246 -4.87268,-2.39504 -4.87268,-3.30351 0,-0.24776 0.82588,-1.73434 4.29456,-5.78114 6.60702,-15.19615 0.24776,-1.9821 0.82588,-1.9821 0.99105,0 2.22987,1.48658 5.53337,5.20302 11.64487,5.20302 2.64281,0 4.95526,-0.82587 2.39505,-0.82588 2.7254,-0.82588 z"
         style="font-style:normal;font-variant:normal;font-weight:normal;font-stretch:normal;font-size:169.13970947px;font-family:'Script MT Bold';-inkscape-font-specification:'Script MT Bold, ';stroke-width:0.88093591"
         id="path823"
         inkscape:connector-curvature="0" />
    </g>
  </g>
</svg>
