0
SECTION
2
HEADER
9
$INSUNITS
70
4
9
$ACADVER
1
AC1014
9
$HANDSEED
5
FFFF
0
ENDSEC
0
SECTION
2
TABLES
0
TABLE
2
VPORT
5
8
100
AcDbSymbolTable
0
ENDTAB
0
TABLE
2
LTYPE
5
5
100
AcDbSymbolTable
0
LTYPE
5
14
100
AcDbSymbolTableRecord
100
AcDbLinetypeTableRecord
2
BYBLOCK
70
0
0
LTYPE
5
15
100
AcDbSymbolTableRecord
100
AcDbLinetypeTableRecord
2
BYLAYER
70
0
0
ENDTAB
0
TABLE
2
LAYER
5
2
100
AcDbSymbolTable
70
2
0
LAYER
5
50
100
AcDbSymbolTableRecord
100
AcDbLayerTableRecord
2
0
70
0
6
CONTINUOUS
0
ENDTAB
0
TABLE
2
STYLE
5
3
100
AcDbSymbolTable
70
1
0
STYLE
5
11
100
AcDbSymbolTableRecord
100
AcDbTextStyleTableRecord
2
STANDARD
70
0
0
ENDTAB
0
TABLE
2
VIEW
5
6
100
AcDbSymbolTable
70
0
0
ENDTAB
0
TABLE
2
UCS
5
7
100
AcDbSymbolTable
70
0
0
ENDTAB
0
TABLE
2
APPID
5
9
100
AcDbSymbolTable
70
2
0
APPID
5
12
100
AcDbSymbolTableRecord
100
AcDbRegAppTableRecord
2
ACAD
70
0
0
ENDTAB
0
TABLE
2
DIMSTYLE
5
A
100
AcDbSymbolTable
70
1
0
ENDTAB
0
TABLE
2
BLOCK_RECORD
5
1
100
AcDbSymbolTable
70
1
0
BLOCK_RECORD
5
1F
100
AcDbSymbolTableRecord
100
AcDbBlockTableRecord
2
*MODEL_SPACE
0
BLOCK_RECORD
5
1B
100
AcDbSymbolTableRecord
100
AcDbBlockTableRecord
2
*PAPER_SPACE
0
ENDTAB
0
ENDSEC
0
SECTION
2
BLOCKS
0
BLOCK
5
20
100
AcDbEntity
100
AcDbBlockBegin
2
*MODEL_SPACE
0
ENDBLK
5
21
100
AcDbEntity
100
AcDbBlockEnd
0
BLOCK
5
1C
100
AcDbEntity
100
AcDbBlockBegin
2
*PAPER_SPACE
0
ENDBLK
5
1D
100
AcDbEntity
100
AcDbBlockEnd
0
ENDSEC
0
SECTION
2
ENTITIES
0
LWPOLYLINE
5
100
100
AcDbEntity
8
0
100
AcDbPolyline
90
10
70
1
43
0.0
10
20.250000000000004
20
32.499999999999886
10
100
20
32.499999999999851
42
-0.41421356237309531
10
110
20
22.49999999999984
10
109.99999999999999
20
-52.499999999999943
42
-0.41421356237309553
10
100
20
-62.499999999999943
10
20.25
20
-62.5
10
20.25
20
-55.750000000025828
10
27.999999999999858
20
-55.750000000025828
42
0.99999999999999989
10
27.999999999999858
20
-49.250000000028813
10
20.25
20
-49.250000000009358
0
LWPOLYLINE
5
101
100
AcDbEntity
8
0
100
AcDbPolyline
90
8
70
1
43
0.0
10
63.999999999999986
20
-2.4999999999999387
10
98.999999999999986
20
-2.4999999999999156
42
-0.41421356237309342
10
102.99999999999997
20
-6.4999999999999147
10
102.99999999999997
20
-53.499999999999943
42
-0.41421356237309503
10
98.999999999999972
20
-57.499999999999943
10
63.999999999999993
20
-57.499999999999943
42
-0.41421356237309503
10
59.999999999999993
20
-53.499999999999943
10
60
20
-6.4999999999999405
42
-0.4142135623730937
0
LWPOLYLINE
5
102
100
AcDbEntity
8
0
100
AcDbPolyline
90
4
70
1
43
0.0
10
98.67500000000004
20
-50.499999999999723
42
-0.99999999999999989
10
95.324999999999022
20
-50.499999999999758
10
95.324999999999918
20
-40.499999999999766
42
-0.99999999999999989
10
98.67499999999886
20
-40.499999999999716
0
LWPOLYLINE
5
103
100
AcDbEntity
8
0
100
AcDbPolyline
90
4
70
1
43
0.0
10
64.324999999999875
20
-9.5000000000001972
42
-0.99999999999999989
10
67.674999999999869
20
-9.5000000000002238
10
67.675000000000011
20
-19.500000000000199
42
-0.99999999999999989
10
64.324999999999733
20
-19.500000000000213
0
LWPOLYLINE
5
104
100
AcDbEntity
8
0
100
AcDbPolyline
90
4
70
1
43
0.0
10
70
20
-24.999999999999947
10
70
20
-34.999999999999943
42
0.99999999999999989
10
92.999999999999972
20
-34.999999999999943
10
92.999999999999972
20
-24.999999999999947
42
0.99999999999999989
0
LWPOLYLINE
5
105
100
AcDbEntity
8
0
100
AcDbPolyline
90
4
70
1
43
0.0
10
67.675000000000011
20
-50.49999999999973
10
67.675000000000054
20
-40.499999999999758
42
0.99999999999999989
10
64.324999999999974
20
-40.499999999999744
10
64.325000000000017
20
-50.49999999999973
42
0.99999999999999989
0
LWPOLYLINE
5
106
100
AcDbEntity
8
0
100
AcDbPolyline
90
4
70
1
43
0.0
10
95.324999999999875
20
-9.5000000000001261
42
-0.99999999999999989
10
98.674999999999187
20
-9.5000000000000817
10
98.674999999999955
20
-19.500000000000096
42
-0.99999999999999989
10
95.324999999998823
20
-19.500000000000103
0
LWPOLYLINE
5
107
100
AcDbEntity
8
0
100
AcDbPolyline
90
7
70
1
43
0.0
10
-20.250000000000004
20
32.499999999999922
10
-20.249999999999993
20
-62.11809490884395
42
-0.11422548843574573
10
-32.77886581124762
20
-57.00903589794288
10
-105.76683197598655
20
-5.4881186051860169
42
-0.24369239898589728
10
-110
20
2.6815600274616092
10
-110
20
22.499999999999957
42
-0.41421356237309531
10
-100
20
32.499999999999957
0
CIRCLE
5
108
100
AcDbEntity
8
0
100
AcDbCircle
10
-95.000000000000071
20
20.499999999999964
30
0
40
3.75
210
0
220
-0
230
1
0
CIRCLE
5
109
100
AcDbEntity
8
0
100
AcDbCircle
10
-6.5133084111336177e-14
20
-42.5
30
0
40
2.6749999999999985
210
0
220
-0
230
1
0
CIRCLE
5
110
100
AcDbEntity
8
0
100
AcDbCircle
10
-6.5133084111336177e-14
20
17.5
30
0
40
2.6749999999999985
210
0
220
-0
230
1
0
CIRCLE
5
111
100
AcDbEntity
8
0
100
AcDbCircle
10
-6.5133084111336177e-14
20
-12.5
30
0
40
2.6749999999999985
210
0
220
-0
230
1
0
LINE
5
112
100
AcDbEntity
8
0
100
AcDbLine
10
20.25
20
-49.250000000009351
30
0
11
20.25
21
32.499999999999893
31
0
0
LINE
5
113
100
AcDbEntity
8
0
100
AcDbLine
10
20.25
20
32.499999999999886
30
0
11
-20.249999999999989
21
32.499999999999915
31
0
0
LINE
5
114
100
AcDbEntity
8
0
100
AcDbLine
10
-20.249999999999989
20
32.499999999999915
30
0
11
-20.250000000000004
21
-62.118094908843972
31
0
0
ARC
5
115
100
AcDbEntity
8
0
100
AcDbCircle
10
-15.478369883288005
20
-32.500000000001052
30
0
40
29.999999999998998
210
0
220
0
230
1
100
AcDbArc
50
260.84798915425955
51
270.00000000000006
0
LINE
5
116
100
AcDbEntity
8
0
100
AcDbLine
10
-15.478369883287975
20
-62.500000000000028
30
0
11
-3.2499999999924922
21
-62.500000000000014
31
0
0
LINE
5
117
100
AcDbEntity
8
0
100
AcDbLine
10
3.950907155819634
20
-62.500000000000028
30
0
11
20.25
21
-62.5
31
0
0
LINE
5
118
100
AcDbEntity
8
0
100
AcDbLine
10
20.25
20
-62.5
30
0
11
20.25
21
-55.750000000025828
31
0
0
LINE
5
119
100
AcDbEntity
8
0
100
AcDbLine
10
-3.2499999999924913
20
-62.500000000000028
30
0
11
3.9509071558196385
21
-62.500000000000014
31
0
0
LINE
5
120
100
AcDbEntity
8
0
100
AcDbLine
10
-20.249999999999989
20
43.750000000000007
30
0
11
-20.25
21
-66.249999999999986
31
0
0
LINE
5
121
100
AcDbEntity
8
0
100
AcDbLine
10
-20.25
20
-66.25
30
0
11
20.25
21
-66.25
31
0
0
LINE
5
122
100
AcDbEntity
8
0
100
AcDbLine
10
20.25
20
-66.25
30
0
11
20.25
21
43.75
31
0
0
LINE
5
123
100
AcDbEntity
8
0
100
AcDbLine
10
20.25
20
43.750000000000007
30
0
11
-20.249999999999989
21
43.750000000000007
31
0
0
LINE
5
124
100
AcDbEntity
8
0
100
AcDbLine
10
27.999999999999858
20
-49.250000000028813
30
0
11
17.83588799423832
21
-49.250000000003297
31
0
0
ARC
5
125
100
AcDbEntity
8
0
100
AcDbCircle
10
27.999999999999858
20
-52.50000000002732
30
0
40
3.2499999999985096
210
-0
220
0
230
1
100
AcDbArc
50
-90
51
90
0
LINE
5
126
100
AcDbEntity
8
0
100
AcDbLine
10
17.83588799423832
20
-55.750000000025828
30
0
11
27.999999999999858
21
-55.750000000025828
31
0
0
LWPOLYLINE
5
127
100
AcDbEntity
8
0
100
AcDbPolyline
90
8
70
1
43
0.0
10
60
20
-6.4999999999999414
10
60
20
-53.499999999999943
42
0.41421356237309503
10
63.999999999999993
20
-57.499999999999943
10
98.999999999999972
20
-57.499999999999943
42
0.41421356237309503
10
102.99999999999997
20
-53.499999999999943
10
102.99999999999997
20
-6.4999999999999201
42
0.41421356237309515
10
98.999999999999972
20
-2.4999999999999174
10
64
20
-2.49999999999994
42
0.41421356237309515
0
CIRCLE
5
128
100
AcDbEntity
8
0
100
AcDbCircle
10
42.999999999999972
20
20.499999999999964
30
0
40
2.2499999999999964
210
0
220
-0
230
1
0
CIRCLE
5
129
100
AcDbEntity
8
0
100
AcDbCircle
10
95.000000000000071
20
20.499999999999964
30
0
40
3.75
210
0
220
-0
230
1
0
CIRCLE
5
130
100
AcDbEntity
8
0
100
AcDbCircle
10
65
20
20.499999999999964
30
0
40
2.2499999999999964
210
0
220
-0
230
1
0
ARC
5
131
100
AcDbEntity
8
0
100
AcDbCircle
10
-1.27675647831893e-13
20
-62.500000000014559
30
0
40
3.2499999999923643
210
0
220
0
230
1
100
AcDbArc
50
148.55580369485563
51
180
0
ARC
5
132
100
AcDbEntity
8
0
100
AcDbCircle
10
17.835905597633381
20
-73.405976424391483
30
0
40
24.155976424388214
210
0
220
0
230
1
100
AcDbArc
50
90.000048244589138
51
148.5558036950749
0
LINE
5
133
100
AcDbEntity
8
0
100
AcDbLine
10
17.83588799423832
20
-49.250000000003297
30
0
11
20.25
21
-49.250000000009351
31
0
0
ARC
5
134
100
AcDbEntity
8
0
100
AcDbCircle
10
17.835905597633371
20
-73.405976424391469
30
0
40
17.655976424388196
210
0
220
0
230
1
100
AcDbArc
50
90.000048244589081
51
141.85212591828122
0
LINE
5
135
100
AcDbEntity
8
0
100
AcDbLine
10
20.25
20
-55.750000000025828
30
0
11
17.83588799423832
21
-55.750000000025828
31
0
0
ARC
5
136
100
AcDbEntity
8
0
100
AcDbCircle
10
17.835905597633371
20
-73.405976424391469
30
0
40
17.655976424388196
210
0
220
0
230
1
100
AcDbArc
50
90.000048244589081
51
141.85212591828116
0
ARC
5
137
100
AcDbEntity
8
0
100
AcDbCircle
10
17.835905597633371
20
-73.405976424391469
30
0
40
24.155976424388193
210
0
220
0
230
1
100
AcDbArc
50
90.000048244589124
51
148.55580369507484
0
ARC
5
138
100
AcDbEntity
8
0
100
AcDbCircle
10
-9.2703622556200571e-14
20
-62.500000000014559
30
0
40
3.2500000000075984
210
0
220
0
230
1
100
AcDbArc
50
148.55580369485571
51
180
0
ARC
5
139
100
AcDbEntity
8
0
100
AcDbCircle
10
-8.9511731360403246e-14
20
-62.500000000014573
30
0
40
3.2499999999924056
210
0
220
0
230
1
100
AcDbArc
50
148.5558028415202
51
328.55580432029927
0
ARC
5
140
100
AcDbEntity
8
0
100
AcDbCircle
10
17.835905597633356
20
-73.40597642439144
30
0
40
17.655976424388172
210
0
220
0
230
1
100
AcDbArc
50
90.000048244589053
51
148.55580369507496
0
ENDSEC
0
SECTION
2
OBJECTS
0
DICTIONARY
5
C
100
AcDbDictionary
3
ACAD_GROUP
350
D
3
ACAD_MLINESTYLE
350
17
0
DICTIONARY
5
D
100
AcDbDictionary
0
DICTIONARY
5
1A
330
C
100
AcDbDictionary
0
DICTIONARY
5
17
100
AcDbDictionary
0
ENDSEC
0
EOF
