0
SECTION
2
HEADER
9
$INSUNITS
70
4
9
$ACADVER
1
AC1014
9
$HANDSEED
5
FFFF
0
ENDSEC
0
SECTION
2
TABLES
0
TABLE
2
VPORT
5
8
100
AcDbSymbolTable
0
ENDTAB
0
TABLE
2
LTYPE
5
5
100
AcDbSymbolTable
0
LTYPE
5
14
100
AcDbSymbolTableRecord
100
AcDbLinetypeTableRecord
2
BYBLOCK
70
0
0
LTYPE
5
15
100
AcDbSymbolTableRecord
100
AcDbLinetypeTableRecord
2
BYLAYER
70
0
0
ENDTAB
0
TABLE
2
LAYER
5
2
100
AcDbSymbolTable
70
2
0
LAYER
5
50
100
AcDbSymbolTableRecord
100
AcDbLayerTableRecord
2
0
70
0
6
CONTINUOUS
0
ENDTAB
0
TABLE
2
STYLE
5
3
100
AcDbSymbolTable
70
1
0
STYLE
5
11
100
AcDbSymbolTableRecord
100
AcDbTextStyleTableRecord
2
STANDARD
70
0
0
ENDTAB
0
TABLE
2
VIEW
5
6
100
AcDbSymbolTable
70
0
0
ENDTAB
0
TABLE
2
UCS
5
7
100
AcDbSymbolTable
70
0
0
ENDTAB
0
TABLE
2
APPID
5
9
100
AcDbSymbolTable
70
2
0
APPID
5
12
100
AcDbSymbolTableRecord
100
AcDbRegAppTableRecord
2
ACAD
70
0
0
ENDTAB
0
TABLE
2
DIMSTYLE
5
A
100
AcDbSymbolTable
70
1
0
ENDTAB
0
TABLE
2
BLOCK_RECORD
5
1
100
AcDbSymbolTable
70
1
0
BLOCK_RECORD
5
1F
100
AcDbSymbolTableRecord
100
AcDbBlockTableRecord
2
*MODEL_SPACE
0
BLOCK_RECORD
5
1B
100
AcDbSymbolTableRecord
100
AcDbBlockTableRecord
2
*PAPER_SPACE
0
ENDTAB
0
ENDSEC
0
SECTION
2
BLOCKS
0
BLOCK
5
20
100
AcDbEntity
100
AcDbBlockBegin
2
*MODEL_SPACE
0
ENDBLK
5
21
100
AcDbEntity
100
AcDbBlockEnd
0
BLOCK
5
1C
100
AcDbEntity
100
AcDbBlockBegin
2
*PAPER_SPACE
0
ENDBLK
5
1D
100
AcDbEntity
100
AcDbBlockEnd
0
ENDSEC
0
SECTION
2
ENTITIES
0
CIRCLE
5
100
100
AcDbEntity
8
0
100
AcDbCircle
10
19.673584425382302
20
15.285189833841606
30
0
40
2.6500000000000012
210
1.3684555315672042e-48
220
1.1222063866923024e-189
230
1
0
LWPOLYLINE
5
101
100
AcDbEntity
8
0
100
AcDbPolyline
90
4
70
1
43
0.0
10
32.173584425382273
20
20.435189833841623
10
32.173584425382302
20
10.13518983384159
10
7.1735844253823
20
10.13518983384159
10
7.1735844253822734
20
20.435189833841623
0
LWPOLYLINE
5
102
100
AcDbEntity
8
0
100
AcDbPolyline
90
6
70
1
43
0.0
10
27.173584425382302
20
27.435189833841626
42
-0.41421356237309609
10
32.173584425382302
20
22.435189833841626
10
32.173584425382273
20
20.435189833841623
10
7.1735844253822734
20
20.435189833841623
10
7.1735844253823018
20
22.435189833841633
42
-0.41421356237309437
10
12.1735844253823
20
27.435189833841626
0
LWPOLYLINE
5
103
100
AcDbEntity
8
0
100
AcDbPolyline
90
6
70
1
43
0.0
10
12.1735844253823
20
-72.564810166158367
42
-0.41421356237309531
10
7.1735844253823
20
-67.564810166158367
10
7.1735844253823
20
10.13518983384159
10
32.173584425382302
20
10.135189833841585
10
32.173584425382302
20
-67.564810166158381
42
-0.41421356237309453
10
27.173584425382302
20
-72.564810166158367
0
CIRCLE
5
104
100
AcDbEntity
8
0
100
AcDbCircle
10
27.173584425382302
20
-58.42633517245158
30
0
40
2.0500000000000007
210
-0
220
0
230
1
0
LWPOLYLINE
5
105
100
AcDbEntity
8
0
100
AcDbPolyline
90
4
70
1
43
0.0
10
17.73318288864747
20
-37.98740757350204
42
-0.99999999999999989
10
16.013985962116529
20
-34.265262771401169
42
-0.065543462815238152
10
22.647585746190817
20
-32.200214731446948
42
-0.9999999925494194
10
23.344840524693208
20
-36.240491426656774
42
0.065543463155902676
0
LWPOLYLINE
5
106
100
AcDbEntity
8
0
100
AcDbPolyline
90
8
70
1
43
0.0
10
27.173584425382302
20
27.435189833841626
42
-0.41421356237309503
10
32.173584425382302
20
22.435189833841626
10
32.173584425382302
20
-67.564810166158381
42
-0.41421356237309453
10
27.173584425382302
20
-72.564810166158367
10
12.1735844253823
20
-72.564810166158367
42
-0.41421356237309503
10
7.1735844253823
20
-67.564810166158367
10
7.1735844253823
20
22.435189833841633
42
-0.41421356237309476
10
12.1735844253823
20
27.43518983384163
0
CIRCLE
5
107
100
AcDbEntity
8
0
100
AcDbCircle
10
27.173584425382302
20
-58.42633517245158
30
0
40
2.0500000000000007
210
-0
220
0
230
1
0
LWPOLYLINE
5
108
100
AcDbEntity
8
0
100
AcDbPolyline
90
4
70
1
43
0.0
10
17.73318288864747
20
-37.98740757350204
42
-0.99999999999999989
10
16.013985962116514
20
-34.265262771401169
42
-0.065543462815238263
10
22.647585746190835
20
-32.200214731446955
42
-0.99999999999999989
10
23.344840494590784
20
-36.240491431851723
42
0.065543462815237888
0
CIRCLE
5
109
100
AcDbEntity
8
0
100
AcDbCircle
10
19.673584425382302
20
15.285189833841606
30
0
40
2.6500000000000012
210
1.3684555315672042e-48
220
1.1222063866923024e-189
230
1
0
ENDSEC
0
SECTION
2
OBJECTS
0
DICTIONARY
5
C
100
AcDbDictionary
3
ACAD_GROUP
350
D
3
ACAD_MLINESTYLE
350
17
0
DICTIONARY
5
D
100
AcDbDictionary
0
DICTIONARY
5
1A
330
C
100
AcDbDictionary
0
DICTIONARY
5
17
100
AcDbDictionary
0
ENDSEC
0
EOF
