0
SECTION
2
HEADER
9
$INSUNITS
70
4
9
$ACADVER
1
AC1014
9
$HANDSEED
5
FFFF
0
ENDSEC
0
SECTION
2
TABLES
0
TABLE
2
VPORT
5
8
100
AcDbSymbolTable
0
ENDTAB
0
TABLE
2
LTYPE
5
5
100
AcDbSymbolTable
0
LTYPE
5
14
100
AcDbSymbolTableRecord
100
AcDbLinetypeTableRecord
2
BYBLOCK
70
0
0
LTYPE
5
15
100
AcDbSymbolTableRecord
100
AcDbLinetypeTableRecord
2
BYLAYER
70
0
0
ENDTAB
0
TABLE
2
LAYER
5
2
100
AcDbSymbolTable
70
2
0
LAYER
5
50
100
AcDbSymbolTableRecord
100
AcDbLayerTableRecord
2
0
70
0
6
CONTINUOUS
0
ENDTAB
0
TABLE
2
STYLE
5
3
100
AcDbSymbolTable
70
1
0
STYLE
5
11
100
AcDbSymbolTableRecord
100
AcDbTextStyleTableRecord
2
STANDARD
70
0
0
ENDTAB
0
TABLE
2
VIEW
5
6
100
AcDbSymbolTable
70
0
0
ENDTAB
0
TABLE
2
UCS
5
7
100
AcDbSymbolTable
70
0
0
ENDTAB
0
TABLE
2
APPID
5
9
100
AcDbSymbolTable
70
2
0
APPID
5
12
100
AcDbSymbolTableRecord
100
AcDbRegAppTableRecord
2
ACAD
70
0
0
ENDTAB
0
TABLE
2
DIMSTYLE
5
A
100
AcDbSymbolTable
70
1
0
ENDTAB
0
TABLE
2
BLOCK_RECORD
5
1
100
AcDbSymbolTable
70
1
0
BLOCK_RECORD
5
1F
100
AcDbSymbolTableRecord
100
AcDbBlockTableRecord
2
*MODEL_SPACE
0
BLOCK_RECORD
5
1B
100
AcDbSymbolTableRecord
100
AcDbBlockTableRecord
2
*PAPER_SPACE
0
ENDTAB
0
ENDSEC
0
SECTION
2
BLOCKS
0
BLOCK
5
20
100
AcDbEntity
100
AcDbBlockBegin
2
*MODEL_SPACE
0
ENDBLK
5
21
100
AcDbEntity
100
AcDbBlockEnd
0
BLOCK
5
1C
100
AcDbEntity
100
AcDbBlockBegin
2
*PAPER_SPACE
0
ENDBLK
5
1D
100
AcDbEntity
100
AcDbBlockEnd
0
ENDSEC
0
SECTION
2
ENTITIES
0
LWPOLYLINE
5
100
100
AcDbEntity
8
0
100
AcDbPolyline
90
4
70
1
43
0.0
10
-1499.6923227069556
20
-44.864810165981254
10
-1514.6923227069556
20
-44.864810165981254
42
0.99999999999999989
10
-1514.6923227069556
20
-48.964810165981248
10
-1499.6923227069556
20
-48.964810165981248
42
0.99999999999999989
0
LWPOLYLINE
5
101
100
AcDbEntity
8
0
100
AcDbPolyline
90
4
70
1
43
0.0
10
-1499.6923227069556
20
-35.864810165981247
10
-1514.6923227069556
20
-35.864810165981247
42
0.99999999999999989
10
-1514.6923227069556
20
-39.964810165981248
10
-1499.6923227069556
20
-39.964810165981248
42
0.99999999999999989
0
LWPOLYLINE
5
102
100
AcDbEntity
8
0
100
AcDbPolyline
90
4
70
1
43
0.0
10
-1499.6923227069551
20
-26.864810165981247
42
-0.99999999999999989
10
-1499.6923227069556
20
-30.964810165981248
10
-1514.692322706956
20
-30.964810165981248
42
-0.99999999999999989
10
-1514.6923227069556
20
-26.864810165981247
0
LWPOLYLINE
5
103
100
AcDbEntity
8
0
100
AcDbPolyline
90
18
70
1
43
0.0
10
-1517.7923227069593
20
-9.344810165981233
42
-0.41421356237302787
10
-1517.1923227069592
20
-9.9448101659811172
10
-1517.1923227069592
20
-12.712393366608323
42
0.36498221706582773
10
-1517.1923227069592
20
-15.97722696535395
10
-1517.1923227069592
20
-20.414810165981248
42
0.41421356237309503
10
-1514.6923227069592
20
-22.914810165981248
10
-1496.1923227069556
20
-22.914810165981226
42
-0.41421356237309764
10
-1493.6923227069556
20
-25.414810165981248
10
-1493.6923227069556
20
-50.414810165981251
42
-0.41421356237309709
10
-1496.1923227069556
20
-52.914810165981251
10
-1514.6923227069592
20
-52.914810165981251
42
0.41421356237309503
10
-1517.1923227069592
20
-55.414810165981251
10
-1517.192322706959
20
-60.025522942327186
42
0.32192661347753337
10
-1517.1923227069592
20
-62.944097389634564
10
-1517.1923227069592
20
-65.884810165980866
42
-0.41421356237302998
10
-1517.7923227069593
20
-66.484810165980861
10
-1527.1923227069592
20
-66.484810165980861
10
-1527.1923227069592
20
-9.3448101659811211
0
ENDSEC
0
SECTION
2
OBJECTS
0
DICTIONARY
5
C
100
AcDbDictionary
3
ACAD_GROUP
350
D
3
ACAD_MLINESTYLE
350
17
0
DICTIONARY
5
D
100
AcDbDictionary
0
DICTIONARY
5
1A
330
C
100
AcDbDictionary
0
DICTIONARY
5
17
100
AcDbDictionary
0
ENDSEC
0
EOF
