  0
SECTION
  2
HEADER
  9
$ACADVER
  1
AC1009
  9
$DWGCODEPAGE
  3
ansi_1252
  9
$INSBASE
 10
0.0
 20
0.0
 30
0.0
  9
$EXTMIN
 10
1.000000000000000E+20
 20
1.000000000000000E+20
 30
1.000000000000000E+20
  9
$EXTMAX
 10
-1.000000000000000E+20
 20
-1.000000000000000E+20
 30
-1.000000000000000E+20
  9
$LIMMIN
 10
0.0
 20
0.0
  9
$LIMMAX
 10
12.0
 20
9.0
  9
$ORTHOMODE
 70
     0
  9
$REGENMODE
 70
     1
  9
$FILLMODE
 70
     1
  9
$QTEXTMODE
 70
     0
  9
$MIRRTEXT
 70
     1
  9
$DRAGMODE
 70
     2
  9
$LTSCALE
 40
1.0
  9
$OSMODE
 70
    37
  9
$ATTMODE
 70
     1
  9
$TEXTSIZE
 40
0.2
  9
$TRACEWID
 40
0.05
  9
$TEXTSTYLE
  7
STANDARD
  9
$CLAYER
  8
0
  9
$CELTYPE
  6
BYLAYER
  9
$CECOLOR
 62
   256
  9
$DIMSCALE
 40
1.0
  9
$DIMASZ
 40
0.18
  9
$DIMEXO
 40
0.0625
  9
$DIMDLI
 40
0.38
  9
$DIMRND
 40
0.0
  9
$DIMDLE
 40
0.0
  9
$DIMEXE
 40
0.18
  9
$DIMTP
 40
0.0
  9
$DIMTM
 40
0.0
  9
$DIMTXT
 40
0.18
  9
$DIMCEN
 40
0.09
  9
$DIMTSZ
 40
0.0
  9
$DIMTOL
 70
     0
  9
$DIMLIM
 70
     0
  9
$DIMTIH
 70
     1
  9
$DIMTOH
 70
     1
  9
$DIMSE1
 70
     0
  9
$DIMSE2
 70
     0
  9
$DIMTAD
 70
     0
  9
$DIMZIN
 70
     0
  9
$DIMBLK
  1

  9
$DIMASO
 70
     1
  9
$DIMSHO
 70
     1
  9
$DIMPOST
  1

  9
$DIMAPOST
  1

  9
$DIMALT
 70
     0
  9
$DIMALTD
 70
     2
  9
$DIMALTF
 40
25.4
  9
$DIMLFAC
 40
1.0
  9
$DIMTOFL
 70
     0
  9
$DIMTVP
 40
0.0
  9
$DIMTIX
 70
     0
  9
$DIMSOXD
 70
     0
  9
$DIMSAH
 70
     0
  9
$DIMBLK1
  1

  9
$DIMBLK2
  1

  9
$DIMSTYLE
  2
STANDARD_ACAD
  9
$DIMCLRD
 70
     0
  9
$DIMCLRE
 70
     0
  9
$DIMCLRT
 70
     0
  9
$DIMTFAC
 40
1.0
  9
$DIMGAP
 40
0.09
  9
$LUNITS
 70
     2
  9
$LUPREC
 70
     3
  9
$SKETCHINC
 40
0.1
  9
$FILLETRAD
 40
0.5
  9
$AUNITS
 70
     0
  9
$AUPREC
 70
     0
  9
$MENU
  1
.
  9
$ELEVATION
 40
0.0
  9
$PELEVATION
 40
0.0
  9
$THICKNESS
 40
0.0
  9
$LIMCHECK
 70
     0
  9
$CHAMFERA
 40
0.0
  9
$CHAMFERB
 40
0.0
  9
$SKPOLY
 70
     0
  9
$TDCREATE
 40
2458977.573305706
  9
$TDUPDATE
 40
2458977.57331963
  9
$TDINDWG
 40
0.0000000116
  9
$TDUSRTIMER
 40
0.0000000116
  9
$USRTIMER
 70
     1
  9
$ANGBASE
 50
0.0
  9
$ANGDIR
 70
     0
  9
$PDMODE
 70
     0
  9
$PDSIZE
 40
0.0
  9
$PLINEWID
 40
0.0
  9
$COORDS
 70
     1
  9
$SPLFRAME
 70
     0
  9
$SPLINETYPE
 70
     6
  9
$SPLINESEGS
 70
     8
  9
$ATTDIA
 70
     0
  9
$ATTREQ
 70
     1
  9
$HANDLING
 70
     1
  9
$HANDSEED
  5
1B7
  9
$SURFTAB1
 70
     6
  9
$SURFTAB2
 70
     6
  9
$SURFTYPE
 70
     6
  9
$SURFU
 70
     6
  9
$SURFV
 70
     6
  9
$UCSNAME
  2

  9
$UCSORG
 10
0.0
 20
0.0
 30
0.0
  9
$UCSXDIR
 10
1.0
 20
0.0
 30
0.0
  9
$UCSYDIR
 10
0.0
 20
1.0
 30
0.0
  9
$PUCSNAME
  2

  9
$PUCSORG
 10
0.0
 20
0.0
 30
0.0
  9
$PUCSXDIR
 10
1.0
 20
0.0
 30
0.0
  9
$PUCSYDIR
 10
0.0
 20
1.0
 30
0.0
  9
$USERI1
 70
     0
  9
$USERI2
 70
     0
  9
$USERI3
 70
     0
  9
$USERI4
 70
     0
  9
$USERI5
 70
     0
  9
$USERR1
 40
0.0
  9
$USERR2
 40
0.0
  9
$USERR3
 40
0.0
  9
$USERR4
 40
0.0
  9
$USERR5
 40
0.0
  9
$WORLDVIEW
 70
     1
  9
$SHADEDGE
 70
     3
  9
$SHADEDIF
 70
    70
  9
$TILEMODE
 70
     1
  9
$MAXACTVP
 70
    64
  9
$PLIMCHECK
 70
     0
  9
$PEXTMIN
 10
1.000000000000000E+20
 20
1.000000000000000E+20
 30
1.000000000000000E+20
  9
$PEXTMAX
 10
-1.000000000000000E+20
 20
-1.000000000000000E+20
 30
-1.000000000000000E+20
  9
$PLIMMIN
 10
0.0
 20
0.0
  9
$PLIMMAX
 10
12.0
 20
9.0
  9
$UNITMODE
 70
     0
  9
$VISRETAIN
 70
     1
  9
$PLINEGEN
 70
     0
  9
$PSLTSCALE
 70
     1
  0
ENDSEC
  0
SECTION
  2
TABLES
  0
TABLE
  2
VPORT
 70
     1
  0
VPORT
  2
*ACTIVE
 70
     0
 10
0.0
 20
0.0
 11
1.0
 21
1.0
 12
10.42990654205607
 22
4.5
 13
0.0
 23
0.0
 14
0.5
 24
0.5
 15
0.5
 25
0.5
 16
0.0
 26
0.0
 36
1.0
 17
0.0
 27
0.0
 37
0.0
 40
9.0
 41
1.972972972850329
 42
50.0
 43
0.0
 44
0.0
 50
0.0
 51
0.0
 71
     0
 72
   100
 73
     1
 74
     3
 75
     0
 76
     0
 77
     0
 78
     0
  0
ENDTAB
  0
TABLE
  2
LTYPE
 70
     1
  0
LTYPE
  2
CONTINUOUS
 70
     0
  3
Solid line
 72
    65
 73
     0
 40
0.0
  0
ENDTAB
  0
TABLE
  2
LAYER
 70
     1
  0
LAYER
  2
0
 70
     0
 62
     7
  6
CONTINUOUS
  0
ENDTAB
  0
TABLE
  2
STYLE
 70
     1
  0
STYLE
  2
STANDARD
 70
     0
 40
0.0
 41
1.0
 50
0.0
 71
     0
 42
0.2
  3
txt
  4

  0
ENDTAB
  0
TABLE
  2
VIEW
 70
     0
  0
ENDTAB
  0
TABLE
  2
UCS
 70
     0
  0
ENDTAB
  0
TABLE
  2
APPID
 70
     1
  0
APPID
  2
ACAD
 70
     0
  0
ENDTAB
  0
TABLE
  2
DIMSTYLE
 70
     1
  0
DIMSTYLE
  2
STANDARD_ACAD
 70
     0
  3

  4

  5

  6

  7

 40
1.0
 41
0.18
 42
0.0625
 43
0.38
 44
0.18
 45
0.0
 46
0.0
 47
0.0
 48
0.0
140
0.18
141
0.09
142
0.0
143
25.4
144
1.0
145
0.0
146
1.0
147
0.09
 71
     0
 72
     0
 73
     1
 74
     1
 75
     0
 76
     0
 77
     0
 78
     0
170
     0
171
     2
172
     0
173
     0
174
     0
175
     0
176
     0
177
     0
178
     0
  0
ENDTAB
  0
ENDSEC
  0
SECTION
  2
BLOCKS
  0
BLOCK
  8
0
  2
$MODEL_SPACE
 70
     0
 10
0.0
 20
0.0
 30
0.0
  3
$MODEL_SPACE
  1

  0
ENDBLK
  5
21
  8
0
  0
BLOCK
 67
     1
  8
0
  2
$PAPER_SPACE
 70
     0
 10
0.0
 20
0.0
 30
0.0
  3
$PAPER_SPACE
  1

  0
ENDBLK
  5
1D
 67
     1
  8
0
  0
ENDSEC
  0
SECTION
  2
ENTITIES
  0
CIRCLE
  5
6E
  8
0
  6
BYBLOCK
 62
     0
 10
1.407751382358159
 20
-767.9489841439438
 30
0.0
 40
4.124999999999972
  0
CIRCLE
  5
6F
  8
0
  6
BYBLOCK
 62
     0
 10
-2.458697194007825
 20
-667.6414907156767
 30
0.0
 40
4.124999999999972
  0
CIRCLE
  5
70
  8
0
  6
BYBLOCK
 62
     0
 10
-20.61546640617241
 20
-720.3358399481137
 30
0.0
 40
2.050000000000125
  0
LINE
  5
71
  8
0
  6
BYBLOCK
 62
     0
 10
-35.57833747982284
 20
-740.8754039813543
 30
0.0
 11
-26.30901711436521
 21
-739.7031956049292
 31
0.0
  0
ARC
  5
72
  8
0
  6
BYBLOCK
 62
     0
 10
-25.08340789272757
 20
-738.1227266758331
 30
0.0
 40
2.000000000000338
 50
232.2074279690155
 51
52.20742796901552
  0
LINE
  5
73
  8
0
  6
BYBLOCK
 62
     0
 10
-23.85779867108971
 20
-736.542257746737
 30
0.0
 11
-24.46542871011397
 21
-731.7373803813624
 31
0.0
  0
ARC
  5
74
  8
0
  6
BYBLOCK
 62
     0
 10
-26.0458976392083
 20
-730.5117711597227
 30
0.0
 40
2.000000000000298
 50
322.2074279689382
 51
142.2074279689382
  0
LINE
  5
75
  8
0
  6
BYBLOCK
 62
     0
 10
-27.62636656830262
 20
-729.2861619380827
 30
0.0
 11
-36.89568693375799
 21
-730.4583703145076
 31
0.0
  0
ARC
  5
76
  8
0
  6
BYBLOCK
 62
     0
 10
-38.12129615539789
 20
-732.0388392436022
 30
0.0
 40
2.000000000000378
 50
52.20742796893875
 51
232.2074279689387
  0
LINE
  5
77
  8
0
  6
BYBLOCK
 62
     0
 10
-39.34690537703779
 20
-733.6193081726965
 30
0.0
 11
-38.73927533801291
 21
-738.4241855380761
 31
0.0
  0
ARC
  5
78
  8
0
  6
BYBLOCK
 62
     0
 10
-37.15880640891776
 20
-739.6497947597152
 30
0.0
 40
2.000000000000418
 50
142.2074279689662
 51
322.2074279689662
  0
LINE
  5
79
  8
0
  6
BYBLOCK
 62
     0
 10
-38.90307657783359
 20
-714.5847952032524
 30
0.0
 11
-29.63375621237738
 21
-713.4125868268267
 31
0.0
  0
ARC
  5
7A
  8
0
  6
BYBLOCK
 62
     0
 10
-28.40814699073819
 20
-711.8321178977322
 30
0.0
 40
2.000000000000016
 50
232.2074279689546
 51
52.2074279689546
  0
LINE
  5
7B
  8
0
  6
BYBLOCK
 62
     0
 10
-27.18253776909899
 20
-710.2516489686377
 30
0.0
 11
-27.7901678081238
 21
-705.4467716032585
 31
0.0
  0
ARC
  5
7C
  8
0
  6
BYBLOCK
 62
     0
 10
-29.37063673721828
 20
-704.2211623816194
 30
0.0
 40
2.000000000000056
 50
322.2074279689538
 51
142.2074279689538
  0
LINE
  5
7D
  8
0
  6
BYBLOCK
 62
     0
 10
-30.95110566631278
 20
-702.9955531599801
 30
0.0
 11
-40.22042603176897
 21
-704.1677615364058
 31
0.0
  0
ARC
  5
7E
  8
0
  6
BYBLOCK
 62
     0
 10
-41.44603525340816
 20
-705.7482304655003
 30
0.0
 40
2.000000000000137
 50
52.20742796895426
 51
232.2074279689543
  0
LINE
  5
7F
  8
0
  6
BYBLOCK
 62
     0
 10
-42.67164447504756
 20
-707.3286993945948
 30
0.0
 11
-42.06401443602272
 21
-712.1335767599742
 31
0.0
  0
ARC
  5
80
  8
0
  6
BYBLOCK
 62
     0
 10
-40.48354550692805
 20
-713.3591859816133
 30
0.0
 40
2.000000000000016
 50
142.2074279689605
 51
322.2074279689605
  0
ARC
  5
81
  8
0
  6
BYBLOCK
 62
     0
 10
26.75990441577266
 20
-663.6588965086056
 30
0.0
 40
2.999999999998724
 50
32.77890718949755
 51
82.79257203105577
210
0.0
220
0.0
230
-1.0
  0
LINE
  5
82
  8
0
  6
BYBLOCK
 62
     0
 10
-27.13628997403908
 20
-660.6826011752221
 30
0.0
 11
-3.713315721565209
 21
-657.7205062710618
 31
0.0
  0
ARC
  5
83
  8
0
  6
BYBLOCK
 62
     0
 10
2.458697194007825
 20
-667.6414907156767
 30
0.0
 40
9.999999999999025
 50
82.7925720310447
 51
185.8672817237542
210
0.0
220
0.0
230
-1.0
  0
ARC
  5
84
  8
0
  6
BYBLOCK
 62
     0
 10
352.9916665095434
 20
-704.1685801014474
 30
0.0
 40
347.322248560013
 50
174.1327182762485
 51
190.2821376616643
  0
ARC
  5
85
  8
0
  6
BYBLOCK
 62
     0
 10
-1.407751382358386
 20
-767.9489841439438
 30
0.0
 40
10.00000000000017
 50
169.717862338337
 51
303.7855954656795
210
0.0
220
0.0
230
-1.0
  0
ARC
  5
86
  8
0
  6
BYBLOCK
 62
     0
 10
-107.0642211490613
 20
-610.0353672629484
 30
0.0
 40
200.0
 50
303.7855954656789
 51
318.767890038243
210
0.0
220
0.0
230
-1.0
  0
LINE
  5
87
  8
0
  6
BYBLOCK
 62
     0
 10
-43.34490785286611
 20
-741.8575729525878
 30
0.0
 11
-47.98699640481205
 21
-705.1499305076335
 31
0.0
  0
ARC
  5
88
  8
0
  6
BYBLOCK
 62
     0
 10
-92.63445068524848
 20
-740.5411137758589
 30
0.0
 40
145.0066454850528
 50
14.12664042818934
 51
32.77890718950886
210
0.0
220
0.0
230
-1.0
  0
ARC
  5
89
  8
0
  6
BYBLOCK
 62
     0
 10
22.11146988551478
 20
-789.1666288255662
 30
0.0
 40
2.999999999998724
 50
32.77890718949755
 51
82.79257203105577
210
0.0
220
0.0
230
-1.0
  0
LINE
  5
8A
  8
0
  6
BYBLOCK
 62
     0
 10
-22.4878554437812
 20
-786.1903334921827
 30
0.0
 11
0.9351188086926641
 21
-783.2282385880225
 31
0.0
  0
ARC
  5
8B
  8
0
  6
BYBLOCK
 62
     0
 10
-2.189737336250047
 20
-793.1492230326373
 30
0.0
 40
9.999999999999025
 50
82.7925720310447
 51
185.8672817237542
210
0.0
220
0.0
230
-1.0
  0
ARC
  5
8C
  8
0
  6
BYBLOCK
 62
     0
 10
357.6401010398013
 20
-829.6763124184081
 30
0.0
 40
347.322248560013
 50
174.1327182762485
 51
190.2821376616643
  0
ARC
  5
8D
  8
0
  6
BYBLOCK
 62
     0
 10
-6.056185912616257
 20
-893.4567164609044
 30
0.0
 40
10.00000000000017
 50
169.717862338337
 51
303.7855954656795
210
0.0
220
0.0
230
-1.0
  0
ARC
  5
8E
  8
0
  6
BYBLOCK
 62
     0
 10
-111.7126556793191
 20
-735.5430995799092
 30
0.0
 40
200.0
 50
303.7855954656789
 51
318.767890038243
210
0.0
220
0.0
230
-1.0
  0
LINE
  5
8F
  8
0
  6
BYBLOCK
 62
     0
 10
-38.69647332260823
 20
-867.3653052695485
 30
0.0
 11
-43.33856187455417
 21
-830.6576628245941
 31
0.0
  0
ARC
  5
90
  8
0
  6
BYBLOCK
 62
     0
 10
-97.28288521550633
 20
-866.0488460928195
 30
0.0
 40
145.0066454850528
 50
14.12664042818934
 51
32.77890718950886
210
0.0
220
0.0
230
-1.0
  0
LINE
  5
91
  8
0
  6
BYBLOCK
 62
     0
 10
-34.25464204757571
 20
-840.092527520213
 30
0.0
 11
-24.9853216821195
 21
-838.9203191437873
 31
0.0
  0
ARC
  5
92
  8
0
  6
BYBLOCK
 62
     0
 10
-23.75971246048032
 20
-837.3398502146929
 30
0.0
 40
2.000000000000016
 50
232.2074279689546
 51
52.2074279689546
  0
LINE
  5
93
  8
0
  6
BYBLOCK
 62
     0
 10
-22.53410323884111
 20
-835.7593812855984
 30
0.0
 11
-23.14173327786592
 21
-830.9545039202192
 31
0.0
  0
ARC
  5
94
  8
0
  6
BYBLOCK
 62
     0
 10
-24.7222022069604
 20
-829.72889469858
 30
0.0
 40
2.000000000000056
 50
322.2074279689538
 51
142.2074279689538
  0
LINE
  5
95
  8
0
  6
BYBLOCK
 62
     0
 10
-26.3026711360549
 20
-828.5032854769407
 30
0.0
 11
-35.57199150151109
 21
-829.6754938533664
 31
0.0
  0
ARC
  5
96
  8
0
  6
BYBLOCK
 62
     0
 10
-36.79760072315028
 20
-831.255962782461
 30
0.0
 40
2.000000000000137
 50
52.20742796895426
 51
232.2074279689543
  0
LINE
  5
97
  8
0
  6
BYBLOCK
 62
     0
 10
-38.02320994478968
 20
-832.8364317115554
 30
0.0
 11
-37.41557990576484
 21
-837.6413090769348
 31
0.0
  0
ARC
  5
98
  8
0
  6
BYBLOCK
 62
     0
 10
-35.83511097667017
 20
-838.866918298574
 30
0.0
 40
2.000000000000016
 50
142.2074279689605
 51
322.2074279689605
  0
LINE
  5
99
  8
0
  6
BYBLOCK
 62
     0
 10
-30.92990294956496
 20
-866.383136298315
 30
0.0
 11
-21.66058258410733
 21
-865.2109279218898
 31
0.0
  0
ARC
  5
9A
  8
0
  6
BYBLOCK
 62
     0
 10
-20.43497336246969
 20
-863.6304589927937
 30
0.0
 40
2.000000000000338
 50
232.2074279690155
 51
52.20742796901544
  0
LINE
  5
9B
  8
0
  6
BYBLOCK
 62
     0
 10
-19.20936414083184
 20
-862.0499900636977
 30
0.0
 11
-19.8169941798561
 21
-857.245112698323
 31
0.0
  0
ARC
  5
9C
  8
0
  6
BYBLOCK
 62
     0
 10
-21.39746310895042
 20
-856.0195034766833
 30
0.0
 40
2.000000000000298
 50
322.2074279689382
 51
142.2074279689382
  0
LINE
  5
9D
  8
0
  6
BYBLOCK
 62
     0
 10
-22.97793203804474
 20
-854.7938942550434
 30
0.0
 11
-32.24725240350011
 21
-855.9661026314683
 31
0.0
  0
ARC
  5
9E
  8
0
  6
BYBLOCK
 62
     0
 10
-33.47286162514001
 20
-857.5465715605628
 30
0.0
 40
2.000000000000378
 50
52.20742796893875
 51
232.2074279689387
  0
LINE
  5
9F
  8
0
  6
BYBLOCK
 62
     0
 10
-34.69847084677991
 20
-859.1270404896571
 30
0.0
 11
-34.09084080775503
 21
-863.9319178550368
 31
0.0
  0
ARC
  5
A0
  8
0
  6
BYBLOCK
 62
     0
 10
-32.51037187865988
 20
-865.1575270766758
 30
0.0
 40
2.000000000000418
 50
142.2074279689662
 51
322.2074279689662
  0
CIRCLE
  5
A1
  8
0
  6
BYBLOCK
 62
     0
 10
-15.96703187591453
 20
-845.8435722650744
 30
0.0
 40
2.050000000000125
  0
CIRCLE
  5
A2
  8
0
  6
BYBLOCK
 62
     0
 10
2.189737336250047
 20
-793.1492230326373
 30
0.0
 40
4.124999999999972
  0
CIRCLE
  5
A3
  8
0
  6
BYBLOCK
 62
     0
 10
6.05618591261603
 20
-893.4567164609044
 30
0.0
 40
4.124999999999972
  0
ARC
  5
A4
  8
0
  6
BYBLOCK
 62
     0
 10
-61.77703513621398
 20
-577.5179901870955
 30
0.0
 40
2.000000000000097
 50
224.9999999999659
 51
44.9999999999656
210
2.231235581970258E-30
220
-2.231235581987666E-30
230
-1.0
  0
LINE
  5
A5
  8
0
  6
BYBLOCK
 62
     0
 10
60.36282157383997
 20
-576.1037766247231
 30
0.0
 11
60.36282157386026
 21
-551.6275691918385
 31
0.0
  0
ARC
  5
A6
  8
0
  6
BYBLOCK
 62
     0
 10
-61.82419201992159
 20
-550.2621401679129
 30
0.0
 40
2.0
 50
316.9438695134528
 51
138.3201134613923
210
0.0
220
0.0
230
-1.0
  0
LINE
  5
A7
  8
0
  6
BYBLOCK
 62
     0
 10
63.31793534554887
 20
-548.9322037494537
 30
0.0
 11
67.96319306157025
 21
-548.9322037494567
 31
0.0
  0
ARC
  5
A8
  8
0
  6
BYBLOCK
 62
     0
 10
-69.45693638719604
 20
-550.2621401679174
 30
0.0
 40
2.0
 50
41.67988653867249
 51
225.3364319620506
210
0.0
220
0.0
230
-1.0
  0
LINE
  5
A9
  8
0
  6
BYBLOCK
 62
     0
 10
70.86282157386086
 20
-551.6846333460792
 30
0.0
 11
70.86282157384625
 21
-576.1037766247327
 31
0.0
  0
ARC
  5
AA
  8
0
  6
BYBLOCK
 62
     0
 10
-69.44860801146754
 20
-577.5179901871
 30
0.0
 40
1.999999999999921
 50
135.0000000002312
 51
315.0000000001154
210
6.693706745941270E-30
220
2.231235581966452E-30
230
-1.0
  0
LINE
  5
AB
  8
0
  6
BYBLOCK
 62
     0
 10
68.03439444909154
 20
-578.9322037494705
 30
0.0
 11
63.19124869858798
 21
-578.9322037494678
 31
0.0
  0
ARC
  5
AC
  8
0
  6
BYBLOCK
 62
     0
 10
95.94860801144196
 20
-550.3464173118518
 30
0.0
 40
2.000000000000122
 50
315.0000000000633
 51
135.0000000000633
  0
LINE
  5
AD
  8
0
  6
BYBLOCK
 62
     0
 10
94.53439444906721
 20
-548.9322037494803
 30
0.0
 11
89.69124869856748
 21
-548.9322037494802
 31
0.0
  0
ARC
  5
AE
  8
0
  6
BYBLOCK
 62
     0
 10
88.2770351361884
 20
-550.3464173118473
 30
0.0
 40
2.000000000000122
 50
44.99999999976079
 51
225.0000000002173
  0
LINE
  5
AF
  8
0
  6
BYBLOCK
 62
     0
 10
86.86282157382057
 20
-551.7606308742259
 30
0.0
 11
86.86282157382068
 21
-576.1037766247188
 31
0.0
  0
ARC
  5
B0
  8
0
  6
BYBLOCK
 62
     0
 10
88.27703513617203
 20
-577.5179901871136
 30
0.0
 40
2.000000000000047
 50
134.9999999991165
 51
315.000000000388
  0
LINE
  5
B1
  8
0
  6
BYBLOCK
 62
     0
 10
89.69124869855474
 20
-578.9322037494771
 30
0.0
 11
94.53439444903847
 21
-578.9322037494774
 31
0.0
  0
ARC
  5
B2
  8
0
  6
BYBLOCK
 62
     0
 10
95.94860801142559
 20
-577.5179901871184
 30
0.0
 40
2.000000000000047
 50
224.9999999994329
 51
44.99999999910559
  0
LINE
  5
B3
  8
0
  6
BYBLOCK
 62
     0
 10
97.3628215738208
 20
-576.1037766247673
 30
0.0
 11
97.36282157381673
 21
-551.7606308742234
 31
0.0
  0
ARC
  5
B4
  8
0
  6
BYBLOCK
 62
     0
 10
-95.9486080113756
 20
-660.8168765403473
 30
0.0
 40
2.000000000000047
 50
44.99999999968104
 51
224.9999999996848
210
4.462471163730078E-30
220
4.462471164185601E-30
230
-1.0
  0
LINE
  5
B5
  8
0
  6
BYBLOCK
 62
     0
 10
97.36282157375655
 20
-662.2310901027125
 30
0.0
 11
97.36282157382092
 21
-686.5742358533289
 31
0.0
  0
ARC
  5
B6
  8
0
  6
BYBLOCK
 62
     0
 10
-95.94860801135944
 20
-687.9884494156136
 30
0.0
 40
1.999999999999933
 50
135.0000000035846
 51
315.0000000003184
210
-4.462471163933687E-30
220
4.462471163981993E-30
230
-1.0
  0
LINE
  5
B7
  8
0
  6
BYBLOCK
 62
     0
 10
94.53439444897843
 20
-689.4026629779789
 30
0.0
 11
89.69124869848189
 21
-689.4026629779792
 31
0.0
  0
ARC
  5
B8
  8
0
  6
BYBLOCK
 62
     0
 10
-88.27703513610577
 20
-687.9884494156089
 30
0.0
 40
2.000000000000059
 50
224.9999999998788
 51
45.00000000358111
210
-2.231235581839546E-30
220
2.231235582118380E-30
230
-1.0
  0
LINE
  5
B9
  8
0
  6
BYBLOCK
 62
     0
 10
86.86282157382101
 20
-686.5742358531473
 30
0.0
 11
86.86282157382107
 21
-662.2310901027878
 31
0.0
  0
ARC
  5
BA
  8
0
  6
BYBLOCK
 62
     0
 10
-88.27703513612204
 20
-660.8168765403425
 30
0.0
 40
1.999999999999996
 50
314.9999999970786
 51
135.0000000005193
210
4.462471163997989E-30
220
4.462471163917863E-30
230
-1.0
  0
LINE
  5
BB
  8
0
  6
BYBLOCK
 62
     0
 10
89.69124869850792
 20
-659.4026629779822
 30
0.0
 11
94.53439444899458
 21
-659.402662977982
 31
0.0
  0
ARC
  5
BC
  8
0
  6
BYBLOCK
 62
     0
 10
-69.44860801141755
 20
-660.8168765403336
 30
0.0
 40
2.000000000000047
 50
44.99999999937215
 51
224.9999999993721
210
0.0
220
0.0
230
-1.0
  0
LINE
  5
BD
  8
0
  6
BYBLOCK
 62
     0
 10
70.86282157380617
 20
-662.2310901026913
 30
0.0
 11
70.86282157378116
 21
-686.6149987908326
 31
0.0
  0
ARC
  5
BE
  8
0
  6
BYBLOCK
 62
     0
 10
-69.50851028886889
 20
-688.0866784242987
 30
0.0
 40
2.0
 50
132.6217727666584
 51
318.8530684281736
210
0.0
220
0.0
230
-1.0
  0
LINE
  5
BF
  8
0
  6
BYBLOCK
 62
     0
 10
68.00246093561124
 20
-689.4026629779894
 30
0.0
 11
63.17534589142265
 21
-689.4026629779867
 31
0.0
  0
ARC
  5
C0
  8
0
  6
BYBLOCK
 62
     0
 10
-61.6692965381668
 20
-688.0866784242941
 30
0.0
 40
2.0
 50
221.1469315718995
 51
49.21385875763066
210
0.0
220
0.0
230
-1.0
  0
LINE
  5
C1
  8
0
  6
BYBLOCK
 62
     0
 10
60.36282157378008
 20
-686.5723722572886
 30
0.0
 11
60.36282157379448
 21
-662.2310901027058
 31
0.0
  0
ARC
  5
C2
  8
0
  6
BYBLOCK
 62
     0
 10
-61.77703513616411
 20
-660.8168765403292
 30
0.0
 40
2.000000000000097
 50
314.9999999998556
 51
135.0000000006839
210
-2.231235581952052E-30
220
2.231235582005957E-30
230
-1.0
  0
LINE
  5
C3
  8
0
  6
BYBLOCK
 62
     0
 10
63.19124869855415
 20
-659.4026629779729
 30
0.0
 11
68.03439444902892
 21
-659.4026629779761
 31
0.0
  0
CIRCLE
  5
C4
  8
0
  6
BYBLOCK
 62
     0
 10
-92.1128215738159
 20
-584.932203749486
 30
0.0
 40
2.04999999999998
210
0.0
220
0.0
230
-1.0
  0
ARC
  5
C5
  8
0
  6
BYBLOCK
 62
     0
 10
53.86282157381969
 20
-619.1674333637059
 30
0.0
 40
4.0
 50
269.9999999999779
 51
89.99999999997792
  0
LINE
  5
C6
  8
0
  6
BYBLOCK
 62
     0
 10
53.86282157382129
 20
-615.1674333637059
 30
0.0
 11
38.86282157382152
 21
-615.1674333637014
 31
0.0
  0
ARC
  5
C7
  8
0
  6
BYBLOCK
 62
     0
 10
38.86282157382003
 20
-619.1674333637014
 30
0.0
 40
3.999999999999986
 50
89.99999999997873
 51
269.9999999999787
  0
LINE
  5
C8
  8
0
  6
BYBLOCK
 62
     0
 10
38.86282157381854
 20
-623.1674333637014
 30
0.0
 11
53.8628215738182
 21
-623.1674333637059
 31
0.0
  0
LINE
  5
C9
  8
0
  6
BYBLOCK
 62
     0
 10
49.96282157383461
 20
-566.1822037494535
 30
0.0
 11
49.86282157383447
 21
-566.1822037494534
 31
0.0
  0
ARC
  5
CA
  8
0
  6
BYBLOCK
 62
     0
 10
-49.86282157383582
 20
-563.9322037494534
 30
0.0
 40
2.25
 50
270.0000000000344
 51
90.00000000003438
210
0.0
220
0.0
230
-1.0
  0
LINE
  5
CB
  8
0
  6
BYBLOCK
 62
     0
 10
49.86282157383717
 20
-561.6822037494534
 30
0.0
 11
49.96282157383742
 21
-561.6822037494535
 31
0.0
  0
ARC
  5
CC
  8
0
  6
BYBLOCK
 62
     0
 10
-49.96282157383596
 20
-563.9322037494535
 30
0.0
 40
2.25
 50
90.00000000003583
 51
270.0000000000358
210
0.0
220
0.0
230
-1.0
  0
CIRCLE
  5
CD
  8
0
  6
BYBLOCK
 62
     0
 10
-114.3628215738438
 20
-544.1674333637236
 30
0.0
 40
3.749999999999995
210
-1.889407583936352E-42
220
-3.155443620884048E-30
230
-1.0
  0
LINE
  5
CE
  8
0
  6
BYBLOCK
 62
     0
 10
49.96282157380155
 20
-676.652662977956
 30
0.0
 11
49.86282157380153
 21
-676.6526629779559
 31
0.0
  0
ARC
  5
CF
  8
0
  6
BYBLOCK
 62
     0
 10
-49.86282157380288
 20
-674.4026629779559
 30
0.0
 40
2.250000000000014
 50
270.0000000000344
 51
90.00000000003438
210
0.0
220
0.0
230
-1.0
  0
LINE
  5
D0
  8
0
  6
BYBLOCK
 62
     0
 10
49.86282157380422
 20
-672.1526629779559
 30
0.0
 11
49.96282157380436
 21
-672.152662977956
 31
0.0
  0
ARC
  5
D1
  8
0
  6
BYBLOCK
 62
     0
 10
-49.9628215738029
 20
-674.402662977956
 30
0.0
 40
2.250000000000014
 50
90.00000000003583
 51
270.0000000000358
210
0.0
220
0.0
230
-1.0
  0
CIRCLE
  5
D2
  8
0
  6
BYBLOCK
 62
     0
 10
-114.362821573799
 20
-694.1674333637237
 30
0.0
 40
3.749999999999995
210
-1.889407583936352E-42
220
-3.155443620884048E-30
230
-1.0
  0
LINE
  5
D3
  8
0
  6
BYBLOCK
 62
     0
 10
36.59266329191065
 20
-699.244743025232
 30
0.0
 11
117.5926632919073
 21
-713.813088348997
 31
0.0
  0
ARC
  5
D4
  8
0
  6
BYBLOCK
 62
     0
 10
119.3628215737949
 20
-703.9710083017172
 30
0.0
 40
9.999999999999792
 50
259.8040117526973
 51
359.9999999999831
  0
LINE
  5
D5
  8
0
  6
BYBLOCK
 62
     0
 10
129.3628215737947
 20
-703.9710083017203
 30
0.0
 11
129.3628215738458
 21
-534.363858425736
 31
0.0
  0
ARC
  5
D6
  8
0
  6
BYBLOCK
 62
     0
 10
119.362821573846
 20
-534.3638584257329
 30
0.0
 40
9.999999999999847
 50
359.9999999999824
 51
100.1959882472707
  0
LINE
  5
D7
  8
0
  6
BYBLOCK
 62
     0
 10
117.5926632919638
 20
-524.5217783784522
 30
0.0
 11
36.59266329195846
 21
-539.0901237021693
 31
0.0
  0
ARC
  5
D8
  8
0
  6
BYBLOCK
 62
     0
 10
38.36282157384071
 20
-548.9322037494503
 30
0.0
 40
10.00000000000018
 50
100.1959882472706
 51
179.9999999999818
  0
LINE
  5
D9
  8
0
  6
BYBLOCK
 62
     0
 10
28.36282157384048
 20
-548.9322037494472
 30
0.0
 11
28.36282157379844
 21
-689.402662977949
 31
0.0
  0
ARC
  5
DA
  8
0
  6
BYBLOCK
 62
     0
 10
38.36282157379856
 20
-689.402662977952
 30
0.0
 40
10.00000000000016
 50
179.9999999999831
 51
259.8040117526959
  0
CIRCLE
  5
DB
  8
0
  6
BYBLOCK
 62
     0
 10
-92.11282157372435
 20
-695.4026629779812
 30
0.0
 40
2.04999999999998
210
0.0
220
0.0
230
-1.0
  0
CIRCLE
  5
DC
  8
0
  6
BYBLOCK
 62
     0
 10
-65.61282157386137
 20
-542.9322037494717
 30
0.0
 40
2.04999999999998
210
0.0
220
0.0
230
-1.0
  0
CIRCLE
  5
DD
  8
0
  6
BYBLOCK
 62
     0
 10
-92.11282157374973
 20
-653.4026629779751
 30
0.0
 40
2.04999999999998
210
0.0
220
0.0
230
-1.0
  0
CIRCLE
  5
DE
  8
0
  6
BYBLOCK
 62
     0
 10
-65.61282157376984
 20
-695.4026629779573
 30
0.0
 40
2.04999999999998
210
0.0
220
0.0
230
-1.0
  0
CIRCLE
  5
DF
  8
0
  6
BYBLOCK
 62
     0
 10
-65.6128215738361
 20
-584.9322037494621
 30
0.0
 40
2.04999999999998
210
0.0
220
0.0
230
-1.0
  0
CIRCLE
  5
E0
  8
0
  6
BYBLOCK
 62
     0
 10
-92.11282157381599
 20
-542.9322037494796
 30
0.0
 40
2.04999999999998
210
0.0
220
0.0
230
-1.0
  0
CIRCLE
  5
E1
  8
0
  6
BYBLOCK
 62
     0
 10
-65.61282157379509
 20
-653.4026629779671
 30
0.0
 40
2.04999999999998
210
0.0
220
0.0
230
-1.0
  0
CIRCLE
  5
E2
  8
0
  6
BYBLOCK
 62
     0
 10
86.2348116283234
 20
-844.739999294468
 30
0.0
 40
2.04999999999998
  0
CIRCLE
  5
E3
  8
0
  6
BYBLOCK
 62
     0
 10
59.73481162836865
 20
-734.2695400659646
 30
0.0
 40
2.04999999999998
  0
CIRCLE
  5
E4
  8
0
  6
BYBLOCK
 62
     0
 10
86.2348116283234
 20
-776.269540065963
 30
0.0
 40
2.04999999999998
  0
CIRCLE
  5
E5
  8
0
  6
BYBLOCK
 62
     0
 10
86.23481162832351
 20
-886.7399992944582
 30
0.0
 40
2.04999999999998
  0
CIRCLE
  5
E6
  8
0
  6
BYBLOCK
 62
     0
 10
59.73481162836876
 20
-844.7399992944601
 30
0.0
 40
2.04999999999998
  0
CIRCLE
  5
E7
  8
0
  6
BYBLOCK
 62
     0
 10
86.23481162832329
 20
-734.2695400659726
 30
0.0
 40
2.04999999999998
  0
CIRCLE
  5
E8
  8
0
  6
BYBLOCK
 62
     0
 10
59.73481162836899
 20
-886.7399992944662
 30
0.0
 40
2.04999999999998
  0
LINE
  5
E9
  8
0
  6
BYBLOCK
 62
     0
 10
115.2549699101804
 20
-890.5820793417503
 30
0.0
 11
34.25496991017505
 21
-905.1504246654667
 31
0.0
  0
ARC
  5
EA
  8
0
  6
BYBLOCK
 62
     0
 10
-32.48481162829327
 20
-895.308344618186
 30
0.0
 40
9.999999999999792
 50
259.8040117527317
 51
0.0000000000175872
210
0.0
220
0.0
230
-1.0
  0
LINE
  5
EB
  8
0
  6
BYBLOCK
 62
     0
 10
22.4848116282935
 20
-895.308344618183
 30
0.0
 11
22.48481162834398
 21
-725.7011947421987
 31
0.0
  0
ARC
  5
EC
  8
0
  6
BYBLOCK
 62
     0
 10
-32.48481162834375
 20
-725.7011947422017
 30
0.0
 40
9.999999999999847
 50
0.0000000000169358
 51
100.1959882473051
210
0.0
220
0.0
230
-1.0
  0
LINE
  5
ED
  8
0
  6
BYBLOCK
 62
     0
 10
34.25496991023189
 20
-715.8591146949219
 30
0.0
 11
115.2549699102285
 21
-730.4274600186876
 31
0.0
  0
ARC
  5
EE
  8
0
  6
BYBLOCK
 62
     0
 10
-113.4848116283403
 20
-740.2695400659676
 30
0.0
 40
10.00000000000018
 50
100.1959882473048
 51
180.0000000000169
210
0.0
220
0.0
230
-1.0
  0
LINE
  5
EF
  8
0
  6
BYBLOCK
 62
     0
 10
123.4848116283406
 20
-740.2695400659704
 30
0.0
 11
123.4848116282985
 21
-880.7399992944722
 31
0.0
  0
ARC
  5
F0
  8
0
  6
BYBLOCK
 62
     0
 10
-113.4848116282984
 20
-880.7399992944693
 30
0.0
 40
10.00000000000016
 50
180.0000000000176
 51
259.8040117527303
210
0.0
220
0.0
230
-1.0
  0
CIRCLE
  5
F1
  8
0
  6
BYBLOCK
 62
     0
 10
37.48481162829509
 20
-885.5047696801954
 30
0.0
 40
3.749999999999995
  0
LINE
  5
F2
  8
0
  6
BYBLOCK
 62
     0
 10
101.884811628303
 20
-867.9899992944662
 30
0.0
 11
101.984811628303
 21
-867.9899992944662
 31
0.0
  0
ARC
  5
F3
  8
0
  6
BYBLOCK
 62
     0
 10
101.984811628303
 20
-865.7399992944662
 30
0.0
 40
2.250000000000014
 50
270.0
 51
90.0
  0
LINE
  5
F4
  8
0
  6
BYBLOCK
 62
     0
 10
101.984811628303
 20
-863.4899992944662
 30
0.0
 11
101.8848116283029
 21
-863.4899992944662
 31
0.0
  0
ARC
  5
F5
  8
0
  6
BYBLOCK
 62
     0
 10
101.884811628303
 20
-865.7399992944662
 30
0.0
 40
2.250000000000014
 50
90.00000000000146
 51
270.0000000000014
  0
CIRCLE
  5
F6
  8
0
  6
BYBLOCK
 62
     0
 10
37.48481162834011
 20
-735.5047696801953
 30
0.0
 40
3.749999999999995
  0
LINE
  5
F7
  8
0
  6
BYBLOCK
 62
     0
 10
101.8848116283361
 20
-757.5195400659637
 30
0.0
 11
101.9848116283362
 21
-757.5195400659637
 31
0.0
  0
ARC
  5
F8
  8
0
  6
BYBLOCK
 62
     0
 10
101.9848116283362
 20
-755.2695400659637
 30
0.0
 40
2.25
 50
270.0
 51
90.0
  0
LINE
  5
F9
  8
0
  6
BYBLOCK
 62
     0
 10
101.9848116283362
 20
-753.0195400659637
 30
0.0
 11
101.884811628336
 21
-753.0195400659637
 31
0.0
  0
ARC
  5
FA
  8
0
  6
BYBLOCK
 62
     0
 10
101.8848116283361
 20
-755.2695400659637
 30
0.0
 40
2.25
 50
90.00000000000146
 51
270.0000000000014
  0
ARC
  5
FB
  8
0
  6
BYBLOCK
 62
     0
 10
-97.9848116283193
 20
-810.5047696802138
 30
0.0
 40
4.0
 50
270.0000000000122
 51
90.00000000001221
210
0.0
220
0.0
230
-1.0
  0
LINE
  5
FC
  8
0
  6
BYBLOCK
 62
     0
 10
97.9848116283201
 20
-806.5047696802138
 30
0.0
 11
112.9848116283199
 21
-806.5047696802184
 31
0.0
  0
ARC
  5
FD
  8
0
  6
BYBLOCK
 62
     0
 10
-112.984811628319
 20
-810.5047696802184
 30
0.0
 40
3.999999999999986
 50
90.00000000001303
 51
270.000000000013
210
0.0
220
0.0
230
-1.0
  0
LINE
  5
FE
  8
0
  6
BYBLOCK
 62
     0
 10
112.9848116283181
 20
-814.5047696802184
 30
0.0
 11
97.9848116283184
 21
-814.5047696802138
 31
0.0
  0
CIRCLE
  5
FF
  8
0
  6
BYBLOCK
 62
     0
 10
59.73481162834358
 20
-776.269540065971
 30
0.0
 40
2.04999999999998
  0
ARC
  5
100
  8
0
  6
BYBLOCK
 62
     0
 10
82.3990251906965
 20
-852.1542128568323
 30
0.0
 40
2.000000000000047
 50
44.99999999933674
 51
224.9999999993367
  0
LINE
  5
101
  8
0
  6
BYBLOCK
 62
     0
 10
80.98481162830703
 20
-853.568426419189
 30
0.0
 11
80.98481162831743
 21
-877.9523351073303
 31
0.0
  0
ARC
  5
102
  8
0
  6
BYBLOCK
 62
     0
 10
82.33912291322883
 20
-879.4240147407974
 30
0.0
 40
2.0
 50
132.6217727666244
 51
318.8530684281392
  0
LINE
  5
103
  8
0
  6
BYBLOCK
 62
     0
 10
83.84517226648569
 20
-880.7399992944888
 30
0.0
 11
88.67228731067428
 21
-880.739999294489
 31
0.0
  0
ARC
  5
104
  8
0
  6
BYBLOCK
 62
     0
 10
90.1783366639309
 20
-879.4240147407974
 30
0.0
 40
2.0
 50
221.1469315718651
 51
49.21385875759635
  0
LINE
  5
105
  8
0
  6
BYBLOCK
 62
     0
 10
91.48481162831854
 20
-877.9097085737927
 30
0.0
 11
91.48481162831871
 21
-853.5684264192099
 31
0.0
  0
ARC
  5
106
  8
0
  6
BYBLOCK
 62
     0
 10
90.07059806594995
 20
-852.1542128568324
 30
0.0
 40
2.000000000000097
 50
314.9999999998224
 51
135.0000000006506
  0
LINE
  5
107
  8
0
  6
BYBLOCK
 62
     0
 10
88.65638450356076
 20
-850.7399992944753
 30
0.0
 11
83.81323875308598
 21
-850.7399992944755
 31
0.0
  0
ARC
  5
108
  8
0
  6
BYBLOCK
 62
     0
 10
55.89902519073846
 20
-852.15421285683
 30
0.0
 40
2.000000000000047
 50
44.99999999964549
 51
224.9999999996492
  0
LINE
  5
109
  8
0
  6
BYBLOCK
 62
     0
 10
54.48481162835665
 20
-853.5684264191945
 30
0.0
 11
54.4848116282777
 21
-877.9115721698108
 31
0.0
  0
ARC
  5
10A
  8
0
  6
BYBLOCK
 62
     0
 10
55.89902519073834
 20
-879.3257857320963
 30
0.0
 40
1.999999999999933
 50
135.0000000035492
 51
315.000000000283
  0
LINE
  5
10B
  8
0
  6
BYBLOCK
 62
     0
 10
57.3132387531185
 20
-880.7399992944626
 30
0.0
 11
62.15638450361504
 21
-880.7399992944656
 31
0.0
  0
ARC
  5
10C
  8
0
  6
BYBLOCK
 62
     0
 10
63.57059806599202
 20
-879.3257857320963
 30
0.0
 40
2.000000000000059
 50
224.9999999998457
 51
45.00000000354801
  0
LINE
  5
10D
  8
0
  6
BYBLOCK
 62
     0
 10
64.98481162827761
 20
-877.9115721696355
 30
0.0
 11
64.98481162829214
 21
-853.568426419276
 31
0.0
  0
ARC
  5
10E
  8
0
  6
BYBLOCK
 62
     0
 10
63.57059806599202
 20
-852.1542128568299
 30
0.0
 40
1.999999999999996
 50
314.999999997043
 51
135.0000000004836
  0
LINE
  5
10F
  8
0
  6
BYBLOCK
 62
     0
 10
62.15638450360697
 20
-850.7399992944687
 30
0.0
 11
57.31323875312032
 21
-850.7399992944656
 31
0.0
  0
ARC
  5
110
  8
0
  6
BYBLOCK
 62
     0
 10
-55.89902519073823
 20
-741.6837536283346
 30
0.0
 40
2.000000000000122
 50
315.0000000000987
 51
135.0000000000987
210
0.0
220
0.0
230
-1.0
  0
LINE
  5
111
  8
0
  6
BYBLOCK
 62
     0
 10
57.31323875311384
 20
-740.2695400659638
 30
0.0
 11
62.15638450361357
 21
-740.2695400659667
 31
0.0
  0
ARC
  5
112
  8
0
  6
BYBLOCK
 62
     0
 10
-63.57059806599179
 20
-741.6837536283347
 30
0.0
 40
2.000000000000122
 50
44.99999999979418
 51
225.0000000002507
210
-2.231235582003430E-30
220
6.693706745928446E-30
230
-1.0
  0
LINE
  5
113
  8
0
  6
BYBLOCK
 62
     0
 10
64.98481162835878
 20
-743.097967190714
 30
0.0
 11
64.98481162834409
 21
-767.4411129412069
 31
0.0
  0
ARC
  5
114
  8
0
  6
BYBLOCK
 62
     0
 10
-63.5705980659919
 20
-768.855326503601
 30
0.0
 40
2.000000000000047
 50
134.9999999991522
 51
315.0000000004236
210
4.462471163891564E-30
220
4.462471164023837E-30
230
-1.0
  0
LINE
  5
115
  8
0
  6
BYBLOCK
 62
     0
 10
62.15638450360834
 20
-770.2695400659636
 30
0.0
 11
57.31323875312461
 21
-770.269540065961
 31
0.0
  0
ARC
  5
116
  8
0
  6
BYBLOCK
 62
     0
 10
-55.89902519073834
 20
-768.8553265036011
 30
0.0
 40
2.000000000000047
 50
224.9999999994662
 51
44.99999999913884
210
2.231235581958237E-30
220
2.231235581999629E-30
230
-1.0
  0
LINE
  5
117
  8
0
  6
BYBLOCK
 62
     0
 10
54.48481162834398
 20
-767.4411129412492
 30
0.0
 11
54.48481162836262
 21
-743.0979671907053
 31
0.0
  0
ARC
  5
118
  8
0
  6
BYBLOCK
 62
     0
 10
90.07059806594995
 20
-768.8553265035987
 30
0.0
 40
2.000000000000097
 50
224.9999999999326
 51
44.99999999993235
  0
LINE
  5
119
  8
0
  6
BYBLOCK
 62
     0
 10
91.48481162832479
 20
-767.4411129412272
 30
0.0
 11
91.48481162831916
 21
-742.9649055083426
 31
0.0
  0
ARC
  5
11A
  8
0
  6
BYBLOCK
 62
     0
 10
90.02344118225867
 20
-741.5994764844161
 30
0.0
 40
2.0
 50
316.9438695134177
 51
138.3201134613578
  0
LINE
  5
11B
  8
0
  6
BYBLOCK
 62
     0
 10
88.52969785663217
 20
-740.269540065956
 30
0.0
 11
83.88444014061079
 21
-740.2695400659561
 31
0.0
  0
ARC
  5
11C
  8
0
  6
BYBLOCK
 62
     0
 10
82.39069681498421
 20
-741.5994764844161
 30
0.0
 40
2.0
 50
41.67988653863787
 51
225.3364319620172
  0
LINE
  5
11D
  8
0
  6
BYBLOCK
 62
     0
 10
80.98481162831854
 20
-743.0219696625769
 30
0.0
 11
80.98481162831851
 21
-767.4411129412305
 31
0.0
  0
ARC
  5
11E
  8
0
  6
BYBLOCK
 62
     0
 10
82.39902519069639
 20
-768.8553265035987
 30
0.0
 40
1.999999999999921
 50
135.0000000001955
 51
315.0000000000798
  0
LINE
  5
11F
  8
0
  6
BYBLOCK
 62
     0
 10
83.81323875307154
 20
-770.26954006597
 30
0.0
 11
88.65638450357511
 21
-770.2695400659702
 31
0.0
  0
ARC
  5
120
  8
0
  6
BYBLOCK
 62
     0
 10
-248.8075967446694
 20
-529.0058773360024
 30
0.0
 40
1.999999999999996
 50
135.0
 51
315.0
210
0.0
220
0.0
230
-1.0
  0
LINE
  5
121
  8
0
  6
BYBLOCK
 62
     0
 10
247.3933831822962
 20
-530.4200908983755
 30
0.0
 11
245.2218103070425
 21
-530.4200908983754
 31
0.0
  0
LINE
  5
122
  8
0
  6
BYBLOCK
 62
     0
 10
245.2218103070425
 20
-530.4200908983754
 30
0.0
 11
245.2218103070424
 21
-716.6212045451293
 31
0.0
  0
ARC
  5
123
  8
0
  6
BYBLOCK
 62
     0
 10
-243.8075967446673
 20
-718.0354181075004
 30
0.0
 40
2.000000000000021
 50
135.0000000000823
 51
315.0
210
0.0
220
0.0
230
-1.0
  0
LINE
  5
124
  8
0
  6
BYBLOCK
 62
     0
 10
242.3933831822942
 20
-719.4496316698735
 30
0.0
 11
234.7218103070406
 21
-719.4496316698734
 31
0.0
  0
LINE
  5
125
  8
0
  6
BYBLOCK
 62
     0
 10
234.7218103070406
 20
-719.4496316698734
 30
0.0
 11
234.7218103070406
 21
-749.4496316698734
 31
0.0
  0
LINE
  5
126
  8
0
  6
BYBLOCK
 62
     0
 10
234.7218103070406
 20
-749.4496316698734
 30
0.0
 11
242.3933831822943
 21
-749.4496316698734
 31
0.0
  0
ARC
  5
127
  8
0
  6
BYBLOCK
 62
     0
 10
-243.8075967446673
 20
-750.8638452322465
 30
0.0
 40
1.999999999999996
 50
45.00000000000058
 51
224.9999999999171
210
0.0
220
0.0
230
-1.0
  0
LINE
  5
128
  8
0
  6
BYBLOCK
 62
     0
 10
245.2218103070425
 20
-752.2780587946176
 30
0.0
 11
245.2218103070424
 21
-827.0916637736293
 31
0.0
  0
ARC
  5
129
  8
0
  6
BYBLOCK
 62
     0
 10
-243.8075967446694
 20
-828.5058773360023
 30
0.0
 40
1.999999999999971
 50
135.0000000000017
 51
315.0000000000023
210
0.0
220
0.0
230
-1.0
  0
LINE
  5
12A
  8
0
  6
BYBLOCK
 62
     0
 10
242.3933831822962
 20
-829.9200908983753
 30
0.0
 11
234.7218103070425
 21
-829.9200908983753
 31
0.0
  0
LINE
  5
12B
  8
0
  6
BYBLOCK
 62
     0
 10
234.7218103070425
 20
-829.9200908983753
 30
0.0
 11
234.7218103070425
 21
-859.9200908983753
 31
0.0
  0
LINE
  5
12C
  8
0
  6
BYBLOCK
 62
     0
 10
234.7218103070425
 20
-859.9200908983753
 30
0.0
 11
242.3933831822962
 21
-859.9200908983753
 31
0.0
  0
ARC
  5
12D
  8
0
  6
BYBLOCK
 62
     0
 10
-243.8075967446694
 20
-861.3343044607484
 30
0.0
 40
2.000000000000034
 50
44.99999999999885
 51
225.0
210
0.0
220
0.0
230
-1.0
  0
LINE
  5
12E
  8
0
  6
BYBLOCK
 62
     0
 10
245.2218103070425
 20
-862.7485180231215
 30
0.0
 11
245.2218103070425
 21
-909.4200908983753
 31
0.0
  0
LINE
  5
12F
  8
0
  6
BYBLOCK
 62
     0
 10
245.2218103070425
 20
-909.4200908983753
 30
0.0
 11
247.3776109735483
 21
-909.4200908983754
 31
0.0
  0
ARC
  5
130
  8
0
  6
BYBLOCK
 62
     0
 10
-248.9269016975616
 20
-910.684882680641
 30
0.0
 40
2.0
 50
39.22710907228529
 51
229.6500587975247
210
0.0
220
0.0
230
-1.0
  0
LINE
  5
131
  8
0
  6
BYBLOCK
 62
     0
 10
250.2218103070425
 20
-912.2090912270979
 30
0.0
 11
250.2218103070425
 21
-919.9200908983753
 31
0.0
  0
LINE
  5
132
  8
0
  6
BYBLOCK
 62
     0
 10
250.2218103070425
 20
-919.9200908983753
 30
0.0
 11
265.2218103070425
 21
-919.9200908983753
 31
0.0
  0
LINE
  5
133
  8
0
  6
BYBLOCK
 62
     0
 10
265.2218103070425
 20
-919.9200908983753
 30
0.0
 11
265.2218103070425
 21
-892.7485180231215
 31
0.0
  0
ARC
  5
134
  8
0
  6
BYBLOCK
 62
     0
 10
-266.6360238694158
 20
-891.3343044607484
 30
0.0
 40
1.999999999999971
 50
315.0000000000057
 51
135.0000000000023
210
0.0
220
0.0
230
-1.0
  0
LINE
  5
135
  8
0
  6
BYBLOCK
 62
     0
 10
268.0502374317889
 20
-889.9200908983754
 30
0.0
 11
275.7218103070427
 21
-889.9200908983753
 31
0.0
  0
LINE
  5
136
  8
0
  6
BYBLOCK
 62
     0
 10
275.7218103070427
 20
-889.9200908983753
 30
0.0
 11
275.7218103070427
 21
-864.9200908983753
 31
0.0
  0
LINE
  5
137
  8
0
  6
BYBLOCK
 62
     0
 10
275.7218103070427
 20
-864.9200908983753
 30
0.0
 11
268.050237431789
 21
-864.9200908983753
 31
0.0
  0
ARC
  5
138
  8
0
  6
BYBLOCK
 62
     0
 10
-266.6360238694158
 20
-863.5058773360023
 30
0.0
 40
2.000000000000034
 50
224.9999999999965
 51
44.99999999999194
210
0.0
220
0.0
230
-1.0
  0
LINE
  5
139
  8
0
  6
BYBLOCK
 62
     0
 10
265.2218103070425
 20
-862.0916637736294
 30
0.0
 11
265.2218103070426
 21
-737.7485180231213
 31
0.0
  0
ARC
  5
13A
  8
0
  6
BYBLOCK
 62
     0
 10
-266.6360238694158
 20
-736.3343044607484
 30
0.0
 40
1.999999999999971
 50
315.0000000000057
 51
135.0000000000023
210
0.0
220
0.0
230
-1.0
  0
LINE
  5
13B
  8
0
  6
BYBLOCK
 62
     0
 10
268.0502374317889
 20
-734.9200908983754
 30
0.0
 11
275.7218103070427
 21
-734.9200908983753
 31
0.0
  0
LINE
  5
13C
  8
0
  6
BYBLOCK
 62
     0
 10
275.7218103070427
 20
-734.9200908983753
 30
0.0
 11
275.7218103070427
 21
-704.9200908983753
 31
0.0
  0
LINE
  5
13D
  8
0
  6
BYBLOCK
 62
     0
 10
275.7218103070427
 20
-704.9200908983753
 30
0.0
 11
268.0502374317888
 21
-704.9200908983752
 31
0.0
  0
ARC
  5
13E
  8
0
  6
BYBLOCK
 62
     0
 10
-266.6360238694158
 20
-703.5058773360022
 30
0.0
 40
1.999999999999921
 50
224.9999999999988
 51
44.99999999998964
210
0.0
220
0.0
230
-1.0
  0
LINE
  5
13F
  8
0
  6
BYBLOCK
 62
     0
 10
265.2218103070425
 20
-702.0916637736294
 30
0.0
 11
265.2218103070426
 21
-577.7485180231214
 31
0.0
  0
ARC
  5
140
  8
0
  6
BYBLOCK
 62
     0
 10
-266.6360238694158
 20
-576.3343044607484
 30
0.0
 40
1.999999999999946
 50
315.0000000000035
 51
135.0000000000023
210
0.0
220
0.0
230
-1.0
  0
LINE
  5
141
  8
0
  6
BYBLOCK
 62
     0
 10
268.0502374317889
 20
-574.9200908983754
 30
0.0
 11
275.7218103070427
 21
-574.9200908983753
 31
0.0
  0
LINE
  5
142
  8
0
  6
BYBLOCK
 62
     0
 10
275.7218103070427
 20
-574.9200908983753
 30
0.0
 11
275.7218103070427
 21
-549.9200908983753
 31
0.0
  0
LINE
  5
143
  8
0
  6
BYBLOCK
 62
     0
 10
275.7218103070427
 20
-549.9200908983753
 30
0.0
 11
268.050237431789
 21
-549.9200908983754
 31
0.0
  0
ARC
  5
144
  8
0
  6
BYBLOCK
 62
     0
 10
-266.6360238694158
 20
-548.5058773360023
 30
0.0
 40
2.000000000000047
 50
224.9999999999977
 51
44.99999999999424
210
0.0
220
0.0
230
-1.0
  0
LINE
  5
145
  8
0
  6
BYBLOCK
 62
     0
 10
265.2218103070425
 20
-547.0916637736293
 30
0.0
 11
265.2218103070425
 21
-519.9200908983753
 31
0.0
  0
LINE
  5
146
  8
0
  6
BYBLOCK
 62
     0
 10
265.2218103070425
 20
-519.9200908983753
 30
0.0
 11
250.2218103070425
 21
-519.9200908983753
 31
0.0
  0
LINE
  5
147
  8
0
  6
BYBLOCK
 62
     0
 10
250.2218103070425
 20
-519.9200908983753
 30
0.0
 11
250.2218103070425
 21
-527.5916637736293
 31
0.0
  0
ARC
  5
148
  8
0
  6
BYBLOCK
 62
     0
 10
-201.3906316560669
 20
-529.0058773360024
 30
0.0
 40
1.999999999999996
 50
135.0
 51
315.0
210
0.0
220
0.0
230
-1.0
  0
LINE
  5
149
  8
0
  6
BYBLOCK
 62
     0
 10
199.9764180936938
 20
-530.4200908983755
 30
0.0
 11
197.8048452184401
 21
-530.4200908983754
 31
0.0
  0
LINE
  5
14A
  8
0
  6
BYBLOCK
 62
     0
 10
197.8048452184401
 20
-530.4200908983754
 30
0.0
 11
197.80484521844
 21
-716.6212045451293
 31
0.0
  0
ARC
  5
14B
  8
0
  6
BYBLOCK
 62
     0
 10
-196.3906316560649
 20
-718.0354181075004
 30
0.0
 40
2.000000000000021
 50
135.0000000000823
 51
315.0
210
0.0
220
0.0
230
-1.0
  0
LINE
  5
14C
  8
0
  6
BYBLOCK
 62
     0
 10
194.9764180936918
 20
-719.4496316698735
 30
0.0
 11
187.3048452184382
 21
-719.4496316698734
 31
0.0
  0
LINE
  5
14D
  8
0
  6
BYBLOCK
 62
     0
 10
187.3048452184382
 20
-719.4496316698734
 30
0.0
 11
187.3048452184382
 21
-749.4496316698734
 31
0.0
  0
LINE
  5
14E
  8
0
  6
BYBLOCK
 62
     0
 10
187.3048452184382
 20
-749.4496316698734
 30
0.0
 11
194.9764180936918
 21
-749.4496316698734
 31
0.0
  0
ARC
  5
14F
  8
0
  6
BYBLOCK
 62
     0
 10
-196.3906316560649
 20
-750.8638452322465
 30
0.0
 40
1.999999999999996
 50
45.00000000000058
 51
224.9999999999171
210
0.0
220
0.0
230
-1.0
  0
LINE
  5
150
  8
0
  6
BYBLOCK
 62
     0
 10
197.8048452184401
 20
-752.2780587946176
 30
0.0
 11
197.80484521844
 21
-827.0916637736293
 31
0.0
  0
ARC
  5
151
  8
0
  6
BYBLOCK
 62
     0
 10
-196.3906316560669
 20
-828.5058773360023
 30
0.0
 40
1.999999999999971
 50
135.0000000000017
 51
315.0000000000023
210
0.0
220
0.0
230
-1.0
  0
LINE
  5
152
  8
0
  6
BYBLOCK
 62
     0
 10
194.9764180936938
 20
-829.9200908983753
 30
0.0
 11
187.3048452184401
 21
-829.9200908983753
 31
0.0
  0
LINE
  5
153
  8
0
  6
BYBLOCK
 62
     0
 10
187.3048452184401
 20
-829.9200908983753
 30
0.0
 11
187.3048452184401
 21
-859.9200908983753
 31
0.0
  0
LINE
  5
154
  8
0
  6
BYBLOCK
 62
     0
 10
187.3048452184401
 20
-859.9200908983753
 30
0.0
 11
194.9764180936938
 21
-859.9200908983753
 31
0.0
  0
ARC
  5
155
  8
0
  6
BYBLOCK
 62
     0
 10
-196.3906316560669
 20
-861.3343044607484
 30
0.0
 40
2.000000000000034
 50
44.99999999999885
 51
225.0
210
0.0
220
0.0
230
-1.0
  0
LINE
  5
156
  8
0
  6
BYBLOCK
 62
     0
 10
197.8048452184401
 20
-862.7485180231215
 30
0.0
 11
197.8048452184401
 21
-909.4200908983753
 31
0.0
  0
LINE
  5
157
  8
0
  6
BYBLOCK
 62
     0
 10
197.8048452184401
 20
-909.4200908983753
 30
0.0
 11
199.9606458849459
 21
-909.4200908983754
 31
0.0
  0
ARC
  5
158
  8
0
  6
BYBLOCK
 62
     0
 10
-201.5099366089592
 20
-910.684882680641
 30
0.0
 40
2.0
 50
39.22710907228529
 51
229.6500587975247
210
0.0
220
0.0
230
-1.0
  0
LINE
  5
159
  8
0
  6
BYBLOCK
 62
     0
 10
202.8048452184401
 20
-912.2090912270979
 30
0.0
 11
202.8048452184401
 21
-919.9200908983753
 31
0.0
  0
LINE
  5
15A
  8
0
  6
BYBLOCK
 62
     0
 10
202.8048452184401
 20
-919.9200908983753
 30
0.0
 11
217.8048452184401
 21
-919.9200908983753
 31
0.0
  0
LINE
  5
15B
  8
0
  6
BYBLOCK
 62
     0
 10
217.8048452184401
 20
-919.9200908983753
 30
0.0
 11
217.8048452184401
 21
-892.7485180231215
 31
0.0
  0
ARC
  5
15C
  8
0
  6
BYBLOCK
 62
     0
 10
-219.2190587808134
 20
-891.3343044607484
 30
0.0
 40
1.999999999999971
 50
315.0000000000063
 51
135.0000000000029
210
0.0
220
0.0
230
-1.0
  0
LINE
  5
15D
  8
0
  6
BYBLOCK
 62
     0
 10
220.6332723431865
 20
-889.9200908983754
 30
0.0
 11
228.3048452184403
 21
-889.9200908983753
 31
0.0
  0
LINE
  5
15E
  8
0
  6
BYBLOCK
 62
     0
 10
228.3048452184403
 20
-889.9200908983753
 30
0.0
 11
228.3048452184403
 21
-864.9200908983753
 31
0.0
  0
LINE
  5
15F
  8
0
  6
BYBLOCK
 62
     0
 10
228.3048452184403
 20
-864.9200908983753
 30
0.0
 11
220.6332723431865
 21
-864.9200908983753
 31
0.0
  0
ARC
  5
160
  8
0
  6
BYBLOCK
 62
     0
 10
-219.2190587808134
 20
-863.5058773360023
 30
0.0
 40
2.000000000000034
 50
224.999999999996
 51
44.99999999999137
210
0.0
220
0.0
230
-1.0
  0
LINE
  5
161
  8
0
  6
BYBLOCK
 62
     0
 10
217.8048452184401
 20
-862.0916637736294
 30
0.0
 11
217.8048452184402
 21
-737.7485180231213
 31
0.0
  0
ARC
  5
162
  8
0
  6
BYBLOCK
 62
     0
 10
-219.2190587808134
 20
-736.3343044607484
 30
0.0
 40
1.999999999999971
 50
315.0000000000063
 51
135.0000000000029
210
0.0
220
0.0
230
-1.0
  0
LINE
  5
163
  8
0
  6
BYBLOCK
 62
     0
 10
220.6332723431865
 20
-734.9200908983754
 30
0.0
 11
228.3048452184403
 21
-734.9200908983753
 31
0.0
  0
LINE
  5
164
  8
0
  6
BYBLOCK
 62
     0
 10
228.3048452184403
 20
-734.9200908983753
 30
0.0
 11
228.3048452184403
 21
-704.9200908983753
 31
0.0
  0
LINE
  5
165
  8
0
  6
BYBLOCK
 62
     0
 10
228.3048452184403
 20
-704.9200908983753
 30
0.0
 11
220.6332723431864
 21
-704.9200908983752
 31
0.0
  0
ARC
  5
166
  8
0
  6
BYBLOCK
 62
     0
 10
-219.2190587808134
 20
-703.5058773360022
 30
0.0
 40
1.999999999999921
 50
224.9999999999983
 51
44.99999999998906
210
0.0
220
0.0
230
-1.0
  0
LINE
  5
167
  8
0
  6
BYBLOCK
 62
     0
 10
217.8048452184401
 20
-702.0916637736294
 30
0.0
 11
217.8048452184402
 21
-577.7485180231214
 31
0.0
  0
ARC
  5
168
  8
0
  6
BYBLOCK
 62
     0
 10
-219.2190587808134
 20
-576.3343044607484
 30
0.0
 40
1.999999999999946
 50
315.0000000000029
 51
135.0000000000023
210
0.0
220
0.0
230
-1.0
  0
LINE
  5
169
  8
0
  6
BYBLOCK
 62
     0
 10
220.6332723431865
 20
-574.9200908983754
 30
0.0
 11
228.3048452184403
 21
-574.9200908983753
 31
0.0
  0
LINE
  5
16A
  8
0
  6
BYBLOCK
 62
     0
 10
228.3048452184403
 20
-574.9200908983753
 30
0.0
 11
228.3048452184403
 21
-549.9200908983753
 31
0.0
  0
LINE
  5
16B
  8
0
  6
BYBLOCK
 62
     0
 10
228.3048452184403
 20
-549.9200908983753
 30
0.0
 11
220.6332723431866
 21
-549.9200908983754
 31
0.0
  0
ARC
  5
16C
  8
0
  6
BYBLOCK
 62
     0
 10
-219.2190587808134
 20
-548.5058773360023
 30
0.0
 40
2.000000000000047
 50
224.9999999999977
 51
44.99999999999367
210
0.0
220
0.0
230
-1.0
  0
LINE
  5
16D
  8
0
  6
BYBLOCK
 62
     0
 10
217.8048452184401
 20
-547.0916637736293
 30
0.0
 11
217.8048452184401
 21
-519.9200908983753
 31
0.0
  0
LINE
  5
16E
  8
0
  6
BYBLOCK
 62
     0
 10
217.8048452184401
 20
-519.9200908983753
 30
0.0
 11
202.8048452184401
 21
-519.9200908983753
 31
0.0
  0
LINE
  5
16F
  8
0
  6
BYBLOCK
 62
     0
 10
202.8048452184401
 20
-519.9200908983753
 30
0.0
 11
202.8048452184401
 21
-527.5916637736293
 31
0.0
  0
LINE
  5
170
  8
0
  6
BYBLOCK
 62
     0
 10
181.4119665311911
 20
-919.9200908983753
 30
0.0
 11
134.4119665311426
 21
-919.9200908983753
 31
0.0
  0
LINE
  5
171
  8
0
  6
BYBLOCK
 62
     0
 10
134.4119665311426
 20
-919.9200908983753
 30
0.0
 11
134.4119665311426
 21
-540.920090898366
 31
0.0
  0
LINE
  5
172
  8
0
  6
BYBLOCK
 62
     0
 10
134.4119665311426
 20
-540.920090898366
 30
0.0
 11
181.4119665311911
 21
-540.920090898366
 31
0.0
  0
LINE
  5
173
  8
0
  6
BYBLOCK
 62
     0
 10
181.4119665311911
 20
-540.920090898366
 30
0.0
 11
181.4119665311911
 21
-919.9200908983753
 31
0.0
  0
LINE
  5
174
  8
0
  6
BYBLOCK
 62
     0
 10
149.9119665311409
 20
-878.2485180231167
 30
0.0
 11
149.9119665311504
 21
-897.5916637736434
 31
0.0
  0
ARC
  5
175
  8
0
  6
BYBLOCK
 62
     0
 10
148.4977529687694
 20
-876.8343044607421
 30
0.0
 40
1.999999999999946
 50
314.9999999999372
 51
135.0000000001912
  0
LINE
  5
176
  8
0
  6
BYBLOCK
 62
     0
 10
142.2403936558906
 20
-875.4200908983707
 30
0.0
 11
147.0835394063915
 21
-875.4200908983736
 31
0.0
  0
ARC
  5
177
  8
0
  6
BYBLOCK
 62
     0
 10
140.8261800935156
 20
-876.834304460742
 30
0.0
 40
2.000000000000047
 50
44.99999999992919
 51
224.9999999999344
  0
LINE
  5
178
  8
0
  6
BYBLOCK
 62
     0
 10
139.4119665311292
 20
-897.5916637736378
 30
0.0
 11
139.4119665311409
 21
-878.2485180231135
 31
0.0
  0
ARC
  5
179
  8
0
  6
BYBLOCK
 62
     0
 10
140.8261800935157
 20
-899.0058773359975
 30
0.0
 40
2.000000000000047
 50
135.0000000005435
 51
314.999999999996
  0
LINE
  5
17A
  8
0
  6
BYBLOCK
 62
     0
 10
147.0835394063881
 20
-900.4200908983736
 30
0.0
 11
142.2403936558887
 21
-900.4200908983707
 31
0.0
  0
ARC
  5
17B
  8
0
  6
BYBLOCK
 62
     0
 10
148.4977529687693
 20
-899.0058773360086
 30
0.0
 40
2.000000000000021
 50
224.9999999996735
 51
44.99999999967471
  0
CIRCLE
  5
17C
  8
0
  6
BYBLOCK
 62
     0
 10
144.6619665311473
 20
-867.4200908983721
 30
0.0
 40
2.049999999999983
  0
CIRCLE
  5
17D
  8
0
  6
BYBLOCK
 62
     0
 10
144.6619665311473
 20
-908.4200908983785
 30
0.0
 40
2.049999999999983
  0
ARC
  5
17E
  8
0
  6
BYBLOCK
 62
     0
 10
167.3261800935643
 20
-899.0058773360071
 30
0.0
 40
2.000000000000084
 50
134.9999999999977
 51
314.9999999999983
  0
LINE
  5
17F
  8
0
  6
BYBLOCK
 62
     0
 10
173.583539406445
 20
-900.4200908983801
 30
0.0
 11
168.7403936559374
 21
-900.4200908983801
 31
0.0
  0
ARC
  5
180
  8
0
  6
BYBLOCK
 62
     0
 10
174.9977529688181
 20
-899.005877336007
 30
0.0
 40
2.000000000000034
 50
225.0
 51
45.00000000000519
  0
LINE
  5
181
  8
0
  6
BYBLOCK
 62
     0
 10
176.411966531191
 20
-878.2485180231265
 30
0.0
 11
176.4119665311911
 21
-897.5916637736337
 31
0.0
  0
ARC
  5
182
  8
0
  6
BYBLOCK
 62
     0
 10
174.9977529688181
 20
-876.8343044607532
 30
0.0
 40
2.000000000000021
 50
314.9999999999908
 51
135.0000000000006
  0
LINE
  5
183
  8
0
  6
BYBLOCK
 62
     0
 10
168.7403936559374
 20
-875.4200908983801
 30
0.0
 11
173.583539406445
 21
-875.4200908983801
 31
0.0
  0
ARC
  5
184
  8
0
  6
BYBLOCK
 62
     0
 10
167.3261800935643
 20
-876.8343044607532
 30
0.0
 40
2.000000000000071
 50
44.99999999999942
 51
224.9999999999994
  0
LINE
  5
185
  8
0
  6
BYBLOCK
 62
     0
 10
165.9119665311912
 20
-897.5916637736339
 30
0.0
 11
165.9119665311912
 21
-878.2485180231263
 31
0.0
  0
CIRCLE
  5
186
  8
0
  6
BYBLOCK
 62
     0
 10
171.1619665311912
 20
-867.4200908983801
 30
0.0
 40
2.049999999999983
  0
CIRCLE
  5
187
  8
0
  6
BYBLOCK
 62
     0
 10
171.1619665311912
 20
-908.4200908983801
 30
0.0
 40
2.049999999999983
  0
CIRCLE
  5
188
  8
0
  6
BYBLOCK
 62
     0
 10
144.6619665312162
 20
-753.4200908983722
 30
0.0
 40
2.049999999999983
  0
CIRCLE
  5
189
  8
0
  6
BYBLOCK
 62
     0
 10
171.1619665311912
 20
-753.4200908983801
 30
0.0
 40
2.049999999999983
  0
CIRCLE
  5
18A
  8
0
  6
BYBLOCK
 62
     0
 10
144.6619665312162
 20
-707.4200908983721
 30
0.0
 40
2.049999999999983
  0
CIRCLE
  5
18B
  8
0
  6
BYBLOCK
 62
     0
 10
171.1619665311912
 20
-707.4200908983961
 30
0.0
 40
2.049999999999983
  0
CIRCLE
  5
18C
  8
0
  6
BYBLOCK
 62
     0
 10
144.6619665313126
 20
-593.4200908983721
 30
0.0
 40
2.049999999999983
  0
CIRCLE
  5
18D
  8
0
  6
BYBLOCK
 62
     0
 10
171.1619665311912
 20
-593.4200908983801
 30
0.0
 40
2.049999999999983
  0
CIRCLE
  5
18E
  8
0
  6
BYBLOCK
 62
     0
 10
144.6619665313126
 20
-552.4200908983721
 30
0.0
 40
2.049999999999983
  0
CIRCLE
  5
18F
  8
0
  6
BYBLOCK
 62
     0
 10
171.1619665311912
 20
-552.420090898396
 30
0.0
 40
2.049999999999983
  0
LINE
  5
190
  8
0
  6
BYBLOCK
 62
     0
 10
149.9119665312373
 20
-718.2485180231213
 30
0.0
 11
149.9119665522958
 21
-742.5916637947025
 31
0.0
  0
ARC
  5
191
  8
0
  6
BYBLOCK
 62
     0
 10
148.497752968865
 20
-716.8343044607475
 30
0.0
 40
1.999999999999946
 50
314.9999999999695
 51
134.9999999999701
  0
LINE
  5
192
  8
0
  6
BYBLOCK
 62
     0
 10
142.2403936559853
 20
-715.4200908983707
 30
0.0
 11
147.0835394064926
 21
-715.4200908983736
 31
0.0
  0
ARC
  5
193
  8
0
  6
BYBLOCK
 62
     0
 10
140.8261800936114
 20
-716.8343044607429
 30
0.0
 40
1.999999999999921
 50
44.99999999996546
 51
224.9999999999603
  0
LINE
  5
194
  8
0
  6
BYBLOCK
 62
     0
 10
139.4119665312224
 20
-742.5916637736229
 30
0.0
 11
139.4119665312372
 21
-718.2485180231151
 31
0.0
  0
ARC
  5
195
  8
0
  6
BYBLOCK
 62
     0
 10
140.8261800935948
 20
-744.0058773359967
 30
0.0
 40
1.999999999999946
 50
134.9999999999701
 51
314.99999999997
  0
LINE
  5
196
  8
0
  6
BYBLOCK
 62
     0
 10
147.0835394064745
 20
-745.4200908983736
 30
0.0
 11
142.2403936559672
 21
-745.4200908983707
 31
0.0
  0
ARC
  5
197
  8
0
  6
BYBLOCK
 62
     0
 10
148.4977529688484
 20
-744.0058773360014
 30
0.0
 40
1.999999999999921
 50
224.9999999999654
 51
44.99999914619146
  0
ARC
  5
198
  8
0
  6
BYBLOCK
 62
     0
 10
-167.3261800935643
 20
-561.8343044607532
 30
0.0
 40
1.999999999999956
 50
315.0000000000023
 51
135.0000000000023
210
0.0
220
0.0
230
-1.0
  0
LINE
  5
199
  8
0
  6
BYBLOCK
 62
     0
 10
168.7403936559374
 20
-560.4200908983802
 30
0.0
 11
173.5835394064445
 21
-560.4200908983803
 31
0.0
  0
ARC
  5
19A
  8
0
  6
BYBLOCK
 62
     0
 10
-174.9977529688177
 20
-561.8343044607533
 30
0.0
 40
2.000000000000076
 50
44.99999999999424
 51
224.9999999999943
210
0.0
220
0.0
230
-1.0
  0
LINE
  5
19B
  8
0
  6
BYBLOCK
 62
     0
 10
176.4119665311911
 20
-563.2485180231263
 30
0.0
 11
176.4119665311908
 21
-582.591663773634
 31
0.0
  0
ARC
  5
19C
  8
0
  6
BYBLOCK
 62
     0
 10
-174.9977529688177
 20
-584.005877336007
 30
0.0
 40
1.999999999999936
 50
135.0000000000011
 51
315.0000000000011
210
0.0
220
0.0
230
-1.0
  0
LINE
  5
19D
  8
0
  6
BYBLOCK
 62
     0
 10
173.5835394064447
 20
-585.4200908983801
 30
0.0
 11
168.7403936559374
 21
-585.42009089838
 31
0.0
  0
ARC
  5
19E
  8
0
  6
BYBLOCK
 62
     0
 10
-167.3261800935643
 20
-584.005877336007
 30
0.0
 40
1.999999999999956
 50
224.9999999999977
 51
44.9999999999977
210
0.0
220
0.0
230
-1.0
  0
LINE
  5
19F
  8
0
  6
BYBLOCK
 62
     0
 10
165.9119665311912
 20
-582.5916637736339
 30
0.0
 11
165.9119665311912
 21
-563.2485180231263
 31
0.0
  0
LINE
  5
1A0
  8
0
  6
BYBLOCK
 62
     0
 10
165.9119665311912
 20
-742.591663773634
 30
0.0
 11
165.9119665311912
 21
-718.2485180231263
 31
0.0
  0
ARC
  5
1A1
  8
0
  6
BYBLOCK
 62
     0
 10
167.3261800935642
 20
-744.005877336007
 30
0.0
 40
1.999999999999895
 50
135.0
 51
315.000000000004
  0
LINE
  5
1A2
  8
0
  6
BYBLOCK
 62
     0
 10
173.5835394064447
 20
-745.4200908983801
 30
0.0
 11
168.7403936559374
 21
-745.4200908983801
 31
0.0
  0
ARC
  5
1A3
  8
0
  6
BYBLOCK
 62
     0
 10
174.9977529688178
 20
-744.005877336007
 30
0.0
 40
1.999999999999921
 50
224.9999999999977
 51
44.99999999999655
  0
LINE
  5
1A4
  8
0
  6
BYBLOCK
 62
     0
 10
176.4119665311911
 20
-718.2485180231263
 30
0.0
 11
176.4119665311911
 21
-742.591663773634
 31
0.0
  0
ARC
  5
1A5
  8
0
  6
BYBLOCK
 62
     0
 10
174.997752968818
 20
-716.8343044607532
 30
0.0
 40
1.999999999999996
 50
315.0
 51
135.0000000000011
  0
LINE
  5
1A6
  8
0
  6
BYBLOCK
 62
     0
 10
168.7403936559374
 20
-715.4200908983801
 30
0.0
 11
173.5835394064447
 21
-715.4200908983801
 31
0.0
  0
ARC
  5
1A7
  8
0
  6
BYBLOCK
 62
     0
 10
167.3261800935643
 20
-716.8343044607532
 30
0.0
 40
2.000000000000021
 50
45.0
 51
225.0000000000006
  0
ARC
  5
1A8
  8
0
  6
BYBLOCK
 62
     0
 10
-148.4977529689451
 20
-584.0058773360013
 30
0.0
 40
2.000000000000097
 50
135.0000000000346
 51
315.0000000000346
210
0.0
220
0.0
230
-1.0
  0
LINE
  5
1A9
  8
0
  6
BYBLOCK
 62
     0
 10
147.083539406571
 20
-585.4200908983737
 30
0.0
 11
142.2403936560636
 21
-585.4200908983705
 31
0.0
  0
ARC
  5
1AA
  8
0
  6
BYBLOCK
 62
     0
 10
-140.8261800936913
 20
-584.0058773359967
 30
0.0
 40
1.999999999999996
 50
225.0000000000323
 51
45.00000000003224
210
0.0
220
0.0
230
-1.0
  0
LINE
  5
1AB
  8
0
  6
BYBLOCK
 62
     0
 10
139.411966531319
 20
-582.5916637736228
 30
0.0
 11
139.4119665313308
 21
-563.2485180231151
 31
0.0
  0
ARC
  5
1AC
  8
0
  6
BYBLOCK
 62
     0
 10
-140.8261800937047
 20
-561.8343044607428
 30
0.0
 40
1.999999999999936
 50
315.0000000000334
 51
135.0000000000334
210
0.0
220
0.0
230
-1.0
  0
LINE
  5
1AD
  8
0
  6
BYBLOCK
 62
     0
 10
142.2403936560785
 20
-560.4200908983705
 30
0.0
 11
147.0835394065857
 21
-560.4200908983737
 31
0.0
  0
ARC
  5
1AE
  8
0
  6
BYBLOCK
 62
     0
 10
-148.4977529689581
 20
-561.8343044607476
 30
0.0
 40
2.000000000000076
 50
45.00000000002995
 51
225.0000000000299
210
0.0
220
0.0
230
-1.0
  0
LINE
  5
1AF
  8
0
  6
BYBLOCK
 62
     0
 10
149.9119665313306
 20
-563.2485180231215
 30
0.0
 11
149.9119665313191
 21
-582.5916637736291
 31
0.0
  0
ENDSEC
  0
EOF
