0
SECTION
2
HEADER
9
$INSUNITS
70
4
9
$ACADVER
1
AC1014
9
$HANDSEED
5
FFFF
0
ENDSEC
0
SECTION
2
TABLES
0
TABLE
2
VPORT
5
8
100
AcDbSymbolTable
0
ENDTAB
0
TABLE
2
LTYPE
5
5
100
AcDbSymbolTable
0
LTYPE
5
14
100
AcDbSymbolTableRecord
100
AcDbLinetypeTableRecord
2
BYBLOCK
70
0
0
LTYPE
5
15
100
AcDbSymbolTableRecord
100
AcDbLinetypeTableRecord
2
BYLAYER
70
0
0
ENDTAB
0
TABLE
2
LAYER
5
2
100
AcDbSymbolTable
70
2
0
LAYER
5
50
100
AcDbSymbolTableRecord
100
AcDbLayerTableRecord
2
0
70
0
6
CONTINUOUS
0
ENDTAB
0
TABLE
2
STYLE
5
3
100
AcDbSymbolTable
70
1
0
STYLE
5
11
100
AcDbSymbolTableRecord
100
AcDbTextStyleTableRecord
2
STANDARD
70
0
0
ENDTAB
0
TABLE
2
VIEW
5
6
100
AcDbSymbolTable
70
0
0
ENDTAB
0
TABLE
2
UCS
5
7
100
AcDbSymbolTable
70
0
0
ENDTAB
0
TABLE
2
APPID
5
9
100
AcDbSymbolTable
70
2
0
APPID
5
12
100
AcDbSymbolTableRecord
100
AcDbRegAppTableRecord
2
ACAD
70
0
0
ENDTAB
0
TABLE
2
DIMSTYLE
5
A
100
AcDbSymbolTable
70
1
0
ENDTAB
0
TABLE
2
BLOCK_RECORD
5
1
100
AcDbSymbolTable
70
1
0
BLOCK_RECORD
5
1F
100
AcDbSymbolTableRecord
100
AcDbBlockTableRecord
2
*MODEL_SPACE
0
BLOCK_RECORD
5
1B
100
AcDbSymbolTableRecord
100
AcDbBlockTableRecord
2
*PAPER_SPACE
0
ENDTAB
0
ENDSEC
0
SECTION
2
BLOCKS
0
BLOCK
5
20
100
AcDbEntity
100
AcDbBlockBegin
2
*MODEL_SPACE
0
ENDBLK
5
21
100
AcDbEntity
100
AcDbBlockEnd
0
BLOCK
5
1C
100
AcDbEntity
100
AcDbBlockBegin
2
*PAPER_SPACE
0
ENDBLK
5
1D
100
AcDbEntity
100
AcDbBlockEnd
0
ENDSEC
0
SECTION
2
ENTITIES
0
CIRCLE
5
100
100
AcDbEntity
8
0
100
AcDbCircle
10
-904.95000014536913
20
97.285190573339975
30
0
40
3.7499999999999867
210
-2.4651903288156619e-32
220
5.6448790677147184e-48
230
1
0
LWPOLYLINE
5
101
100
AcDbEntity
8
0
100
AcDbPolyline
90
17
70
1
43
0.0
10
-892.95000025768149
20
145.28519025852722
42
-0.41421356115461855
10
-889.95000025768149
20
142.28519027100768
10
-889.95000014535685
20
115.2851906356735
10
-889.9500001453614
20
95.285190594068624
42
-0.4142135611545088
10
-899.95000010375884
20
85.285190594070968
10
-977.45000025347917
20
85.28519034081026
10
-979.70000014536197
20
85.285190262289859
10
-979.70000014536197
20
90.285189774851503
10
-974.45000000054949
20
90.285189812820079
42
0.99999999999999989
10
-974.45000004394376
20
96.285190912175409
10
-979.70000014536197
20
96.285190874199102
10
-979.70000014536197
20
134.28518969671629
10
-974.45000028409004
20
134.28518972504247
42
0.99999999999999989
10
-974.45000031653854
20
140.28519082446616
10
-979.70000014536197
20
140.28519079606389
10
-979.70000014536197
20
145.28519024636472
10
-977.45000030751953
20
145.28519025852717
0
ARC
5
102
100
AcDbEntity
8
0
100
AcDbCircle
10
-936.53578669530577
20
131.19940382089325
30
0
40
1.9999999999999583
210
0
220
0
230
1
100
AcDbArc
50
135.00000000001555
51
315.00000085378952
0
LINE
5
103
100
AcDbEntity
8
0
100
AcDbLine
10
-937.95000025767922
20
132.61361738326593
30
0
11
-937.95000025768013
21
137.45676313377513
31
0
0
ARC
5
104
100
AcDbEntity
8
0
100
AcDbCircle
10
-936.53578669530577
20
138.87097669614693
30
0
40
2.0000000000000213
210
0
220
-0
230
1
100
AcDbArc
50
45.000000000004029
51
224.99999999994819
0
LINE
5
105
100
AcDbEntity
8
0
100
AcDbLine
10
-935.12157313293278
20
140.28519025852012
30
0
11
-910.77842738241441
21
140.28519025853797
31
0
0
ARC
5
106
100
AcDbEntity
8
0
100
AcDbCircle
10
-909.36421382005494
20
138.87097669615133
30
6.2127881133151069e-45
40
1.9999999999999585
210
1.3945222387502415e-31
220
1.3945222387234841e-31
230
1
100
AcDbArc
50
-44.999999999930893
51
134.99999999944959
0
LINE
5
107
100
AcDbEntity
8
0
100
AcDbLine
10
-907.95000025768013
20
137.45676313377993
30
-4.2410539541785913e-42
11
-907.95000025767945
21
132.61361738327071
31
0
0
ARC
5
108
100
AcDbEntity
8
0
100
AcDbCircle
10
-909.36421382005233
20
131.1994038208976
30
0
40
2.0000000000000213
210
0
220
0
230
1
100
AcDbArc
50
-134.99999999982381
51
45.000000000004604
0
LINE
5
109
100
AcDbEntity
8
0
100
AcDbLine
10
-910.77842738242111
20
129.78519025852012
30
0
11
-935.12157311185888
21
129.78519027959399
31
0
0
LWPOLYLINE
5
110
100
AcDbEntity
8
0
100
AcDbPolyline
90
8
70
1
43
0.0
10
-1040.5806308140416
20
139.06897376899551
42
-0.045696807014124728
10
-1020.200000145362
20
144.03415221078799
10
-1020.2000001453619
20
85.285190093799173
10
-1022.4500002534559
20
85.285190015278744
10
-1099.9500002478969
20
85.285189762018078
42
-0.41421356570253237
10
-1109.9500002894997
20
95.285189834089749
10
-1109.9500001968358
20
108.14233265904241
42
-0.32046505043366597
10
-1103.1932434739817
20
117.60179203480634
0
CIRCLE
5
111
100
AcDbEntity
8
0
100
AcDbCircle
10
-1094.9500002750792
20
97.28519057333969
30
0
40
3.7499999999999867
210
-2.4651903288156619e-32
220
5.6448790677147184e-48
230
1
0
ARC
5
112
100
AcDbEntity
8
0
100
AcDbCircle
10
-1003.2833331268677
20
30.285190118907632
30
-9.1180192068322814e-43
40
114.99999999997678
210
4.8767450654222886e-32
220
7.2526615529999212e-33
230
1
100
AcDbArc
50
90.000000309712775
51
98.458988640638168
0
LINE
5
113
100
AcDbEntity
8
0
100
AcDbLine
10
-1020.200000145362
20
144.03415221078805
30
4.7074870285911823e-45
11
-1020.2000001453619
21
85.285190093799173
31
0
0
LINE
5
114
100
AcDbEntity
8
0
100
AcDbLine
10
-1020.2000001453619
20
85.285190093799173
30
0
11
-1002.9499999283529
21
85.285190156342395
31
2.4651903288156619e-31
0
ARC
5
115
100
AcDbEntity
8
0
100
AcDbCircle
10
-999.94999992833425
20
85.285190178043592
30
6.1703659918365236e-44
40
3.0000000000185882
210
-2.4651900434961364e-32
220
-3.9443045278882166e-31
230
1
100
AcDbArc
50
151.28602794401687
51
180
0
ARC
5
116
100
AcDbEntity
8
0
100
AcDbCircle
10
-986.44588592627474
20
77.887622987579277
30
5.4738221262688167e-44
40
18.397567837766822
210
1.7296347884496962e-31
220
-9.4749567136095843e-32
230
1
100
AcDbArc
50
90.01530893326597
51
151.28602794396963
0
ARC
5
117
100
AcDbEntity
8
0
100
AcDbCircle
10
-986.45000002208735
20
93.285189202917692
30
0
40
3.0000016224547466
210
0
220
0
230
1
100
AcDbArc
50
90.000000417317878
51
90.015308930827089
0
LINE
5
118
100
AcDbEntity
8
0
100
AcDbLine
10
-986.45000004393808
20
96.285190825372439
30
0
11
-979.70000014536197
21
96.285190874199102
31
-1.2325951644078309e-31
0
LINE
5
119
100
AcDbEntity
8
0
100
AcDbLine
10
-979.70000014536197
20
96.285190874199102
30
-1.2325951644078309e-31
11
-979.70000014536197
21
134.28518969671626
31
0
0
LINE
5
120
100
AcDbEntity
8
0
100
AcDbLine
10
-979.70000014536197
20
134.28518969671626
30
0
11
-986.45000028408435
21
134.28519020988102
31
0
0
ARC
5
121
100
AcDbEntity
8
0
100
AcDbCircle
10
-986.45000030047925
20
137.28518905767228
30
7.3704987123193215e-37
40
2.9999988477912432
210
2.4651901138105869e-32
220
3.9443035855156172e-31
230
1
100
AcDbArc
50
269.98469178839332
51
270.00000031311953
0
ARC
5
122
100
AcDbEntity
8
0
100
AcDbCircle
10
-986.44588639898325
20
152.68275749808447
30
-1.7516230804060213e-45
40
18.397567837797116
210
-1.0538339425289627e-34
220
-3.9443043853240857e-31
230
1
100
AcDbArc
50
208.71397278036309
51
269.98469179102784
0
ARC
5
123
100
AcDbEntity
8
0
100
AcDbCircle
10
-999.95000030752317
20
145.28519013690178
30
5.8316732477736406e-43
40
3.0000000000157456
210
9.4749569322407224e-32
220
-1.7296347764726888e-31
230
1
100
AcDbArc
50
180
51
208.71397278032836
0
LINE
5
124
100
AcDbEntity
8
0
100
AcDbLine
10
-1002.950000307539
20
145.28519012068622
30
2.8424870516459982e-31
11
-1003.283333748501
21
145.28519011888443
31
-8.3405604828025929e-31
0
CIRCLE
5
125
100
AcDbEntity
8
0
100
AcDbCircle
10
-999.95000022643796
20
130.28519013690288
30
0
40
2.6749999999999914
210
-0
220
0
230
1
0
CIRCLE
5
126
100
AcDbEntity
8
0
100
AcDbCircle
10
-999.95000019941472
20
100.28519017804443
30
0
40
2.6749999999999914
210
-0
220
0
230
1
0
LINE
5
127
100
AcDbEntity
8
0
100
AcDbLine
10
-1020.2000001453619
20
150.28519024636469
30
0
11
-1020.2000001453619
21
80.285190068582679
31
0
0
LINE
5
128
100
AcDbEntity
8
0
100
AcDbLine
10
-979.70000014536197
20
150.28519024636469
30
0
11
-1020.2000001453619
21
150.28519024636469
31
0
0
LINE
5
129
100
AcDbEntity
8
0
100
AcDbLine
10
-979.70000014536197
20
80.285190068582679
30
0
11
-979.70000014536197
21
150.28519024636469
31
0
0
LINE
5
130
100
AcDbEntity
8
0
100
AcDbLine
10
-1020.2000001453619
20
80.285190068582679
30
0
11
-979.70000014536197
21
80.285190068582679
31
0
0
ARC
5
131
100
AcDbEntity
8
0
100
AcDbCircle
10
-999.94999992833573
20
85.285190178043933
30
0
40
3.000000000017188
210
1.7296347884503476e-31
220
-9.4749567135977936e-32
230
1
100
AcDbArc
50
151.28602794400877
51
331.28602794400882
0
ARC
5
132
100
AcDbEntity
8
0
100
AcDbCircle
10
-986.44588592627451
20
77.887622987579149
30
0
40
12.397567837732542
210
0
220
0
230
1
100
AcDbArc
50
90.015308933274852
51
151.28602794395056
0
LINE
5
133
100
AcDbEntity
8
0
100
AcDbLine
10
-986.44919844838614
20
90.28519038277318
30
0
11
-974.45000000054949
21
90.285189812820079
31
-2.4651903288156619e-31
0
ARC
5
134
100
AcDbEntity
8
0
100
AcDbCircle
10
-974.45000002224663
20
93.285190362497744
30
0
40
3.0000005496776616
210
2.4651903288156619e-32
220
1.7829180268115078e-40
230
1
100
AcDbArc
50
-89.999999585615356
51
90.000000414384644
0
LINE
5
135
100
AcDbEntity
8
0
100
AcDbLine
10
-974.45000004394376
20
96.285190912175409
30
0
11
-986.45000004393796
21
96.285190825372439
31
0
0
ARC
5
136
100
AcDbEntity
8
0
100
AcDbCircle
10
-986.44588592627451
20
77.887622987579107
30
0
40
18.397567837766978
210
0
220
0
230
1
100
AcDbArc
50
90.015308933266695
51
151.28602794396937
0
ARC
5
137
100
AcDbEntity
8
0
100
AcDbCircle
10
-986.44588639898325
20
152.68275749808441
30
0
40
18.397567837763876
210
-8.6481738823573593e-32
220
-4.7374784661349424e-32
230
1
100
AcDbArc
50
208.71397278036292
51
269.9846917909889
0
LINE
5
138
100
AcDbEntity
8
0
100
AcDbLine
10
-986.45000028408742
20
134.28519020988102
30
0
11
-974.45000028408981
21
134.28518972504247
31
-2.4651903288156619e-31
0
ARC
5
139
100
AcDbEntity
8
0
100
AcDbCircle
10
-974.45000030031429
20
137.28519027475431
30
0
40
3.0000005497118387
210
2.1331145080174938e-39
220
-3.9443045261050481e-31
230
1
100
AcDbArc
50
-89.999999690139731
51
90.000000309860269
0
LINE
5
140
100
AcDbEntity
8
0
100
AcDbLine
10
-979.70000014536197
20
140.28519079606389
30
0
11
-974.45000031653854
21
140.28519082446616
31
0
0
LINE
5
141
100
AcDbEntity
8
0
100
AcDbLine
10
-986.44919876437507
20
140.28519010281838
30
0
11
-979.70000014536197
21
140.28519079606389
31
1.2325951644078309e-31
0
ARC
5
142
100
AcDbEntity
8
0
100
AcDbCircle
10
-986.44588639898325
20
152.68275749808441
30
0
40
12.397567837762654
210
9.4749569322817761e-32
220
-1.7296347764708207e-31
230
1
100
AcDbArc
50
208.71397278040246
51
269.98469179101164
0
ARC
5
143
100
AcDbEntity
8
0
100
AcDbCircle
10
-999.95000030751953
20
145.28519013690283
30
0
40
3.0000000000194973
210
0
220
-0
230
1
100
AcDbArc
50
28.713972780313057
51
208.71397278031259
0
LINE
5
144
100
AcDbEntity
8
0
100
AcDbLine
10
-937.95000025767968
20
135.03519025852054
30
0
11
-947.95000025767968
21
135.03519025851642
31
0
0
CIRCLE
5
145
100
AcDbEntity
8
0
100
AcDbCircle
10
-947.95000025767968
20
135.03519025851642
30
0
40
2.6500000000000101
210
0
220
0
230
1
0
ENDSEC
0
SECTION
2
OBJECTS
0
DICTIONARY
5
C
100
AcDbDictionary
3
ACAD_GROUP
350
D
3
ACAD_MLINESTYLE
350
17
0
DICTIONARY
5
D
100
AcDbDictionary
0
DICTIONARY
5
1A
330
C
100
AcDbDictionary
0
DICTIONARY
5
17
100
AcDbDictionary
0
ENDSEC
0
EOF
