0
SECTION
2
HEADER
9
$INSUNITS
70
4
9
$ACADVER
1
AC1014
9
$HANDSEED
5
FFFF
0
ENDSEC
0
SECTION
2
TABLES
0
TABLE
2
VPORT
5
8
100
AcDbSymbolTable
0
ENDTAB
0
TABLE
2
LTYPE
5
5
100
AcDbSymbolTable
0
LTYPE
5
14
100
AcDbSymbolTableRecord
100
AcDbLinetypeTableRecord
2
BYBLOCK
70
0
0
LTYPE
5
15
100
AcDbSymbolTableRecord
100
AcDbLinetypeTableRecord
2
BYLAYER
70
0
0
ENDTAB
0
TABLE
2
LAYER
5
2
100
AcDbSymbolTable
70
2
0
LAYER
5
50
100
AcDbSymbolTableRecord
100
AcDbLayerTableRecord
2
0
70
0
6
CONTINUOUS
0
ENDTAB
0
TABLE
2
STYLE
5
3
100
AcDbSymbolTable
70
1
0
STYLE
5
11
100
AcDbSymbolTableRecord
100
AcDbTextStyleTableRecord
2
STANDARD
70
0
0
ENDTAB
0
TABLE
2
VIEW
5
6
100
AcDbSymbolTable
70
0
0
ENDTAB
0
TABLE
2
UCS
5
7
100
AcDbSymbolTable
70
0
0
ENDTAB
0
TABLE
2
APPID
5
9
100
AcDbSymbolTable
70
2
0
APPID
5
12
100
AcDbSymbolTableRecord
100
AcDbRegAppTableRecord
2
ACAD
70
0
0
ENDTAB
0
TABLE
2
DIMSTYLE
5
A
100
AcDbSymbolTable
70
1
0
ENDTAB
0
TABLE
2
BLOCK_RECORD
5
1
100
AcDbSymbolTable
70
1
0
BLOCK_RECORD
5
1F
100
AcDbSymbolTableRecord
100
AcDbBlockTableRecord
2
*MODEL_SPACE
0
BLOCK_RECORD
5
1B
100
AcDbSymbolTableRecord
100
AcDbBlockTableRecord
2
*PAPER_SPACE
0
ENDTAB
0
ENDSEC
0
SECTION
2
BLOCKS
0
BLOCK
5
20
100
AcDbEntity
100
AcDbBlockBegin
2
*MODEL_SPACE
0
ENDBLK
5
21
100
AcDbEntity
100
AcDbBlockEnd
0
BLOCK
5
1C
100
AcDbEntity
100
AcDbBlockBegin
2
*PAPER_SPACE
0
ENDBLK
5
1D
100
AcDbEntity
100
AcDbBlockEnd
0
ENDSEC
0
SECTION
2
ENTITIES
0
ARC
5
100
100
AcDbEntity
8
0
100
AcDbCircle
10
-980.75078583441018
20
257.16986303724764
30
-1.5720817146644042e-43
40
2.0000000000000968
210
2.2312355819715491e-30
220
2.2312355819862851e-30
230
1
100
AcDbArc
50
-135.00000000006852
51
44.999999999930907
0
LINE
5
101
100
AcDbEntity
8
0
100
AcDbLine
10
-982.16499939678499
20
255.75564947487621
30
6.3108872417681673e-30
11
-987.00814514728859
21
255.75564947487635
31
0
0
ARC
5
102
100
AcDbEntity
8
0
100
AcDbCircle
10
-988.42235870966374
20
257.16986303724764
30
1.1823455792740644e-43
40
1.9999999999999207
210
6.6937067459400128e-30
220
-2.2312355819705394e-30
230
1
100
AcDbArc
50
135.0000000001946
51
315.00000000007833
0
LINE
5
103
100
AcDbEntity
8
0
100
AcDbLine
10
-989.83657227204162
20
258.58407659961591
30
1.2621774483549905e-29
11
-989.83657227204162
21
285.75564947489016
31
1.8932661725304283e-28
0
LINE
5
104
100
AcDbEntity
8
0
100
AcDbLine
10
-989.83657227204162
20
285.75564947489016
30
1.8932661725304283e-28
11
-979.33657227204162
21
285.75564947489033
31
0
0
LINE
5
105
100
AcDbEntity
8
0
100
AcDbLine
10
-979.33657227204162
20
285.75564947489033
30
0
11
-979.33657227203526
21
258.58407659961915
31
-6.3108872417684812e-30
0
ARC
5
106
100
AcDbEntity
8
0
100
AcDbCircle
10
-1014.9223587096217
20
173.87097668401634
30
3.1616796601328685e-43
40
2.0000000000000466
210
4.4624711637274046e-30
220
-4.4624711641882735e-30
230
1
100
AcDbArc
50
44.999999999646491
51
224.99999999964936
0
LINE
5
107
100
AcDbEntity
8
0
100
AcDbLine
10
-1013.5081451472398
20
175.28519024638075
30
5.7439861858139332e-40
11
-1008.664999396753
21
175.28519024637751
31
0
0
ARC
5
108
100
AcDbEntity
8
0
100
AcDbCircle
10
-1007.2507858343681
20
173.87097668401645
30
-7.9698850158473971e-44
40
1.999999999999996
210
4.4624711639953154e-30
220
-4.4624711639205337e-30
230
1
100
AcDbArc
50
-45.000000002957002
51
135.00000000048365
0
LINE
5
109
100
AcDbEntity
8
0
100
AcDbLine
10
-1005.836572272068
20
172.45676312157036
30
-1.2621774483536351e-29
11
-1005.8365722720825
21
148.11361737121061
31
0
0
ARC
5
110
100
AcDbEntity
8
0
100
AcDbCircle
10
-1007.2507858343681
20
146.69940380874999
30
1.5764607723654192e-43
40
2.0000000000000591
210
-2.2312355818408787e-30
220
-2.2312355821170403e-30
230
1
100
AcDbArc
50
-135.00000000015547
51
45.000000003545992
0
LINE
5
111
100
AcDbEntity
8
0
100
AcDbLine
10
-1008.6649993967451
20
145.28519024638069
30
-6.3108872417681673e-30
11
-1013.5081451472416
21
145.28519024638382
31
0
0
ARC
5
112
100
AcDbEntity
8
0
100
AcDbCircle
10
-1014.9223587096218
20
146.69940380874999
30
-1.5852188877674493e-43
40
1.9999999999999332
210
-4.4624711639363144e-30
220
-4.4624711639793651e-30
230
1
100
AcDbArc
50
135.00000000355004
51
315.00000000028325
0
LINE
5
113
100
AcDbEntity
8
0
100
AcDbLine
10
-1016.3365722720824
20
148.11361737103539
30
-7.2158617694100162e-40
11
-1016.3365722720034
21
172.4567631216519
31
-5.7376473692779467e-40
0
ARC
5
114
100
AcDbEntity
8
0
100
AcDbCircle
10
-1014.9223587096219
20
284.34143591251171
30
0
40
2.0000000000001217
210
0
220
-0
230
1
100
AcDbArc
50
44.999999999902123
51
224.99999999990212
0
LINE
5
115
100
AcDbEntity
8
0
100
AcDbLine
10
-1013.5081451472463
20
285.75564947488249
30
0
11
-1008.6649993967466
21
285.75564947487965
31
0
0
ARC
5
116
100
AcDbEntity
8
0
100
AcDbCircle
10
-1007.2507858343683
20
284.34143591251166
30
-1.9618178500547439e-43
40
2.0000000000001217
210
2.2312355820034198e-30
220
-6.6937067459284352e-30
230
1
100
AcDbArc
50
-45.000000000249869
51
135.00000000020728
0
LINE
5
117
100
AcDbEntity
8
0
100
AcDbLine
10
-1005.8365722720014
20
282.92722235013235
30
-1.2621774483587244e-29
11
-1005.8365722720162
21
258.58407659963939
31
0
0
ARC
5
118
100
AcDbEntity
8
0
100
AcDbCircle
10
-1007.2507858343682
20
257.16986303724536
30
-3.1704377755348986e-43
40
2.0000000000000466
210
-4.4624711638915857e-30
220
-4.4624711640238584e-30
230
1
100
AcDbArc
50
-135.00000000042201
51
45.000000000849795
0
LINE
5
119
100
AcDbEntity
8
0
100
AcDbLine
10
-1008.6649993967518
20
255.75564947488263
30
-1.2621774483536335e-29
11
-1013.5081451472355
21
255.7556494748853
31
0
0
ARC
5
120
100
AcDbEntity
8
0
100
AcDbCircle
10
-1014.9223587096218
20
257.16986303724531
30
3.6784084688526448e-44
40
2.0000000000000466
210
-2.2312355819582371e-30
220
-2.2312355819996293e-30
230
1
100
AcDbArc
50
135.00000000086018
51
315.00000000053257
0
LINE
5
121
100
AcDbEntity
8
0
100
AcDbLine
10
-1016.3365722720162
20
258.58407659959721
30
-3.6072997929435897e-41
11
-1016.3365722719975
21
282.92722235014094
31
0
0
ARC
5
122
100
AcDbEntity
8
0
100
AcDbCircle
10
-988.42235870966363
20
173.8709766840141
30
0
40
2.0000000000000466
210
0
220
-0
230
1
100
AcDbArc
50
44.999999999337312
51
224.99999999933732
0
LINE
5
123
100
AcDbEntity
8
0
100
AcDbLine
10
-987.00814514727415
20
175.28519024637086
30
0
11
-982.16499939679932
21
175.28519024637103
31
0
0
ARC
5
124
100
AcDbEntity
8
0
100
AcDbCircle
10
-980.75078583441018
20
173.87097668401395
30
-3.1660587178338836e-43
40
2.0000000000000968
210
-2.2312355819533882e-30
220
-2.2312355820046204e-30
230
1
100
AcDbArc
50
-45.000000000177906
51
135.00000000064944
0
LINE
5
125
100
AcDbEntity
8
0
100
AcDbLine
10
-979.33657227204139
20
172.45676312163638
30
-9.2428873846079957e-41
11
-979.33657227204162
21
145.28519024635713
31
-3.7865323450608567e-28
0
LINE
5
126
100
AcDbEntity
8
0
100
AcDbLine
10
-979.33657227204162
20
145.28519024635713
30
-3.7865323450608567e-28
11
-989.83657227204151
21
145.28519024635753
31
0
0
LINE
5
127
100
AcDbEntity
8
0
100
AcDbLine
10
-989.83657227204151
20
145.28519024635753
30
0
11
-989.8365722720531
21
172.45676312165733
31
0
0
CIRCLE
5
128
100
AcDbEntity
8
0
100
AcDbCircle
10
-984.58657227203673
20
181.28519024637836
30
0
40
2.0499999999999803
210
-0
220
0
230
1
0
CIRCLE
5
129
100
AcDbEntity
8
0
100
AcDbCircle
10
-1011.0865722719915
20
291.75564947488164
30
0
40
2.0499999999999803
210
-0
220
0
230
1
0
CIRCLE
5
130
100
AcDbEntity
8
0
100
AcDbCircle
10
-984.58657227203673
20
249.75564947488328
30
0
40
2.0499999999999803
210
-0
220
0
230
1
0
CIRCLE
5
131
100
AcDbEntity
8
0
100
AcDbCircle
10
-984.58657227203662
20
139.28519024638803
30
0
40
2.0499999999999803
210
-0
220
0
230
1
0
CIRCLE
5
132
100
AcDbEntity
8
0
100
AcDbCircle
10
-1011.0865722719914
20
181.28519024638632
30
0
40
2.0499999999999803
210
-0
220
0
230
1
0
CIRCLE
5
133
100
AcDbEntity
8
0
100
AcDbCircle
10
-984.58657227203685
20
291.75564947487368
30
0
40
2.0499999999999803
210
-0
220
0
230
1
0
LWPOLYLINE
5
134
100
AcDbEntity
8
0
100
AcDbPolyline
90
2
70
1
43
0.0
10
-1011.0865722720154
20
251.80564947487539
10
-1011.0865722720177
20
247.70564947487543
42
0.99999999999999989
0
CIRCLE
5
135
100
AcDbEntity
8
0
100
AcDbCircle
10
-1011.0865722719911
20
139.28519024638007
30
0
40
2.0499999999999803
210
-0
220
0
230
1
0
LWPOLYLINE
5
136
100
AcDbEntity
8
0
100
AcDbPolyline
90
8
70
1
43
0.0
10
-955.56641399017974
20
135.44311019909605
10
-1036.5664139901851
20
120.87476487537958
42
-0.46734918221130239
10
-1048.3365722720666
20
130.71684492266337
10
-1048.3365722720162
20
300.32399479864767
42
-0.467349182211314
10
-1036.5664139901282
20
310.16607484592436
10
-955.56641399013165
20
295.59772952215872
42
-0.36300208855943294
10
-947.33657227201957
20
285.7556494748759
10
-947.33657227206163
20
145.28519024637407
42
-0.36300208855944038
0
CIRCLE
5
137
100
AcDbEntity
8
0
100
AcDbCircle
10
-1033.336572272065
20
140.52041986065092
30
0
40
3.7499999999999947
210
-8.6582525404652426e-59
220
3.1554436208840479e-30
230
1
0
LWPOLYLINE
5
138
100
AcDbEntity
8
0
100
AcDbPolyline
90
4
70
1
43
0.0
10
-968.93657227205711
20
158.03519024638007
10
-968.83657227205708
20
158.03519024638007
42
0.99999999999999989
10
-968.83657227205708
20
162.5351902463801
10
-968.93657227205722
20
162.5351902463801
42
0.99999999999999989
0
CIRCLE
5
139
100
AcDbEntity
8
0
100
AcDbCircle
10
-1033.33657227202
20
290.52041986065103
30
0
40
3.7499999999999947
210
-8.6582525404652426e-59
220
3.1554436208840479e-30
230
1
0
LWPOLYLINE
5
140
100
AcDbEntity
8
0
100
AcDbPolyline
90
4
70
1
43
0.0
10
-968.93657227202402
20
268.5056494748826
10
-968.83657227202389
20
268.5056494748826
42
0.99999999999999989
10
-968.83657227202389
20
273.0056494748826
10
-968.93657227202414
20
273.0056494748826
42
0.99999999999999989
0
LWPOLYLINE
5
141
100
AcDbEntity
8
0
100
AcDbPolyline
90
4
70
1
43
0.0
10
-972.83657227204174
20
211.52041986063244
42
-0.99999999999999989
10
-972.83657227204003
20
219.52041986063244
10
-957.83657227204026
20
219.52041986062792
42
-0.99999999999999989
10
-957.83657227204208
20
211.52041986062795
0
ENDSEC
0
SECTION
2
OBJECTS
0
DICTIONARY
5
C
100
AcDbDictionary
3
ACAD_GROUP
350
D
3
ACAD_MLINESTYLE
350
17
0
DICTIONARY
5
D
100
AcDbDictionary
0
DICTIONARY
5
1A
330
C
100
AcDbDictionary
0
DICTIONARY
5
17
100
AcDbDictionary
0
ENDSEC
0
EOF
