  0
SECTION
  2
HEADER
  9
$ACADVER
  1
AC1009
  9
$DWGCODEPAGE
  3
ansi_1252
  9
$INSBASE
 10
0.0
 20
0.0
 30
0.0
  9
$EXTMIN
 10
1.000000000000000E+20
 20
1.000000000000000E+20
 30
1.000000000000000E+20
  9
$EXTMAX
 10
-1.000000000000000E+20
 20
-1.000000000000000E+20
 30
-1.000000000000000E+20
  9
$LIMMIN
 10
0.0
 20
0.0
  9
$LIMMAX
 10
12.0
 20
9.0
  9
$ORTHOMODE
 70
     0
  9
$REGENMODE
 70
     1
  9
$FILLMODE
 70
     1
  9
$QTEXTMODE
 70
     0
  9
$MIRRTEXT
 70
     1
  9
$DRAGMODE
 70
     2
  9
$LTSCALE
 40
1.0
  9
$OSMODE
 70
    37
  9
$ATTMODE
 70
     1
  9
$TEXTSIZE
 40
0.2
  9
$TRACEWID
 40
0.05
  9
$TEXTSTYLE
  7
STANDARD
  9
$CLAYER
  8
0
  9
$CELTYPE
  6
BYLAYER
  9
$CECOLOR
 62
   256
  9
$DIMSCALE
 40
1.0
  9
$DIMASZ
 40
0.18
  9
$DIMEXO
 40
0.0625
  9
$DIMDLI
 40
0.38
  9
$DIMRND
 40
0.0
  9
$DIMDLE
 40
0.0
  9
$DIMEXE
 40
0.18
  9
$DIMTP
 40
0.0
  9
$DIMTM
 40
0.0
  9
$DIMTXT
 40
0.18
  9
$DIMCEN
 40
0.09
  9
$DIMTSZ
 40
0.0
  9
$DIMTOL
 70
     0
  9
$DIMLIM
 70
     0
  9
$DIMTIH
 70
     1
  9
$DIMTOH
 70
     1
  9
$DIMSE1
 70
     0
  9
$DIMSE2
 70
     0
  9
$DIMTAD
 70
     0
  9
$DIMZIN
 70
     0
  9
$DIMBLK
  1

  9
$DIMASO
 70
     1
  9
$DIMSHO
 70
     1
  9
$DIMPOST
  1

  9
$DIMAPOST
  1

  9
$DIMALT
 70
     0
  9
$DIMALTD
 70
     2
  9
$DIMALTF
 40
25.4
  9
$DIMLFAC
 40
1.0
  9
$DIMTOFL
 70
     0
  9
$DIMTVP
 40
0.0
  9
$DIMTIX
 70
     0
  9
$DIMSOXD
 70
     0
  9
$DIMSAH
 70
     0
  9
$DIMBLK1
  1

  9
$DIMBLK2
  1

  9
$DIMSTYLE
  2
STANDARD_ACAD
  9
$DIMCLRD
 70
     0
  9
$DIMCLRE
 70
     0
  9
$DIMCLRT
 70
     0
  9
$DIMTFAC
 40
1.0
  9
$DIMGAP
 40
0.09
  9
$LUNITS
 70
     2
  9
$LUPREC
 70
     3
  9
$SKETCHINC
 40
0.1
  9
$FILLETRAD
 40
0.5
  9
$AUNITS
 70
     0
  9
$AUPREC
 70
     0
  9
$MENU
  1
.
  9
$ELEVATION
 40
0.0
  9
$PELEVATION
 40
0.0
  9
$THICKNESS
 40
0.0
  9
$LIMCHECK
 70
     0
  9
$CHAMFERA
 40
0.0
  9
$CHAMFERB
 40
0.0
  9
$SKPOLY
 70
     0
  9
$TDCREATE
 40
2458984.497519132
  9
$TDUPDATE
 40
2458984.497530614
  9
$TDINDWG
 40
0.0000000116
  9
$TDUSRTIMER
 40
0.0000000116
  9
$USRTIMER
 70
     1
  9
$ANGBASE
 50
0.0
  9
$ANGDIR
 70
     0
  9
$PDMODE
 70
     0
  9
$PDSIZE
 40
0.0
  9
$PLINEWID
 40
0.0
  9
$COORDS
 70
     1
  9
$SPLFRAME
 70
     0
  9
$SPLINETYPE
 70
     6
  9
$SPLINESEGS
 70
     8
  9
$ATTDIA
 70
     0
  9
$ATTREQ
 70
     1
  9
$HANDLING
 70
     1
  9
$HANDSEED
  5
99
  9
$SURFTAB1
 70
     6
  9
$SURFTAB2
 70
     6
  9
$SURFTYPE
 70
     6
  9
$SURFU
 70
     6
  9
$SURFV
 70
     6
  9
$UCSNAME
  2

  9
$UCSORG
 10
0.0
 20
0.0
 30
0.0
  9
$UCSXDIR
 10
1.0
 20
0.0
 30
0.0
  9
$UCSYDIR
 10
0.0
 20
1.0
 30
0.0
  9
$PUCSNAME
  2

  9
$PUCSORG
 10
0.0
 20
0.0
 30
0.0
  9
$PUCSXDIR
 10
1.0
 20
0.0
 30
0.0
  9
$PUCSYDIR
 10
0.0
 20
1.0
 30
0.0
  9
$USERI1
 70
     0
  9
$USERI2
 70
     0
  9
$USERI3
 70
     0
  9
$USERI4
 70
     0
  9
$USERI5
 70
     0
  9
$USERR1
 40
0.0
  9
$USERR2
 40
0.0
  9
$USERR3
 40
0.0
  9
$USERR4
 40
0.0
  9
$USERR5
 40
0.0
  9
$WORLDVIEW
 70
     1
  9
$SHADEDGE
 70
     3
  9
$SHADEDIF
 70
    70
  9
$TILEMODE
 70
     1
  9
$MAXACTVP
 70
    64
  9
$PLIMCHECK
 70
     0
  9
$PEXTMIN
 10
1.000000000000000E+20
 20
1.000000000000000E+20
 30
1.000000000000000E+20
  9
$PEXTMAX
 10
-1.000000000000000E+20
 20
-1.000000000000000E+20
 30
-1.000000000000000E+20
  9
$PLIMMIN
 10
0.0
 20
0.0
  9
$PLIMMAX
 10
12.0
 20
9.0
  9
$UNITMODE
 70
     0
  9
$VISRETAIN
 70
     1
  9
$PLINEGEN
 70
     0
  9
$PSLTSCALE
 70
     1
  0
ENDSEC
  0
SECTION
  2
TABLES
  0
TABLE
  2
VPORT
 70
     1
  0
VPORT
  2
*ACTIVE
 70
     0
 10
0.0
 20
0.0
 11
1.0
 21
1.0
 12
10.42990654205607
 22
4.5
 13
0.0
 23
0.0
 14
0.5
 24
0.5
 15
0.5
 25
0.5
 16
0.0
 26
0.0
 36
1.0
 17
0.0
 27
0.0
 37
0.0
 40
9.0
 41
1.972972972850329
 42
50.0
 43
0.0
 44
0.0
 50
0.0
 51
0.0
 71
     0
 72
   100
 73
     1
 74
     3
 75
     0
 76
     0
 77
     0
 78
     0
  0
ENDTAB
  0
TABLE
  2
LTYPE
 70
     1
  0
LTYPE
  2
CONTINUOUS
 70
     0
  3
Solid line
 72
    65
 73
     0
 40
0.0
  0
ENDTAB
  0
TABLE
  2
LAYER
 70
     1
  0
LAYER
  2
0
 70
     0
 62
     7
  6
CONTINUOUS
  0
ENDTAB
  0
TABLE
  2
STYLE
 70
     1
  0
STYLE
  2
STANDARD
 70
     0
 40
0.0
 41
1.0
 50
0.0
 71
     0
 42
0.2
  3
txt
  4

  0
ENDTAB
  0
TABLE
  2
VIEW
 70
     0
  0
ENDTAB
  0
TABLE
  2
UCS
 70
     0
  0
ENDTAB
  0
TABLE
  2
APPID
 70
     1
  0
APPID
  2
ACAD
 70
     0
  0
ENDTAB
  0
TABLE
  2
DIMSTYLE
 70
     1
  0
DIMSTYLE
  2
STANDARD_ACAD
 70
     0
  3

  4

  5

  6

  7

 40
1.0
 41
0.18
 42
0.0625
 43
0.38
 44
0.18
 45
0.0
 46
0.0
 47
0.0
 48
0.0
140
0.18
141
0.09
142
0.0
143
25.4
144
1.0
145
0.0
146
1.0
147
0.09
 71
     0
 72
     0
 73
     1
 74
     1
 75
     0
 76
     0
 77
     0
 78
     0
170
     0
171
     2
172
     0
173
     0
174
     0
175
     0
176
     0
177
     0
178
     0
  0
ENDTAB
  0
ENDSEC
  0
SECTION
  2
BLOCKS
  0
BLOCK
  8
0
  2
$MODEL_SPACE
 70
     0
 10
0.0
 20
0.0
 30
0.0
  3
$MODEL_SPACE
  1

  0
ENDBLK
  5
21
  8
0
  0
BLOCK
 67
     1
  8
0
  2
$PAPER_SPACE
 70
     0
 10
0.0
 20
0.0
 30
0.0
  3
$PAPER_SPACE
  1

  0
ENDBLK
  5
1D
 67
     1
  8
0
  0
BLOCK
  8
0
  2
Y_THREADED_ROD_SUPPORT
 70
     0
 10
0.0
 20
0.0
 30
0.0
  3
Y_THREADED_ROD_SUPPORT
  1

  0
LINE
  5
6F
  8
0
  6
BYBLOCK
 62
     0
 10
-1026.336572272287
 20
1468.192322706981
 30
0.0
 11
-962.3365722721292
 21
1468.192322706976
 31
0.0
  0
ARC
  5
70
  8
0
  6
BYBLOCK
 62
     0
 10
-962.3365722721281
 20
1483.192322706976
 30
0.0
 40
15.00000000000004
 50
269.9999999999961
 51
359.9999999999948
  0
LINE
  5
71
  8
0
  6
BYBLOCK
 62
     0
 10
-947.3365722721281
 20
1483.192322706975
 30
0.0
 11
-947.3365722721257
 21
1505.216518797042
 31
0.0
  0
ARC
  5
72
  8
0
  6
BYBLOCK
 62
     0
 10
938.336572272126
 20
1505.216518797041
 30
0.0
 40
8.999999999999806
 50
0.0000000000072375
 51
161.2634619005529
210
0.0
220
0.0
230
-1.0
  0
ARC
  5
73
  8
0
  6
BYBLOCK
 62
     0
 10
1213.915209729849
 20
1411.742380250881
 30
0.0
 40
300.0000000000027
 50
161.2634619005493
 51
185.6652685296668
210
0.0
220
0.0
230
-1.0
  0
ARC
  5
74
  8
0
  6
BYBLOCK
 62
     0
 10
924.3365722722399
 20
1383.015864134297
 30
0.0
 40
9.000000000000103
 50
185.6652685296634
 51
270.0
210
0.0
220
0.0
230
-1.0
  0
LINE
  5
75
  8
0
  6
BYBLOCK
 62
     0
 10
-924.3365722722399
 20
1374.015864134297
 30
0.0
 11
-959.3743727339515
 21
1374.015864134296
 31
0.0
  0
ARC
  5
76
  8
0
  6
BYBLOCK
 62
     0
 10
959.3743727339514
 20
1389.015864134295
 30
0.0
 40
14.99999999999915
 50
270.0000000000004
 51
306.9006802390096
210
0.0
220
0.0
230
-1.0
  0
ARC
  5
77
  8
0
  6
BYBLOCK
 62
     0
 10
668.1659587916661
 20
1776.859466182459
 30
0.0
 40
500.0000000004895
 50
306.9006802390085
 51
316.3505991273348
210
0.0
220
0.0
230
-1.0
  0
ARC
  5
78
  8
0
  6
BYBLOCK
 62
     0
 10
1026.33657227229
 20
1435.188847546035
 30
0.0
 40
5.000000000001223
 50
316.3505991273399
 51
0.0000000000026055
210
0.0
220
0.0
230
-1.0
  0
LINE
  5
79
  8
0
  6
BYBLOCK
 62
     0
 10
-1031.336572272291
 20
1435.188847546035
 30
0.0
 11
-1031.336572272287
 21
1463.192322706982
 31
0.0
  0
ARC
  5
7A
  8
0
  6
BYBLOCK
 62
     0
 10
1026.336572272288
 20
1463.192322706981
 30
0.0
 40
4.999999999999631
 50
0.0000000000026055
 51
90.00000000000522
210
0.0
220
0.0
230
-1.0
  0
CIRCLE
  5
7B
  8
0
  6
BYBLOCK
 62
     0
 10
-997.8365722722638
 20
1442.942322706974
 30
0.0
 40
2.050000000000125
  0
LINE
  5
7C
  8
0
  6
BYBLOCK
 62
     0
 10
-989.8365722722463
 20
1460.363895582227
 30
0.0
 11
-989.8365722722463
 21
1451.02074983172
 31
0.0
  0
ARC
  5
7D
  8
0
  6
BYBLOCK
 62
     0
 10
-988.4223587098732
 20
1449.606536269347
 30
0.0
 40
2.000000000000016
 50
135.0
 51
315.0
  0
LINE
  5
7E
  8
0
  6
BYBLOCK
 62
     0
 10
-987.0081451475
 20
1448.192322706974
 30
0.0
 11
-982.1649993969926
 21
1448.192322706974
 31
0.0
  0
ARC
  5
7F
  8
0
  6
BYBLOCK
 62
     0
 10
-980.7507858346195
 20
1449.606536269347
 30
0.0
 40
2.000000000000056
 50
225.0
 51
45.0
  0
LINE
  5
80
  8
0
  6
BYBLOCK
 62
     0
 10
-979.3365722722463
 20
1451.02074983172
 30
0.0
 11
-979.3365722722463
 21
1460.363895582227
 31
0.0
  0
ARC
  5
81
  8
0
  6
BYBLOCK
 62
     0
 10
-980.7507858346195
 20
1461.7781091446
 30
0.0
 40
2.000000000000137
 50
315.0000000000023
 51
135.0000000000023
  0
LINE
  5
82
  8
0
  6
BYBLOCK
 62
     0
 10
-982.1649993969926
 20
1463.192322706974
 30
0.0
 11
-987.0081451475003
 21
1463.192322706974
 31
0.0
  0
ARC
  5
83
  8
0
  6
BYBLOCK
 62
     0
 10
-988.4223587098733
 20
1461.7781091446
 30
0.0
 40
2.000000000000016
 50
45.00000000000691
 51
225.0000000000069
  0
LINE
  5
84
  8
0
  6
BYBLOCK
 62
     0
 10
-1016.336572272116
 20
1451.020749831719
 30
0.0
 11
-1016.336572272115
 21
1460.363895582228
 31
0.0
  0
ARC
  5
85
  8
0
  6
BYBLOCK
 62
     0
 10
-1014.922358709742
 20
1461.778109144601
 30
0.0
 40
2.000000000000298
 50
45.00000000001842
 51
225.0000000000023
  0
LINE
  5
86
  8
0
  6
BYBLOCK
 62
     0
 10
-1013.508145147369
 20
1463.192322706975
 30
0.0
 11
-1008.664999396861
 21
1463.192322706975
 31
0.0
  0
ARC
  5
87
  8
0
  6
BYBLOCK
 62
     0
 10
-1007.250785834488
 20
1461.778109144601
 30
0.0
 40
2.000000000000298
 50
314.9999999999816
 51
135.0000008537585
  0
LINE
  5
88
  8
0
  6
BYBLOCK
 62
     0
 10
-1005.836572272115
 20
1460.363895582227
 30
0.0
 11
-1005.836572272116
 21
1451.020749831721
 31
0.0
  0
ARC
  5
89
  8
0
  6
BYBLOCK
 62
     0
 10
-1007.250785834488
 20
1449.606536269346
 30
0.0
 40
2.000000000000197
 50
224.9999999999125
 51
45.00000000004836
  0
LINE
  5
8A
  8
0
  6
BYBLOCK
 62
     0
 10
-1008.664999396863
 20
1448.192322706975
 30
0.0
 11
-1013.508145147366
 21
1448.192322706975
 31
0.0
  0
ARC
  5
8B
  8
0
  6
BYBLOCK
 62
     0
 10
-1014.922358709742
 20
1449.606536269346
 30
0.0
 40
2.000000000000197
 50
135.0000000000254
 51
315.0000000000967
  0
CIRCLE
  5
8C
  8
0
  6
BYBLOCK
 62
     0
 10
-938.3365722721261
 20
1505.216518797041
 30
0.0
 40
4.14999999999992
  0
CIRCLE
  5
8D
  8
0
  6
BYBLOCK
 62
     0
 10
-924.3365722722399
 20
1383.015864134297
 30
0.0
 40
4.224999999999994
  0
ENDBLK
  5
8F
  8
0
  0
ENDSEC
  0
SECTION
  2
ENTITIES
  0
INSERT
  5
90
  8
0
  2
Y_THREADED_ROD_SUPPORT
 10
25.46465430190785
 20
1802.818553644566
 30
0.0
 41
0.9999999999999999
 42
0.9999999999999999
 50
144.0376749124401
  0
INSERT
  5
91
  8
0
  2
Y_THREADED_ROD_SUPPORT
 10
-95.11467929835607
 20
-1748.647973791531
 30
0.0
 41
0.9999999999999999
 42
0.9999999999999999
 50
324.0376749124401
  0
ENDSEC
  0
EOF
