  0
SECTION
  2
HEADER
  9
$ACADVER
  1
AC1009
  9
$DWGCODEPAGE
  3
ansi_1252
  9
$INSBASE
 10
0.0
 20
0.0
 30
0.0
  9
$EXTMIN
 10
1.000000000000000E+20
 20
1.000000000000000E+20
 30
1.000000000000000E+20
  9
$EXTMAX
 10
-1.000000000000000E+20
 20
-1.000000000000000E+20
 30
-1.000000000000000E+20
  9
$LIMMIN
 10
0.0
 20
0.0
  9
$LIMMAX
 10
12.0
 20
9.0
  9
$ORTHOMODE
 70
     0
  9
$REGENMODE
 70
     1
  9
$FILLMODE
 70
     1
  9
$QTEXTMODE
 70
     0
  9
$MIRRTEXT
 70
     1
  9
$DRAGMODE
 70
     2
  9
$LTSCALE
 40
1.0
  9
$OSMODE
 70
    37
  9
$ATTMODE
 70
     1
  9
$TEXTSIZE
 40
0.2
  9
$TRACEWID
 40
0.05
  9
$TEXTSTYLE
  7
STANDARD
  9
$CLAYER
  8
0
  9
$CELTYPE
  6
BYLAYER
  9
$CECOLOR
 62
   256
  9
$DIMSCALE
 40
1.0
  9
$DIMASZ
 40
0.18
  9
$DIMEXO
 40
0.0625
  9
$DIMDLI
 40
0.38
  9
$DIMRND
 40
0.0
  9
$DIMDLE
 40
0.0
  9
$DIMEXE
 40
0.18
  9
$DIMTP
 40
0.0
  9
$DIMTM
 40
0.0
  9
$DIMTXT
 40
0.18
  9
$DIMCEN
 40
0.09
  9
$DIMTSZ
 40
0.0
  9
$DIMTOL
 70
     0
  9
$DIMLIM
 70
     0
  9
$DIMTIH
 70
     1
  9
$DIMTOH
 70
     1
  9
$DIMSE1
 70
     0
  9
$DIMSE2
 70
     0
  9
$DIMTAD
 70
     0
  9
$DIMZIN
 70
     0
  9
$DIMBLK
  1

  9
$DIMASO
 70
     1
  9
$DIMSHO
 70
     1
  9
$DIMPOST
  1

  9
$DIMAPOST
  1

  9
$DIMALT
 70
     0
  9
$DIMALTD
 70
     2
  9
$DIMALTF
 40
25.4
  9
$DIMLFAC
 40
1.0
  9
$DIMTOFL
 70
     0
  9
$DIMTVP
 40
0.0
  9
$DIMTIX
 70
     0
  9
$DIMSOXD
 70
     0
  9
$DIMSAH
 70
     0
  9
$DIMBLK1
  1

  9
$DIMBLK2
  1

  9
$DIMSTYLE
  2
STANDARD_ACAD
  9
$DIMCLRD
 70
     0
  9
$DIMCLRE
 70
     0
  9
$DIMCLRT
 70
     0
  9
$DIMTFAC
 40
1.0
  9
$DIMGAP
 40
0.09
  9
$LUNITS
 70
     2
  9
$LUPREC
 70
     3
  9
$SKETCHINC
 40
0.1
  9
$FILLETRAD
 40
0.5
  9
$AUNITS
 70
     0
  9
$AUPREC
 70
     0
  9
$MENU
  1
.
  9
$ELEVATION
 40
0.0
  9
$PELEVATION
 40
0.0
  9
$THICKNESS
 40
0.0
  9
$LIMCHECK
 70
     0
  9
$CHAMFERA
 40
0.0
  9
$CHAMFERB
 40
0.0
  9
$SKPOLY
 70
     0
  9
$TDCREATE
 40
2459032.712772639
  9
$TDUPDATE
 40
2459032.712783333
  9
$TDINDWG
 40
0.0000000116
  9
$TDUSRTIMER
 40
0.0000000116
  9
$USRTIMER
 70
     1
  9
$ANGBASE
 50
0.0
  9
$ANGDIR
 70
     0
  9
$PDMODE
 70
     0
  9
$PDSIZE
 40
0.0
  9
$PLINEWID
 40
0.0
  9
$COORDS
 70
     1
  9
$SPLFRAME
 70
     0
  9
$SPLINETYPE
 70
     6
  9
$SPLINESEGS
 70
     8
  9
$ATTDIA
 70
     0
  9
$ATTREQ
 70
     1
  9
$HANDLING
 70
     1
  9
$HANDSEED
  5
102
  9
$SURFTAB1
 70
     6
  9
$SURFTAB2
 70
     6
  9
$SURFTYPE
 70
     6
  9
$SURFU
 70
     6
  9
$SURFV
 70
     6
  9
$UCSNAME
  2

  9
$UCSORG
 10
0.0
 20
0.0
 30
0.0
  9
$UCSXDIR
 10
1.0
 20
0.0
 30
0.0
  9
$UCSYDIR
 10
0.0
 20
1.0
 30
0.0
  9
$PUCSNAME
  2

  9
$PUCSORG
 10
0.0
 20
0.0
 30
0.0
  9
$PUCSXDIR
 10
1.0
 20
0.0
 30
0.0
  9
$PUCSYDIR
 10
0.0
 20
1.0
 30
0.0
  9
$USERI1
 70
     0
  9
$USERI2
 70
     0
  9
$USERI3
 70
     0
  9
$USERI4
 70
     0
  9
$USERI5
 70
     0
  9
$USERR1
 40
0.0
  9
$USERR2
 40
0.0
  9
$USERR3
 40
0.0
  9
$USERR4
 40
0.0
  9
$USERR5
 40
0.0
  9
$WORLDVIEW
 70
     1
  9
$SHADEDGE
 70
     3
  9
$SHADEDIF
 70
    70
  9
$TILEMODE
 70
     1
  9
$MAXACTVP
 70
    64
  9
$PLIMCHECK
 70
     0
  9
$PEXTMIN
 10
1.000000000000000E+20
 20
1.000000000000000E+20
 30
1.000000000000000E+20
  9
$PEXTMAX
 10
-1.000000000000000E+20
 20
-1.000000000000000E+20
 30
-1.000000000000000E+20
  9
$PLIMMIN
 10
0.0
 20
0.0
  9
$PLIMMAX
 10
12.0
 20
9.0
  9
$UNITMODE
 70
     0
  9
$VISRETAIN
 70
     1
  9
$PLINEGEN
 70
     0
  9
$PSLTSCALE
 70
     1
  0
ENDSEC
  0
SECTION
  2
TABLES
  0
TABLE
  2
VPORT
 70
     1
  0
VPORT
  2
*ACTIVE
 70
     0
 10
0.0
 20
0.0
 11
1.0
 21
1.0
 12
10.42990654205607
 22
4.5
 13
0.0
 23
0.0
 14
0.5
 24
0.5
 15
0.5
 25
0.5
 16
0.0
 26
0.0
 36
1.0
 17
0.0
 27
0.0
 37
0.0
 40
9.0
 41
1.972972972850329
 42
50.0
 43
0.0
 44
0.0
 50
0.0
 51
0.0
 71
     0
 72
   100
 73
     1
 74
     3
 75
     0
 76
     0
 77
     0
 78
     0
  0
ENDTAB
  0
TABLE
  2
LTYPE
 70
     1
  0
LTYPE
  2
CONTINUOUS
 70
     0
  3
Solid line
 72
    65
 73
     0
 40
0.0
  0
ENDTAB
  0
TABLE
  2
LAYER
 70
     1
  0
LAYER
  2
0
 70
     0
 62
     7
  6
CONTINUOUS
  0
ENDTAB
  0
TABLE
  2
STYLE
 70
     1
  0
STYLE
  2
STANDARD
 70
     0
 40
0.0
 41
1.0
 50
0.0
 71
     0
 42
0.2
  3
txt
  4

  0
ENDTAB
  0
TABLE
  2
VIEW
 70
     0
  0
ENDTAB
  0
TABLE
  2
UCS
 70
     0
  0
ENDTAB
  0
TABLE
  2
APPID
 70
     1
  0
APPID
  2
ACAD
 70
     0
  0
ENDTAB
  0
TABLE
  2
DIMSTYLE
 70
     1
  0
DIMSTYLE
  2
STANDARD_ACAD
 70
     0
  3

  4

  5

  6

  7

 40
1.0
 41
0.18
 42
0.0625
 43
0.38
 44
0.18
 45
0.0
 46
0.0
 47
0.0
 48
0.0
140
0.18
141
0.09
142
0.0
143
25.4
144
1.0
145
0.0
146
1.0
147
0.09
 71
     0
 72
     0
 73
     1
 74
     1
 75
     0
 76
     0
 77
     0
 78
     0
170
     0
171
     2
172
     0
173
     0
174
     0
175
     0
176
     0
177
     0
178
     0
  0
ENDTAB
  0
ENDSEC
  0
SECTION
  2
BLOCKS
  0
BLOCK
  8
0
  2
$MODEL_SPACE
 70
     0
 10
0.0
 20
0.0
 30
0.0
  3
$MODEL_SPACE
  1

  0
ENDBLK
  5
21
  8
0
  0
BLOCK
 67
     1
  8
0
  2
$PAPER_SPACE
 70
     0
 10
0.0
 20
0.0
 30
0.0
  3
$PAPER_SPACE
  1

  0
ENDBLK
  5
1D
 67
     1
  8
0
  0
ENDSEC
  0
SECTION
  2
ENTITIES
  0
ARC
  5
6E
  8
0
 10
986.4999999999318
 20
1281.527162067694
 30
0.0
 40
5.000000000000313
 50
180.0000000000052
 51
269.9999999999961
210
0.0
220
0.0
230
-1.0
  0
LINE
  5
6F
  8
0
 10
-986.4999999999314
 20
1276.527162067694
 30
0.0
 11
-1013.499999999932
 21
1276.527162067694
 31
0.0
  0
ARC
  5
70
  8
0
 10
1013.499999999932
 20
1281.527162067694
 30
0.0
 40
4.999999999999787
 50
269.9999999999974
 51
0.0000000000026055
210
0.0
220
0.0
230
-1.0
  0
LINE
  5
71
  8
0
 10
-1018.499999999932
 20
1281.527162067694
 30
0.0
 11
-1018.499999999929
 21
1318.527162067694
 31
0.0
  0
ARC
  5
72
  8
0
 10
1013.499999999929
 20
1318.527162067694
 30
0.0
 40
5.000000000000313
 50
0.000000000005211
 51
89.99999999999609
210
0.0
220
0.0
230
-1.0
  0
LINE
  5
73
  8
0
 10
-1013.499999999929
 20
1323.527162067694
 30
0.0
 11
-986.4999999999291
 21
1323.527162067694
 31
0.0
  0
ARC
  5
74
  8
0
 10
986.4999999999288
 20
1318.527162067694
 30
0.0
 40
4.999999999999702
 50
89.99999999999739
 51
180.0000000000052
210
0.0
220
0.0
230
-1.0
  0
LINE
  5
75
  8
0
 10
-981.4999999999292
 20
1318.527162067694
 30
0.0
 11
-981.4999999999314
 21
1281.527162067694
 31
0.0
  0
LINE
  5
76
  8
0
 10
-1003.288685993695
 20
1295.354377729029
 30
0.0
 11
-1003.372893448037
 21
1295.372214168936
 31
0.0
  0
LINE
  5
77
  8
0
 10
-1003.372893448037
 20
1295.372214168936
 30
0.0
 11
-1003.457263849687
 21
1295.391690852344
 31
0.0
  0
LINE
  5
78
  8
0
 10
-1003.457263849687
 20
1295.391690852344
 30
0.0
 11
-1003.54174497179
 21
1295.412827874457
 31
0.0
  0
LINE
  5
79
  8
0
 10
-1003.54174497179
 20
1295.412827874457
 30
0.0
 11
-1003.626283058158
 21
1295.435643664557
 31
0.0
  0
LINE
  5
7A
  8
0
 10
-1003.626283058158
 20
1295.435643664557
 30
0.0
 11
-1003.710822892526
 21
1295.460154890557
 31
0.0
  0
LINE
  5
7B
  8
0
 10
-1003.710822892526
 20
1295.460154890557
 30
0.0
 11
-1003.795307875386
 21
1295.48637636573
 31
0.0
  0
LINE
  5
7C
  8
0
 10
-1003.795307875386
 20
1295.48637636573
 30
0.0
 11
-1003.879680108386
 21
1295.514320958178
 31
0.0
  0
LINE
  5
7D
  8
0
 10
-1003.879680108386
 20
1295.514320958178
 30
0.0
 11
-1003.963880486207
 21
1295.543999503572
 31
0.0
  0
LINE
  5
7E
  8
0
 10
-1003.963880486207
 20
1295.543999503572
 30
0.0
 11
-1004.047848795806
 21
1295.575420721722
 31
0.0
  0
LINE
  5
7F
  8
0
 10
-1004.047848795806
 20
1295.575420721722
 30
0.0
 11
-1004.131523822858
 21
1295.608591137539
 31
0.0
  0
LINE
  5
80
  8
0
 10
-1004.131523822858
 20
1295.608591137539
 30
0.0
 11
-1004.214843465138
 21
1295.643515006931
 31
0.0
  0
LINE
  5
81
  8
0
 10
-1004.214843465138
 20
1295.643515006931
 30
0.0
 11
-1004.297744852595
 21
1295.680194248189
 31
0.0
  0
LINE
  5
82
  8
0
 10
-1004.297744852595
 20
1295.680194248189
 30
0.0
 11
-1004.380164473747
 21
1295.718628379385
 31
0.0
  0
LINE
  5
83
  8
0
 10
-1004.380164473747
 20
1295.718628379385
 30
0.0
 11
-1004.462038308018
 21
1295.758814462317
 31
0.0
  0
LINE
  5
84
  8
0
 10
-1004.462038308018
 20
1295.758814462317
 30
0.0
 11
-1004.543301963568
 21
1295.800747053468
 31
0.0
  0
LINE
  5
85
  8
0
 10
-1004.543301963568
 20
1295.800747053468
 30
0.0
 11
-1004.623890820098
 21
1295.84441816247
 31
0.0
  0
LINE
  5
86
  8
0
 10
-1004.623890820098
 20
1295.84441816247
 30
0.0
 11
-1004.7037401761
 21
1295.889817218496
 31
0.0
  0
LINE
  5
87
  8
0
 10
-1004.7037401761
 20
1295.889817218496
 30
0.0
 11
-1004.782785399927
 21
1295.936931044963
 31
0.0
  0
LINE
  5
88
  8
0
 10
-1004.782785399927
 20
1295.936931044963
 30
0.0
 11
-1004.860962084055
 21
1295.985743842932
 31
0.0
  0
LINE
  5
89
  8
0
 10
-1004.860962084055
 20
1295.985743842932
 30
0.0
 11
-1004.938206201838
 21
1296.036237183471
 31
0.0
  0
LINE
  5
8A
  8
0
 10
-1004.938206201838
 20
1296.036237183471
 30
0.0
 11
-1005.014454266044
 21
1296.088390009271
 31
0.0
  0
LINE
  5
8B
  8
0
 10
-1005.014454266044
 20
1296.088390009271
 30
0.0
 11
-1005.0896434884
 21
1296.142178645692
 31
0.0
  0
LINE
  5
8C
  8
0
 10
-1005.0896434884
 20
1296.142178645692
 30
0.0
 11
-1005.163711939392
 21
1296.197576821394
 31
0.0
  0
LINE
  5
8D
  8
0
 10
-1005.163711939392
 20
1296.197576821394
 30
0.0
 11
-1005.236598707487
 21
1296.254555698627
 31
0.0
  0
LINE
  5
8E
  8
0
 10
-1005.236598707487
 20
1296.254555698627
 30
0.0
 11
-1005.308244057003
 21
1296.313083913205
 31
0.0
  0
LINE
  5
8F
  8
0
 10
-1005.308244057003
 20
1296.313083913205
 30
0.0
 11
-1005.378589583769
 21
1296.373127624102
 31
0.0
  0
LINE
  5
90
  8
0
 10
-1005.378589583769
 20
1296.373127624102
 30
0.0
 11
-1005.447578367785
 21
1296.43465057258
 31
0.0
  0
LINE
  5
91
  8
0
 10
-1005.447578367785
 20
1296.43465057258
 30
0.0
 11
-1005.515155122065
 21
1296.49761415065
 31
0.0
  0
LINE
  5
92
  8
0
 10
-1005.515155122065
 20
1296.49761415065
 30
0.0
 11
-1005.581266336847
 21
1296.561977478631
 31
0.0
  0
LINE
  5
93
  8
0
 10
-1005.581266336847
 20
1296.561977478631
 30
0.0
 11
-1005.645860418429
 21
1296.627697491498
 31
0.0
  0
LINE
  5
94
  8
0
 10
-1005.645860418429
 20
1296.627697491498
 30
0.0
 11
-1005.70888782186
 21
1296.694729033643
 31
0.0
  0
LINE
  5
95
  8
0
 10
-1005.70888782186
 20
1296.694729033643
 30
0.0
 11
-1005.770301176788
 21
1296.76302496163
 31
0.0
  0
LINE
  5
96
  8
0
 10
-1005.770301176788
 20
1296.76302496163
 30
0.0
 11
-1005.830055405793
 21
1296.832536254434
 31
0.0
  0
LINE
  5
97
  8
0
 10
-1005.830055405793
 20
1296.832536254434
 30
0.0
 11
-1005.888107834591
 21
1296.903212130658
 31
0.0
  0
LINE
  5
98
  8
0
 10
-1005.888107834591
 20
1296.903212130658
 30
0.0
 11
-1005.944418293542
 21
1296.975000172102
 31
0.0
  0
LINE
  5
99
  8
0
 10
-1005.944418293542
 20
1296.975000172102
 30
0.0
 11
-1005.998949209954
 21
1297.047846453082
 31
0.0
  0
LINE
  5
9A
  8
0
 10
-1005.998949209954
 20
1297.047846453082
 30
0.0
 11
-1006.051665690736
 21
1297.12169567482
 31
0.0
  0
LINE
  5
9B
  8
0
 10
-1006.051665690736
 20
1297.12169567482
 30
0.0
 11
-1006.102535595035
 21
1297.196491304202
 31
0.0
  0
LINE
  5
9C
  8
0
 10
-1006.102535595035
 20
1297.196491304202
 30
0.0
 11
-1006.151529596535
 21
1297.272175716183
 31
0.0
  0
LINE
  5
9D
  8
0
 10
-1006.151529596535
 20
1297.272175716183
 30
0.0
 11
-1006.198621235197
 21
1297.348690339094
 31
0.0
  0
LINE
  5
9E
  8
0
 10
-1006.198621235197
 20
1297.348690339094
 30
0.0
 11
-1006.243786958264
 21
1297.425975802095
 31
0.0
  0
LINE
  5
9F
  8
0
 10
-1006.243786958264
 20
1297.425975802095
 30
0.0
 11
-1006.287006150448
 21
1297.503972084007
 31
0.0
  0
LINE
  5
A0
  8
0
 10
-1006.287006150448
 20
1297.503972084007
 30
0.0
 11
-1006.328261153288
 21
1297.582618662772
 31
0.0
  0
LINE
  5
A1
  8
0
 10
-1006.328261153288
 20
1297.582618662772
 30
0.0
 11
-1006.367537273729
 21
1297.661854664773
 31
0.0
  0
LINE
  5
A2
  8
0
 10
-1006.367537273729
 20
1297.661854664773
 30
0.0
 11
-1006.404822782049
 21
1297.74161901329
 31
0.0
  0
LINE
  5
A3
  8
0
 10
-1006.404822782049
 20
1297.74161901329
 30
0.0
 11
-1006.44010889933
 21
1297.821850575354
 31
0.0
  0
LINE
  5
A4
  8
0
 10
-1006.44010889933
 20
1297.821850575354
 30
0.0
 11
-1006.473389774739
 21
1297.902488306322
 31
0.0
  0
LINE
  5
A5
  8
0
 10
-1006.473389774739
 20
1297.902488306322
 30
0.0
 11
-1006.50466245293
 21
1297.983471391492
 31
0.0
  0
LINE
  5
A6
  8
0
 10
-1006.50466245293
 20
1297.983471391492
 30
0.0
 11
-1006.533926831949
 21
1298.064739384141
 31
0.0
  0
LINE
  5
A7
  8
0
 10
-1006.533926831949
 20
1298.064739384141
 30
0.0
 11
-1006.561185612071
 21
1298.146232339396
 31
0.0
  0
LINE
  5
A8
  8
0
 10
-1006.561185612071
 20
1298.146232339396
 30
0.0
 11
-1006.586444236052
 21
1298.227890943377
 31
0.0
  0
LINE
  5
A9
  8
0
 10
-1006.586444236052
 20
1298.227890943377
 30
0.0
 11
-1006.609710821295
 21
1298.309656637138
 31
0.0
  0
LINE
  5
AA
  8
0
 10
-1006.609710821295
 20
1298.309656637138
 30
0.0
 11
-1006.630996084511
 21
1298.391471734934
 31
0.0
  0
LINE
  5
AB
  8
0
 10
-1006.630996084511
 20
1298.391471734934
 30
0.0
 11
-1006.650313259429
 21
1298.473279536422
 31
0.0
  0
LINE
  5
AC
  8
0
 10
-1006.650313259429
 20
1298.473279536422
 30
0.0
 11
-1006.667678008188
 21
1298.555024432456
 31
0.0
  0
LINE
  5
AD
  8
0
 10
-1006.667678008188
 20
1298.555024432456
 30
0.0
 11
-1006.683108327018
 21
1298.636652004169
 31
0.0
  0
LINE
  5
AE
  8
0
 10
-1006.683108327018
 20
1298.636652004169
 30
0.0
 11
-1006.696624446852
 21
1298.718109115113
 31
0.0
  0
LINE
  5
AF
  8
0
 10
-1006.696624446852
 20
1298.718109115113
 30
0.0
 11
-1006.708248729526
 21
1298.799343996261
 31
0.0
  0
LINE
  5
B0
  8
0
 10
-1006.708248729526
 20
1298.799343996261
 30
0.0
 11
-1006.718005560191
 21
1298.880306323742
 31
0.0
  0
LINE
  5
B1
  8
0
 10
-1006.718005560191
 20
1298.880306323742
 30
0.0
 11
-1006.725921236595
 21
1298.960947289218
 31
0.0
  0
LINE
  5
B2
  8
0
 10
-1006.725921236595
 20
1298.960947289218
 30
0.0
 11
-1006.732023855861
 21
1299.041219662871
 31
0.0
  0
LINE
  5
B3
  8
0
 10
-1006.732023855861
 20
1299.041219662871
 30
0.0
 11
-1006.736343199379
 21
1299.121077849006
 31
0.0
  0
LINE
  5
B4
  8
0
 10
-1006.736343199379
 20
1299.121077849006
 30
0.0
 11
-1006.738910616417
 21
1299.200477934337
 31
0.0
  0
LINE
  5
B5
  8
0
 10
-1006.738910616417
 20
1299.200477934337
 30
0.0
 11
-1006.739758907034
 21
1299.279377729029
 31
0.0
  0
LINE
  5
B6
  8
0
 10
-1006.739758907034
 20
1299.279377729029
 30
0.0
 11
-1006.738910616417
 21
1299.358277523721
 31
0.0
  0
LINE
  5
B7
  8
0
 10
-1006.738910616417
 20
1299.358277523721
 30
0.0
 11
-1006.736343199379
 21
1299.437677609052
 31
0.0
  0
LINE
  5
B8
  8
0
 10
-1006.736343199379
 20
1299.437677609052
 30
0.0
 11
-1006.732023855861
 21
1299.517535795188
 31
0.0
  0
LINE
  5
B9
  8
0
 10
-1006.732023855861
 20
1299.517535795188
 30
0.0
 11
-1006.725921236595
 21
1299.597808168841
 31
0.0
  0
LINE
  5
BA
  8
0
 10
-1006.725921236595
 20
1299.597808168841
 30
0.0
 11
-1006.718005560191
 21
1299.678449134316
 31
0.0
  0
LINE
  5
BB
  8
0
 10
-1006.718005560191
 20
1299.678449134316
 30
0.0
 11
-1006.708248729526
 21
1299.759411461798
 31
0.0
  0
LINE
  5
BC
  8
0
 10
-1006.708248729526
 20
1299.759411461798
 30
0.0
 11
-1006.696624446852
 21
1299.840646342946
 31
0.0
  0
LINE
  5
BD
  8
0
 10
-1006.696624446852
 20
1299.840646342946
 30
0.0
 11
-1006.683108327018
 21
1299.92210345389
 31
0.0
  0
LINE
  5
BE
  8
0
 10
-1006.683108327018
 20
1299.92210345389
 30
0.0
 11
-1006.667678008188
 21
1300.003731025603
 31
0.0
  0
LINE
  5
BF
  8
0
 10
-1006.667678008188
 20
1300.003731025603
 30
0.0
 11
-1006.650313259429
 21
1300.085475921637
 31
0.0
  0
LINE
  5
C0
  8
0
 10
-1006.650313259429
 20
1300.085475921637
 30
0.0
 11
-1006.630996084511
 21
1300.167283723125
 31
0.0
  0
LINE
  5
C1
  8
0
 10
-1006.630996084511
 20
1300.167283723125
 30
0.0
 11
-1006.609710821295
 21
1300.249098820921
 31
0.0
  0
LINE
  5
C2
  8
0
 10
-1006.609710821295
 20
1300.249098820921
 30
0.0
 11
-1006.586444236052
 21
1300.330864514682
 31
0.0
  0
LINE
  5
C3
  8
0
 10
-1006.586444236052
 20
1300.330864514682
 30
0.0
 11
-1006.561185612071
 21
1300.412523118663
 31
0.0
  0
LINE
  5
C4
  8
0
 10
-1006.561185612071
 20
1300.412523118663
 30
0.0
 11
-1006.533926831949
 21
1300.494016073917
 31
0.0
  0
LINE
  5
C5
  8
0
 10
-1006.533926831949
 20
1300.494016073917
 30
0.0
 11
-1006.50466245293
 21
1300.575284066567
 31
0.0
  0
LINE
  5
C6
  8
0
 10
-1006.50466245293
 20
1300.575284066567
 30
0.0
 11
-1006.473389774739
 21
1300.656267151737
 31
0.0
  0
LINE
  5
C7
  8
0
 10
-1006.473389774739
 20
1300.656267151737
 30
0.0
 11
-1006.44010889933
 21
1300.736904882704
 31
0.0
  0
LINE
  5
C8
  8
0
 10
-1006.44010889933
 20
1300.736904882704
 30
0.0
 11
-1006.404822782049
 21
1300.817136444769
 31
0.0
  0
LINE
  5
C9
  8
0
 10
-1006.404822782049
 20
1300.817136444769
 30
0.0
 11
-1006.367537273729
 21
1300.896900793286
 31
0.0
  0
LINE
  5
CA
  8
0
 10
-1006.367537273729
 20
1300.896900793286
 30
0.0
 11
-1006.328261153288
 21
1300.976136795287
 31
0.0
  0
LINE
  5
CB
  8
0
 10
-1006.328261153288
 20
1300.976136795287
 30
0.0
 11
-1006.287006150448
 21
1301.054783374052
 31
0.0
  0
LINE
  5
CC
  8
0
 10
-1006.287006150448
 20
1301.054783374052
 30
0.0
 11
-1006.243786958264
 21
1301.132779655964
 31
0.0
  0
LINE
  5
CD
  8
0
 10
-1006.243786958264
 20
1301.132779655964
 30
0.0
 11
-1006.198621235197
 21
1301.210065118964
 31
0.0
  0
LINE
  5
CE
  8
0
 10
-1006.198621235197
 20
1301.210065118964
 30
0.0
 11
-1006.151529596535
 21
1301.286579741876
 31
0.0
  0
LINE
  5
CF
  8
0
 10
-1006.151529596535
 20
1301.286579741876
 30
0.0
 11
-1006.102535595035
 21
1301.362264153857
 31
0.0
  0
LINE
  5
D0
  8
0
 10
-1006.102535595035
 20
1301.362264153857
 30
0.0
 11
-1006.051665690736
 21
1301.43705978324
 31
0.0
  0
LINE
  5
D1
  8
0
 10
-1006.051665690736
 20
1301.43705978324
 30
0.0
 11
-1005.998949209954
 21
1301.510909004978
 31
0.0
  0
LINE
  5
D2
  8
0
 10
-1005.998949209954
 20
1301.510909004978
 30
0.0
 11
-1005.944418293542
 21
1301.583755285958
 31
0.0
  0
LINE
  5
D3
  8
0
 10
-1005.944418293542
 20
1301.583755285958
 30
0.0
 11
-1005.888107834591
 21
1301.655543327401
 31
0.0
  0
LINE
  5
D4
  8
0
 10
-1005.888107834591
 20
1301.655543327401
 30
0.0
 11
-1005.830055405793
 21
1301.726219203624
 31
0.0
  0
LINE
  5
D5
  8
0
 10
-1005.830055405793
 20
1301.726219203624
 30
0.0
 11
-1005.770301176788
 21
1301.795730496429
 31
0.0
  0
LINE
  5
D6
  8
0
 10
-1005.770301176788
 20
1301.795730496429
 30
0.0
 11
-1005.70888782186
 21
1301.864026424415
 31
0.0
  0
LINE
  5
D7
  8
0
 10
-1005.70888782186
 20
1301.864026424415
 30
0.0
 11
-1005.645860418429
 21
1301.931057966561
 31
0.0
  0
LINE
  5
D8
  8
0
 10
-1005.645860418429
 20
1301.931057966561
 30
0.0
 11
-1005.581266336847
 21
1301.996777979428
 31
0.0
  0
LINE
  5
D9
  8
0
 10
-1005.581266336847
 20
1301.996777979428
 30
0.0
 11
-1005.515155122065
 21
1302.061141307409
 31
0.0
  0
LINE
  5
DA
  8
0
 10
-1005.515155122065
 20
1302.061141307409
 30
0.0
 11
-1005.447578367785
 21
1302.124104885479
 31
0.0
  0
LINE
  5
DB
  8
0
 10
-1005.447578367785
 20
1302.124104885479
 30
0.0
 11
-1005.378589583769
 21
1302.185627833957
 31
0.0
  0
LINE
  5
DC
  8
0
 10
-1005.378589583769
 20
1302.185627833957
 30
0.0
 11
-1005.308244057003
 21
1302.245671544854
 31
0.0
  0
LINE
  5
DD
  8
0
 10
-1005.308244057003
 20
1302.245671544854
 30
0.0
 11
-1005.236598707487
 21
1302.304199759431
 31
0.0
  0
LINE
  5
DE
  8
0
 10
-1005.236598707487
 20
1302.304199759431
 30
0.0
 11
-1005.163711939392
 21
1302.361178636665
 31
0.0
  0
LINE
  5
DF
  8
0
 10
-1005.163711939392
 20
1302.361178636665
 30
0.0
 11
-1005.0896434884
 21
1302.416576812368
 31
0.0
  0
LINE
  5
E0
  8
0
 10
-1005.0896434884
 20
1302.416576812368
 30
0.0
 11
-1005.014454266044
 21
1302.470365448788
 31
0.0
  0
LINE
  5
E1
  8
0
 10
-1005.014454266044
 20
1302.470365448788
 30
0.0
 11
-1004.938206201838
 21
1302.522518274588
 31
0.0
  0
LINE
  5
E2
  8
0
 10
-1004.938206201838
 20
1302.522518274588
 30
0.0
 11
-1004.860962084055
 21
1302.573011615127
 31
0.0
  0
LINE
  5
E3
  8
0
 10
-1004.860962084055
 20
1302.573011615127
 30
0.0
 11
-1004.782785399927
 21
1302.621824413096
 31
0.0
  0
LINE
  5
E4
  8
0
 10
-1004.782785399927
 20
1302.621824413096
 30
0.0
 11
-1004.7037401761
 21
1302.668938239563
 31
0.0
  0
LINE
  5
E5
  8
0
 10
-1004.7037401761
 20
1302.668938239563
 30
0.0
 11
-1004.623890820098
 21
1302.714337295588
 31
0.0
  0
LINE
  5
E6
  8
0
 10
-1004.623890820098
 20
1302.714337295588
 30
0.0
 11
-1004.543301963568
 21
1302.758008404591
 31
0.0
  0
LINE
  5
E7
  8
0
 10
-1004.543301963568
 20
1302.758008404591
 30
0.0
 11
-1004.462038308018
 21
1302.799940995742
 31
0.0
  0
LINE
  5
E8
  8
0
 10
-1004.462038308018
 20
1302.799940995742
 30
0.0
 11
-1004.380164473747
 21
1302.840127078674
 31
0.0
  0
LINE
  5
E9
  8
0
 10
-1004.380164473747
 20
1302.840127078674
 30
0.0
 11
-1004.297744852595
 21
1302.87856120987
 31
0.0
  0
LINE
  5
EA
  8
0
 10
-1004.297744852595
 20
1302.87856120987
 30
0.0
 11
-1004.214843465138
 21
1302.915240451127
 31
0.0
  0
LINE
  5
EB
  8
0
 10
-1004.214843465138
 20
1302.915240451127
 30
0.0
 11
-1004.131523822858
 21
1302.950164320519
 31
0.0
  0
LINE
  5
EC
  8
0
 10
-1004.131523822858
 20
1302.950164320519
 30
0.0
 11
-1004.047848795806
 21
1302.983334736336
 31
0.0
  0
LINE
  5
ED
  8
0
 10
-1004.047848795806
 20
1302.983334736336
 30
0.0
 11
-1003.963880486207
 21
1303.014755954487
 31
0.0
  0
LINE
  5
EE
  8
0
 10
-1003.963880486207
 20
1303.014755954487
 30
0.0
 11
-1003.879680108386
 21
1303.044434499881
 31
0.0
  0
LINE
  5
EF
  8
0
 10
-1003.879680108386
 20
1303.044434499881
 30
0.0
 11
-1003.795307875386
 21
1303.072379092329
 31
0.0
  0
LINE
  5
F0
  8
0
 10
-1003.795307875386
 20
1303.072379092329
 30
0.0
 11
-1003.710822892526
 21
1303.098600567502
 31
0.0
  0
LINE
  5
F1
  8
0
 10
-1003.710822892526
 20
1303.098600567502
 30
0.0
 11
-1003.626283058158
 21
1303.123111793502
 31
0.0
  0
LINE
  5
F2
  8
0
 10
-1003.626283058158
 20
1303.123111793502
 30
0.0
 11
-1003.54174497179
 21
1303.145927583602
 31
0.0
  0
LINE
  5
F3
  8
0
 10
-1003.54174497179
 20
1303.145927583602
 30
0.0
 11
-1003.457263849687
 21
1303.167064605714
 31
0.0
  0
LINE
  5
F4
  8
0
 10
-1003.457263849687
 20
1303.167064605714
 30
0.0
 11
-1003.372893448037
 21
1303.186541289122
 31
0.0
  0
LINE
  5
F5
  8
0
 10
-1003.372893448037
 20
1303.186541289122
 30
0.0
 11
-1003.288685993695
 21
1303.20437772903
 31
0.0
  0
LINE
  5
F6
  8
0
 10
-1003.288685993695
 20
1303.20437772903
 30
0.0
 11
-979.1859545354503
 21
1303.204377729029
 31
0.0
  0
LINE
  5
F7
  8
0
 10
-979.1859545354503
 20
1303.204377729029
 30
0.0
 11
-979.1859545354503
 21
1295.354377729029
 31
0.0
  0
LINE
  5
F8
  8
0
 10
-979.1859545354503
 20
1295.354377729029
 30
0.0
 11
-1003.288685993695
 21
1295.354377729029
 31
0.0
  0
CIRCLE
  5
F9
  8
0
 10
-999.9999999999529
 20
1315.204377729029
 30
0.0
 40
2.650000000000006
  0
CIRCLE
  5
FA
  8
0
 10
-999.9999999999533
 20
1283.354377729029
 30
0.0
 40
2.650000000000006
  0
ENDSEC
  0
EOF
