0
SECTION
2
HEADER
9
$INSUNITS
70
4
9
$ACADVER
1
AC1014
9
$HANDSEED
5
FFFF
0
ENDSEC
0
SECTION
2
TABLES
0
TABLE
2
VPORT
5
8
100
AcDbSymbolTable
0
ENDTAB
0
TABLE
2
LTYPE
5
5
100
AcDbSymbolTable
0
LTYPE
5
14
100
AcDbSymbolTableRecord
100
AcDbLinetypeTableRecord
2
BYBLOCK
70
0
0
LTYPE
5
15
100
AcDbSymbolTableRecord
100
AcDbLinetypeTableRecord
2
BYLAYER
70
0
0
ENDTAB
0
TABLE
2
LAYER
5
2
100
AcDbSymbolTable
70
2
0
LAYER
5
50
100
AcDbSymbolTableRecord
100
AcDbLayerTableRecord
2
0
70
0
6
CONTINUOUS
0
ENDTAB
0
TABLE
2
STYLE
5
3
100
AcDbSymbolTable
70
1
0
STYLE
5
11
100
AcDbSymbolTableRecord
100
AcDbTextStyleTableRecord
2
STANDARD
70
0
0
ENDTAB
0
TABLE
2
VIEW
5
6
100
AcDbSymbolTable
70
0
0
ENDTAB
0
TABLE
2
UCS
5
7
100
AcDbSymbolTable
70
0
0
ENDTAB
0
TABLE
2
APPID
5
9
100
AcDbSymbolTable
70
2
0
APPID
5
12
100
AcDbSymbolTableRecord
100
AcDbRegAppTableRecord
2
ACAD
70
0
0
ENDTAB
0
TABLE
2
DIMSTYLE
5
A
100
AcDbSymbolTable
70
1
0
ENDTAB
0
TABLE
2
BLOCK_RECORD
5
1
100
AcDbSymbolTable
70
1
0
BLOCK_RECORD
5
1F
100
AcDbSymbolTableRecord
100
AcDbBlockTableRecord
2
*MODEL_SPACE
0
BLOCK_RECORD
5
1B
100
AcDbSymbolTableRecord
100
AcDbBlockTableRecord
2
*PAPER_SPACE
0
ENDTAB
0
ENDSEC
0
SECTION
2
BLOCKS
0
BLOCK
5
20
100
AcDbEntity
100
AcDbBlockBegin
2
*MODEL_SPACE
0
ENDBLK
5
21
100
AcDbEntity
100
AcDbBlockEnd
0
BLOCK
5
1C
100
AcDbEntity
100
AcDbBlockBegin
2
*PAPER_SPACE
0
ENDBLK
5
1D
100
AcDbEntity
100
AcDbBlockEnd
0
ENDSEC
0
SECTION
2
ENTITIES
0
ARC
5
100
100
AcDbEntity
8
0
100
AcDbCircle
10
-1464.6065362693469
20
476.19940380872293
30
0
40
1.999999999999996
210
0
220
0
230
1
100
AcDbArc
50
-135.00000000000117
51
44.999999999998849
0
LINE
5
101
100
AcDbEntity
8
0
100
AcDbLine
10
-1466.02074983172
20
474.78519024634988
30
0
11
-1468.1923227069738
21
474.78519024634988
31
0
0
LINE
5
102
100
AcDbEntity
8
0
100
AcDbLine
10
-1468.1923227069738
20
474.78519024634988
30
0
11
-1468.1923227069738
21
288.58407659959602
31
0
0
ARC
5
103
100
AcDbEntity
8
0
100
AcDbCircle
10
-1469.6065362693489
20
287.16986303722496
30
0
40
2.0000000000000213
210
0
220
0
230
1
100
AcDbArc
50
-135.00000000000117
51
44.999999999917087
0
LINE
5
104
100
AcDbEntity
8
0
100
AcDbLine
10
-1471.020749831722
20
285.75564947485191
30
0
11
-1478.6923227069756
21
285.75564947485191
31
0
0
LINE
5
105
100
AcDbEntity
8
0
100
AcDbLine
10
-1478.6923227069756
20
285.75564947485191
30
0
11
-1478.6923227069756
21
255.75564947485191
31
0
0
LINE
5
106
100
AcDbEntity
8
0
100
AcDbLine
10
-1478.6923227069756
20
255.75564947485191
30
0
11
-1471.020749831722
21
255.75564947485191
31
0
0
ARC
5
107
100
AcDbEntity
8
0
100
AcDbCircle
10
-1469.6065362693489
20
254.3414359124788
30
0
40
1.999999999999996
210
0
220
0
230
1
100
AcDbArc
50
-44.999999999915929
51
135
0
LINE
5
108
100
AcDbEntity
8
0
100
AcDbLine
10
-1468.1923227069738
20
252.9272223501078
30
0
11
-1468.1923227069738
21
178.11361737109607
31
0
0
ARC
5
109
100
AcDbEntity
8
0
100
AcDbCircle
10
-1469.6065362693469
20
176.69940380872299
30
0
40
1.9999999999999709
210
0
220
0
230
1
100
AcDbArc
50
-135.0000000000023
51
44.999999999999424
0
LINE
5
110
100
AcDbEntity
8
0
100
AcDbLine
10
-1471.02074983172
20
175.28519024635
30
0
11
-1478.6923227069738
21
175.28519024634994
31
0
0
LINE
5
111
100
AcDbEntity
8
0
100
AcDbLine
10
-1478.6923227069738
20
175.28519024634994
30
0
11
-1478.6923227069738
21
145.28519024634994
31
0
0
LINE
5
112
100
AcDbEntity
8
0
100
AcDbLine
10
-1478.6923227069738
20
145.28519024634994
30
0
11
-1471.02074983172
21
145.28519024634994
31
0
0
ARC
5
113
100
AcDbEntity
8
0
100
AcDbCircle
10
-1469.6065362693469
20
143.87097668397695
30
0
40
2.0000000000000338
210
-0
220
0
230
1
100
AcDbArc
50
-44.999999999999439
51
135.0000000000023
0
LINE
5
114
100
AcDbEntity
8
0
100
AcDbLine
10
-1468.1923227069738
20
142.45676312160387
30
0
11
-1468.1923227069738
21
95.78519024634997
31
0
0
LINE
5
115
100
AcDbEntity
8
0
100
AcDbLine
10
-1468.1923227069738
20
95.78519024634997
30
0
11
-1463.1923227069738
21
95.78519024634997
31
0
0
LINE
5
116
100
AcDbEntity
8
0
100
AcDbLine
10
-1463.1923227069738
20
95.78519024634997
30
0
11
-1463.1923227069738
21
85.285190246349956
31
0
0
LINE
5
117
100
AcDbEntity
8
0
100
AcDbLine
10
-1463.1923227069738
20
85.285190246349956
30
0
11
-1448.1923227069738
21
85.285190246349956
31
0
0
LINE
5
118
100
AcDbEntity
8
0
100
AcDbLine
10
-1448.1923227069738
20
85.285190246349956
30
0
11
-1448.1923227069738
21
112.45676312160384
31
0
0
ARC
5
119
100
AcDbEntity
8
0
100
AcDbCircle
10
-1446.7781091446004
20
113.87097668397693
30
0
40
1.9999999999999709
210
0
220
-0
230
1
100
AcDbArc
50
44.999999999997407
51
224.99999999999508
0
LINE
5
120
100
AcDbEntity
8
0
100
AcDbLine
10
-1445.3638955822273
20
115.28519024634991
30
0
11
-1437.6923227069735
21
115.28519024634996
31
0
0
LINE
5
121
100
AcDbEntity
8
0
100
AcDbLine
10
-1437.6923227069735
20
115.28519024634996
30
0
11
-1437.6923227069735
21
140.28519024634994
31
0
0
LINE
5
122
100
AcDbEntity
8
0
100
AcDbLine
10
-1437.6923227069735
20
140.28519024634994
30
0
11
-1445.3638955822273
21
140.28519024634994
31
0
0
ARC
5
123
100
AcDbEntity
8
0
100
AcDbCircle
10
-1446.7781091446004
20
141.69940380872299
30
0
40
2.0000000000000338
210
0
220
0
230
1
100
AcDbArc
50
135.0000000000058
51
315.00000000000119
0
LINE
5
124
100
AcDbEntity
8
0
100
AcDbLine
10
-1448.1923227069738
20
143.11361737109604
30
0
11
-1448.1923227069738
21
267.45676312160384
31
0
0
ARC
5
125
100
AcDbEntity
8
0
100
AcDbCircle
10
-1446.7781091446004
20
268.87097668397695
30
0
40
1.9999999999999709
210
0
220
-0
230
1
100
AcDbArc
50
44.999999999997691
51
224.99999999999537
0
LINE
5
126
100
AcDbEntity
8
0
100
AcDbLine
10
-1445.3638955822273
20
270.28519024634994
30
0
11
-1437.6923227069735
21
270.28519024634994
31
0
0
LINE
5
127
100
AcDbEntity
8
0
100
AcDbLine
10
-1437.6923227069735
20
270.28519024634994
30
0
11
-1437.6923227069735
21
300.28519024634994
31
0
0
LINE
5
128
100
AcDbEntity
8
0
100
AcDbLine
10
-1437.6923227069735
20
300.28519024634994
30
0
11
-1445.3638955822273
21
300.28519024634994
31
0
0
ARC
5
129
100
AcDbEntity
8
0
100
AcDbCircle
10
-1446.7781091446004
20
301.6994038087231
30
0
40
1.9999999999999207
210
0
220
0
230
1
100
AcDbArc
50
135.00000000000807
51
314.99999999999881
0
LINE
5
130
100
AcDbEntity
8
0
100
AcDbLine
10
-1448.1923227069738
20
303.11361737109604
30
0
11
-1448.1923227069738
21
427.45676312160384
31
0
0
ARC
5
131
100
AcDbEntity
8
0
100
AcDbCircle
10
-1446.7781091446004
20
428.87097668397695
30
0
40
1.9999999999999458
210
0
220
-0
230
1
100
AcDbArc
50
44.999999999996547
51
224.99999999999537
0
LINE
5
132
100
AcDbEntity
8
0
100
AcDbLine
10
-1445.3638955822273
20
430.28519024634988
30
0
11
-1437.6923227069735
21
430.28519024634994
31
0
0
LINE
5
133
100
AcDbEntity
8
0
100
AcDbLine
10
-1437.6923227069735
20
430.28519024634994
30
0
11
-1437.6923227069735
21
455.28519024634994
31
0
0
LINE
5
134
100
AcDbEntity
8
0
100
AcDbLine
10
-1437.6923227069735
20
455.28519024634994
30
0
11
-1445.3638955822273
21
455.28519024634994
31
0
0
ARC
5
135
100
AcDbEntity
8
0
100
AcDbCircle
10
-1446.7781091446004
20
456.69940380872299
30
0
40
2.0000000000000466
210
0
220
0
230
1
100
AcDbArc
50
135.00000000000463
51
315.00000000000119
0
LINE
5
136
100
AcDbEntity
8
0
100
AcDbLine
10
-1448.1923227069738
20
458.1136173710961
30
0
11
-1448.1923227069738
21
485.28519024634994
31
0
0
LINE
5
137
100
AcDbEntity
8
0
100
AcDbLine
10
-1448.1923227069738
20
485.28519024634994
30
0
11
-1463.1923227069738
21
485.28519024634994
31
0
0
LINE
5
138
100
AcDbEntity
8
0
100
AcDbLine
10
-1463.1923227069738
20
485.28519024634994
30
0
11
-1463.1923227069738
21
477.61361737109598
31
0
0
ENDSEC
0
SECTION
2
OBJECTS
0
DICTIONARY
5
C
100
AcDbDictionary
3
ACAD_GROUP
350
D
3
ACAD_MLINESTYLE
350
17
0
DICTIONARY
5
D
100
AcDbDictionary
0
DICTIONARY
5
1A
330
C
100
AcDbDictionary
0
DICTIONARY
5
17
100
AcDbDictionary
0
ENDSEC
0
EOF
