0
SECTION
2
HEADER
9
$INSUNITS
70
4
9
$ACADVER
1
AC1014
9
$HANDSEED
5
FFFF
0
ENDSEC
0
SECTION
2
TABLES
0
TABLE
2
VPORT
5
8
100
AcDbSymbolTable
0
ENDTAB
0
TABLE
2
LTYPE
5
5
100
AcDbSymbolTable
0
LTYPE
5
14
100
AcDbSymbolTableRecord
100
AcDbLinetypeTableRecord
2
BYBLOCK
70
0
0
LTYPE
5
15
100
AcDbSymbolTableRecord
100
AcDbLinetypeTableRecord
2
BYLAYER
70
0
0
ENDTAB
0
TABLE
2
LAYER
5
2
100
AcDbSymbolTable
70
2
0
LAYER
5
50
100
AcDbSymbolTableRecord
100
AcDbLayerTableRecord
2
0
70
0
6
CONTINUOUS
0
ENDTAB
0
TABLE
2
STYLE
5
3
100
AcDbSymbolTable
70
1
0
STYLE
5
11
100
AcDbSymbolTableRecord
100
AcDbTextStyleTableRecord
2
STANDARD
70
0
0
ENDTAB
0
TABLE
2
VIEW
5
6
100
AcDbSymbolTable
70
0
0
ENDTAB
0
TABLE
2
UCS
5
7
100
AcDbSymbolTable
70
0
0
ENDTAB
0
TABLE
2
APPID
5
9
100
AcDbSymbolTable
70
2
0
APPID
5
12
100
AcDbSymbolTableRecord
100
AcDbRegAppTableRecord
2
ACAD
70
0
0
ENDTAB
0
TABLE
2
DIMSTYLE
5
A
100
AcDbSymbolTable
70
1
0
ENDTAB
0
TABLE
2
BLOCK_RECORD
5
1
100
AcDbSymbolTable
70
1
0
BLOCK_RECORD
5
1F
100
AcDbSymbolTableRecord
100
AcDbBlockTableRecord
2
*MODEL_SPACE
0
BLOCK_RECORD
5
1B
100
AcDbSymbolTableRecord
100
AcDbBlockTableRecord
2
*PAPER_SPACE
0
ENDTAB
0
ENDSEC
0
SECTION
2
BLOCKS
0
BLOCK
5
20
100
AcDbEntity
100
AcDbBlockBegin
2
*MODEL_SPACE
0
ENDBLK
5
21
100
AcDbEntity
100
AcDbBlockEnd
0
BLOCK
5
1C
100
AcDbEntity
100
AcDbBlockBegin
2
*PAPER_SPACE
0
ENDBLK
5
1D
100
AcDbEntity
100
AcDbBlockEnd
0
ENDSEC
0
SECTION
2
ENTITIES
0
LWPOLYLINE
5
100
100
AcDbEntity
8
0
100
AcDbPolyline
90
8
70
1
43
0.0
10
-1005.8365722719878
20
433.11361737110104
42
-0.99999999999999989
10
-1008.6649993967359
20
430.28519024635642
10
-1013.5081451472433
20
430.28519024635949
42
-0.99999999999999989
10
-1016.336572271988
20
433.11361737110724
10
-1016.3365722719761
20
452.45676312161498
42
-0.99999999999999989
10
-1013.5081451472284
20
455.28519024635949
10
-1008.6649993967212
20
455.28519024635636
42
-0.99999999999999989
10
-1005.8365722719764
20
452.45676312160862
0
ARC
5
101
100
AcDbEntity
8
0
100
AcDbCircle
10
-988.42235870974264
20
298.87097668397689
30
-3.5032461608120427e-45
40
2.0000000000000213
210
8.9249423279151737e-30
220
-8.9249423279162947e-30
230
1
100
AcDbArc
50
44.999999999998849
51
225
0
LINE
5
102
100
AcDbEntity
8
0
100
AcDbLine
10
-987.00814514736953
20
300.28519024634994
30
6.2932743358960028e-43
11
-982.16499939686219
21
300.28519024634994
31
0
0
ARC
5
103
100
AcDbEntity
8
0
100
AcDbCircle
10
-980.75078583448897
20
298.87097668397689
30
6.1657132430291951e-43
40
1.999999999999996
210
-1.7849884655830911e-29
220
-1.7849884655831807e-29
230
1
100
AcDbArc
50
-44.999999999998835
51
135.00000000000347
0
LINE
5
104
100
AcDbEntity
8
0
100
AcDbLine
10
-979.33657227211586
20
297.45676312160384
30
1.8864365791967186e-42
11
-979.33657227211586
21
273.1136173710961
31
0
0
ARC
5
105
100
AcDbEntity
8
0
100
AcDbCircle
10
-980.75078583448908
20
271.69940380872305
30
0
40
1.9999999999999207
210
-8.9249423279165764e-30
220
-8.9249423279156823e-30
230
1
100
AcDbArc
50
-135.00000000000117
51
44.999999999996547
0
LINE
5
106
100
AcDbEntity
8
0
100
AcDbLine
10
-982.16499939686219
20
270.28519024635
30
-2.5243548967072378e-29
11
-987.00814514736953
21
270.28519024634994
31
0
0
ARC
5
107
100
AcDbEntity
8
0
100
AcDbCircle
10
-988.42235870974275
20
271.69940380872305
30
0
40
1.9999999999998954
210
0
220
0
230
1
100
AcDbArc
50
134.99999999999886
51
315.00000000000227
0
LINE
5
108
100
AcDbEntity
8
0
100
AcDbLine
10
-989.83657227211575
20
273.1136173710961
30
0
11
-989.83657227211575
21
297.45676312160379
31
-6.332424827670599e-43
0
LWPOLYLINE
5
109
100
AcDbEntity
8
0
100
AcDbPolyline
90
8
70
1
43
0.0
10
-989.83657227211575
20
452.45676312160384
42
-0.99999999999999989
10
-987.00814514736953
20
455.28519024634988
10
-982.16499939686241
20
455.28519024634983
42
-0.99999999999999989
10
-979.33657227211586
20
452.45676312160379
10
-979.33657227211609
20
433.1136173710961
42
-0.99999999999999989
10
-982.16499939686219
20
430.28519024635
10
-987.00814514736953
20
430.28519024635011
42
-0.99999999999999989
10
-989.83657227211575
20
433.11361737109615
0
ARC
5
110
100
AcDbEntity
8
0
100
AcDbCircle
10
-1007.2507858344585
20
271.69940380872868
30
0
40
1.9999999999999207
210
0
220
0
230
1
100
AcDbArc
50
-135.00000000003456
51
44.999999146192039
0
LINE
5
111
100
AcDbEntity
8
0
100
AcDbLine
10
-1008.6649993968324
20
270.28519024635648
30
0
11
-1013.5081451473397
21
270.28519024635938
31
0
0
ARC
5
112
100
AcDbEntity
8
0
100
AcDbCircle
10
-1014.9223587097122
20
271.69940380873328
30
-9.4237321725843948e-43
40
1.9999999999999458
210
-1.014960477710465e-41
220
-1.7849884655831415e-29
230
1
100
AcDbArc
50
134.99999999997007
51
314.9999999999701
0
LINE
5
113
100
AcDbEntity
8
0
100
AcDbLine
10
-1016.3365722720845
20
273.11361737110707
30
2.524354896706953e-29
11
-1016.3365722720697
21
297.45676312161498
31
0
0
ARC
5
114
100
AcDbEntity
8
0
100
AcDbCircle
10
-1014.9223587096956
20
298.87097668398712
30
0
40
1.9999999999999207
210
8.9249423279102383e-30
220
-8.9249423279212301e-30
230
1
100
AcDbArc
50
44.999999999965453
51
224.99999999995967
0
LINE
5
115
100
AcDbEntity
8
0
100
AcDbLine
10
-1013.5081451473217
20
300.28519024635932
30
6.4053782130419882e-43
11
-1008.6649993968143
21
300.28519024635648
31
0
0
ARC
5
116
100
AcDbEntity
8
0
100
AcDbCircle
10
-1007.2507858344419
20
298.87097668398258
30
0
40
1.9999999999999458
210
-0
220
0
230
1
100
AcDbArc
50
-45.000000000031093
51
134.99999999997007
0
LINE
5
117
100
AcDbEntity
8
0
100
AcDbLine
10
-1005.8365722720696
20
297.45676312160873
30
0
11
-1005.8365722510111
21
273.11361735002748
31
0
0
CIRCLE
5
118
100
AcDbEntity
8
0
100
AcDbCircle
10
-984.58657227211575
20
463.28519024633403
30
0
40
2.0499999999999829
210
0
220
0
230
1
0
CIRCLE
5
119
100
AcDbEntity
8
0
100
AcDbCircle
10
-1011.0865722719943
20
463.28519024635796
30
0
40
2.0499999999999829
210
0
220
0
230
1
0
CIRCLE
5
120
100
AcDbEntity
8
0
100
AcDbCircle
10
-984.58657227211575
20
422.28519024635
30
0
40
2.0499999999999829
210
0
220
0
230
1
0
CIRCLE
5
121
100
AcDbEntity
8
0
100
AcDbCircle
10
-1011.0865722719943
20
422.28519024635801
30
0
40
2.0499999999999829
210
0
220
0
230
1
0
CIRCLE
5
122
100
AcDbEntity
8
0
100
AcDbCircle
10
-984.58657227211575
20
308.28519024633397
30
0
40
2.0499999999999829
210
0
220
0
230
1
0
CIRCLE
5
123
100
AcDbEntity
8
0
100
AcDbCircle
10
-1011.0865722720907
20
308.28519024635796
30
0
40
2.0499999999999829
210
0
220
0
230
1
0
CIRCLE
5
124
100
AcDbEntity
8
0
100
AcDbCircle
10
-984.58657227211575
20
262.28519024634994
30
0
40
2.0499999999999829
210
0
220
0
230
1
0
CIRCLE
5
125
100
AcDbEntity
8
0
100
AcDbCircle
10
-1011.0865722720907
20
262.28519024635784
30
0
40
2.0499999999999829
210
0
220
0
230
1
0
CIRCLE
5
126
100
AcDbEntity
8
0
100
AcDbCircle
10
-984.58657227211575
20
107.28519024634994
30
0
40
2.0499999999999829
210
0
220
0
230
1
0
CIRCLE
5
127
100
AcDbEntity
8
0
100
AcDbCircle
10
-984.58657227211575
20
148.28519024634997
30
0
40
2.0499999999999829
210
0
220
0
230
1
0
LINE
5
128
100
AcDbEntity
8
0
100
AcDbLine
10
-989.83657227211575
20
118.11361737109618
30
0
11
-989.83657227211575
21
137.45676312160373
31
0
0
ARC
5
129
100
AcDbEntity
8
0
100
AcDbCircle
10
-988.42235870974264
20
138.87097668397683
30
0
40
2.0000000000000715
210
0
220
-0
230
1
100
AcDbArc
50
45
51
225
0
LINE
5
130
100
AcDbEntity
8
0
100
AcDbLine
10
-987.00814514736953
20
140.28519024634994
30
0
11
-982.16499939686196
21
140.28519024634994
31
0
0
ARC
5
131
100
AcDbEntity
8
0
100
AcDbCircle
10
-980.75078583448885
20
138.87097668397692
30
1.4223179412896893e-42
40
2.0000000000000213
210
-2.5643761897144152e-43
220
-1.7849884655831527e-29
230
1
100
AcDbArc
50
-45.000000000009209
51
135.00000000000173
0
LINE
5
132
100
AcDbEntity
8
0
100
AcDbLine
10
-979.33657227211597
20
137.45676312160359
30
-2.5243548967074951e-29
11
-979.33657227211586
21
118.11361737109632
31
0
0
ARC
5
133
100
AcDbEntity
8
0
100
AcDbCircle
10
-980.75078583448885
20
116.69940380872305
30
-6.3583917818738575e-43
40
2.0000000000000338
210
-8.9249423279147981e-30
220
-8.9249423279162527e-30
230
1
100
AcDbArc
50
-135.0000000000006
51
45.000000000005755
0
LINE
5
134
100
AcDbEntity
8
0
100
AcDbLine
10
-982.16499939686196
20
115.28519024634997
30
-2.5243548967072737e-29
11
-987.00814514736953
21
115.28519024634996
31
0
0
ARC
5
135
100
AcDbEntity
8
0
100
AcDbCircle
10
-988.42235870974264
20
116.69940380872303
30
-8.2326284779083003e-44
40
2.0000000000000839
210
-1.9532478483412706e-43
220
-2.5353825907131189e-43
230
1
100
AcDbArc
50
134.99999999999915
51
315.00000000000057
0
CIRCLE
5
136
100
AcDbEntity
8
0
100
AcDbCircle
10
-1011.0865722721596
20
107.28519024635159
30
0
40
2.0499999999999829
210
0
220
0
230
1
0
CIRCLE
5
137
100
AcDbEntity
8
0
100
AcDbCircle
10
-1011.0865722721596
20
148.28519024635793
30
0
40
2.0499999999999829
210
0
220
0
230
1
0
ARC
5
138
100
AcDbEntity
8
0
100
AcDbCircle
10
-1007.2507858345376
20
116.69940380872156
30
-6.3408755510697972e-43
40
2.0000000000000213
210
-8.9249423278323429e-30
220
-8.92494232799882e-30
230
1
100
AcDbArc
50
-135.0000000003256
51
44.999999999676717
0
LINE
5
139
100
AcDbEntity
8
0
100
AcDbLine
10
-1008.6649993969188
20
115.28519024635645
30
-2.5243548967072737e-29
11
-1013.5081451474182
21
115.28519024635938
31
0
0
ARC
5
140
100
AcDbEntity
8
0
100
AcDbCircle
10
-1014.9223587097912
20
116.69940380873254
30
0
40
2.0000000000000466
210
0
220
0
230
1
100
AcDbArc
50
135.00000000054294
51
314.99999999999653
0
LINE
5
141
100
AcDbEntity
8
0
100
AcDbLine
10
-1016.3365722721777
20
118.11361737109226
30
0
11
-1016.336572272166
21
137.45676312161655
31
0
0
ARC
5
142
100
AcDbEntity
8
0
100
AcDbCircle
10
-1014.9223587097913
20
138.87097668398798
30
0
40
2.0000000000000466
210
0
220
-0
230
1
100
AcDbArc
50
44.999999999928605
51
224.99999999993381
0
LINE
5
143
100
AcDbEntity
8
0
100
AcDbLine
10
-1013.5081451474164
20
140.28519024635938
30
0
11
-1008.6649993969154
21
140.28519024635645
31
0
0
ARC
5
144
100
AcDbEntity
8
0
100
AcDbCircle
10
-1007.2507858345375
20
138.87097668398795
30
0
40
1.9999999999999458
210
-0
220
0
230
1
100
AcDbArc
50
-45.00000000006392
51
135.00000000019
0
LINE
5
145
100
AcDbEntity
8
0
100
AcDbLine
10
-1005.836572272166
20
137.45676312161328
30
0
11
-1005.8365722721566
21
118.11361737108666
31
2.524354896707147e-29
0
LWPOLYLINE
5
146
100
AcDbEntity
8
0
100
AcDbPolyline
90
4
70
1
43
0.0
10
-974.33657227211586
20
95.785190246354759
10
-1021.3365722721643
20
95.785190246354759
10
-1021.3365722721643
20
474.7851902463641
10
-974.33657227211586
20
474.7851902463641
0
ENDSEC
0
SECTION
2
OBJECTS
0
DICTIONARY
5
C
100
AcDbDictionary
3
ACAD_GROUP
350
D
3
ACAD_MLINESTYLE
350
17
0
DICTIONARY
5
D
100
AcDbDictionary
0
DICTIONARY
5
1A
330
C
100
AcDbDictionary
0
DICTIONARY
5
17
100
AcDbDictionary
0
ENDSEC
0
EOF
