<?xml version="1.0" encoding="UTF-8" standalone="no"?>
<!-- Created with Inkscape (http://www.inkscape.org/) -->

<svg
   xmlns:dc="http://purl.org/dc/elements/1.1/"
   xmlns:cc="http://creativecommons.org/ns#"
   xmlns:rdf="http://www.w3.org/1999/02/22-rdf-syntax-ns#"
   xmlns:svg="http://www.w3.org/2000/svg"
   xmlns="http://www.w3.org/2000/svg"
   xmlns:sodipodi="http://sodipodi.sourceforge.net/DTD/sodipodi-0.dtd"
   xmlns:inkscape="http://www.inkscape.org/namespaces/inkscape"
   width="1200.3mm"
   height="115.55284mm"
   viewBox="0 0 1200.3001 115.55284"
   version="1.1"
   id="svg24562"
   sodipodi:docname="Body2_Faces.svg"
   inkscape:version="0.92.2 (5c3e80d, 2017-08-06)">
  <defs
     id="defs24556" />
  <sodipodi:namedview
     id="base"
     pagecolor="#ffffff"
     bordercolor="#666666"
     borderopacity="1.0"
     inkscape:pageopacity="0.0"
     inkscape:pageshadow="2"
     inkscape:zoom="0.175"
     inkscape:cx="1229.9633"
     inkscape:cy="353.51462"
     inkscape:document-units="mm"
     inkscape:current-layer="layer1"
     showgrid="false"
     fit-margin-top="0"
     fit-margin-left="0"
     fit-margin-right="0"
     fit-margin-bottom="0"
     inkscape:window-width="1920"
     inkscape:window-height="996"
     inkscape:window-x="-9"
     inkscape:window-y="-9"
     inkscape:window-maximized="1" />
  <metadata
     id="metadata24559">
    <rdf:RDF>
      <cc:Work
         rdf:about="">
        <dc:format>image/svg+xml</dc:format>
        <dc:type
           rdf:resource="http://purl.org/dc/dcmitype/StillImage" />
        <dc:title></dc:title>
      </cc:Work>
    </rdf:RDF>
  </metadata>
  <g
     inkscape:label="Layer 1"
     inkscape:groupmode="layer"
     id="layer1"
     transform="translate(-479.5611,-347.9617)">
    <path
       style="vector-effect:non-scaling-stroke;fill:none;stroke:#000000;stroke-width:0.30000001;stroke-miterlimit:4;stroke-dasharray:none;stroke-opacity:1"
       d="m 1679.7111,363.18541 c -4.5423,-1.46716 -7.9376,-5.02125 -11.4321,-8.09542 -3.1274,-2.75204 -6.3515,-5.82815 -10.5405,-6.78228 -3.5795,-0.81528 -7.1105,0.94677 -9.8595,3.10403 -4.544,3.41585 -8.1646,8.06573 -13.2851,10.69107 -2.6902,1.40766 -6.0138,1.46393 -8.7144,0.0513 -4.9466,-2.50666 -8.4535,-6.96606 -12.7557,-10.34571 -2.7203,-2.21532 -6.1851,-4.20124 -9.822,-3.4675 -4.0801,0.86177 -7.1759,3.91009 -10.1657,6.60984 -3.2522,2.93422 -6.3788,6.34382 -10.627,7.8038 -2.9357,1.02877 -6.1646,0.13471 -8.6611,-1.56165 -5.2949,-3.43307 -9.0426,-8.85926 -14.655,-11.84622 -2.5997,-1.41955 -5.8439,-1.53128 -8.4974,-0.18702 -4.6785,2.30178 -8.0305,6.44335 -11.9766,9.72904 -2.7338,2.31949 -6.0589,4.66485 -9.834,4.25945 -3.9937,-0.47508 -7.1137,-3.3271 -9.9873,-5.89903 -3.4065,-3.04262 -6.558,-6.63036 -10.8663,-8.41105 -2.8089,-1.19142 -6.0674,-0.6321 -8.6001,0.95819 -5.6601,3.39241 -9.4756,9.18734 -15.3458,12.27692 -2.6094,1.41232 -5.8561,1.47734 -8.4995,0.1154 -4.747,-2.37873 -8.1334,-6.61973 -12.1789,-9.93849 -2.7196,-2.28585 -6.0881,-4.51198 -9.8143,-3.9893 -4.0153,0.61611 -7.1106,3.53793 -10.0145,6.14918 -3.3466,3.00959 -6.4848,6.53916 -10.7731,8.20817 -2.8714,1.14608 -6.1409,0.43825 -8.6656,-1.20931 -5.5007,-3.42129 -9.2861,-9.06404 -15.0541,-12.10448 -2.6088,-1.4126 -5.8557,-1.47823 -8.4995,-0.11829 -4.7473,2.37813 -8.1336,6.61929 -12.1789,9.93829 -2.7192,2.28673 -6.0879,4.51205 -9.8143,3.9892 -4.0156,-0.61448 -7.1107,-3.53682 -10.0145,-6.14778 -3.3467,-3.00964 -6.4847,-6.53951 -10.7731,-8.20867 -2.8714,-1.14657 -6.1408,-0.43653 -8.6656,1.21021 -5.5008,3.42122 -9.2862,9.06405 -15.0541,12.10463 -2.6088,1.41253 -5.8557,1.47819 -8.4995,0.11824 -4.7474,-2.37801 -8.1336,-6.61928 -12.1789,-9.93829 -2.7193,-2.28668 -6.0879,-4.51209 -9.8143,-3.9892 -4.0156,0.6145 -7.1107,3.53675 -10.0145,6.14778 -3.3467,3.00964 -6.4847,6.53945 -10.7731,8.20874 -2.8712,1.1471 -6.1408,0.43623 -8.6656,-1.21008 -5.5007,-3.42128 -9.2862,-9.06408 -15.0541,-12.10463 -2.6088,-1.41298 -5.8556,-1.47772 -8.4995,-0.11834 -4.7473,2.37807 -8.1336,6.61927 -12.1789,9.93829 -2.7195,2.28618 -6.0878,4.51309 -9.8143,3.9902 -4.0152,-0.61596 -7.1107,-3.53744 -10.0145,-6.14868 -3.3467,-3.00976 -6.4848,-6.53948 -10.7731,-8.20877 -2.8714,-1.14657 -6.1408,-0.43653 -8.6656,1.21021 -5.5008,3.42118 -9.2862,9.064 -15.0541,12.10458 -2.6088,1.41258 -5.8558,1.47831 -8.4995,0.11819 -4.7473,-2.378 -8.1337,-6.61925 -12.1789,-9.93829 -2.7193,-2.28667 -6.0879,-4.51208 -9.8143,-3.9892 -4.0156,0.61449 -7.1107,3.53674 -10.0145,6.14778 -3.3467,3.00964 -6.4847,6.53945 -10.7731,8.20874 -2.8712,1.1471 -6.1408,0.43623 -8.6656,-1.21008 -5.5007,-3.42128 -9.2862,-9.06408 -15.0541,-12.10463 -2.6088,-1.41298 -5.8556,-1.47772 -8.4995,-0.11834 -4.7473,2.37807 -8.1336,6.61927 -12.1789,9.93829 -2.7195,2.28618 -6.0878,4.51309 -9.8143,3.9902 -4.0152,-0.61596 -7.1107,-3.53744 -10.0145,-6.14868 -3.3467,-3.00976 -6.4848,-6.53948 -10.7731,-8.20877 -2.8714,-1.14657 -6.1408,-0.43653 -8.6656,1.21021 -5.5008,3.42118 -9.2862,9.064 -15.0541,12.10458 -2.6088,1.41258 -5.8558,1.47831 -8.4995,0.11819 -4.7473,-2.378 -8.1337,-6.61925 -12.1789,-9.93829 -2.7193,-2.28667 -6.0879,-4.51208 -9.8143,-3.9892 -4.01561,0.61449 -7.11071,3.53674 -10.0145,6.14778 -3.34674,3.00964 -6.48475,6.53945 -10.7731,8.20874 -2.87121,1.1471 -6.14078,0.43623 -8.66559,-1.21008 -5.50075,-3.42127 -9.28622,-9.06409 -15.05411,-12.10463 -2.60877,-1.41298 -5.85561,-1.47772 -8.49947,-0.11834 -4.74737,2.37807 -8.13367,6.61927 -12.1789,9.93829 -2.71955,2.28619 -6.08784,4.51309 -9.8143,3.9902 -4.01526,-0.61597 -7.11069,-3.53744 -10.01453,-6.14868 -3.34665,-3.00976 -6.48477,-6.53949 -10.77313,-8.20877 -2.87141,-1.14657 -6.14075,-0.43653 -8.66556,1.21021 -5.5008,3.42117 -9.28622,9.06401 -15.05408,12.10458 -2.60882,1.41258 -5.8558,1.4783 -8.4995,0.11819 -4.74738,-2.378 -8.1337,-6.61925 -12.1789,-9.93829 -2.71932,-2.28667 -6.08794,-4.51209 -9.8143,-3.9892 -4.01564,0.61445 -7.11065,3.53678 -10.01453,6.14768 -3.34666,3.00974 -6.48474,6.53957 -10.77313,8.20877 -2.87122,1.14703 -6.14077,0.43621 -8.66556,-1.21011 -5.5008,-3.42121 -9.28622,-9.06408 -15.05411,-12.10463 -2.60877,-1.41298 -5.85561,-1.47772 -8.49947,-0.11834 -4.74736,2.37799 -8.13367,6.61923 -12.17889,9.93819 -2.71928,2.28676 -6.08794,4.51219 -9.81431,3.9893 -4.01563,-0.61448 -7.1107,-3.53671 -10.01453,-6.14768 -3.34672,-3.00968 -6.48478,-6.53949 -10.77313,-8.20877 -2.87122,-1.14704 -6.14076,-0.4362 -8.66556,1.21011 -5.50087,3.42108 -9.28629,9.06391 -15.05411,12.10453 -2.60866,1.41345 -5.85573,1.47603 -8.49947,0.11744 -4.74743,-2.37771 -8.13382,-6.61878 -12.1789,-9.93779 -2.71961,-2.28615 -6.0877,-4.51363 -9.8143,-3.9906 -4.01498,0.61593 -7.11078,3.53637 -10.01453,6.14748 -3.34688,3.00974 -6.48505,6.53934 -10.7731,8.20954 -2.87049,1.15037 -6.14031,0.4377 -8.66561,-1.20706 -5.50154,-3.41986 -9.28748,-9.06169 -15.05406,-12.1038 -2.60783,-1.41435 -5.85484,-1.48165 -8.49955,-0.12411 -4.74814,2.37394 -8.13509,6.61338 -12.17882,9.93193 -2.73219,2.30344 -6.12217,4.52743 -9.86786,4.0057 -4.03038,-0.64077 -7.13216,-3.57957 -10.04939,-6.20552 -3.33471,-3.00026 -6.4711,-6.51168 -10.75141,-8.16128 -2.92496,-1.15645 -6.24017,-0.37813 -8.7891,1.3121 -5.43109,3.43549 -9.21315,9.00539 -14.9414,12.019 -2.60908,1.41049 -5.84891,1.46178 -8.4961,0.1213 -4.78939,-2.3813 -8.20389,-6.65189 -12.2903,-9.98036 -2.72071,-2.27377 -6.08603,-4.47426 -9.80188,-3.96243 -4.04233,0.59765 -7.17556,3.51446 -10.10826,6.12934 -3.4112,3.0351 -6.61197,6.60886 -10.97987,8.26353 -3.10611,1.20814 -6.59515,0.26741 -9.26109,-1.54318 -5.36084,-3.46853 -9.22022,-8.90778 -14.9414,-11.8624 -2.74057,-1.4495 -6.12028,-1.50354 -8.89867,-0.12335 -4.90815,2.37708 -8.48907,6.6375 -12.67494,10.01055 -2.05731,1.67706 -4.27703,3.26661 -6.84439,4.0477 0,33.33333 0,66.66667 0,100 4.54237,-1.46708 7.93754,-5.02128 11.43217,-8.09533 3.12736,-2.75215 6.35151,-5.82825 10.54053,-6.78237 3.57948,-0.8153 7.11047,0.94682 9.85947,3.10403 4.54395,3.41586 8.16462,8.06568 13.28503,10.69107 2.69023,1.40762 6.01377,1.46396 8.7144,0.0513 4.9467,-2.50665 8.45351,-6.96612 12.75577,-10.34574 2.7203,-2.21537 6.18517,-4.20122 9.82199,-3.4675 4.08015,0.86179 7.17589,3.91008 10.16565,6.6098 3.25227,2.93424 6.37888,6.3439 10.6271,7.80384 2.93564,1.02878 6.16456,0.13469 8.66108,-1.56166 5.29492,-3.43308 9.04261,-8.8593 14.65498,-11.84621 2.5997,-1.41959 5.84393,-1.53125 8.49745,-0.18702 4.6784,2.30183 8.03049,6.44331 11.97646,9.72901 2.73383,2.3195 6.059,4.66489 9.83415,4.25948 3.9937,-0.4751 7.11369,-3.32711 9.98722,-5.89906 3.40654,-3.04256 6.55794,-6.63034 10.86625,-8.41102 2.80888,-1.19138 6.06738,-0.63216 8.60008,0.95817 5.66019,3.39239 9.47565,9.18739 15.34595,12.27694 2.60939,1.41236 5.85608,1.4773 8.49944,0.1154 4.74697,-2.37877 8.13336,-6.61976 12.1789,-9.93849 2.71962,-2.28587 6.08805,-4.51193 9.8142,-3.98931 4.01529,0.61611 7.11069,3.53786 10.01453,6.14919 3.34672,3.0095 6.48476,6.53916 10.77314,8.20815 2.87136,1.14612 6.14093,0.43825 8.66565,-1.20929 5.50065,-3.42135 9.28615,-9.06407 15.05408,-12.10448 2.60881,-1.41264 5.85574,-1.47819 8.4995,-0.11829 4.74729,2.37817 8.13364,6.61932 12.1789,9.93829 2.71922,2.28675 6.0879,4.51201 9.8142,3.98921 4.01564,-0.61448 7.11075,-3.53675 10.01453,-6.14779 3.34679,-3.00956 6.48473,-6.53951 10.77314,-8.20865 2.87144,-1.14663 6.14079,-0.43651 8.66565,1.21019 5.50076,3.42126 9.2862,9.06409 15.05411,12.10463 2.60883,1.41257 5.85572,1.47815 8.49947,0.11824 4.74736,-2.37806 8.13366,-6.61929 12.1789,-9.93829 2.71926,-2.28671 6.08788,-4.51205 9.8142,-3.98921 4.01562,0.6145 7.11081,3.53668 10.01453,6.14779 3.34682,3.00955 6.48474,6.53945 10.77311,8.20871 2.87124,1.14716 6.14083,0.43624 8.66568,-1.21005 5.50072,-3.42132 9.28619,-9.06412 15.05411,-12.10463 2.60876,-1.41302 5.85561,-1.47768 8.49947,-0.11834 4.74734,2.37811 8.13366,6.61929 12.1789,9.93829 2.7195,2.28621 6.08778,4.51305 9.8142,3.99021 4.01525,-0.61596 7.11076,-3.53737 10.01453,-6.14869 3.34673,-3.00967 6.48477,-6.53948 10.77314,-8.20875 2.87143,-1.14661 6.1408,-0.43653 8.66565,1.21019 5.50077,3.42122 9.2862,9.06405 15.05408,12.10458 2.6088,1.4126 5.85581,1.47831 8.49948,0.11816 4.74739,-2.37798 8.13369,-6.61926 12.17892,-9.93826 2.71925,-2.28671 6.08793,-4.51204 9.81423,-3.98921 4.0156,0.6145 7.1108,3.53668 10.0145,6.14779 3.3468,3.00955 6.4847,6.53945 10.7731,8.20871 2.8712,1.14715 6.1409,0.43626 8.6657,-1.21007 5.5007,-3.42128 9.2862,-9.06412 15.0541,-12.10461 2.6088,-1.413 5.8556,-1.47772 8.4995,-0.11831 4.7473,2.37805 8.1336,6.61928 12.1789,9.93826 2.7195,2.28621 6.0878,4.51305 9.8142,3.99021 4.0152,-0.61597 7.1107,-3.53737 10.0145,-6.14869 3.3467,-3.00967 6.4848,-6.53949 10.7731,-8.20875 2.8715,-1.1466 6.1409,-0.43655 8.6657,1.21021 5.5008,3.42118 9.2862,9.06404 15.0541,12.10456 2.6088,1.4126 5.8558,1.47831 8.4995,0.11816 4.7473,-2.37798 8.1336,-6.61926 12.1789,-9.93826 2.7192,-2.28671 6.0879,-4.51204 9.8142,-3.98921 4.0156,0.6145 7.1108,3.53668 10.0145,6.14779 3.3468,3.00955 6.4847,6.53945 10.7731,8.20871 2.8712,1.14715 6.1409,0.43626 8.6657,-1.21007 5.5007,-3.42128 9.2862,-9.06412 15.0541,-12.10461 2.6088,-1.413 5.8556,-1.47772 8.4995,-0.11831 4.7473,2.37805 8.1336,6.61928 12.1789,9.93826 2.7195,2.28621 6.0878,4.51305 9.8142,3.99021 4.0152,-0.61597 7.1107,-3.53737 10.0145,-6.14869 3.3467,-3.00967 6.4848,-6.53949 10.7731,-8.20875 2.8715,-1.14662 6.1408,-0.4365 8.6657,1.21013 5.5007,3.42125 9.2862,9.06416 15.0541,12.10459 2.6087,1.41272 5.8558,1.47832 8.4995,0.11821 4.7473,-2.37798 8.1336,-6.61926 12.1789,-9.93826 2.7192,-2.28668 6.0879,-4.51205 9.8142,-3.98921 4.0156,0.61445 7.1107,3.53666 10.0145,6.14769 3.3467,3.00964 6.4847,6.53953 10.7731,8.20875 2.8713,1.14712 6.1409,0.43618 8.6657,-1.21021 5.5008,-3.4212 9.2862,-9.06404 15.0541,-12.10461 2.6088,-1.41295 5.8557,-1.47782 8.4995,-0.11821 4.7474,2.3779 8.1337,6.61917 12.1789,9.93816 2.7192,2.28669 6.0878,4.51217 9.8142,3.98931 4.0152,-0.61597 7.1108,-3.53716 10.0145,-6.14849 3.3468,-3.00961 6.4848,-6.53948 10.7731,-8.20885 2.8713,-1.14707 6.1408,-0.43621 8.6657,1.21001 5.5009,3.4209 9.2864,9.06366 15.0541,12.10441 2.6085,1.41278 5.8555,1.47847 8.4995,0.11967 4.7475,-2.37717 8.1339,-6.61822 12.1789,-9.93702 2.7195,-2.2865 6.0875,-4.51362 9.8142,-3.99221 4.015,0.61418 7.111,3.53409 10.0145,6.14489 3.3645,3.02377 6.5188,6.5785 10.8399,8.2352 2.896,1.1353 6.1746,0.37843 8.7017,-1.28922 5.4466,-3.42673 9.2224,-9.01381 14.9512,-12.03982 2.6071,-1.41554 5.8534,-1.48358 8.4997,-0.13061 4.7489,2.36917 8.1371,6.60521 12.1787,9.92357 2.7325,2.30338 6.1204,4.53483 9.8679,4.01938 4.0695,-0.63788 7.195,-3.61301 10.1378,-6.2618 3.3362,-2.99923 6.481,-6.51363 10.777,-8.1318 2.9725,-1.14808 6.3161,-0.2982 8.8793,1.43011 5.3349,3.4268 9.1019,8.87667 14.7372,11.88049 2.6327,1.4386 5.9175,1.55492 8.6053,0.19224 4.7448,-2.33294 8.152,-6.52505 12.1803,-9.82758 2.7731,-2.32798 6.1754,-4.61428 9.9761,-4.15416 4.0879,0.54495 7.2804,3.45766 10.2539,6.0773 3.4694,3.05946 6.7263,6.6449 11.1328,8.3511 2.9657,1.17326 6.343,0.52341 8.9984,-1.11563 5.9196,-3.50754 10.0323,-9.43397 16.1969,-12.58147 2.8873,-1.51299 6.4337,-1.59668 9.375,-0.1815 4.8362,2.27682 8.4386,6.36535 12.3047,9.9304 1.6812,1.58145 3.3979,3.13545 5.2734,4.486 0,-33.34423 0,-66.68847 0,-100.0327 z"
       id="path25146"
       inkscape:connector-curvature="0" />
  </g>
</svg>
