<?xml version="1.0" encoding="utf-8"?>
<!-- Generator: Fusion 360, Shaper Origin Export Add-In, Version 1.5.0  -->
<svg enable-background="new 0 0 7 7" height="7cm" shaper:fusionaddin="version:1.5.0" version="1.1" viewBox="0 0 7 7" width="7cm" x="0cm" xml:space="preserve" xmlns="http://www.w3.org/2000/svg" xmlns:shaper="http://www.shapertools.com/namespaces/shaper" xmlns:xlink="http://www.w3.org/1999/xlink" y="0cm"><path d="M0,7 L0,0 7,0 7,0.5 6.5,0.5 6.5,1 6,1 6,1 5.9995519,1.0849357 5.9981977,1.1678886 5.995923,1.2488904 5.992714,1.3279724 5.9885577,1.4051661 5.9834418,1.4805031 5.9773545,1.5540147 5.9702849,1.6257324 5.9622228,1.6956878 5.9531584,1.7639122 5.9430829,1.8304372 5.9319882,1.8952942 5.9198665,1.9585147 5.9067112,2.0201302 5.892516,2.0801721 5.8772754,2.1386719 5.8609848,2.1956611 5.8436399,2.2511711 5.8252375,2.3052335 5.8057747,2.3578796 5.7852495,2.4091411 5.7636607,2.4590492 5.7410076,2.5076356 5.7172901,2.5549316 5.6925091,2.6009688 5.6666659,2.6457787 5.6397627,2.6893926 5.6118022,2.731842 5.5827879,2.7731586 5.552724,2.8133736 5.5216154,2.8525186 5.4894676,2.890625 5.4562868,2.9277244 5.4220799,2.9638481 5.3868546,2.9990277 5.3506192,3.0332947 5.3133827,3.0666804 5.2751546,3.0992165 5.2359455,3.1309342 5.1957663,3.1618652 5.1546289,3.1920409 5.1125455,3.2214928 5.0695294,3.2502522 5.0255944,3.2783508 4.9807549,3.30582 4.9350261,3.3326912 4.8884239,3.3589959 4.840965,3.3847656 4.7926664,3.4100318 4.7435462,3.4348259 4.693623,3.4591794 4.6429161,3.4831238 4.5914455,3.5066905 4.5392319,3.529911 4.4862967,3.5528169 4.4326619,3.5754395 4.3783504,3.5978103 4.3233855,3.6199608 4.2677914,3.6419225 4.2115929,3.6637268 4.0974855,3.7069893 3.9812757,3.75 3.8631868,3.7930107 3.7434532,3.8362732 3.6223204,3.8800392 3.5000447,3.9245605 3.3768936,3.970089 3.2531456,4.0168762 3.12909,4.0651741 3.0050275,4.1152344 2.8812694,4.1673088 2.8196049,4.19418 2.7581383,4.2216492 2.6969117,4.2497478 2.6359678,4.2785072 2.5753499,4.3079591 2.5151023,4.3381348 2.4552696,4.3690658 2.3958974,4.4007835 2.3370319,4.4333196 2.2787198,4.4667053 2.2210088,4.5009723 2.163947,4.5361519 2.1075834,4.5722756 2.0519676,4.609375 1.9971498,4.6474814 1.9431812,4.6866264 1.8901133,4.7268414 1.8379985,4.768158 1.7868898,4.8106074 1.7368411,4.8542213 1.6879067,4.8990312 1.6401417,4.9450684 1.5936019,4.9923644 1.548344,5.0409508 1.5044249,5.0908589 1.4619026,5.1421204 1.4208357,5.1947665 1.3812834,5.2488289 1.3433056,5.3043389 1.3069629,5.3613281 1.2723168,5.4198279 1.2394291,5.4798698 1.2236642,5.5104789 1.2083625,5.5414853 1.193532,5.572893 1.1791805,5.6047058 1.1653162,5.6369278 1.1519471,5.6695628 1.1390814,5.7026148 1.1267271,5.7360878 1.1148925,5.7699856 1.1035859,5.8043122 1.0928155,5.8390716 1.0825896,5.8742676 1.0729167,5.9099042 1.0638051,5.9459853 1.0552633,5.9825149 1.0472998,6.0194969 1.0399232,6.0569353 1.033142,6.0948339 1.0269649,6.1331967 1.0214005,6.1720276 1.0164577,6.2113306 1.012145,6.2511096 1.0084714,6.2913685 1.0054457,6.3321114 1.0030767,6.373342 1.0013734,6.4150643 1.0003449,6.4572824 1,6.5 0.5,6.5 0.5,7 0,7z" fill="rgb(0,0,0)" shaper:cutDepth="0" shaper:pathType="exterior" transform="matrix(1,0,0,-1,-0,7)" vector-effect="non-scaling-stroke" /></svg>