<?xml version="1.0" encoding="UTF-8" standalone="no"?>
<!-- Generator: Fusion 360, Shaper Origin Export Add-In, Version 1.5.0  -->

<svg
   xmlns:shaper="http://www.shapertools.com/namespaces/shaper"
   xmlns:dc="http://purl.org/dc/elements/1.1/"
   xmlns:cc="http://creativecommons.org/ns#"
   xmlns:rdf="http://www.w3.org/1999/02/22-rdf-syntax-ns#"
   xmlns:svg="http://www.w3.org/2000/svg"
   xmlns="http://www.w3.org/2000/svg"
   xmlns:sodipodi="http://sodipodi.sourceforge.net/DTD/sodipodi-0.dtd"
   xmlns:inkscape="http://www.inkscape.org/namespaces/inkscape"
   enable-background="new 0 0 5 5"
   height="6cm"
   shaper:fusionaddin="version:1.5.0"
   version="1.1"
   viewBox="0 0 16.58337 6"
   width="16.58337cm"
   x="0cm"
   xml:space="preserve"
   y="0cm"
   id="svg5658"
   sodipodi:docname="corner1.svg"
   inkscape:version="0.92.2 (5c3e80d, 2017-08-06)"><metadata
     id="metadata5664"><rdf:RDF><cc:Work
         rdf:about=""><dc:format>image/svg+xml</dc:format><dc:type
           rdf:resource="http://purl.org/dc/dcmitype/StillImage" /><dc:title></dc:title></cc:Work></rdf:RDF></metadata><defs
     id="defs5662" /><sodipodi:namedview
     pagecolor="#ffffff"
     bordercolor="#666666"
     borderopacity="1"
     objecttolerance="10"
     gridtolerance="10"
     guidetolerance="10"
     inkscape:pageopacity="0"
     inkscape:pageshadow="2"
     inkscape:window-width="1920"
     inkscape:window-height="996"
     id="namedview5660"
     showgrid="false"
     inkscape:zoom="0.88305852"
     inkscape:cx="320.44436"
     inkscape:cy="190.99471"
     inkscape:window-x="-9"
     inkscape:window-y="-9"
     inkscape:window-maximized="1"
     inkscape:current-layer="svg5658"
     fit-margin-top="0"
     fit-margin-left="0"
     fit-margin-right="0"
     fit-margin-bottom="0" /><path
     style="vector-effect:non-scaling-stroke;fill:none;stroke:#646464"
     d="M 5,1.5 C 5,1.3333333 5,1.1666667 5,1 c 0.1666667,0 0.3333333,0 0.5,0 0,-0.1666667 0,-0.3333333 0,-0.5 -1.6666667,0 -3.3333333,0 -5,0 0,1.6666667 0,3.3333333 0,5 0.16666667,0 0.33333333,0 0.5,0 C 1,5.3333333 1,5.1666667 1,5 1.1666667,5 1.3333333,5 1.5,5 1.5,4.8333333 1.5,4.6666667 1.5,4.5 1.7147746,4.4996071 1.9313182,4.4801065 2.1380954,4.4195096 2.3034797,4.3713782 2.4613334,4.2943326 2.5961078,4.186484 2.7446013,4.0687333 2.8629726,3.9169093 2.9574375,3.753508 3.0541321,3.5873361 3.1295981,3.4099799 3.2006884,3.2316749 3.2669254,3.0649556 3.3297346,2.8968583 3.3989758,2.7313455 3.4631722,2.5783174 3.5335293,2.4274782 3.6182665,2.2846285 3.7271419,2.1003305 3.8631983,1.9294019 4.0335358,1.7982576 4.1727484,1.6902525 4.3337587,1.6112767 4.5033263,1.5639456 4.6646312,1.5183863 4.8326925,1.5002532 5,1.5 Z"
     id="path5654"
     inkscape:connector-curvature="0" /><path
     style="vector-effect:non-scaling-stroke;fill:none;stroke:#646464"
     d="m 0.5,5.5 c 1.6666667,0 3.3333333,0 5,0 0,-1.6666667 0,-3.3333333 0,-5 -1.6666667,0 -3.3333333,0 -5,0 0,1.6666667 0,3.3333333 0,5 z"
     id="path5656"
     inkscape:connector-curvature="0" /><path
     inkscape:connector-curvature="0"
     id="path6211"
     d="m 10.29167,1.5 c 0,-0.1666667 0,-0.3333333 0,-0.5 0.166667,0 0.333334,0 0.500001,0 0,-0.1666667 0,-0.3333333 0,-0.5 -1.6666677,0 -3.3333343,0 -5.0000016,0 0,1.6666667 0,3.3333333 0,5 0.1666668,0 0.3333335,0 0.5000003,0 0,-0.1666667 0,-0.3333333 0,-0.5 0.1666668,0 0.3333335,0 0.5000003,0 0,-0.1666667 0,-0.3333333 0,-0.5 C 7.0064446,4.4996071 7.2229882,4.480107 7.4297654,4.41951 7.5951497,4.3713782 7.7530034,4.2943326 7.8877778,4.186484 8.0362713,4.0687333 8.1546426,3.9169093 8.2491075,3.753508 8.3458021,3.5873361 8.4212681,3.4099799 8.4923584,3.2316749 8.5585954,3.0649556 8.6214046,2.8968583 8.6906458,2.7313455 8.7548422,2.5783174 8.8251993,2.4274782 8.9099365,2.2846285 9.0188119,2.1003305 9.1548683,1.9294019 9.3252058,1.7982576 9.4644184,1.6902525 9.6254287,1.6112767 9.7949963,1.5639456 9.9563012,1.5183863 10.124362,1.5002532 10.29167,1.5 Z"
     style="vector-effect:non-scaling-stroke;fill:none;stroke:#646464" /><path
     inkscape:connector-curvature="0"
     id="path6213"
     d="m 5.7916694,5.5 c 1.6666673,0 3.3333339,0 5.0000016,0 0,-1.6666667 0,-3.3333333 0,-5 -1.6666677,0 -3.3333343,0 -5.0000016,0 0,1.6666667 0,3.3333333 0,5 z"
     style="vector-effect:non-scaling-stroke;fill:none;stroke:#646464" /><path
     style="vector-effect:non-scaling-stroke;fill:none;stroke:#646464"
     d="m 15.583369,1.5 c 0,-0.1666667 0,-0.3333333 0,-0.5 0.166667,0 0.333335,0 0.500002,0 0,-0.1666667 0,-0.3333333 0,-0.5 -1.666676,0 -3.333352,0 -5.000028,0 0,1.6666667 0,3.3333333 0,5 0.166667,0 0.333335,0 0.500003,0 0,-0.1666667 0,-0.3333333 0,-0.5 0.166667,0 0.333335,0 0.500003,0 0,-0.1666667 0,-0.3333333 0,-0.5 0.214775,-3.929e-4 0.431321,-0.019893 0.638099,-0.08049 0.165385,-0.048132 0.32324,-0.1251774 0.458015,-0.233026 0.148494,-0.1177507 0.266866,-0.2695747 0.361332,-0.432976 0.0967,-0.1661719 0.172161,-0.3435281 0.243252,-0.5218331 0.06624,-0.1667193 0.129047,-0.3348166 0.198288,-0.5003294 0.0642,-0.1530281 0.134555,-0.3038673 0.219292,-0.446717 0.108876,-0.184298 0.244933,-0.3552266 0.415272,-0.4863709 0.139213,-0.1080051 0.300225,-0.1869809 0.469793,-0.234312 C 15.247998,1.5183863 15.41606,1.5002532 15.583369,1.5 Z"
     id="path6215"
     inkscape:connector-curvature="0" /><path
     style="vector-effect:non-scaling-stroke;fill:none;stroke:#646464"
     d="m 11.083343,5.5 c 1.666676,0 3.333352,0 5.000028,0 0,-1.6666667 0,-3.3333333 0,-5 -1.666676,0 -3.333352,0 -5.000028,0 0,1.6666667 0,3.3333333 0,5 z"
     id="path6217"
     inkscape:connector-curvature="0" /></svg>