<?xml version="1.0" encoding="UTF-8" standalone="no"?>
<!-- Generator: Fusion 360, Shaper Origin Export Add-In, Version 1.5.0  -->

<svg
   xmlns:shaper="http://www.shapertools.com/namespaces/shaper"
   xmlns:dc="http://purl.org/dc/elements/1.1/"
   xmlns:cc="http://creativecommons.org/ns#"
   xmlns:rdf="http://www.w3.org/1999/02/22-rdf-syntax-ns#"
   xmlns:svg="http://www.w3.org/2000/svg"
   xmlns="http://www.w3.org/2000/svg"
   xmlns:sodipodi="http://sodipodi.sourceforge.net/DTD/sodipodi-0.dtd"
   xmlns:inkscape="http://www.inkscape.org/namespaces/inkscape"
   enable-background="new 0 0 17.8207994 4.414277"
   height="17.953691cm"
   shaper:fusionaddin="version:1.5.0"
   version="1.1"
   viewBox="0 0 5.5307233 17.953691"
   width="5.5307231cm"
   x="0cm"
   xml:space="preserve"
   y="0cm"
   id="svg6231"
   sodipodi:docname="Corner2.svg"
   inkscape:version="0.92.2 (5c3e80d, 2017-08-06)"><metadata
     id="metadata6237"><rdf:RDF><cc:Work
         rdf:about=""><dc:format>image/svg+xml</dc:format><dc:type
           rdf:resource="http://purl.org/dc/dcmitype/StillImage" /><dc:title></dc:title></cc:Work></rdf:RDF></metadata><defs
     id="defs6235" /><sodipodi:namedview
     pagecolor="#ffffff"
     bordercolor="#666666"
     borderopacity="1"
     objecttolerance="10"
     gridtolerance="10"
     guidetolerance="10"
     inkscape:pageopacity="0"
     inkscape:pageshadow="2"
     inkscape:window-width="1920"
     inkscape:window-height="996"
     id="namedview6233"
     showgrid="false"
     fit-margin-left="1"
     fit-margin-top="0"
     fit-margin-right="0"
     fit-margin-bottom="0"
     inkscape:zoom="0.524095"
     inkscape:cx="123.41553"
     inkscape:cy="567.93768"
     inkscape:window-x="-9"
     inkscape:window-y="-9"
     inkscape:window-maximized="1"
     inkscape:current-layer="svg6231" /><path
     style="vector-effect:non-scaling-stroke;fill:none;stroke:#000000;stroke-width:0.1;stroke-miterlimit:4;stroke-dasharray:none;stroke-opacity:1"
     d="M 2.3178626,17.887245 C 2.6199652,17.746372 2.9220678,17.6055 3.2241704,17.464627 3.0832976,17.162524 2.9424249,16.860422 2.8015521,16.558319 3.1036547,16.417446 3.4057573,16.276573 3.7078599,16.1357 3.5669871,15.833598 3.4261144,15.531495 3.2852416,15.229393 3.5827077,15.090813 3.862782,14.909217 4.0942566,14.675248 4.3025313,14.465959 4.4680756,14.215209 4.5824334,13.943176 4.7337618,13.585643 4.8005635,13.197741 4.8198228,12.811581 4.8388589,12.420211 4.8118342,12.027945 4.7627454,11.63964 4.6876656,11.055028 4.5637313,10.47797 4.4255576,9.9053919 4.1933228,8.9477924 3.9179608,8.0013061 3.6828758,7.0444302 3.5573413,6.5308955 3.442189,6.0141744 3.3631069,5.4912216 3.309521,5.1321191 3.272085,4.7695466 3.2749761,4.4060809 3.2782374,4.1221247 3.3054115,3.8357579 3.3886547,3.5631838 3.4564916,3.3411165 3.5667704,3.1279933 3.7322152,2.9628162 3.8380169,2.855903 3.9655651,2.7719101 4.1028086,2.7109952 4.3954016,2.5745568 4.6879947,2.4381185 4.9805878,2.3016801 4.8397148,1.9995775 4.6988418,1.6974749 4.5579688,1.3953723 4.8600715,1.2544996 5.1621741,1.1136268 5.4642768,0.97275411 5.3234041,0.67065151 5.1825315,0.36854891 5.0416588,0.06644631 3.7111059,0.68689331 2.3805529,1.3073403 1.05,1.9277873 c 0,4.4135116 0,8.8270227 0,13.2405347 0.4226209,0.906308 0.8452417,1.812615 1.2678626,2.718923 z"
     id="path6229"
     inkscape:connector-curvature="0" /></svg>