<?xml version="1.0" encoding="UTF-8" standalone="no"?>
<!-- Generator: Fusion 360, Shaper Origin Export Add-In, Version 1.5.0  -->

<svg
   xmlns:shaper="http://www.shapertools.com/namespaces/shaper"
   xmlns:dc="http://purl.org/dc/elements/1.1/"
   xmlns:cc="http://creativecommons.org/ns#"
   xmlns:rdf="http://www.w3.org/1999/02/22-rdf-syntax-ns#"
   xmlns:svg="http://www.w3.org/2000/svg"
   xmlns="http://www.w3.org/2000/svg"
   xmlns:sodipodi="http://sodipodi.sourceforge.net/DTD/sodipodi-0.dtd"
   xmlns:inkscape="http://www.inkscape.org/namespaces/inkscape"
   enable-background="new 0 0 120 7.5025591"
   height="7.6423111cm"
   shaper:fusionaddin="version:1.5.0"
   version="1.1"
   viewBox="0 0 121.1 7.642311"
   width="121.1cm"
   x="0cm"
   xml:space="preserve"
   y="0cm"
   id="svg4537"
   sodipodi:docname="TypeC.svg"
   inkscape:version="0.92.2 (5c3e80d, 2017-08-06)"><metadata
     id="metadata4543"><rdf:RDF><cc:Work
         rdf:about=""><dc:format>image/svg+xml</dc:format><dc:type
           rdf:resource="http://purl.org/dc/dcmitype/StillImage" /><dc:title></dc:title></cc:Work></rdf:RDF></metadata><defs
     id="defs4541" /><sodipodi:namedview
     pagecolor="#ffffff"
     bordercolor="#666666"
     borderopacity="1"
     objecttolerance="10"
     gridtolerance="10"
     guidetolerance="10"
     inkscape:pageopacity="0"
     inkscape:pageshadow="2"
     inkscape:window-width="1920"
     inkscape:window-height="996"
     id="namedview4539"
     showgrid="false"
     fit-margin-left="1"
     fit-margin-top="0"
     fit-margin-right="0"
     fit-margin-bottom="0"
     inkscape:zoom="1.761128"
     inkscape:cx="376.27876"
     inkscape:cy="193.53946"
     inkscape:window-x="-9"
     inkscape:window-y="-9"
     inkscape:window-maximized="1"
     inkscape:current-layer="svg4537" /><path
     style="vector-effect:non-scaling-stroke;fill:none;stroke:#000000;stroke-width:0.1;stroke-miterlimit:4;stroke-dasharray:none;stroke-opacity:1"
     d="m 121.05,0.55073519 c -0.18767,-0.1191016 -0.23666,-0.3716225 -0.4248,-0.4899585 -0.11928,-0.0506482 -0.20413,0.0850434 -0.26258,0.167649 -0.0851,0.110457 -0.14143,0.2654847 -0.27942,0.3200361 -0.13037,0.0119736 -0.19485,-0.13386 -0.2608,-0.2227379 -0.0749,-0.0993599 -0.13103,-0.2498673 -0.26654,-0.2750518 -0.13444,0.0195855 -0.19087,0.1689799 -0.26367,0.2663354 -0.0658,0.0888925 -0.12362,0.2257894 -0.24903,0.2333788 -0.13834,-0.0360312 -0.19296,-0.191534 -0.27192,-0.2958795 -0.0613,-0.0840703 -0.1308,-0.226271 -0.25542,-0.1977218 -0.15537,0.0846357 -0.2106,0.2704005 -0.32227,0.3989326 -0.0482,0.0773484 -0.16101,0.1348026 -0.23437,0.0548051 -0.14565,-0.1303461 -0.1963,-0.346153 -0.36621,-0.4506841 -0.12078,-0.0399512 -0.19573,0.0997394 -0.25438,0.181547 -0.0812,0.1074899 -0.13535,0.2623102 -0.27296,0.3081395 -0.12833,0.001067 -0.18804,-0.141695 -0.25392,-0.230688 -0.0724,-0.0967967 -0.12721,-0.2427888 -0.25878,-0.2680597 -0.13386,0.0184244 -0.18992,0.1672907 -0.26203,0.2641321 -0.0662,0.0892899 -0.12392,0.2289681 -0.25067,0.235348 -0.14114,-0.0393717 -0.19517,-0.1993484 -0.27691,-0.3061208 -0.0591,-0.0816734 -0.12994,-0.2184368 -0.25043,-0.1865512 -0.18421,0.1053855 -0.22815,0.3457791 -0.39551,0.470839 -0.10669,0.0717145 -0.20321,-0.0536805 -0.25585,-0.1339602 -0.0894,-0.1157608 -0.14433,-0.2784133 -0.28614,-0.3405141 -0.12668,-0.0148434 -0.19064,0.1273488 -0.25404,0.2136638 -0.0744,0.1005159 -0.12842,0.2445595 -0.25865,0.2823159 -0.12963,-0.003377 -0.18831,-0.1472022 -0.25552,-0.2379903 -0.0709,-0.0955858 -0.12639,-0.2400871 -0.25718,-0.2612044 -0.13472,0.0227154 -0.19022,0.172889 -0.26367,0.2713369 -0.0649,0.0879031 -0.12358,0.2257102 -0.24903,0.2278578 -0.14123,-0.0438289 -0.19557,-0.2037838 -0.27832,-0.3125935 -0.0581,-0.0803346 -0.13073,-0.2145869 -0.24902,-0.1786353 -0.18801,0.1096903 -0.22785,0.3630277 -0.41016,0.4797497 -0.11817,0.049596 -0.19842,-0.0885134 -0.25563,-0.1697304 -0.0821,-0.1092754 -0.13646,-0.2616975 -0.27171,-0.3154677 -0.12832,-0.0106211 -0.19074,0.1336243 -0.25554,0.2211079 -0.0732,0.0987273 -0.12728,0.2422984 -0.25715,0.2758979 -0.13291,-0.00836 -0.19058,-0.1570055 -0.26039,-0.2505161 -0.0683,-0.0925964 -0.12442,-0.2328651 -0.25231,-0.2489643 -0.13545,0.0270259 -0.19032,0.1785013 -0.26532,0.2782742 -0.0636,0.086 -0.1233,0.2228003 -0.24737,0.2204634 -0.14345,-0.0491918 -0.19756,-0.2126546 -0.28368,-0.3243622 -0.0558,-0.0815265 -0.14297,-0.2183303 -0.25832,-0.1580299 -0.17276,0.1201232 -0.2167,0.3595923 -0.3955,0.4727182 -0.11975,0.045604 -0.19756,-0.0939192 -0.25566,-0.1754696 -0.0814,-0.1084546 -0.13573,-0.26131 -0.27169,-0.3117325 -0.12775,-0.0064132 -0.18916,0.1357574 -0.25392,0.2239512 -0.0733,0.0981926 -0.12762,0.2435678 -0.25877,0.2739107 -0.13395,-0.0129643 -0.19087,-0.1624064 -0.26202,-0.2578229 -0.0671,-0.0906956 -0.12377,-0.2300666 -0.25068,-0.2417719 -0.13805,0.0322471 -0.1924,0.1875706 -0.27027,0.290336 -0.0624,0.0851607 -0.13056,0.2300634 -0.25707,0.2040038 -0.15286,-0.0805785 -0.20794,-0.262049 -0.31503,-0.3885105 -0.0481,-0.0799466 -0.16292,-0.1504241 -0.24161,-0.0668509 -0.14627,0.1299892 -0.19689,0.3456824 -0.36621,0.451266 -0.12115,0.0415046 -0.1968,-0.0991084 -0.2556,-0.1812085 -0.0808,-0.1074091 -0.13503,-0.2610962 -0.27175,-0.3078309 -0.12923,-0.0021733 -0.18927,0.1419009 -0.25552,0.2313435 -0.0718,0.0969233 -0.1267,0.2408173 -0.25717,0.2672036 -0.13296,-0.0165157 -0.18903,-0.1644392 -0.26046,-0.2599383 -0.0668,-0.090404 -0.12443,-0.2315375 -0.25224,-0.2395993 -0.13657,0.0357606 -0.19092,0.1887324 -0.26864,0.2921259 -0.061,0.0832051 -0.12321,0.2157432 -0.24405,0.2051843 -0.14261,-0.0568679 -0.19696,-0.2202625 -0.28511,-0.3342249 -0.0541,-0.0807631 -0.14655,-0.2109529 -0.25689,-0.1436332 -0.16948,0.1233089 -0.2135,0.3630477 -0.3955,0.4718051 -0.12166,0.0372791 -0.19506,-0.1026319 -0.25433,-0.185037 -0.0809,-0.1065895 -0.13489,-0.2623223 -0.27302,-0.3056724 -0.13271,0.0027921 -0.1916,0.1517393 -0.26042,0.2440202 -0.0693,0.0936838 -0.12447,0.2339859 -0.25227,0.2550411 -0.13582,-0.0216779 -0.1913,-0.1737919 -0.26532,-0.2723093 -0.0645,-0.0871287 -0.12287,-0.2239738 -0.24738,-0.2269996 -0.14068,0.0420834 -0.19486,0.2011428 -0.27695,0.3089002 -0.0585,0.0812315 -0.13072,0.2174375 -0.25039,0.1828292 -0.18855,-0.1089538 -0.22839,-0.3623351 -0.41016,-0.4796496 -0.11767,-0.0509367 -0.19863,0.086739 -0.25569,0.1677623 -0.0822,0.1096517 -0.13669,0.2618428 -0.27165,0.3167309 -0.127052,0.0120039 -0.190221,-0.1301485 -0.25394,-0.217162 -0.0742,-0.0995447 -0.128145,-0.2442964 -0.258758,-0.2795206 -0.129757,0.0060965 -0.187808,0.1499263 -0.255517,0.2412604 -0.07045,0.0948704 -0.126298,0.2396405 -0.257178,0.2581438 -0.134558,-0.0253491 -0.189769,-0.175191 -0.263672,-0.2743568 -0.06443,-0.0872257 -0.123784,-0.2251057 -0.249023,-0.2245521 -0.140804,0.0462857 -0.195107,0.2058119 -0.278321,0.3152757 -0.05755,0.0799121 -0.131643,0.2135337 -0.249023,0.1748957 -0.186868,-0.1112269 -0.22671,-0.364432 -0.410156,-0.4798954 -0.119213,-0.0469304 -0.197888,0.0921061 -0.255622,0.1735823 -0.08186,0.108444 -0.135884,0.2615716 -0.271722,0.3129703 -0.128662,0.007789 -0.19026,-0.1364213 -0.255521,-0.2245598 -0.07265,-0.0983274 -0.127121,-0.2416724 -0.257175,-0.2730357 -0.132975,0.0110977 -0.190018,0.1595406 -0.260436,0.253674 -0.06781,0.0917656 -0.124349,0.2325341 -0.252259,0.2459017 -0.137119,-0.0306511 -0.191817,-0.1843317 -0.268595,-0.286321 -0.06192,-0.0844559 -0.122503,-0.2172171 -0.2441,-0.2120167 -0.142977,0.051623 -0.197003,0.214963 -0.283721,0.3270047 -0.05524,0.0814324 -0.144238,0.2167348 -0.258271,0.1539489 -0.171685,-0.121188 -0.215635,-0.3607909 -0.395508,-0.4724853 -0.119837,-0.0428758 -0.196341,0.0961517 -0.254424,0.1776151 -0.08173,0.107903 -0.13578,0.2625276 -0.27292,0.3108304 -0.128056,0.003647 -0.188604,-0.138519 -0.253947,-0.2272797 -0.07274,-0.0977849 -0.127416,-0.2430468 -0.258748,-0.271058 -0.131975,0.0149122 -0.188494,0.1612884 -0.25882,0.2560902 -0.06792,0.0911245 -0.125002,0.2338552 -0.253875,0.2434855 -0.137657,-0.0350099 -0.192109,-0.1894528 -0.270282,-0.2932215 -0.06181,-0.0846407 -0.131226,-0.2292443 -0.257062,-0.2003233 -0.155287,0.085035 -0.210308,0.2710802 -0.322266,0.3995295 -0.0482,0.0775765 -0.161494,0.1338251 -0.234375,0.0535029 -0.145306,-0.1305567 -0.195905,-0.3464556 -0.366211,-0.4504259 -0.122035,-0.0387512 -0.196249,0.1025195 -0.255588,0.1849817 -0.08038,0.106768 -0.134605,0.2608248 -0.271756,0.3051897 -0.129447,-6.11e-4 -0.188786,-0.1445732 -0.255517,-0.2346841 -0.07134,-0.0962989 -0.126516,-0.2405261 -0.257178,-0.2642248 -0.134845,0.0200466 -0.190676,0.1705486 -0.263672,0.2682754 -0.06535,0.0884172 -0.123412,0.2262811 -0.249023,0.2311288 -0.138062,-0.0391844 -0.19232,-0.1945997 -0.271894,-0.2998955 -0.06047,-0.0834163 -0.131841,-0.2254647 -0.25545,-0.1923159 -0.189133,0.1081185 -0.228992,0.3615562 -0.410156,0.4795313 -0.117093,0.0522252 -0.198964,-0.084859 -0.255647,-0.1658534 -0.08269,-0.109655 -0.136888,-0.2620776 -0.271697,-0.3179165 -0.127908,-0.0134508 -0.191274,0.1307544 -0.255527,0.2176429 -0.07349,0.0997039 -0.127653,0.2425063 -0.257168,0.2786975 -0.132844,-0.005571 -0.191043,-0.154489 -0.260426,-0.2472719 -0.06887,-0.0927846 -0.124356,-0.2336729 -0.25227,-0.252037 -0.137559,0.0253095 -0.19277,0.1796492 -0.26856,0.2803548 -0.06431,0.0869087 -0.129649,0.2345525 -0.258783,0.2156428 -0.147872,-0.0698168 -0.202549,-0.2425667 -0.300032,-0.3635419 -0.04934,-0.0759412 -0.147442,-0.1786587 -0.24196,-0.1082026 -0.164612,0.1259374 -0.209322,0.3635557 -0.391997,0.4684899 -0.121616,0.0331068 -0.192814,-0.1061279 -0.252535,-0.1882498 -0.07831,-0.1055362 -0.132423,-0.2523902 -0.263672,-0.3021943 -0.127458,-0.0092253 -0.18961,0.1330242 -0.253989,0.2205325 -0.07359,0.0991668 -0.127863,0.2438161 -0.258706,0.2767777 -0.131984,-0.009497 -0.189492,-0.1564094 -0.258852,-0.2498598 -0.06887,-0.0924822 -0.124951,-0.2347485 -0.253843,-0.2496778 -0.138198,0.0298434 -0.193026,0.1850451 -0.270258,0.2874073 -0.06289,0.0857045 -0.129942,0.2308428 -0.257086,0.2076522 -0.150279,-0.0758898 -0.205434,-0.2528039 -0.307617,-0.3770613 -0.04812,-0.0786878 -0.158408,-0.1657718 -0.243925,-0.0844707 -0.151475,0.1282896 -0.201022,0.3477437 -0.37131,0.4559484 -0.120201,0.044232 -0.197343,-0.0956375 -0.255609,-0.1774085 -0.08125,-0.1080688 -0.13552,-0.2611625 -0.271734,-0.3104247 -0.128984,-0.0049834 -0.189729,0.1392049 -0.255545,0.2279523 -0.07232,0.0973136 -0.126786,0.2414805 -0.257151,0.2701571 -0.134986,-0.0146111 -0.191608,-0.1657503 -0.263671,-0.2620307 -0.06623,-0.0898121 -0.123207,-0.2274189 -0.249024,-0.2375641 -0.138716,0.0341023 -0.193212,0.1903186 -0.27185,0.2942171 -0.06157,0.0843835 -0.130402,0.2272347 -0.255494,0.1997346 -0.155674,-0.0840793 -0.210734,-0.2701463 -0.322265,-0.3986639 -0.04806,-0.0773246 -0.160773,-0.1355169 -0.234375,-0.0555416 -0.145766,0.130308 -0.196367,0.3461565 -0.366211,0.4508545 -0.120732,0.0401538 -0.195771,-0.0995501 -0.254376,-0.1813386 -0.08123,-0.107523 -0.135355,-0.2623575 -0.272968,-0.3082762 -0.128328,-0.0011451 -0.188052,0.1416379 -0.253913,0.230616 -0.0724,0.0968112 -0.12721,0.2428117 -0.258782,0.2681216 -0.133862,-0.0183936 -0.189924,-0.1672704 -0.262031,-0.2641052 -0.06616,-0.0892958 -0.123915,-0.228979 -0.250665,-0.2353752 -0.141148,0.0393596 -0.195177,0.1993415 -0.276918,0.3061113 -0.05908,0.081675 -0.129936,0.2184426 -0.250425,0.1865633 -0.184212,-0.1053824 -0.228148,-0.345778 -0.395508,-0.4708392 -0.10669,-0.0717171 -0.203214,0.0536767 -0.255852,0.1339566 -0.08945,0.1157612 -0.144328,0.278414 -0.28614,0.340516 -0.12668,0.0148448 -0.190645,-0.1273478 -0.254041,-0.2136625 -0.07442,-0.1005161 -0.128418,-0.2445599 -0.258655,-0.2823169 -0.12962,0.0033766 -0.188309,0.1472019 -0.255517,0.2379899 -0.0709,0.0955859 -0.126389,0.2400872 -0.257178,0.2612048 -0.134719,-0.0227152 -0.19022,-0.1728889 -0.263672,-0.2713368 -0.06488,-0.087903 -0.123576,-0.2257103 -0.249023,-0.2278579 -0.141237,0.0438288 -0.195572,0.2037838 -0.278321,0.3125935 -0.05812,0.0803345 -0.130734,0.214587 -0.249023,0.1786353 -0.188016,-0.1096903 -0.227852,-0.3630276 -0.410156,-0.4797497 -0.118176,-0.049596 -0.198429,0.0885134 -0.255634,0.1697304 -0.08213,0.1092754 -0.136463,0.2616974 -0.27171,0.3154677 -0.128318,0.0106211 -0.190744,-0.1336243 -0.255539,-0.2211079 -0.07317,-0.0987273 -0.127284,-0.2422984 -0.257156,-0.2758979 -0.13291,0.0083598 -0.190572,0.1570055 -0.26039,0.2505161 -0.06833,0.0925964 -0.124413,0.2328651 -0.252306,0.2489643 -0.135449,-0.0270259 -0.190315,-0.1785013 -0.265316,-0.2782742 -0.06356,-0.0860001 -0.123301,-0.2228003 -0.247379,-0.2204634 -0.14345,0.0491919 -0.19756,0.2126546 -0.283672,0.3243623 -0.05576,0.0815264 -0.142975,0.2183302 -0.25832,0.1580298 -0.172762,-0.1201232 -0.216706,-0.3595923 -0.395508,-0.4727182 -0.119742,-0.045604 -0.197555,0.0939192 -0.255659,0.1754696 -0.08138,0.1084546 -0.135727,0.26131 -0.271685,0.3117325 -0.127754,0.006413 -0.18916,-0.1357574 -0.253921,-0.2239512 -0.07331,-0.0981926 -0.12762,-0.2435678 -0.258774,-0.2739107 -0.133942,0.0129643 -0.190863,0.1624064 -0.262019,0.2578229 -0.06707,0.0906956 -0.123768,0.2300666 -0.250676,0.2417719 -0.138047,-0.0322471 -0.192404,-0.1875705 -0.27027,-0.290336 -0.06235,-0.0851607 -0.130558,-0.2300634 -0.257074,-0.2040038 -0.152862,0.0805785 -0.207937,0.262049 -0.315024,0.3885105 -0.04805,0.0799465 -0.162919,0.1504242 -0.241617,0.0668509 -0.146268,-0.1299891 -0.196889,-0.3456824 -0.366211,-0.451266 -0.121142,-0.0415046 -0.196796,0.0991084 -0.255598,0.1812085 -0.08082,0.1074091 -0.135022,0.2610962 -0.271745,0.3078309 -0.129231,0.002173 -0.189271,-0.1419009 -0.255518,-0.2313435 -0.07179,-0.0969233 -0.126704,-0.2408173 -0.257178,-0.2672036 -0.132954,0.0165157 -0.189026,0.1644392 -0.260458,0.2599383 -0.06684,0.090404 -0.124428,0.2315375 -0.252237,0.2395993 -0.136576,-0.0357606 -0.190921,-0.1887324 -0.268638,-0.2921259 -0.06098,-0.0832051 -0.123214,-0.2157432 -0.244057,-0.2051843 -0.142604,0.0568679 -0.196957,0.2202625 -0.285105,0.3342249 -0.0541,0.0807631 -0.146547,0.2109529 -0.256888,0.1436332 -0.169478,-0.1233089 -0.213499,-0.3630477 -0.395507,-0.4718051 -0.121653,-0.0372791 -0.195053,0.1026319 -0.25433,0.185037 -0.08091,0.1065895 -0.134887,0.2623223 -0.273014,0.3056724 -0.132714,-0.002792 -0.191597,-0.1517393 -0.260425,-0.2440202 -0.06929,-0.0936838 -0.12447,-0.2339859 -0.25227,-0.2550411 -0.135817,0.0216779 -0.191299,0.1737919 -0.265316,0.2723093 -0.06454,0.0871288 -0.122867,0.2239739 -0.24738,0.2269996 -0.140685,-0.0420835 -0.194861,-0.2011428 -0.276946,-0.3089002 -0.05855,-0.0812315 -0.130723,-0.2174375 -0.250397,-0.1828292 -0.188547,0.1089538 -0.228389,0.3623351 -0.410157,0.4796496 -0.117672,0.0509367 -0.198628,-0.0867391 -0.255689,-0.1677623 -0.08225,-0.1096517 -0.136688,-0.2618428 -0.271654,-0.3167309 -0.12705,-0.0120039 -0.190219,0.1301485 -0.253938,0.217162 -0.0742,0.0995447 -0.128145,0.2442964 -0.258758,0.2795206 -0.129757,-0.006096 -0.187808,-0.1499262 -0.255517,-0.2412604 -0.07045,-0.0948703 -0.126298,-0.2396405 -0.257178,-0.2581438 -0.134558,0.0253491 -0.189769,0.175191 -0.263672,0.2743568 -0.06443,0.0872257 -0.123784,0.2251057 -0.249023,0.2245521 -0.140804,-0.0462857 -0.195107,-0.205812 -0.278321,-0.3152757 -0.05754,-0.0799122 -0.131643,-0.2135336 -0.249023,-0.1748957 -0.186868,0.1112269 -0.22671,0.364432 -0.410156,0.4798954 -0.119213,0.0469304 -0.197888,-0.0921061 -0.255622,-0.1735823 -0.08186,-0.108444 -0.135884,-0.2615716 -0.271722,-0.3129703 -0.128662,-0.0077888 -0.190259,0.1364213 -0.255521,0.2245598 -0.07265,0.0983274 -0.127121,0.2416724 -0.257175,0.2730357 -0.132975,-0.0110977 -0.190018,-0.1595406 -0.260436,-0.253674 -0.06781,-0.0917656 -0.124349,-0.2325341 -0.252259,-0.2459017 -0.137119,0.0306511 -0.191817,0.1843317 -0.268595,0.286321 -0.06192,0.0844559 -0.122503,0.2172171 -0.2441,0.2120167 -0.142977,-0.051623 -0.197003,-0.214963 -0.283721,-0.3270047 -0.05524,-0.0814324 -0.144238,-0.2167348 -0.258271,-0.1539489 -0.171685,0.121188 -0.215635,0.3607909 -0.395508,0.4724853 -0.119837,0.0428758 -0.196341,-0.0961517 -0.254424,-0.1776151 -0.08173,-0.107903 -0.13578,-0.2625276 -0.27292,-0.3108304 -0.128056,-0.0036467 -0.188604,0.138519 -0.253947,0.2272797 -0.07274,0.0977849 -0.127416,0.2430468 -0.258748,0.271058 -0.131975,-0.0149122 -0.188494,-0.1612884 -0.25882,-0.2560902 -0.06792,-0.0911245 -0.125002,-0.2338552 -0.253875,-0.2434855 -0.137657,0.0350099 -0.192109,0.1894528 -0.270282,0.2932215 -0.06181,0.0846407 -0.131226,0.2292443 -0.257062,0.2003233 -0.155287,-0.085035 -0.210308,-0.2710802 -0.322266,-0.3995295 -0.0482,-0.0775765 -0.161494,-0.1338251 -0.234375,-0.0535029 -0.145306,0.1305568 -0.195905,0.3464555 -0.366211,0.4504259 -0.122035,0.0387512 -0.196249,-0.1025195 -0.255588,-0.1849817 -0.08038,-0.106768 -0.134605,-0.2608248 -0.271756,-0.3051897 -0.129447,6.11e-4 -0.188786,0.1445732 -0.255517,0.2346841 -0.07134,0.0962989 -0.126516,0.2405261 -0.257178,0.2642248 -0.134845,-0.0200466 -0.190676,-0.1705485 -0.263672,-0.2682754 -0.06535,-0.0884171 -0.123412,-0.2262811 -0.249023,-0.2311288 -0.138062,0.0391844 -0.19232,0.1945997 -0.271894,0.2998955 -0.06047,0.0834163 -0.131841,0.2254647 -0.25545,0.1923159 -0.189133,-0.1081185 -0.228992,-0.3615562 -0.410156,-0.4795313 -0.117093,-0.0522253 -0.198964,0.084859 -0.255647,0.1658534 -0.08269,0.109655 -0.136888,0.2620776 -0.271697,0.3179165 -0.127908,0.0134508 -0.191274,-0.1307544 -0.255527,-0.2176429 -0.07349,-0.0997039 -0.127653,-0.2425063 -0.257168,-0.2786975 -0.132844,0.0055708 -0.191043,0.1544889 -0.260426,0.2472719 -0.06887,0.0927846 -0.124356,0.2336729 -0.25227,0.252037 -0.137559,-0.0253095 -0.19277,-0.1796492 -0.26856,-0.2803548 -0.0643,-0.0869087 -0.129649,-0.2345525 -0.258783,-0.2156428 -0.147872,0.0698168 -0.202549,0.2425667 -0.300032,0.3635419 -0.04934,0.0759413 -0.147442,0.1786587 -0.24196,0.1082026 -0.164612,-0.1259374 -0.209322,-0.3635557 -0.391997,-0.4684899 -0.121616,-0.0331068 -0.192814,0.1061279 -0.252535,0.1882498 -0.07831,0.1055362 -0.132423,0.2523902 -0.263672,0.3021943 -0.127458,0.009225 -0.18961,-0.1330242 -0.253989,-0.2205325 -0.07359,-0.0991668 -0.127863,-0.2438161 -0.258706,-0.2767777 -0.131984,0.0094967 -0.189492,0.1564094 -0.258852,0.2498598 -0.06887,0.0924822 -0.124951,0.2347485 -0.253843,0.2496778 -0.138198,-0.0298434 -0.193026,-0.1850451 -0.270258,-0.2874073 -0.06289,-0.0857045 -0.129942,-0.2308428 -0.257086,-0.2076522 -0.150279,0.0758898 -0.205434,0.252804 -0.307617,0.3770613 -0.04812,0.0786878 -0.158408,0.1657718 -0.243925,0.0844707 -0.151475,-0.1282896 -0.201022,-0.3477437 -0.37131,-0.4559484 -0.120201,-0.044232 -0.197343,0.0956375 -0.255609,0.1774085 -0.08125,0.1080688 -0.13552,0.2611625 -0.271734,0.3104247 -0.128984,0.004983 -0.189729,-0.1392048 -0.255545,-0.2279523 -0.07232,-0.0973136 -0.126786,-0.2414805 -0.257151,-0.2701571 -0.134986,0.0146111 -0.191608,0.1657503 -0.263671,0.2620307 -0.06623,0.0898121 -0.123207,0.2274189 -0.249024,0.2375641 -0.138716,-0.0341023 -0.193212,-0.1903185 -0.27185,-0.2942171 -0.06157,-0.0843835 -0.130402,-0.2272347 -0.255494,-0.1997346 -0.155674,0.0840793 -0.210734,0.2701463 -0.322265,0.3986639 -0.04806,0.0773246 -0.160773,0.1355169 -0.234375,0.0555416 -0.145766,-0.130308 -0.196367,-0.3461565 -0.366211,-0.4508545 -0.120732,-0.0401538 -0.195771,0.0995501 -0.254376,0.1813386 -0.08123,0.107523 -0.135355,0.2623575 -0.272968,0.3082762 -0.128328,0.001145 -0.188052,-0.1416379 -0.253913,-0.230616 -0.0724,-0.0968112 -0.12721,-0.2428117 -0.258782,-0.2681216 -0.133862,0.0183936 -0.189924,0.1672704 -0.262031,0.2641052 -0.06616,0.0892958 -0.123915,0.228979 -0.250665,0.2353752 -0.141148,-0.0393596 -0.195177,-0.1993415 -0.276918,-0.3061113 -0.05908,-0.081675 -0.129936,-0.2184426 -0.250425,-0.1865633 -0.184212,0.1053824 -0.228148,0.3457779 -0.395508,0.4708392 -0.10669,0.0717171 -0.203214,-0.0536767 -0.255852,-0.1339566 -0.08945,-0.1157613 -0.144328,-0.2784139 -0.28614,-0.340516 -0.12668,-0.0148449 -0.190645,0.1273478 -0.254041,0.2136625 -0.07442,0.1005161 -0.128418,0.2445599 -0.258655,0.2823169 -0.12962,-0.003377 -0.188309,-0.1472019 -0.255517,-0.2379899 -0.0709,-0.0955859 -0.126389,-0.2400872 -0.257178,-0.2612048 -0.134719,0.0227152 -0.19022,0.1728889 -0.263672,0.2713368 -0.06488,0.087903 -0.123576,0.2257103 -0.249023,0.2278579 -0.141237,-0.0438288 -0.195572,-0.2037838 -0.278321,-0.3125935 -0.05812,-0.0803345 -0.130734,-0.214587 -0.249023,-0.1786353 -0.188016,0.1096903 -0.227852,0.3630277 -0.410156,0.4797497 -0.118176,0.049596 -0.198429,-0.0885134 -0.255634,-0.1697304 -0.08213,-0.1092754 -0.136463,-0.2616974 -0.27171,-0.3154677 -0.128318,-0.0106211 -0.190744,0.1336243 -0.255539,0.2211079 -0.07316,0.0987273 -0.127284,0.2422984 -0.257156,0.2758979 -0.13291,-0.00836 -0.190572,-0.1570055 -0.26039,-0.2505161 -0.06833,-0.0925964 -0.124413,-0.2328651 -0.252306,-0.2489643 -0.135449,0.0270259 -0.190315,0.1785013 -0.265316,0.2782742 -0.06356,0.0860001 -0.123301,0.2228003 -0.247379,0.2204634 -0.14345,-0.0491919 -0.19756,-0.2126546 -0.283672,-0.3243623 -0.05576,-0.0815264 -0.142975,-0.2183302 -0.25832,-0.1580298 -0.172762,0.1201232 -0.216706,0.3595923 -0.395508,0.4727182 -0.119742,0.045604 -0.197555,-0.0939192 -0.255659,-0.1754696 -0.08138,-0.1084547 -0.135727,-0.2613099 -0.271685,-0.3117325 -0.127754,-0.0064132 -0.18916,0.1357574 -0.253921,0.2239512 -0.07331,0.0981926 -0.12762,0.2435677 -0.258774,0.2739107 -0.133942,-0.0129643 -0.190863,-0.1624064 -0.262019,-0.2578229 -0.06707,-0.0906957 -0.123768,-0.2300666 -0.250676,-0.2417719 -0.138047,0.0322471 -0.192404,0.1875706 -0.27027,0.290336 -0.06235,0.0851607 -0.130558,0.2300634 -0.257074,0.2040038 -0.152862,-0.0805785 -0.207937,-0.262049 -0.315024,-0.3885105 -0.04805,-0.0799465 -0.162919,-0.1504242 -0.241617,-0.0668509 -0.146268,0.1299891 -0.196889,0.3456824 -0.366211,0.451266 -0.121142,0.0415046 -0.196796,-0.0991084 -0.255598,-0.1812085 -0.08082,-0.1074091 -0.135022,-0.2610962 -0.271745,-0.3078309 -0.129231,-0.0021733 -0.189271,0.1419009 -0.255518,0.2313435 -0.0718,0.0969233 -0.126704,0.2408173 -0.257178,0.2672036 -0.132954,-0.0165157 -0.189026,-0.1644392 -0.260458,-0.2599383 -0.06684,-0.090404 -0.124428,-0.2315375 -0.252237,-0.2395993 -0.136576,0.0357606 -0.190921,0.1887324 -0.268638,0.2921259 -0.06098,0.0832051 -0.123214,0.2157432 -0.244057,0.2051843 -0.142604,-0.0568679 -0.196957,-0.2202625 -0.285105,-0.3342249 -0.0541,-0.0807631 -0.146547,-0.2109529 -0.256888,-0.1436332 -0.169478,0.1233089 -0.213499,0.3630477 -0.395507,0.4718051 -0.121653,0.0372791 -0.195053,-0.1026319 -0.25433,-0.185037 -0.08091,-0.1065895 -0.134887,-0.2623223 -0.273014,-0.3056724 -0.132714,0.0027921 -0.191597,0.1517393 -0.260425,0.2440202 -0.06929,0.0936839 -0.12447,0.2339859 -0.25227,0.2550411 -0.135817,-0.0216779 -0.191299,-0.1737919 -0.265316,-0.2723093 -0.06453,-0.0871288 -0.122867,-0.2239738 -0.24738,-0.2269996 -0.140685,0.0420834 -0.194861,0.2011428 -0.276946,0.3089002 -0.05855,0.0812315 -0.130723,0.2174375 -0.250397,0.1828292 -0.188547,-0.1089538 -0.228389,-0.3623351 -0.410157,-0.4796496 -0.117672,-0.0509367 -0.198628,0.0867391 -0.255689,0.1677623 -0.08225,0.1096517 -0.136688,0.2618428 -0.271654,0.3167309 -0.12705,0.0120039 -0.190219,-0.1301485 -0.253938,-0.217162 -0.0742,-0.0995447 -0.128145,-0.2442964 -0.258758,-0.2795206 -0.129757,0.0060965 -0.187808,0.1499263 -0.255517,0.2412604 -0.07045,0.0948704 -0.126298,0.2396405 -0.257178,0.2581438 -0.134558,-0.0253491 -0.189769,-0.175191 -0.263672,-0.2743568 -0.06443,-0.0872257 -0.123784,-0.2251057 -0.249023,-0.2245521 -0.140804,0.0462857 -0.195107,0.205812 -0.278321,0.3152757 -0.05755,0.0799122 -0.131643,0.2135336 -0.249023,0.1748957 -0.186868,-0.1112269 -0.22671,-0.364432 -0.410156,-0.4798954 -0.119213,-0.0469304 -0.197888,0.0921061 -0.255622,0.1735823 -0.08186,0.108444 -0.135884,0.2615716 -0.271722,0.3129703 -0.128662,0.007789 -0.190259,-0.1364213 -0.255521,-0.2245598 -0.07265,-0.0983274 -0.127121,-0.2416724 -0.257175,-0.2730357 -0.132975,0.0110977 -0.190018,0.1595406 -0.260436,0.253674 -0.06781,0.0917656 -0.124349,0.2325341 -0.252256,0.2459017 -0.13712,-0.0306511 -0.19182,-0.1843317 -0.2686,-0.286321 -0.06192,-0.0844559 -0.1225,-0.2172171 -0.2441,-0.2120167 -0.14297,0.051623 -0.197,0.214963 -0.28372,0.3270047 -0.05524,0.0814324 -0.14424,0.2167348 -0.25827,0.1539489 -0.17168,-0.121188 -0.21564,-0.3607909 -0.39551,-0.4724853 -0.11984,-0.0428758 -0.19634,0.0961517 -0.25442,0.1776151 -0.08173,0.107903 -0.13578,0.2625276 -0.27292,0.3108304 -0.12806,0.003647 -0.18861,-0.138519 -0.25395,-0.2272798 -0.07274,-0.0977848 -0.12741,-0.2430467 -0.25875,-0.2710579 -0.13197,0.0149122 -0.18849,0.1612884 -0.25882,0.2560902 -0.06791,0.0911245 -0.125,0.2338552 -0.25387,0.2434855 -0.13766,-0.0350099 -0.19211,-0.1894528 -0.27028,-0.2932215 -0.06181,-0.0846407 -0.13123,-0.2292443 -0.25707,-0.2003233 -0.15528,0.085035 -0.2103,0.2710802 -0.32226,0.3995295 -0.0482,0.0775765 -0.1615,0.1338251 -0.23438,0.0535029 -0.1453,-0.1305568 -0.1959,-0.3464556 -0.36621,-0.4504259 -0.12203,-0.0387512 -0.19625,0.1025195 -0.25559,0.1849817 -0.08037,0.106768 -0.1346,0.2608248 -0.27175,0.3051897 -0.12945,-6.11e-4 -0.18879,-0.1445732 -0.25552,-0.2346841 -0.07134,-0.0962989 -0.12651,-0.2405261 -0.25718,-0.2642248 -0.13484,0.0200466 -0.19067,0.1705485 -0.26367,0.2682754 -0.06535,0.0884171 -0.12341,0.2262811 -0.24902,0.2311288 -0.13806,-0.0391845 -0.19232,-0.1945997 -0.2719,-0.2998956 -0.06046,-0.0834163 -0.13184,-0.2254646 -0.25545,-0.1923158 -0.18913,0.1081185 -0.22899,0.3615562 -0.41015,0.4795313 -0.1171,0.0522253 -0.19897,-0.084859 -0.25565,-0.1658534 -0.08269,-0.1096549 -0.13689,-0.2620776 -0.2717,-0.3179165 -0.1279,-0.0134508 -0.19127,0.1307544 -0.25552,0.2176429 -0.07349,0.0997039 -0.12766,0.2425063 -0.25717,0.2786975 -0.13284,-0.005571 -0.19104,-0.1544889 -0.26043,-0.2472719 -0.06887,-0.0927846 -0.12435,-0.2336729 -0.25227,-0.252037 -0.13756,0.0253095 -0.19277,0.1796492 -0.26856,0.2803548 -0.0643,0.0869087 -0.12965,0.2345525 -0.25878,0.2156428 -0.14787,-0.0698168 -0.20255,-0.2425667 -0.30003,-0.3635419 -0.04934,-0.0759413 -0.14744,-0.1786587 -0.24196,-0.1082026 -0.16461,0.1259374 -0.20932,0.3635557 -0.392,0.4684899 -0.12162,0.0331068 -0.19281,-0.1061279 -0.25253,-0.1882498 -0.07831,-0.1055362 -0.13243,-0.2523902 -0.26368,-0.3021943 -0.12745,-0.0092253 -0.18961,0.1330242 -0.25399,0.2205325 -0.07359,0.0991668 -0.12786,0.2438161 -0.2587,0.2767777 C 9.92681,0.54085239 9.8693,0.39393969 9.79994,0.30048929 9.73106,0.20800709 9.67499,0.06574079 9.54609,0.05081149 9.4079,0.08065489 9.35307,0.23585659 9.27584,0.33821879 9.21294,0.42392329 9.14589,0.56906159 9.01875,0.54587099 8.86847,0.46998119 8.81332,0.29306699 8.71113,0.16880969 8.66301,0.09012199 8.55272,0.00303789 8.46721,0.08433899 8.31573,0.21262859 8.26619,0.43208269 8.0959,0.54028739 7.9757,0.58451939 7.89855,0.44464999 7.84029,0.36287899 7.75903,0.25481019 7.70477,0.10171639 7.56855,0.05245429 7.43957,0.04747059 7.37883,0.19165899 7.31301,0.28040629 7.24069,0.37771989 7.18622,0.52188679 7.05586,0.55056359 6.92087,0.53595269 6.86425,0.38481359 6.79219,0.28853329 6.72596,0.19872109 6.66898,0.06111449 6.54316,0.05096879 6.40445,0.08507049 6.34995,0.24128679 6.27131,0.34518509 6.20975,0.42956869 6.14091,0.57241969 6.01582,0.54492079 5.86015,0.46084279 5.80509,0.27477589 5.69355,0.14625859 5.6455,0.06893469 5.53278,0.01073899 5.45918,0.09071299 5.31341,0.22102009 5.26281,0.43686679 5.09297,0.54156759 4.97224,0.58172769 4.8972,0.44202789 4.83859,0.36024069 4.75737,0.25271559 4.70324,0.09788569 4.56562,0.05195639 4.4373,0.05079479 4.37757,0.19357299 4.31171,0.28254599 4.23931,0.37936339 4.1845,0.52535299 4.05293,0.55069149 3.91907,0.53233759 3.863,0.38346879 3.7909,0.28664809 3.72473,0.19733699 3.66698,0.05767639 3.54023,0.05120599 3.39908,0.09047229 3.34504,0.25044169 3.26332,0.35717719 3.2042,0.43887639 3.13342,0.57562129 3.01289,0.54393989 2.8486,0.45020149 2.79536,0.24853659 2.66776,0.11705329 2.61469,0.03961839 2.49974,0.02893239 2.4416,0.10658299 2.30815,0.23830589 2.25514,0.44342549 2.09004,0.54249749 1.96756,0.57935119 1.89428,0.43851159 1.83445,0.35565689 1.75425,0.24917369 1.69978,0.09545789 1.5627,0.05175239 1.43358,0.05250869 1.37391,0.19558729 1.30716,0.28549699 1.23558,0.38210479 1.18012,0.52502059 1.05,0.55073519 c 0,2.33333331 0,4.66666671 0,7.00000001 C 1.18787,7.5215505 1.2433,7.3674165 1.32027,7.2653127 1.38374,7.179221 1.44995,7.0349111 1.57734,7.0549059 1.72484,7.1253001 1.78,7.2971109 1.87738,7.4183189 1.92683,7.4941445 2.02473,7.5967411 2.11934,7.5266964 2.28414,7.400965 2.32905,7.1637258 2.51131,7.0582356 2.63163,7.0242053 2.70356,7.1615621 2.76244,7.2431464 2.84166,7.349555 2.89577,7.4969818 3.02754,7.5482495 3.15587,7.5586792 3.21825,7.4144815 3.28308,7.3269644 3.35623,7.2282712 3.41036,7.0847177 3.54023,7.051206 3.67314,7.0596424 3.73079,7.2082635 3.80062,7.3017903 3.86895,7.3943722 3.92504,7.5346308 4.05293,7.5506915 4.18837,7.5236362 4.24324,7.3721712 4.31825,7.2723916 4.3818,7.1863972 4.44155,7.0496033 4.56562,7.0519564 4.70907,7.1011592 4.76318,7.2646174 4.8493,7.3763273 4.90506,7.4578529 4.99228,7.5946499 5.10762,7.5343444 5.28038,7.4142194 5.32432,7.1747514 5.50312,7.0616276 5.62287,7.0160266 5.70068,7.1555498 5.75878,7.2371004 5.84017,7.3455545 5.89451,7.4984098 6.03047,7.5488309 6.15822,7.5552428 6.21963,7.4130725 6.28439,7.3248785 6.3577,7.2266862 6.41201,7.0813111 6.54316,7.0509688 6.67711,7.0639335 6.73403,7.2133754 6.80518,7.3087921 6.87225,7.3994876 6.92895,7.5388586 7.05586,7.5505636 7.19391,7.5183163 7.24826,7.3629929 7.32613,7.2602274 7.38848,7.1750667 7.45669,7.0301642 7.5832,7.0562238 7.73606,7.1368024 7.79114,7.3182729 7.89823,7.4447344 7.94628,7.5246809 8.06115,7.5951585 8.13984,7.5115851 8.28611,7.381596 8.33673,7.1659028 8.50605,7.0603192 c 0.12115,-0.041505 0.1968,0.099108 0.2556,0.1812085 0.08083,0.107409 0.13503,0.2610962 0.27175,0.3078309 0.12923,0.00217 0.18927,-0.1419009 0.25552,-0.2313435 0.07179,-0.096923 0.1267,-0.2408174 0.25717,-0.2672036 0.13296,0.016516 0.18903,0.1644393 0.26046,0.2599383 0.06684,0.090404 0.12443,0.2315375 0.25224,0.2395993 0.13658,-0.035761 0.19092,-0.1887324 0.26864,-0.2921259 0.06098,-0.083205 0.12321,-0.2157432 0.24405,-0.2051843 0.14261,0.056868 0.19696,0.2202624 0.28511,0.3342249 0.0541,0.080763 0.14655,0.2109529 0.25689,0.1436332 0.16947,-0.1233089 0.2135,-0.3630477 0.3955,-0.4718051 0.12166,-0.037279 0.19506,0.1026319 0.25433,0.185037 0.08091,0.1065895 0.13489,0.2623222 0.27302,0.3056724 0.13271,-0.00279 0.19159,-0.1517393 0.26042,-0.2440203 0.06929,-0.093684 0.12447,-0.2339858 0.25227,-0.255041 0.13582,0.021678 0.1913,0.1737919 0.26532,0.2723093 0.06453,0.087129 0.12287,0.2239739 0.24738,0.2269996 0.14068,-0.042084 0.19486,-0.2011428 0.27694,-0.3089002 0.05856,-0.081232 0.13073,-0.2174375 0.2504,-0.1828292 0.18855,0.1089538 0.22839,0.3623352 0.41016,0.4796496 0.11767,0.050937 0.19863,-0.086739 0.25569,-0.1677623 0.08224,-0.1096517 0.13669,-0.2618428 0.27165,-0.3167309 0.12705,-0.012004 0.19022,0.1301485 0.25394,0.217162 0.0742,0.099545 0.12814,0.2442964 0.25876,0.2795206 0.12975,-0.0061 0.18781,-0.1499263 0.25552,-0.2412604 0.07045,-0.09487 0.12629,-0.2396405 0.25717,-0.2581438 0.13456,0.025349 0.18977,0.175191 0.26367,0.2743568 0.06444,0.087226 0.12379,0.2251057 0.24903,0.2245521 0.1408,-0.046286 0.1951,-0.205812 0.27832,-0.3152757 0.05754,-0.079912 0.13164,-0.2135336 0.24902,-0.1748957 0.18687,0.1112269 0.22671,0.364432 0.41016,0.4798954 0.11921,0.04693 0.19789,-0.092106 0.25562,-0.1735823 0.08186,-0.108444 0.13588,-0.2615716 0.27172,-0.3129703 0.12866,-0.00779 0.19026,0.1364213 0.25552,0.2245598 0.07266,0.098327 0.12712,0.2416724 0.25718,0.2730357 0.13297,-0.011098 0.19002,-0.1595406 0.26043,-0.253674 0.06782,-0.091766 0.12435,-0.2325341 0.25226,-0.2459017 0.13712,0.030651 0.19182,0.1843317 0.2686,0.286321 0.06192,0.084456 0.1225,0.2172171 0.2441,0.2120167 0.14297,-0.051623 0.197,-0.2149629 0.28372,-0.3270047 0.05524,-0.081432 0.14424,-0.2167348 0.25827,-0.1539489 0.17168,0.121188 0.21564,0.3607909 0.39551,0.4724853 0.11984,0.042876 0.19634,-0.096152 0.25442,-0.1776151 0.08173,-0.1079029 0.13578,-0.2625277 0.27292,-0.3108304 0.12806,-0.00365 0.18861,0.138519 0.25395,0.2272797 0.07274,0.097785 0.12741,0.2430468 0.25875,0.271058 0.131972,-0.014912 0.188491,-0.1612884 0.258817,-0.2560903 0.06792,-0.091125 0.125002,-0.233855 0.253875,-0.2434854 0.137657,0.03501 0.192109,0.1894528 0.270282,0.2932215 0.06181,0.084641 0.131226,0.2292444 0.257062,0.2003233 0.155287,-0.085035 0.210309,-0.2710801 0.322266,-0.3995295 0.0482,-0.077576 0.161494,-0.1338252 0.234375,-0.053503 0.145306,0.1305568 0.195905,0.3464555 0.366211,0.4504259 0.122035,0.038751 0.196249,-0.1025195 0.255588,-0.1849817 0.08038,-0.106768 0.134605,-0.2608248 0.271756,-0.3051897 0.129447,6.11e-4 0.188786,0.1445732 0.255517,0.2346841 0.07134,0.096299 0.126516,0.2405261 0.257178,0.2642248 0.134845,-0.020047 0.190676,-0.1705485 0.263672,-0.2682754 0.06535,-0.088417 0.123412,-0.2262811 0.249023,-0.2311288 0.138062,0.039185 0.19232,0.1945997 0.271894,0.2998956 0.06047,0.083416 0.131841,0.2254646 0.25545,0.1923158 0.189133,-0.1081185 0.228992,-0.3615562 0.410156,-0.4795313 0.117093,-0.052225 0.198964,0.084859 0.255647,0.1658534 0.08269,0.1096549 0.136888,0.2620776 0.271697,0.3179165 0.127908,0.013451 0.191274,-0.1307544 0.255527,-0.2176429 0.07349,-0.099704 0.127653,-0.2425065 0.257168,-0.2786975 0.132844,0.00557 0.191043,0.1544889 0.260426,0.2472719 0.06887,0.092785 0.124356,0.2336729 0.25227,0.252037 0.137559,-0.025309 0.19277,-0.1796492 0.26856,-0.2803548 0.06431,-0.086909 0.129649,-0.2345526 0.258783,-0.2156428 0.147872,0.069817 0.202549,0.2425667 0.300032,0.3635419 0.04934,0.075941 0.147442,0.1786587 0.24196,0.1082026 0.164612,-0.1259374 0.209322,-0.3635557 0.391997,-0.4684899 0.121616,-0.033107 0.192814,0.106128 0.252535,0.1882498 0.07831,0.1055362 0.132423,0.2523901 0.263672,0.3021943 0.127458,0.00923 0.18961,-0.1330242 0.253989,-0.2205325 0.07359,-0.099167 0.127863,-0.2438161 0.258706,-0.2767777 0.131984,0.0095 0.189492,0.1564095 0.258852,0.2498598 0.06887,0.092482 0.124951,0.2347486 0.253843,0.2496778 0.138198,-0.029844 0.193026,-0.1850451 0.270258,-0.2874073 0.06289,-0.085704 0.129942,-0.2308428 0.257086,-0.2076522 0.150279,0.07589 0.205434,0.2528039 0.307617,0.3770613 0.04812,0.078688 0.158408,0.1657718 0.243925,0.084471 0.151475,-0.1282896 0.201022,-0.3477437 0.37131,-0.4559484 0.120201,-0.044232 0.197343,0.095638 0.255609,0.1774085 0.08126,0.1080688 0.13552,0.2611625 0.271734,0.3104247 0.128984,0.00498 0.189729,-0.1392048 0.255545,-0.2279523 0.07232,-0.097314 0.126786,-0.2414805 0.257151,-0.2701571 0.134986,0.014611 0.191608,0.1657503 0.263671,0.2620307 0.06623,0.089812 0.123207,0.2274188 0.249024,0.2375641 0.138716,-0.034102 0.193212,-0.1903185 0.27185,-0.2942172 0.06157,-0.084383 0.130402,-0.2272346 0.255494,-0.1997345 0.155674,0.084079 0.210734,0.2701463 0.322265,0.3986639 0.04806,0.077325 0.160773,0.1355169 0.234375,0.055542 0.145766,-0.130308 0.196367,-0.3461565 0.366211,-0.4508545 0.120732,-0.040154 0.195771,0.09955 0.254376,0.1813387 0.08122,0.107523 0.135355,0.2623573 0.272968,0.3082761 0.128328,0.00115 0.188052,-0.141638 0.253913,-0.230616 0.0724,-0.096811 0.12721,-0.2428117 0.258782,-0.2681216 0.133862,0.018394 0.189924,0.1672704 0.262031,0.2641052 0.06616,0.089296 0.123915,0.228979 0.250665,0.2353752 0.141148,-0.03936 0.195177,-0.1993415 0.276918,-0.3061113 0.05908,-0.081675 0.129936,-0.2184426 0.250425,-0.1865633 0.184212,0.1053824 0.228148,0.3457779 0.395508,0.4708392 0.10669,0.071717 0.203214,-0.053677 0.255852,-0.1339566 0.08945,-0.1157612 0.144328,-0.278414 0.28614,-0.340516 0.12668,-0.014845 0.190645,0.1273478 0.254041,0.2136624 0.07442,0.1005162 0.128418,0.24456 0.258655,0.282317 0.12962,-0.00338 0.188309,-0.1472019 0.255517,-0.2379899 0.0709,-0.095586 0.126389,-0.2400872 0.257178,-0.2612048 0.134719,0.022715 0.19022,0.1728889 0.263672,0.2713368 0.06488,0.087903 0.123576,0.2257103 0.249023,0.2278579 0.141237,-0.043829 0.195572,-0.2037838 0.278321,-0.3125935 0.05812,-0.080335 0.130734,-0.214587 0.249023,-0.1786353 0.188016,0.1096903 0.227852,0.3630276 0.410156,0.4797497 0.118176,0.049596 0.198429,-0.088513 0.255634,-0.1697304 0.08213,-0.1092754 0.136463,-0.2616974 0.27171,-0.3154677 0.128318,-0.010621 0.190744,0.1336243 0.255539,0.2211079 0.07317,0.098727 0.127284,0.2422984 0.257156,0.2758979 0.13291,-0.00836 0.190572,-0.1570055 0.26039,-0.250516 0.06833,-0.092596 0.124413,-0.2328652 0.252306,-0.2489644 0.135449,0.027026 0.190315,0.1785013 0.265316,0.2782742 0.06356,0.086 0.123301,0.2228003 0.247379,0.2204634 0.14345,-0.049192 0.19756,-0.2126546 0.283672,-0.3243622 0.05576,-0.081526 0.142975,-0.2183303 0.25832,-0.1580299 0.172762,0.1201232 0.216706,0.3595923 0.395508,0.4727182 0.119742,0.045604 0.197555,-0.093919 0.255659,-0.1754696 0.08138,-0.1084546 0.135727,-0.26131 0.271685,-0.3117325 0.127754,-0.00641 0.18916,0.1357574 0.253921,0.2239512 0.07331,0.098193 0.12762,0.2435678 0.258774,0.2739107 0.133942,-0.012964 0.190863,-0.1624064 0.262019,-0.2578229 0.06707,-0.090696 0.123768,-0.2300666 0.250676,-0.2417719 0.138047,0.032247 0.192404,0.1875706 0.27027,0.290336 0.06235,0.085161 0.130558,0.2300634 0.257074,0.2040038 0.152862,-0.080579 0.207937,-0.262049 0.315024,-0.3885105 0.04805,-0.079947 0.162919,-0.1504241 0.241617,-0.066851 0.146268,0.1299892 0.196889,0.3456824 0.366211,0.451266 0.121142,0.041505 0.196796,-0.099108 0.255598,-0.1812085 0.08082,-0.1074091 0.135022,-0.2610962 0.271745,-0.3078309 0.129231,-0.00217 0.189271,0.1419009 0.255518,0.2313435 0.07179,0.096923 0.126704,0.2408174 0.257178,0.2672036 0.132954,-0.016516 0.189027,-0.1644393 0.260458,-0.2599383 0.06684,-0.090404 0.124428,-0.2315375 0.252237,-0.2395993 0.136576,0.035761 0.190921,0.1887324 0.268638,0.2921259 0.06098,0.083205 0.123214,0.2157432 0.244057,0.2051843 0.142604,-0.056868 0.196957,-0.2202624 0.285105,-0.3342249 0.0541,-0.080763 0.146547,-0.2109529 0.256888,-0.1436332 0.169478,0.1233089 0.213499,0.3630477 0.395507,0.4718051 0.121653,0.037279 0.195053,-0.1026319 0.25433,-0.185037 0.08091,-0.1065895 0.134887,-0.2623223 0.273014,-0.3056724 0.132714,0.00279 0.191597,0.1517393 0.260425,0.2440202 0.06929,0.093684 0.12447,0.2339859 0.25227,0.2550411 0.135817,-0.021678 0.191299,-0.1737919 0.265316,-0.2723093 0.06453,-0.087129 0.122867,-0.2239739 0.24738,-0.2269996 0.140685,0.042084 0.194861,0.2011428 0.276946,0.3089002 0.05855,0.081232 0.130723,0.2174375 0.250397,0.1828292 0.188547,-0.1089538 0.228389,-0.3623352 0.410157,-0.4796496 0.117672,-0.050937 0.198628,0.086739 0.255689,0.1677623 0.08225,0.1096517 0.136688,0.2618428 0.271654,0.3167309 0.12705,0.012004 0.190219,-0.1301485 0.253938,-0.217162 0.0742,-0.099545 0.128145,-0.2442964 0.258758,-0.2795206 0.129757,0.0061 0.187808,0.1499262 0.255517,0.2412604 0.07045,0.09487 0.126298,0.2396405 0.257178,0.2581438 0.134558,-0.025349 0.189769,-0.175191 0.263672,-0.2743568 0.06443,-0.087226 0.123784,-0.2251057 0.249023,-0.2245521 0.140804,0.046286 0.195107,0.205812 0.278321,0.3152757 0.05754,0.079912 0.131643,0.2135336 0.249023,0.1748957 0.186868,-0.1112269 0.22671,-0.364432 0.410156,-0.4798954 0.119213,-0.04693 0.197888,0.092106 0.255622,0.1735823 0.08186,0.108444 0.135884,0.2615716 0.271722,0.3129703 0.128662,0.00779 0.19026,-0.1364213 0.255521,-0.2245598 0.07265,-0.098327 0.127121,-0.2416724 0.257175,-0.2730357 0.132975,0.011098 0.190018,0.1595406 0.260436,0.253674 0.06781,0.091766 0.124349,0.2325341 0.252259,0.2459017 0.137119,-0.030651 0.191817,-0.1843317 0.268595,-0.286321 0.06192,-0.084456 0.122503,-0.2172171 0.2441,-0.2120167 0.142977,0.051623 0.197003,0.2149629 0.283721,0.3270047 0.05524,0.081432 0.144238,0.2167348 0.258271,0.1539489 0.171685,-0.121188 0.215635,-0.3607909 0.395508,-0.4724853 0.119837,-0.042876 0.196341,0.096152 0.254424,0.1776151 0.08173,0.1079029 0.13578,0.2625277 0.27292,0.3108304 0.128056,0.00365 0.188604,-0.138519 0.253947,-0.2272797 0.07274,-0.097785 0.127416,-0.2430468 0.258748,-0.271058 0.131975,0.014912 0.188494,0.1612884 0.25882,0.2560902 0.06792,0.091125 0.125002,0.2338551 0.253875,0.2434855 0.137657,-0.03501 0.192109,-0.1894528 0.270282,-0.2932215 0.06181,-0.084641 0.131226,-0.2292443 0.257062,-0.2003233 0.155287,0.085035 0.210308,0.2710802 0.322266,0.3995295 0.0482,0.077577 0.161494,0.1338251 0.234375,0.053503 0.145306,-0.1305568 0.195905,-0.3464556 0.366211,-0.4504259 0.122035,-0.038751 0.196249,0.1025195 0.255588,0.1849817 0.08038,0.106768 0.134605,0.2608248 0.271756,0.3051897 0.129447,-6.11e-4 0.188786,-0.1445732 0.255517,-0.2346841 0.07134,-0.096299 0.126516,-0.2405261 0.257178,-0.2642248 0.134845,0.020047 0.190676,0.1705486 0.263672,0.2682754 0.06535,0.088417 0.123412,0.2262811 0.249023,0.2311288 0.138062,-0.039184 0.19232,-0.1945997 0.271894,-0.2998956 0.06047,-0.083416 0.131841,-0.2254646 0.25545,-0.1923158 0.189133,0.1081185 0.228992,0.3615562 0.410156,0.4795313 0.117093,0.052225 0.198964,-0.084859 0.255647,-0.1658534 0.08269,-0.1096549 0.136888,-0.2620776 0.271697,-0.3179165 0.127908,-0.013451 0.191274,0.1307544 0.255527,0.2176429 0.07349,0.099704 0.127653,0.2425063 0.257168,0.2786975 0.132844,-0.00557 0.191043,-0.154489 0.260426,-0.2472719 0.06887,-0.092785 0.124356,-0.2336729 0.25227,-0.252037 0.137559,0.025309 0.19277,0.1796492 0.26856,0.2803548 0.0643,0.086909 0.129649,0.2345525 0.258783,0.2156428 0.147872,-0.069817 0.202549,-0.2425667 0.300032,-0.3635419 0.04934,-0.075941 0.147442,-0.1786587 0.24196,-0.1082026 0.164612,0.1259374 0.209322,0.3635557 0.391997,0.4684899 0.121616,0.033107 0.192814,-0.106128 0.252535,-0.1882498 0.07831,-0.1055362 0.132423,-0.2523901 0.263672,-0.3021943 0.127458,-0.00923 0.18961,0.1330242 0.253989,0.2205325 0.07359,0.099167 0.127863,0.2438161 0.258706,0.2767777 0.131984,-0.0095 0.189492,-0.1564095 0.258852,-0.2498598 0.06887,-0.092482 0.124951,-0.2347486 0.253843,-0.2496778 0.138198,0.029844 0.193026,0.1850451 0.270258,0.2874073 0.06289,0.085704 0.129942,0.2308428 0.257086,0.2076522 0.150279,-0.07589 0.205434,-0.2528039 0.307617,-0.3770613 0.04813,-0.078688 0.158408,-0.1657719 0.243925,-0.084471 0.151475,0.1282896 0.201022,0.3477437 0.37131,0.4559484 0.120201,0.044232 0.197343,-0.095638 0.255609,-0.1774085 0.08125,-0.1080688 0.13552,-0.2611625 0.271734,-0.3104247 0.128984,-0.00498 0.189729,0.1392049 0.255545,0.2279523 0.07232,0.097314 0.126786,0.2414805 0.257151,0.2701571 0.134986,-0.014611 0.191608,-0.1657503 0.263671,-0.2620307 0.06623,-0.089812 0.123207,-0.2274188 0.249024,-0.2375641 0.138716,0.034102 0.193212,0.1903185 0.27185,0.2942171 0.06157,0.084384 0.130402,0.2272347 0.255494,0.1997346 0.155674,-0.084079 0.210734,-0.2701463 0.322265,-0.3986639 0.04806,-0.077325 0.160773,-0.1355169 0.234375,-0.055542 0.145766,0.130308 0.196367,0.3461567 0.366211,0.4508545 0.120732,0.040154 0.195771,-0.09955 0.254376,-0.1813387 0.08123,-0.107523 0.135355,-0.2623573 0.272968,-0.3082761 0.128328,-0.00115 0.188052,0.1416379 0.253913,0.230616 0.0724,0.096811 0.12721,0.2428117 0.258782,0.2681216 0.133862,-0.018394 0.189924,-0.1672704 0.262031,-0.2641052 0.06616,-0.089296 0.123915,-0.228979 0.250665,-0.2353752 0.141148,0.03936 0.195177,0.1993415 0.276918,0.3061113 0.05908,0.081675 0.129936,0.2184426 0.250425,0.1865633 0.184212,-0.1053824 0.228148,-0.3457779 0.395508,-0.4708392 0.10669,-0.071717 0.203214,0.053677 0.255852,0.1339566 0.08945,0.1157613 0.144328,0.2784139 0.28614,0.340516 0.12668,0.014845 0.190645,-0.1273478 0.254041,-0.2136625 0.07442,-0.1005161 0.128418,-0.2445599 0.258655,-0.2823169 0.12962,0.00338 0.188309,0.1472019 0.255517,0.2379899 0.0709,0.095586 0.126389,0.2400872 0.257178,0.2612048 0.134719,-0.022715 0.19022,-0.1728889 0.263672,-0.2713368 0.06488,-0.087903 0.123576,-0.2257103 0.249023,-0.2278579 0.141237,0.043829 0.195572,0.2037838 0.278321,0.3125935 0.05812,0.080335 0.130734,0.2145869 0.249023,0.1786353 0.188016,-0.1096903 0.227852,-0.3630277 0.410156,-0.4797497 0.118176,-0.049596 0.198429,0.088513 0.255634,0.1697304 0.08213,0.1092755 0.136463,0.2616974 0.27171,0.3154677 0.128318,0.010621 0.190744,-0.1336243 0.255539,-0.2211079 0.07316,-0.098727 0.127284,-0.2422984 0.257156,-0.2758979 0.13291,0.00836 0.190572,0.1570055 0.26039,0.2505161 0.06833,0.092596 0.124413,0.2328651 0.252306,0.2489643 0.135449,-0.027026 0.190315,-0.1785013 0.265316,-0.2782742 0.06355,-0.086 0.123301,-0.2228003 0.247379,-0.2204634 0.14345,0.049192 0.19756,0.2126546 0.283672,0.3243622 0.05576,0.081526 0.142975,0.2183303 0.25832,0.1580299 0.172762,-0.1201232 0.216706,-0.3595923 0.395508,-0.4727182 0.119742,-0.045604 0.197555,0.093919 0.255659,0.1754696 0.08138,0.1084546 0.135727,0.26131 0.271685,0.3117325 0.127754,0.00641 0.18916,-0.1357574 0.253921,-0.2239512 0.07331,-0.098193 0.12762,-0.2435678 0.258774,-0.2739107 0.133942,0.012964 0.190863,0.1624064 0.262019,0.2578229 0.06707,0.090696 0.123768,0.2300666 0.250676,0.2417719 0.138047,-0.032247 0.192404,-0.1875705 0.27027,-0.290336 0.06235,-0.085161 0.130558,-0.2300634 0.257074,-0.2040038 0.152862,0.080578 0.207937,0.262049 0.315024,0.3885105 0.04805,0.079947 0.162919,0.1504242 0.241617,0.066851 0.146268,-0.1299891 0.196889,-0.3456824 0.366211,-0.451266 0.121142,-0.041505 0.196796,0.099108 0.255598,0.1812085 0.08082,0.1074091 0.135022,0.2610962 0.271745,0.3078309 0.129231,0.00217 0.189271,-0.1419009 0.255518,-0.2313435 0.07179,-0.096923 0.126704,-0.2408174 0.257178,-0.2672036 0.132954,0.016516 0.189027,0.1644393 0.260458,0.2599383 0.06684,0.090404 0.124428,0.2315375 0.252237,0.2395993 0.136576,-0.035761 0.190921,-0.1887324 0.268638,-0.2921259 0.06098,-0.083205 0.123214,-0.2157432 0.244057,-0.2051843 0.142604,0.056868 0.196957,0.2202624 0.285105,0.3342249 0.0541,0.080763 0.146547,0.2109529 0.256888,0.1436332 0.169478,-0.1233089 0.213499,-0.3630477 0.395507,-0.4718051 0.121653,-0.037279 0.195053,0.1026319 0.25433,0.185037 0.08091,0.1065895 0.134887,0.2623223 0.273014,0.3056724 0.132714,-0.00279 0.191597,-0.1517393 0.260425,-0.2440203 0.06929,-0.093684 0.12447,-0.2339858 0.25227,-0.255041 0.135817,0.021678 0.191299,0.1737918 0.265316,0.2723093 0.06453,0.087129 0.122867,0.2239739 0.24738,0.2269996 0.140685,-0.042084 0.194861,-0.2011428 0.276946,-0.3089002 0.05855,-0.081232 0.130723,-0.2174375 0.250397,-0.1828292 0.188547,0.1089538 0.228389,0.3623352 0.410157,0.4796496 0.117672,0.050937 0.198629,-0.086739 0.255689,-0.1677623 0.08225,-0.1096517 0.136688,-0.2618428 0.271654,-0.3167309 0.12705,-0.012004 0.190219,0.1301485 0.253938,0.2171619 0.0742,0.099545 0.128145,0.2442965 0.258758,0.2795207 0.129757,-0.0061 0.187808,-0.1499262 0.255517,-0.2412604 0.07045,-0.09487 0.126298,-0.2396405 0.257178,-0.2581438 0.134558,0.025349 0.189769,0.175191 0.263672,0.2743568 0.06443,0.087226 0.123784,0.2251057 0.249023,0.2245521 0.140804,-0.046286 0.195107,-0.205812 0.278321,-0.3152757 0.05755,-0.079912 0.131643,-0.2135336 0.249023,-0.1748957 0.186868,0.1112269 0.22671,0.364432 0.410156,0.4798954 0.119213,0.04693 0.197888,-0.092106 0.255622,-0.1735823 0.08186,-0.108444 0.135884,-0.2615716 0.271722,-0.3129703 0.128662,-0.00779 0.190259,0.1364213 0.255521,0.2245598 0.07265,0.098327 0.127121,0.2416724 0.257175,0.2730357 0.132975,-0.011098 0.190018,-0.1595406 0.260436,-0.253674 0.06781,-0.091766 0.124349,-0.2325341 0.252259,-0.2459017 0.137119,0.030651 0.191817,0.1843317 0.268595,0.286321 0.06192,0.084456 0.122503,0.2172171 0.2441,0.2120167 0.142977,-0.051623 0.197003,-0.2149629 0.283721,-0.3270047 0.05524,-0.081432 0.144238,-0.2167348 0.258271,-0.1539489 0.171685,0.121188 0.215635,0.3607909 0.395508,0.4724853 0.119837,0.042876 0.196341,-0.096152 0.254424,-0.1776151 0.08173,-0.1079029 0.13578,-0.2625277 0.27292,-0.3108304 0.128056,-0.00365 0.188604,0.138519 0.253947,0.2272797 0.07274,0.097785 0.127416,0.2430468 0.258748,0.271058 0.131975,-0.014912 0.188494,-0.1612884 0.25882,-0.2560902 0.06792,-0.091125 0.125002,-0.2338552 0.253875,-0.2434855 0.137657,0.03501 0.192109,0.1894528 0.270282,0.2932215 0.06181,0.084641 0.131226,0.2292444 0.257062,0.2003233 0.155287,-0.085035 0.210309,-0.2710801 0.322266,-0.3995295 0.0482,-0.077576 0.161494,-0.1338252 0.234375,-0.053503 0.145306,0.1305568 0.195905,0.3464556 0.366211,0.4504259 0.122035,0.038751 0.196248,-0.1025196 0.255588,-0.1849817 0.08038,-0.1067681 0.134605,-0.2608248 0.271756,-0.3051897 0.129447,6.11e-4 0.188786,0.1445732 0.255517,0.2346841 0.07134,0.096299 0.126516,0.2405261 0.257178,0.2642248 0.134845,-0.020047 0.190676,-0.1705485 0.263672,-0.2682754 0.06535,-0.088417 0.123412,-0.2262811 0.249023,-0.2311288 0.138062,0.039185 0.19232,0.1945997 0.271894,0.2998956 0.06047,0.083416 0.131841,0.2254646 0.255454,0.1923158 0.18913,-0.1081185 0.22899,-0.3615562 0.41015,-0.4795313 0.1171,-0.052225 0.19897,0.084859 0.25565,0.1658534 0.0827,0.1096549 0.13689,0.2620776 0.2717,0.3179165 0.1279,0.013451 0.19127,-0.1307544 0.25552,-0.2176429 0.0735,-0.099704 0.12766,-0.2425065 0.25717,-0.2786975 0.13285,0.00557 0.19104,0.154489 0.26043,0.2472719 0.0689,0.092785 0.12435,0.2336729 0.25227,0.252037 0.13756,-0.025309 0.19277,-0.1796492 0.26856,-0.2803548 0.0643,-0.086909 0.12965,-0.2345525 0.25878,-0.2156428 0.14787,0.069817 0.20255,0.2425667 0.30003,0.3635419 0.0493,0.075941 0.14744,0.1786587 0.24196,0.1082026 0.16461,-0.1259374 0.20932,-0.3635557 0.392,-0.4684899 0.12161,-0.033107 0.19281,0.106128 0.25253,0.1882498 0.0783,0.1055362 0.13243,0.2523901 0.26368,0.3021943 0.12745,0.00923 0.18961,-0.1330242 0.25399,-0.2205325 0.0736,-0.099167 0.12786,-0.2438161 0.2587,-0.2767777 0.13198,0.0095 0.18949,0.1564095 0.25885,0.2498598 0.0689,0.092482 0.12495,0.2347486 0.25385,0.2496778 0.13819,-0.029844 0.19302,-0.1850451 0.27025,-0.2874073 0.0629,-0.085704 0.12995,-0.2308428 0.25709,-0.2076522 0.15028,0.07589 0.20543,0.2528039 0.30762,0.3770613 0.0481,0.078688 0.15841,0.1657718 0.24392,0.084471 0.15148,-0.1282896 0.20102,-0.3477438 0.37131,-0.4559484 0.1202,-0.044232 0.19734,0.095638 0.25561,0.1774085 0.0813,0.1080688 0.13552,0.2611625 0.27174,0.3104247 0.12898,0.00498 0.18972,-0.1392048 0.25554,-0.2279523 0.0723,-0.097314 0.12679,-0.2414806 0.25715,-0.2701571 0.13499,0.014611 0.19161,0.1657503 0.26367,0.2620307 0.0662,0.089812 0.12321,0.2274189 0.24903,0.2375641 0.13871,-0.034102 0.19321,-0.1903186 0.27185,-0.2942171 0.0616,-0.084384 0.1304,-0.2272347 0.25549,-0.1997346 0.15567,0.084079 0.21073,0.2701463 0.32227,0.3986639 0.0481,0.077325 0.16077,0.1355169 0.23437,0.055542 0.14577,-0.130308 0.19637,-0.3461567 0.36621,-0.4508545 0.12073,-0.040154 0.19577,0.09955 0.25438,0.1813386 0.0812,0.107523 0.13535,0.2623575 0.27297,0.3082762 0.12832,0.00115 0.18805,-0.141638 0.25391,-0.230616 0.0724,-0.096811 0.12721,-0.2428117 0.25878,-0.2681216 0.13386,0.018394 0.18992,0.1672704 0.26203,0.2641052 0.0662,0.089296 0.12392,0.228979 0.25067,0.2353752 0.14114,-0.03936 0.19517,-0.1993415 0.27691,-0.3061113 0.0591,-0.081675 0.12994,-0.2184426 0.25043,-0.1865633 0.18421,0.1053824 0.22815,0.3457779 0.39551,0.4708392 0.10669,0.071717 0.20321,-0.053677 0.25585,-0.1339566 0.0894,-0.1157612 0.14433,-0.278414 0.28614,-0.340516 0.12668,-0.014845 0.19064,0.1273477 0.25404,0.2136625 0.0744,0.1005161 0.12842,0.2445598 0.25865,0.2823169 0.12963,-0.00338 0.18831,-0.1472018 0.25552,-0.2379898 0.0709,-0.095586 0.12639,-0.2400871 0.25718,-0.2612049 0.13472,0.022715 0.19022,0.1728886 0.26367,0.2713364 0.0649,0.087903 0.12358,0.2257103 0.24903,0.2278583 0.14123,-0.043828 0.19557,-0.2037831 0.27832,-0.3125925 0.0581,-0.080335 0.13073,-0.214587 0.24902,-0.1786367 0.18802,0.1096894 0.22785,0.3630261 0.41016,0.4797492 0.11817,0.049598 0.19842,-0.088509 0.25563,-0.1697252 0.0821,-0.1092763 0.13646,-0.2616965 0.27171,-0.315471 0.12832,-0.010628 0.19074,0.1336147 0.25554,0.2210962 0.0732,0.09873 0.12728,0.2422965 0.25715,0.2759076 0.13291,-0.00834 0.19058,-0.1569849 0.26039,-0.2504897 0.0683,-0.092603 0.12442,-0.2328614 0.25231,-0.2489904 0.13545,0.026987 0.19032,0.1784568 0.26532,0.2782161 0.0636,0.086014 0.1233,0.2227921 0.24738,0.2205316 0.14345,-0.0491 0.19758,-0.21255 0.28367,-0.3242253 0.0558,-0.081529 0.1429,-0.2183603 0.25832,-0.158261 0.17284,0.1200154 0.21686,0.3593716 0.39551,0.4726681 0.11951,0.046003 0.19763,-0.093186 0.25566,-0.1746546 0.0815,-0.1085931 0.13594,-0.2611645 0.27168,-0.3122741 0.12749,-0.00751 0.18939,0.1342917 0.25395,0.2221575 0.0736,0.098596 0.12796,0.2432651 0.25874,0.2754506 0.1336,-0.010273 0.19139,-0.1591202 0.26206,-0.2536158 0.0678,-0.091731 0.12416,-0.2296062 0.25064,-0.2460984 0.13774,0.026053 0.19383,0.1797859 0.27028,0.2807381 0.0646,0.087328 0.12918,0.2295066 0.25706,0.2170516 0.14853,-0.061214 0.20515,-0.2317237 0.29997,-0.3497223 0.0538,-0.079779 0.15083,-0.1965147 0.25667,-0.1300968 0.17513,0.1254104 0.22776,0.364854 0.41016,0.4820925 0,-2.3333333 0,-4.6666667 0,-7.00000061 z"
     id="path4535"
     inkscape:connector-curvature="0" /></svg>