<?xml version="1.0" encoding="UTF-8" standalone="no"?>
<!-- Generator: Fusion 360, Shaper Origin Export Add-In, Version 1.5.0  -->

<svg
   xmlns:shaper="http://www.shapertools.com/namespaces/shaper"
   xmlns:dc="http://purl.org/dc/elements/1.1/"
   xmlns:cc="http://creativecommons.org/ns#"
   xmlns:rdf="http://www.w3.org/1999/02/22-rdf-syntax-ns#"
   xmlns:svg="http://www.w3.org/2000/svg"
   xmlns="http://www.w3.org/2000/svg"
   xmlns:sodipodi="http://sodipodi.sourceforge.net/DTD/sodipodi-0.dtd"
   xmlns:inkscape="http://www.inkscape.org/namespaces/inkscape"
   enable-background="new 0 0 120 7.5047817"
   height="7.514771cm"
   shaper:fusionaddin="version:1.5.0"
   version="1.1"
   viewBox="0 0 121.01301 7.5147709"
   width="121.01302cm"
   x="0cm"
   xml:space="preserve"
   y="0cm"
   id="svg827"
   sodipodi:docname="TypeB.svg"
   inkscape:version="0.92.2 (5c3e80d, 2017-08-06)"><metadata
     id="metadata833"><rdf:RDF><cc:Work
         rdf:about=""><dc:format>image/svg+xml</dc:format><dc:type
           rdf:resource="http://purl.org/dc/dcmitype/StillImage" /><dc:title></dc:title></cc:Work></rdf:RDF></metadata><defs
     id="defs831" /><sodipodi:namedview
     pagecolor="#ffffff"
     bordercolor="#666666"
     borderopacity="1"
     objecttolerance="10"
     gridtolerance="10"
     guidetolerance="10"
     inkscape:pageopacity="0"
     inkscape:pageshadow="2"
     inkscape:window-width="1920"
     inkscape:window-height="996"
     id="namedview829"
     showgrid="false"
     fit-margin-left="1"
     fit-margin-top="0"
     fit-margin-right="0"
     fit-margin-bottom="0"
     inkscape:zoom="0.07865842"
     inkscape:cx="3551.0198"
     inkscape:cy="825.44628"
     inkscape:window-x="-9"
     inkscape:window-y="-9"
     inkscape:window-maximized="1"
     inkscape:current-layer="svg827" /><path
     style="vector-effect:non-scaling-stroke;fill:none;stroke:#000000;stroke-width:0.09999999;stroke-miterlimit:4;stroke-dasharray:none;stroke-opacity:1"
     d="m 121.00801,0.50742009 c -0.82671,-0.0803817 -1.58503,-0.52261163 -2.42657,-0.50197632 -0.87741,0.00554116 -1.66404,0.51549575 -2.54378,0.50225355 -0.86656,0.00188 -1.64062,-0.50643798 -2.50769,-0.50018989 -0.86748,-0.00902652 -1.64077,0.5046402 -2.50768,0.49974766 -0.86375,0.0102416 -1.63309,-0.50081106 -2.49566,-0.4998098 -0.86073,-0.01349378 -1.62695,0.49431406 -2.48518,0.49958642 -0.73823,0.0176925 -1.40496,-0.35252841 -2.1213,-0.46626003 -0.50842,-0.09018689 -1.02532,0.01276852 -1.50991,0.16914939 -0.53005,0.16778463 -1.0787,0.34844425 -1.64272,0.28600635 C 99.986692,0.42319932 99.276217,-0.00851323 98.481802,0.00770315 97.623083,0.00949925 96.85704,0.5183479 95.996622,0.50732217 95.133659,0.51125911 94.364629,-0.00180074 93.50096,0.00760901 92.637703,0.00188498 91.868537,0.51483509 91.005019,0.50742009 90.141197,0.51462805 89.37175,0.00128433 88.508083,0.00757867 87.644609,-0.00115564 86.875681,0.51186215 86.012737,0.50730189 85.148551,0.51764795 84.379086,0.00422644 83.515805,0.00754585 82.651856,-0.00414199 81.882744,0.50887975 81.020117,0.50721438 80.159491,0.52068284 79.393558,0.01184164 78.535232,0.00769474 77.681923,-0.0113686 76.922652,0.48752697 76.074421,0.50636725 75.40216,0.53246984 74.783588,0.23169983 74.141768,0.0838438 73.672082,-0.03227675 73.17619,-0.00945057 72.712299,0.12216607 72.115677,0.28281622 71.525987,0.54024824 70.895408,0.50491308 70.064663,0.47196095 69.318628,-0.00914059 68.480948,0.007702 67.622319,0.00946738 66.856367,0.51831184 65.996045,0.50730737 65.133145,0.51118553 64.364134,-0.00173658 63.500534,0.00758508 62.637418,0.00190152 61.86838,0.5147032 61.005011,0.50742009 60.141189,0.51462823 59.371741,0.00128617 58.508075,0.0075798 57.644558,-0.0011212 56.87555,0.51182138 56.012565,0.50730209 55.148379,0.51764695 54.378914,0.00422915 53.515633,0.00754436 52.651745,-0.00407866 51.88268,0.50887859 51.020105,0.50721338 50.159436,0.52064609 49.393423,0.01188264 48.535056,0.00769464 47.681747,-0.01136962 46.922476,0.48752541 46.074245,0.50636615 45.40204,0.5324316 44.783522,0.23168297 44.141752,0.0838438 43.672066,-0.03227918 43.176174,-0.00945023 42.712283,0.12216407 42.115727,0.28285607 41.526084,0.54025614 40.895556,0.50491298 40.06476,0.47195775 39.318676,-0.00920105 38.480936,0.007702 37.622307,0.00946708 36.856355,0.51831193 35.996033,0.50730737 35.133176,0.5112207 34.364245,-0.00177624 33.500686,0.00758414 32.637518,0.00190048 31.868433,0.51476563 31.005003,0.50742009 30.141181,0.51462904 29.371732,0.00129163 28.508067,0.00758073 27.64459,-0.00117946 26.875663,0.51184952 26.012721,0.50729396 25.148535,0.51764752 24.379064,0.00424092 23.515788,0.0075422 22.651834,-0.00418668 21.882713,0.50875736 21.020101,0.50720917 20.159366,0.52082742 19.39332,0.01206123 18.534932,0.00771828 17.685497,-0.01164417 16.929495,0.48239161 16.08587,0.50589151 15.426289,0.53526769 14.816195,0.24841849 14.18848,0.09535859 13.720719,-0.02600882 13.224442,-0.01812169 12.758746,0.10886666 12.148307,0.26574638 11.550196,0.53592848 10.90696,0.50586279 10.067343,0.47982124 9.3140157,-0.0063183 8.468897,0.00755107 7.6025232,0.00651332 6.828448,0.51490546 5.9612012,0.50767557 5.0820977,0.5157489 4.2955553,0.00576346 3.4174296,0.00518243 2.5810506,-0.01042989 1.827155,0.42721642 1.005,0.50742039 c 0,2.33333331 0,4.66666671 0,7.00000001 0.8267135,-0.080387 1.5850266,-0.5225993 2.4265652,-0.5019853 0.8774153,0.00557 1.6640379,0.5155147 2.5437825,0.5022733 0.8665634,0.00188 1.6406273,-0.5064278 2.5076953,-0.5002002 0.8672772,-0.0088 1.640402,0.5046333 2.507136,0.4997484 0.863752,0.010243 1.633082,-0.5008129 2.495651,-0.4998098 0.860732,-0.013528 1.626962,0.4942995 2.485187,0.499566 0.737959,0.017442 1.40445,-0.352581 2.120549,-0.4662711 0.508418,-0.090185 1.025315,0.012764 1.509904,0.1691494 0.530042,0.1677761 1.078677,0.3484427 1.642679,0.2860059 0.780568,-0.072724 1.490797,-0.5042205 2.284921,-0.4882294 0.858623,0.00183 1.62458,0.510619 2.484902,0.499619 0.862855,0.00391 1.631787,-0.5090911 2.495347,-0.4997242 0.863167,-0.00568 1.632254,0.5071809 2.495684,0.4998332 0.863822,0.00721 1.633269,-0.5061359 2.496935,-0.4998414 0.863474,-0.00874 1.632402,0.5042827 2.495346,0.4997232 0.864186,0.010345 1.633652,-0.5030769 2.496933,-0.4997548 0.863948,-0.011687 1.63306,0.5013341 2.495687,0.4996688 0.860626,0.013469 1.626559,-0.4953729 2.484885,-0.4995206 0.85331,-0.019064 1.61258,0.4798329 2.460812,0.4986735 0.672261,0.026103 1.290833,-0.2746673 1.932652,-0.4225234 0.469686,-0.1161205 0.965578,-0.093294 1.429469,0.038322 0.596623,0.1606519 1.186313,0.4180841 1.816893,0.3827489 0.830742,-0.032952 1.576775,-0.5140499 2.414451,-0.4972112 0.858629,0.00177 1.62458,0.51061 2.484902,0.4996054 0.8629,0.00388 1.631912,-0.5090434 2.495513,-0.4997222 0.863113,-0.00568 1.632148,0.5071156 2.495514,0.4998339 0.863821,0.00721 1.633269,-0.5061341 2.496935,-0.4998403 0.863518,-0.0087 1.632526,0.5042444 2.495512,0.4997242 0.864186,0.010345 1.633652,-0.5030726 2.496933,-0.4997579 0.863884,-0.011619 1.632946,0.5013345 2.495517,0.4996691 0.860669,0.013432 1.626684,-0.4953302 2.485051,-0.4995186 0.853309,-0.019064 1.612581,0.4798307 2.460812,0.4986715 0.672201,0.02606 1.290715,-0.2746848 1.932482,-0.4225235 0.469686,-0.1161205 0.965578,-0.093294 1.429469,0.038322 0.596556,0.1606922 1.186199,0.4180925 1.816727,0.3827489 0.830797,-0.032956 1.576881,-0.5141132 2.414621,-0.4972115 0.858629,0.00176 1.624581,0.5106098 2.484902,0.4996064 0.862856,0.00391 1.631788,-0.5090849 2.495347,-0.4997243 0.863169,-0.00569 1.632254,0.5071817 2.495684,0.4998338 0.863918,0.00724 1.633453,-0.5061513 2.497213,-0.4998384 0.863586,-0.00881 1.632613,0.5042623 2.495661,0.4997063 0.864287,0.010413 1.633848,-0.5029905 2.49721,-0.4997611 0.864048,-0.011806 1.633269,0.5011154 2.495949,0.4996583 0.86075,0.01376 1.62684,-0.4948183 2.48519,-0.4994819 0.74184,-0.017041 1.41137,0.3566914 2.13189,0.468163 0.50926,0.088019 1.02592,-0.017651 1.51089,-0.1740379 0.52632,-0.1666366 1.07129,-0.3439095 1.63118,-0.283472 0.78449,0.071564 1.49834,0.5032835 2.29596,0.4890749 0.86675,-6.277e-4 1.64141,-0.5091041 2.50945,-0.500341 0.87836,-0.00617 1.66443,0.5031117 2.5422,0.5025705 0.89998,0.015099 1.70718,-0.492164 2.60236,-0.515035 0.70699,-0.031292 1.37136,0.2462084 2.03709,0.4408425 0.0897,0.025865 0.17989,0.050211 0.27069,0.071971 3e-5,-2.3333323 6e-5,-4.6666646 9e-5,-6.99999691 z"
     id="path825"
     inkscape:connector-curvature="0" /></svg>