<?xml version="1.0" encoding="UTF-8" standalone="no"?>
<!-- Created with Inkscape (http://www.inkscape.org/) -->

<svg
   xmlns:dc="http://purl.org/dc/elements/1.1/"
   xmlns:cc="http://creativecommons.org/ns#"
   xmlns:rdf="http://www.w3.org/1999/02/22-rdf-syntax-ns#"
   xmlns:svg="http://www.w3.org/2000/svg"
   xmlns="http://www.w3.org/2000/svg"
   xmlns:sodipodi="http://sodipodi.sourceforge.net/DTD/sodipodi-0.dtd"
   xmlns:inkscape="http://www.inkscape.org/namespaces/inkscape"
   width="1212.6617mm"
   height="115.25269mm"
   viewBox="0 0 1212.6617 115.25267"
   version="1.1"
   id="svg8"
   inkscape:version="0.92.2 (5c3e80d, 2017-08-06)"
   sodipodi:docname="TypeA.svg">
  <defs
     id="defs2" />
  <sodipodi:namedview
     id="base"
     pagecolor="#ffffff"
     bordercolor="#666666"
     borderopacity="1.0"
     inkscape:pageopacity="0.0"
     inkscape:pageshadow="2"
     inkscape:zoom="1.4"
     inkscape:cx="166.74465"
     inkscape:cy="209.51848"
     inkscape:document-units="mm"
     inkscape:current-layer="layer1"
     showgrid="false"
     fit-margin-top="0"
     fit-margin-left="0"
     fit-margin-right="0"
     fit-margin-bottom="0"
     inkscape:window-width="1920"
     inkscape:window-height="996"
     inkscape:window-x="-9"
     inkscape:window-y="-9"
     inkscape:window-maximized="1" />
  <metadata
     id="metadata5">
    <rdf:RDF>
      <cc:Work
         rdf:about="">
        <dc:format>image/svg+xml</dc:format>
        <dc:type
           rdf:resource="http://purl.org/dc/dcmitype/StillImage" />
        <dc:title></dc:title>
      </cc:Work>
    </rdf:RDF>
  </metadata>
  <g
     inkscape:label="Layer 1"
     inkscape:groupmode="layer"
     id="layer1"
     transform="translate(462.17728,-158.48196)">
    <path
       style="vector-effect:non-scaling-stroke;fill:none;stroke:#000000;stroke-width:0.1;stroke-miterlimit:4;stroke-dasharray:none;stroke-opacity:1"
       d="m 750.43452,173.61228 c -4.54222,-1.46686 -7.93729,-5.02097 -11.43175,-8.09489 -3.15591,-2.77537 -6.41575,-5.89279 -10.65937,-6.80633 -3.63271,-0.7738 -7.16756,1.08058 -9.93237,3.27522 -4.45548,3.39698 -8.04519,7.95791 -13.09371,10.54454 -2.6905,1.41485 -6.01383,1.4462 -8.71438,0.0399 -4.98244,-2.5264 -8.50547,-7.029 -12.84975,-10.42107 -2.69878,-2.18161 -6.13487,-4.12178 -9.72793,-3.3866 -4.07987,0.86317 -7.17591,3.91034 -10.16566,6.61042 -3.25218,2.93451 -6.37902,6.3436 -10.62707,7.80419 -3.09695,1.08653 -6.4774,0.004 -9.0532,-1.82933 -5.08933,-3.44565 -8.79022,-8.67538 -14.26295,-11.58895 -2.59958,-1.41992 -5.84347,-1.53133 -8.49745,-0.18853 -4.67837,2.30182 -8.03052,6.4432 -11.97638,9.72899 -2.74531,2.33603 -6.09378,4.67555 -9.88693,4.26335 -4.01256,-0.50537 -7.13498,-3.38574 -10.02334,-5.97518 -3.40295,-3.0429 -6.56141,-6.63586 -10.89059,-8.37117 -2.8966,-1.19567 -6.22213,-0.4947 -8.77871,1.17704 -5.49957,3.42219 -9.28559,9.06408 -15.05414,12.10289 -2.60919,1.40951 -5.85618,1.47887 -8.49938,0.11748 -4.74701,-2.37872 -8.13343,-6.61972 -12.17894,-9.93849 -2.71954,-2.28657 -6.08773,-4.5107 -9.81423,-3.98869 -4.01531,0.61656 -7.1107,3.5378 -10.01459,6.14926 -3.34663,3.00957 -6.48472,6.53918 -10.77307,8.20813 -2.91175,1.16381 -6.2235,0.40814 -8.7684,-1.27569 -5.44474,-3.42985 -9.21952,-9.01921 -14.95132,-12.0415 -2.60876,-1.4104 -5.85593,-1.481 -8.49947,-0.12003 -4.74737,2.37805 -8.13366,6.61929 -12.17891,9.93826 -2.71955,2.28684 -6.08745,4.51169 -9.81425,3.99026 -4.01526,-0.61642 -7.11079,-3.53736 -10.01458,-6.14885 -3.34664,-3.0097 -6.48474,-6.53934 -10.77306,-8.20859 -2.91165,-1.1638 -6.22349,-0.40877 -8.76841,1.27508 -5.44484,3.42975 -9.21951,9.01925 -14.95132,12.04155 -2.60869,1.41062 -5.85587,1.48109 -8.49947,0.12029 -4.7474,-2.37798 -8.13368,-6.61926 -12.17891,-9.93824 -2.71955,-2.28685 -6.08743,-4.51178 -9.81425,-3.99033 -4.01526,0.61642 -7.1108,3.53732 -10.01458,6.14882 -3.34669,3.00968 -6.48473,6.53944 -10.77306,8.20872 -2.91167,1.16387 -6.22347,0.40866 -8.76841,-1.27517 -5.44484,-3.42975 -9.21951,-9.01926 -14.95132,-12.04157 -2.60869,-1.41061 -5.85586,-1.48111 -8.49946,-0.12031 -4.74741,2.37798 -8.13368,6.61927 -12.17892,9.93825 -2.71955,2.28685 -6.08742,4.51178 -9.81425,3.99033 -4.01526,-0.61641 -7.11079,-3.53732 -10.01458,-6.14881 -3.34668,-3.00969 -6.48473,-6.53945 -10.77306,-8.20873 -2.91167,-1.16387 -6.22347,-0.40864 -8.76841,1.27517 -5.44484,3.42975 -9.21952,9.01926 -14.95132,12.04157 -2.60872,1.41051 -5.85587,1.48097 -8.49946,0.12021 -4.74738,-2.378 -8.13371,-6.6192 -12.17892,-9.9382 -2.71954,-2.28686 -6.08742,-4.51178 -9.81425,-3.99033 -4.01526,0.61641 -7.11079,3.53732 -10.01458,6.14881 -3.34668,3.00969 -6.48473,6.53944 -10.77306,8.20873 -2.91167,1.16387 -6.22348,0.40866 -8.7684,-1.27517 -5.44487,-3.42974 -9.21949,-9.01933 -14.95133,-12.04162 -2.60869,-1.41061 -5.85586,-1.48111 -8.49946,-0.12031 -4.74741,2.37798 -8.13369,6.61926 -12.17892,9.93825 -2.71955,2.28685 -6.08742,4.51178 -9.81425,3.99033 -4.01526,-0.61642 -7.1108,-3.53732 -10.01458,-6.14882 -3.34669,-3.00968 -6.48473,-6.53944 -10.77306,-8.20872 -2.91167,-1.16387 -6.22347,-0.40864 -8.76841,1.27517 -5.44484,3.42975 -9.21952,9.01926 -14.95132,12.04157 -2.60872,1.41051 -5.855865,1.48097 -8.499461,0.12021 -4.747374,-2.378 -8.133711,-6.6192 -12.178916,-9.9382 -2.719539,-2.28686 -6.087424,-4.51178 -9.814253,-3.99033 -4.015257,0.61641 -7.110787,3.53732 -10.014576,6.14881 -3.346685,3.00969 -6.484729,6.53945 -10.773059,8.20873 -2.911673,1.16387 -6.223476,0.40866 -8.768404,-1.27517 -5.444868,-3.42974 -9.219489,-9.01933 -14.951331,-12.04162 -2.60869,-1.41061 -5.855854,-1.48111 -8.499461,-0.12031 -4.747406,2.37798 -8.133681,6.61927 -12.1789158,9.93825 -2.7195447,2.28685 -6.0874234,4.51178 -9.81425342,3.99033 -4.01525368,-0.61642 -7.11079348,-3.53732 -10.01457578,-6.14882 -3.346692,-3.00968 -6.484727,-6.53944 -10.773059,-8.20872 -2.911674,-1.16388 -6.223468,-0.40864 -8.768408,1.27517 -5.444839,3.42975 -9.219523,9.01925 -14.951327,12.04157 -2.608712,1.41051 -5.855864,1.48097 -8.499461,0.12021 -4.747384,-2.378 -8.133705,-6.61922 -12.178916,-9.93822 -2.719545,-2.28685 -6.087422,-4.51178 -9.814253,-3.99033 -4.015251,0.61642 -7.11079,3.53732 -10.014576,6.14881 -3.346689,3.00968 -6.484731,6.53945 -10.773061,8.20874 -2.911676,1.16385 -6.223473,0.40865 -8.768413,-1.27517 -5.44485,-3.42974 -9.2195,-9.01928 -14.95132,-12.04159 -2.60871,-1.41053 -5.85587,-1.48097 -8.49947,-0.12021 -4.7474,2.37796 -8.13368,6.61922 -12.17891,9.9382 -2.71954,2.28687 -6.08741,4.51183 -9.81425,3.99037 -4.01523,-0.61641 -7.11081,-3.53722 -10.01457,-6.14872 -3.34665,-3.00977 -6.48475,-6.5395 -10.77307,-8.20887 -2.91157,-1.16402 -6.22345,-0.40879 -8.76841,1.27487 -5.4449,3.42965 -9.21961,9.01908 -14.95132,12.04152 -2.60864,1.41088 -5.85578,1.48136 -8.49947,0.12065 -4.74742,-2.37768 -8.13384,-6.61869 -12.17891,-9.93766 -2.71956,-2.28691 -6.08731,-4.51222 -9.81425,-3.99094 -4.01517,0.61553 -7.11087,3.536 -10.01457,6.14717 -3.34694,3.00965 -6.48502,6.53928 -10.77305,8.20949 -2.91111,1.16461 -6.22312,0.41078 -8.76846,-1.27212 -5.44558,-3.42845 -9.22075,-9.01691 -14.95125,-12.04084 -2.60798,-1.41099 -5.85486,-1.48631 -8.49958,-0.12708 -4.74811,2.37398 -8.13514,6.61335 -12.17882,9.93195 -2.72038,2.28763 -6.08584,4.51607 -9.81433,4.00238 -4.01362,-0.60737 -7.1117,-3.5217 -10.01451,-6.12941 -3.36692,-3.02377 -6.52186,-6.57688 -10.83985,-8.24327 -2.92571,-1.15406 -6.23999,-0.37732 -8.78906,1.31351 -5.43112,3.43547 -9.21317,9.00536 -14.94141,12.01903 -2.60924,1.40281 -5.84895,1.47948 -8.49609,0.13131 -4.78943,-2.38119 -8.20381,-6.65189 -12.29027,-9.98026 -2.72087,-2.27529 -6.08608,-4.47045 -9.80191,-3.9682 -4.04253,0.59658 -7.17545,3.51421 -10.10822,6.12872 -3.41118,3.03513 -6.61197,6.60892 -10.97988,8.26358 -2.98857,1.16173 -6.36063,0.36045 -8.96815,-1.34784 -5.51571,-3.45227 -9.40933,-9.03932 -15.23438,-12.04622 -2.74052,-1.44878 -6.12045,-1.50646 -8.89862,-0.12438 -4.9082,2.37701 -8.48906,6.63754 -12.67497,10.01055 -2.05732,1.67694 -4.27693,3.26679 -6.84438,4.04752 0,33.33334 0,66.66667 0,100.00001 4.54221,-1.46686 7.93731,-5.02093 11.43173,-8.0949 3.15595,-2.7753 6.41573,-5.89277 10.65936,-6.80632 3.63272,-0.77387 7.16761,1.08046 9.93241,3.27515 4.45549,3.39696 8.04518,7.9579 13.09369,10.54452 2.69049,1.41483 6.01383,1.44623 8.71436,0.0399 4.98248,-2.52636 8.50549,-7.02902 12.8498,-10.42108 2.69877,-2.1816 6.13484,-4.12176 9.72789,-3.38658 4.07987,0.86316 7.17595,3.91031 10.16567,6.61044 3.25222,2.93444 6.379,6.3436 10.62705,7.80415 3.05532,1.07154 6.39734,0.0361 8.95297,-1.76134 5.1414,-3.44375 8.85457,-8.72337 14.36317,-11.65592 2.59958,-1.4199 5.84348,-1.53119 8.49744,-0.18846 4.67842,2.30178 8.03051,6.44326 11.97644,9.72898 2.74527,2.33608 6.09379,4.67558 9.88693,4.26338 4.01254,-0.50539 7.13496,-3.38573 10.02331,-5.97517 3.40296,-3.0429 6.56142,-6.63586 10.8906,-8.37118 2.89656,-1.19552 6.22214,-0.49506 8.77868,1.17683 5.49959,3.42216 9.28559,9.06408 15.05414,12.10288 2.60919,1.40953 5.8562,1.4789 8.49941,0.1175 4.74702,-2.37871 8.13342,-6.61973 12.17895,-9.93848 2.71952,-2.28658 6.08772,-4.51075 9.81422,-3.9886 4.01531,0.61656 7.1107,3.5378 10.01459,6.14926 3.34663,3.00957 6.48472,6.53919 10.77308,8.20814 2.91172,1.16386 6.2235,0.40839 8.76839,-1.2755 5.44475,-3.42982 9.21947,-9.01925 14.95133,-12.04142 2.60874,-1.41043 5.85588,-1.48096 8.49946,-0.12014 4.74737,2.37804 8.13366,6.61931 12.17892,9.93827 2.71955,2.28683 6.08744,4.51168 9.81424,3.99025 4.01526,-0.61642 7.1108,-3.53735 10.01458,-6.14885 3.34669,-3.00966 6.48473,-6.53943 10.77307,-8.20868 2.91165,-1.16379 6.22348,-0.40875 8.7684,1.27508 5.44484,3.42976 9.21951,9.01926 14.95132,12.04156 2.6087,1.41063 5.855864,1.48108 8.499479,0.12031 4.747395,-2.378 8.13368,-6.61927 12.178915,-9.93826 2.719513,-2.28691 6.087431,-4.51166 9.814244,-3.99022 4.015294,0.61626 7.110792,3.53725 10.014576,6.14872 3.346693,3.00968 6.484736,6.53945 10.77307,8.20873 2.911676,1.16386 6.223469,0.40863 8.768403,-1.27518 5.444843,-3.42975 9.219516,-9.01926 14.951321,-12.04157 2.608718,-1.41051 5.855874,-1.48097 8.499471,-0.1202 4.747392,2.378 8.133676,6.61926 12.1789054,9.93825 2.7195413,2.28686 6.0874241,4.51178 9.8142534,3.99033 4.0152572,-0.61641 7.1107925,-3.53732 10.0145762,-6.14881 3.346692,-3.00968 6.484734,-6.53945 10.773068,-8.20874 2.911643,-1.16379 6.223482,-0.40875 8.768405,1.27507 5.444838,3.42976 9.219515,9.01926 14.951321,12.04157 2.608694,1.41061 5.855861,1.48111 8.499471,0.12031 4.747399,-2.37799 8.133679,-6.61926 12.178906,-9.93825 2.719522,-2.2869 6.087432,-4.51168 9.814253,-3.99023 4.015293,0.61626 7.110796,3.53725 10.014576,6.14872 3.34669,3.00968 6.484732,6.53944 10.773061,8.20873 2.911675,1.16386 6.223465,0.40862 8.768415,-1.27518 5.44483,-3.42976 9.21951,-9.01925 14.95131,-12.04157 2.60872,-1.41051 5.85588,-1.48097 8.49947,-0.1202 4.7474,2.37799 8.13368,6.61926 12.17891,9.93825 2.71954,2.28686 6.08742,4.51178 9.81425,3.99033 4.01526,-0.61641 7.11079,-3.53732 10.01458,-6.14881 3.34669,-3.00968 6.48473,-6.53944 10.77306,-8.20873 2.91164,-1.1638 6.22349,-0.40876 8.76841,1.27506 5.44484,3.42976 9.21952,9.01926 14.95132,12.04157 2.6087,1.41061 5.85587,1.48112 8.49947,0.1203 4.7474,-2.37797 8.13369,-6.61925 12.17891,-9.93824 2.71952,-2.2869 6.08743,-4.51168 9.81425,-3.99023 4.0153,0.61626 7.1108,3.53725 10.01458,6.14872 3.34669,3.00967 6.48473,6.53945 10.77306,8.20873 2.91168,1.16386 6.22347,0.40863 8.76841,-1.27518 5.44484,-3.42976 9.21952,-9.01925 14.95132,-12.04157 2.60872,-1.41051 5.85588,-1.48098 8.49947,-0.12019 4.7474,2.37798 8.13368,6.61925 12.17891,9.93824 2.71954,2.28686 6.08742,4.51178 9.81425,3.99033 4.01526,-0.61641 7.1108,-3.53731 10.01458,-6.14881 3.34669,-3.00968 6.48473,-6.53945 10.77306,-8.20873 2.91165,-1.16378 6.22349,-0.40876 8.76841,1.27508 5.44485,3.42974 9.21952,9.01925 14.95132,12.04156 2.60871,1.41052 5.85587,1.48098 8.49946,0.12022 4.74741,-2.37798 8.13368,-6.61926 12.17892,-9.93824 2.71954,-2.28686 6.08742,-4.51179 9.81425,-3.99034 4.01525,0.61642 7.11079,3.53731 10.01458,6.1488 3.34669,3.00969 6.48474,6.53944 10.77306,8.20874 2.91164,1.1638 6.22347,0.40876 8.7684,-1.27504 5.44486,-3.42974 9.21954,-9.01923 14.95133,-12.04157 2.60869,-1.41062 5.85585,-1.4811 8.49946,-0.12032 4.74742,2.37792 8.1337,6.61918 12.17892,9.93815 2.71954,2.28689 6.08741,4.51181 9.81425,3.99051 4.01526,-0.61623 7.11081,-3.53705 10.01458,-6.14848 3.34673,-3.00969 6.48478,-6.53941 10.77306,-8.20887 2.91151,-1.1641 6.22341,-0.40901 8.76841,1.27455 5.44498,3.42952 9.21975,9.01882 14.95132,12.04144 2.60856,1.41083 5.85568,1.48191 8.49948,0.12135 4.74754,-2.37724 8.13395,-6.61817 12.1789,-9.93708 2.71969,-2.28694 6.08713,-4.51272 9.81426,-3.99235 4.01496,0.61474 7.11097,3.5344 10.01457,6.1452 3.34724,3.00965 6.48539,6.53905 10.77302,8.21051 2.9105,1.16536 6.2226,0.41479 8.7685,-1.2676 5.44655,-3.42673 9.22241,-9.01373 14.95113,-12.03985 2.607,-1.41246 5.8534,-1.4917 8.49975,-0.13559 4.74892,2.36921 8.13716,6.60521 12.17871,9.92364 2.73253,2.30003 6.12031,4.54254 9.86798,4.0115 4.02854,-0.6276 7.13341,-3.55866 10.04934,-6.17936 3.33872,-3.00011 6.4759,-6.50929 10.75136,-8.17439 2.91686,-1.16421 6.2334,-0.41687 8.7891,1.26131 5.47865,3.43257 9.28088,9.04335 15.04976,12.06152 2.64672,1.42084 5.93398,1.46926 8.60636,0.087 4.87929,-2.45551 8.35302,-6.82915 12.56713,-10.18468 2.74213,-2.25483 6.19447,-4.33543 9.89181,-3.6912 4.10977,0.74965 7.27374,3.74889 10.28723,6.42574 3.38491,3.00122 6.61724,6.49299 10.98051,8.04584 3.12856,1.13619 6.59555,0.20707 9.28703,-1.57373 5.60951,-3.55335 9.65532,-9.18449 15.61537,-12.23178 2.88721,-1.5113 6.43383,-1.60086 9.375,-0.18377 4.83617,2.27687 8.4386,6.36534 12.3047,9.93043 1.68126,1.58141 3.3979,3.13547 5.2734,4.48593 0,-33.33384 0,-66.66767 0,-100.00151 z"
       id="path3699"
       inkscape:connector-curvature="0" />
  </g>
</svg>
